M48
; DRILL file KiCad 10.0.3 date 2026-08-07T23:50:25
; FORMAT={-:-/ absolute / metric / decimal}
; #@! TF.CreationDate,2026-08-07T23:50:25-07:00
; #@! TF.GenerationSoftware,Kicad,Pcbnew,10.0.3
; #@! TF.FileFunction,Plated,1,2,PTH
FMAT,2
METRIC
; #@! TA.AperFunction,Plated,PTH,ViaDrill
T1C0.300
; #@! TA.AperFunction,Plated,PTH,ComponentDrill
T2C0.600
; #@! TA.AperFunction,Plated,PTH,ViaDrill
T3C1.000
; #@! TA.AperFunction,Plated,PTH,ComponentDrill
T4C1.000
; #@! TA.AperFunction,Plated,PTH,ComponentDrill
T5C1.100
; #@! TA.AperFunction,Plated,PTH,ComponentDrill
T6C2.200
; #@! TA.AperFunction,Plated,PTH,ComponentDrill
T7C4.400
%
G90
G05
T1
X74.87Y-83.92
X75.06Y-78.45
X75.1Y-110.9
X75.4Y-57.35
X75.5Y-73.35
X75.5Y-89.55
X75.5Y-103.45
X75.57Y-62.03
X75.6Y-51.2
X75.7Y-131.65
X75.8Y-94.15
X75.85Y-59.6
X76.3Y-115.05
X76.4Y-81.2
X76.55Y-68.65
X76.95Y-124.4
X77.2Y-101.3
X78.91Y-81.99
X78.99Y-51.43
X79.16Y-58.88
X79.4Y-72.15
X81.25Y-93.85
X81.47Y-103.25
X82.05Y-80.75
X82.07Y-132.91
X82.35Y-68.1
X82.5Y-60.05
X82.75Y-115.5
X82.85Y-72.35
X82.95Y-122.4
X83.4Y-50.95
X83.7Y-82.75
X83.75Y-102.0
X84.0Y-58.45
X84.15Y-61.55
X84.25Y-90.75
X84.4Y-79.0
X84.42Y-104.76
X84.91Y-124.94
X85.25Y-111.75
X85.35Y-132.5
X85.75Y-68.25
X85.85Y-51.36
X86.46Y-70.72
X87.98Y-115.83
X88.12Y-110.95
X88.16Y-68.95
X88.27Y-89.84
X88.75Y-124.0
X93.35Y-129.79
X93.63Y-133.5
X94.75Y-83.75
X95.2Y-94.05
X95.7Y-92.0
X96.05Y-67.25
X96.25Y-99.25
X96.5Y-111.85
X99.05Y-125.6
X99.35Y-110.0
X99.5Y-97.0
X100.2Y-86.4
X101.25Y-100.0
X102.2Y-117.34
X102.97Y-127.55
X103.8Y-84.6
X103.92Y-132.69
X103.95Y-102.35
X104.0Y-125.25
X104.05Y-97.0
X104.6Y-129.8
X106.0Y-117.34
X107.0Y-83.2
X108.75Y-95.0
X108.75Y-101.75
X110.8Y-98.35
X110.85Y-92.15
X113.31Y-78.51
X118.54Y-133.69
X118.96Y-127.35
X119.13Y-124.88
X119.35Y-131.3
X120.55Y-81.4
X121.0Y-126.0
X121.15Y-114.95
X121.24Y-132.82
X123.25Y-116.0
X124.08Y-126.58
X124.55Y-85.3
X124.9Y-88.0
X125.51Y-133.71
X126.6Y-80.4
X126.85Y-116.55
X127.6Y-89.4
X128.38Y-124.38
X129.8Y-132.45
X130.2Y-129.36
X130.5Y-125.5
X133.07Y-124.21
X134.98Y-121.84
X135.03Y-52.75
X135.5Y-124.0
X137.0Y-55.33
X138.36Y-122.81
X138.4Y-121.55
X140.48Y-72.12
X141.78Y-116.78
X142.5Y-87.8
X142.75Y-72.5
X143.21Y-73.83
X143.27Y-109.14
X146.7Y-111.95
X146.9Y-67.05
X147.03Y-63.4
X147.25Y-124.63
X147.45Y-80.5
X147.55Y-95.3
X147.6Y-110.1
X147.75Y-65.5
X148.87Y-101.71
X149.02Y-132.18
X149.46Y-109.54
X149.73Y-120.84
X149.8Y-50.79
X150.0Y-130.75
X150.5Y-125.0
X150.65Y-74.4
X150.95Y-128.25
X151.0Y-52.25
X151.1Y-102.0
X151.15Y-87.2
X151.16Y-104.57
X151.45Y-54.6
X151.5Y-71.25
X151.5Y-122.25
X152.08Y-133.05
X152.65Y-50.15
X154.59Y-120.77
X154.75Y-124.75
X155.77Y-58.77
X155.99Y-74.15
X156.74Y-103.44
X156.95Y-87.55
X157.5Y-123.0
X157.75Y-73.0
X158.0Y-58.25
X158.45Y-102.65
X159.11Y-116.68
X159.14Y-125.4
X159.18Y-59.63
X159.24Y-88.29
X159.58Y-119.38
T3
X93.6Y-113.0
X94.2Y-79.4
X98.6Y-56.8
X99.6Y-80.4
X100.8Y-91.8
X102.2Y-56.2
X103.4Y-59.6
X104.6Y-98.11
X105.4Y-58.4
X109.4Y-55.955
X112.0Y-55.8
X115.4Y-116.2
X116.0Y-67.6
X117.6Y-67.6
X119.2Y-67.6
X119.6Y-60.0
X120.8Y-67.6
X129.4Y-121.6
X131.4Y-121.6
X134.2Y-72.8
X135.8Y-72.8
X135.8Y-87.6
X136.4Y-62.2
X137.4Y-87.6
X138.4Y-62.2
X140.2Y-62.2
X144.8Y-63.8
X145.0Y-65.4
T4
X95.75Y-51.25
X95.75Y-53.79
X100.25Y-51.25
X100.25Y-53.79
X104.75Y-51.25
X104.75Y-53.79
X109.25Y-51.225
X109.25Y-53.765
X113.75Y-51.225
X113.75Y-53.765
X118.25Y-51.225
X118.25Y-53.765
X147.5Y-61.0
X147.5Y-70.0
X147.5Y-76.0
X147.5Y-85.0
X147.5Y-91.0
X147.5Y-100.0
X147.5Y-106.0
X147.5Y-115.0
T5
X124.75Y-52.7
X127.29Y-52.7
X129.83Y-52.7
X140.71Y-52.7
X143.25Y-52.7
X145.79Y-52.7
X157.55Y-63.42
X157.55Y-65.96
X157.55Y-68.5
X157.55Y-78.0
X157.55Y-80.54
X157.55Y-83.08
X157.55Y-92.5
X157.55Y-95.04
X157.55Y-97.58
X157.55Y-107.46
X157.55Y-110.0
X157.55Y-112.54
T6
X79.92Y-54.92
X79.92Y-65.08
X79.92Y-76.42
X79.92Y-86.58
X79.92Y-97.42
X79.92Y-107.58
X79.965Y-118.84
X79.965Y-129.0
X90.08Y-54.92
X90.08Y-65.08
X90.08Y-76.42
X90.08Y-86.58
X90.08Y-97.42
X90.08Y-107.58
X90.125Y-118.84
X90.125Y-129.0
T7
X135.65Y-130.25
X142.85Y-130.25
T2
G00X107.68Y-128.57
M15
G01X107.68Y-129.67
M16
G05
G00X107.68Y-133.0
M15
G01X107.68Y-133.6
M16
G05
G00X116.32Y-128.57
M15
G01X116.32Y-129.67
M16
G05
G00X116.32Y-133.0
M15
G01X116.32Y-133.6
M16
G05
M30
