%TF.GenerationSoftware,KiCad,Pcbnew,10.0.3*%
%TF.CreationDate,2026-08-07T23:50:32-07:00*%
%TF.ProjectId,Laser Rifle,4c617365-7220-4526-9966-6c652e6b6963,rev?*%
%TF.SameCoordinates,Original*%
%TF.FileFunction,Soldermask,Bot*%
%TF.FilePolarity,Negative*%
%FSLAX46Y46*%
G04 Gerber Fmt 4.6, Leading zero omitted, Abs format (unit mm)*
G04 Created by KiCad (PCBNEW 10.0.3) date 2026-08-07 23:50:32*
%MOMM*%
%LPD*%
G01*
G04 APERTURE LIST*
%ADD10C,3.300000*%
%ADD11C,2.000000*%
%ADD12R,2.000000X1.905000*%
%ADD13O,2.000000X1.905000*%
%ADD14R,1.905000X2.000000*%
%ADD15O,1.905000X2.000000*%
%ADD16R,1.700000X1.700000*%
%ADD17C,1.700000*%
%ADD18C,0.650000*%
%ADD19O,1.000000X2.100000*%
%ADD20O,1.000000X1.600000*%
%ADD21C,3.200000*%
%ADD22C,5.800000*%
G04 APERTURE END LIST*
D10*
%TO.C,J7*%
X90080000Y-97420000D03*
X79920000Y-97420000D03*
X90080000Y-107580000D03*
X79920000Y-107580000D03*
%TD*%
D11*
%TO.C,R11*%
X147500000Y-85000000D03*
X147500000Y-76000000D03*
%TD*%
D12*
%TO.C,U6*%
X157550000Y-78000000D03*
D13*
X157550000Y-80540000D03*
X157550000Y-83080000D03*
%TD*%
D14*
%TO.C,U11*%
X140710000Y-52700000D03*
D15*
X143250000Y-52700000D03*
X145790000Y-52700000D03*
%TD*%
D10*
%TO.C,J5*%
X90080000Y-54920000D03*
X79920000Y-54920000D03*
X90080000Y-65080000D03*
X79920000Y-65080000D03*
%TD*%
D16*
%TO.C,J4*%
X100250000Y-51250000D03*
D17*
X100250000Y-53790000D03*
%TD*%
D14*
%TO.C,U10*%
X124750000Y-52700000D03*
D15*
X127290000Y-52700000D03*
X129830000Y-52700000D03*
%TD*%
D16*
%TO.C,J9*%
X104750000Y-51250000D03*
D17*
X104750000Y-53790000D03*
%TD*%
D16*
%TO.C,SW4*%
X113750000Y-51225000D03*
D17*
X113750000Y-53765000D03*
%TD*%
D16*
%TO.C,J2*%
X118250000Y-51225000D03*
D17*
X118250000Y-53765000D03*
%TD*%
D11*
%TO.C,R13*%
X147500000Y-115000000D03*
X147500000Y-106000000D03*
%TD*%
D18*
%TO.C,J10*%
X109110000Y-129650000D03*
X114890000Y-129650000D03*
D19*
X107680000Y-129120000D03*
D20*
X107680000Y-133300000D03*
D19*
X116320000Y-129120000D03*
D20*
X116320000Y-133300000D03*
%TD*%
D12*
%TO.C,U9*%
X157550000Y-107460000D03*
D13*
X157550000Y-110000000D03*
X157550000Y-112540000D03*
%TD*%
D21*
%TO.C,H4*%
X156000000Y-130000000D03*
%TD*%
D12*
%TO.C,U7*%
X157550000Y-92500000D03*
D13*
X157550000Y-95040000D03*
X157550000Y-97580000D03*
%TD*%
D11*
%TO.C,R10*%
X147500000Y-70000000D03*
X147500000Y-61000000D03*
%TD*%
%TO.C,R12*%
X147500000Y-100000000D03*
X147500000Y-91000000D03*
%TD*%
D12*
%TO.C,U5*%
X157550000Y-63420000D03*
D13*
X157550000Y-65960000D03*
X157550000Y-68500000D03*
%TD*%
D16*
%TO.C,J3*%
X95750000Y-51250000D03*
D17*
X95750000Y-53790000D03*
%TD*%
D10*
%TO.C,J6*%
X90080000Y-76420000D03*
X79920000Y-76420000D03*
X90080000Y-86580000D03*
X79920000Y-86580000D03*
%TD*%
D22*
%TO.C,U8*%
X142850000Y-130250000D03*
X135650000Y-130250000D03*
%TD*%
D21*
%TO.C,H1*%
X156000000Y-54000000D03*
%TD*%
D16*
%TO.C,SW3*%
X109250000Y-51225000D03*
D17*
X109250000Y-53765000D03*
%TD*%
D10*
%TO.C,J8*%
X90125000Y-118840000D03*
X79965000Y-118840000D03*
X90125000Y-129000000D03*
X79965000Y-129000000D03*
%TD*%
M02*
