%TF.GenerationSoftware,KiCad,Pcbnew,10.0.3*%
%TF.CreationDate,2026-08-07T23:50:31-07:00*%
%TF.ProjectId,Laser Rifle,4c617365-7220-4526-9966-6c652e6b6963,rev?*%
%TF.SameCoordinates,Original*%
%TF.FileFunction,Legend,Top*%
%TF.FilePolarity,Positive*%
%FSLAX46Y46*%
G04 Gerber Fmt 4.6, Leading zero omitted, Abs format (unit mm)*
G04 Created by KiCad (PCBNEW 10.0.3) date 2026-08-07 23:50:31*
%MOMM*%
%LPD*%
G01*
G04 APERTURE LIST*
%ADD10C,0.100000*%
%ADD11C,0.250000*%
%ADD12C,0.150000*%
%ADD13C,0.120000*%
%ADD14C,0.060000*%
%ADD15C,0.000000*%
G04 APERTURE END LIST*
D10*
G36*
X93412896Y-55081751D02*
G01*
X93412896Y-54644068D01*
X93447578Y-54644068D01*
X93526202Y-54647422D01*
X93595688Y-54656977D01*
X93657077Y-54672095D01*
X93711320Y-54694116D01*
X93763812Y-54724660D01*
X93814919Y-54764419D01*
X93874631Y-54826963D01*
X93920213Y-54894682D01*
X93952777Y-54968337D01*
X93972687Y-55049073D01*
X93979539Y-55138354D01*
X93973025Y-55225231D01*
X93953931Y-55305561D01*
X93922441Y-55380525D01*
X93878094Y-55451066D01*
X93819804Y-55517847D01*
X93752204Y-55575325D01*
X93680707Y-55619161D01*
X93604642Y-55650349D01*
X93523067Y-55669286D01*
X93434816Y-55675750D01*
X93344575Y-55669130D01*
X93261669Y-55649787D01*
X93184848Y-55618010D01*
X93113107Y-55573444D01*
X93045737Y-55515099D01*
X92987513Y-55447398D01*
X92943014Y-55375297D01*
X92911272Y-55298084D01*
X92891945Y-55214756D01*
X92885331Y-55124066D01*
X92891012Y-55042728D01*
X92907783Y-54966000D01*
X92935584Y-54893012D01*
X92973891Y-54828122D01*
X93027414Y-54761087D01*
X93098616Y-54691390D01*
X93208220Y-54805268D01*
X93142654Y-54862280D01*
X93094199Y-54921703D01*
X93060623Y-54984031D01*
X93040605Y-55050196D01*
X93033831Y-55121502D01*
X93038637Y-55187477D01*
X93052640Y-55247678D01*
X93075567Y-55303058D01*
X93107623Y-55354385D01*
X93149480Y-55402198D01*
X93209688Y-55451664D01*
X93276253Y-55486722D01*
X93350470Y-55508128D01*
X93434145Y-55515526D01*
X93503699Y-55510253D01*
X93566553Y-55494940D01*
X93623840Y-55469919D01*
X93676448Y-55434941D01*
X93724977Y-55389192D01*
X93772777Y-55326701D01*
X93805473Y-55263779D01*
X93824654Y-55199603D01*
X93831039Y-55133103D01*
X93826107Y-55075868D01*
X93811509Y-55022147D01*
X93787086Y-54971082D01*
X93752088Y-54922016D01*
X93709072Y-54879427D01*
X93663387Y-54848525D01*
X93614463Y-54828081D01*
X93561395Y-54817602D01*
X93561395Y-55081751D01*
X93412896Y-55081751D01*
G37*
G36*
X93960000Y-54445743D02*
G01*
X92833124Y-54445743D01*
X93638148Y-53675889D01*
X92904870Y-53675889D01*
X92904870Y-53518658D01*
X94024235Y-53518658D01*
X93221287Y-54288511D01*
X93960000Y-54288511D01*
X93960000Y-54445743D01*
G37*
G36*
X93528631Y-52455046D02*
G01*
X93614591Y-52475878D01*
X93691999Y-52509730D01*
X93762183Y-52556812D01*
X93826032Y-52618135D01*
X93872135Y-52677614D01*
X93906637Y-52737202D01*
X93930629Y-52797348D01*
X93945658Y-52856737D01*
X93956062Y-52937766D01*
X93960000Y-53045682D01*
X93960000Y-53264584D01*
X92904870Y-53264584D01*
X92904870Y-53042995D01*
X92905173Y-53035179D01*
X93053370Y-53035179D01*
X93053370Y-53107353D01*
X93811500Y-53107353D01*
X93811500Y-53035179D01*
X93805293Y-52931976D01*
X93788907Y-52855661D01*
X93757999Y-52787818D01*
X93712826Y-52726334D01*
X93667253Y-52683825D01*
X93617206Y-52651121D01*
X93562053Y-52627575D01*
X93500870Y-52613077D01*
X93432496Y-52608060D01*
X93363416Y-52613040D01*
X93301673Y-52627420D01*
X93246102Y-52650739D01*
X93195770Y-52683066D01*
X93150029Y-52724991D01*
X93117224Y-52767881D01*
X93090728Y-52818875D01*
X93070748Y-52879290D01*
X93057939Y-52950762D01*
X93053370Y-53035179D01*
X92905173Y-53035179D01*
X92909005Y-52936196D01*
X92920070Y-52853750D01*
X92936317Y-52791242D01*
X92961387Y-52727566D01*
X92996049Y-52667759D01*
X93040914Y-52611296D01*
X93103887Y-52552719D01*
X93173407Y-52507546D01*
X93250395Y-52474941D01*
X93336181Y-52454815D01*
X93432435Y-52447836D01*
X93528631Y-52455046D01*
G37*
G36*
X93093370Y-51770935D02*
G01*
X93093370Y-51953445D01*
X92944870Y-51865945D01*
X92944870Y-51613703D01*
X94000000Y-51613703D01*
X94000000Y-51770935D01*
X93093370Y-51770935D01*
G37*
G36*
X93851500Y-51046449D02*
G01*
X93851500Y-50654256D01*
X94000000Y-50654256D01*
X94000000Y-51362255D01*
X93555844Y-50995830D01*
X93440867Y-50905277D01*
X93359412Y-50849590D01*
X93315214Y-50826729D01*
X93277083Y-50814374D01*
X93243763Y-50810572D01*
X93196713Y-50816465D01*
X93155959Y-50833625D01*
X93119931Y-50862534D01*
X93092255Y-50899719D01*
X93075655Y-50942040D01*
X93069923Y-50991067D01*
X93075310Y-51041079D01*
X93090420Y-51081422D01*
X93114773Y-51114258D01*
X93149379Y-51140803D01*
X93196588Y-51161148D01*
X93259822Y-51174249D01*
X93259822Y-51332885D01*
X93174472Y-51317463D01*
X93105432Y-51293918D01*
X93049976Y-51263312D01*
X93005922Y-51226043D01*
X92971749Y-51181813D01*
X92946719Y-51129648D01*
X92930934Y-51067986D01*
X92925331Y-50994792D01*
X92931341Y-50923853D01*
X92948741Y-50860642D01*
X92977202Y-50803734D01*
X93017227Y-50752076D01*
X93066370Y-50708533D01*
X93119940Y-50678067D01*
X93178933Y-50659659D01*
X93244801Y-50653340D01*
X93301275Y-50658324D01*
X93357463Y-50673442D01*
X93414122Y-50699380D01*
X93458614Y-50726361D01*
X93516643Y-50767768D01*
X93656777Y-50881524D01*
X93851500Y-51046449D01*
G37*
G36*
X92944870Y-50353349D02*
G01*
X93675889Y-50061418D01*
X92944870Y-49765457D01*
X92944870Y-49591128D01*
X94078951Y-50064837D01*
X92944870Y-50527616D01*
X92944870Y-50353349D01*
G37*
G36*
X97932896Y-55011751D02*
G01*
X97932896Y-54574068D01*
X97967578Y-54574068D01*
X98046202Y-54577422D01*
X98115688Y-54586977D01*
X98177077Y-54602095D01*
X98231320Y-54624116D01*
X98283812Y-54654660D01*
X98334919Y-54694419D01*
X98394631Y-54756963D01*
X98440213Y-54824682D01*
X98472777Y-54898337D01*
X98492687Y-54979073D01*
X98499539Y-55068354D01*
X98493025Y-55155231D01*
X98473931Y-55235561D01*
X98442441Y-55310525D01*
X98398094Y-55381066D01*
X98339804Y-55447847D01*
X98272204Y-55505325D01*
X98200707Y-55549161D01*
X98124642Y-55580349D01*
X98043067Y-55599286D01*
X97954816Y-55605750D01*
X97864575Y-55599130D01*
X97781669Y-55579787D01*
X97704848Y-55548010D01*
X97633107Y-55503444D01*
X97565737Y-55445099D01*
X97507513Y-55377398D01*
X97463014Y-55305297D01*
X97431272Y-55228084D01*
X97411945Y-55144756D01*
X97405331Y-55054066D01*
X97411012Y-54972728D01*
X97427783Y-54896000D01*
X97455584Y-54823012D01*
X97493891Y-54758122D01*
X97547414Y-54691087D01*
X97618616Y-54621390D01*
X97728220Y-54735268D01*
X97662654Y-54792280D01*
X97614199Y-54851703D01*
X97580623Y-54914031D01*
X97560605Y-54980196D01*
X97553831Y-55051502D01*
X97558637Y-55117477D01*
X97572640Y-55177678D01*
X97595567Y-55233058D01*
X97627623Y-55284385D01*
X97669480Y-55332198D01*
X97729688Y-55381664D01*
X97796253Y-55416722D01*
X97870470Y-55438128D01*
X97954145Y-55445526D01*
X98023699Y-55440253D01*
X98086553Y-55424940D01*
X98143840Y-55399919D01*
X98196448Y-55364941D01*
X98244977Y-55319192D01*
X98292777Y-55256701D01*
X98325473Y-55193779D01*
X98344654Y-55129603D01*
X98351039Y-55063103D01*
X98346107Y-55005868D01*
X98331509Y-54952147D01*
X98307086Y-54901082D01*
X98272088Y-54852016D01*
X98229072Y-54809427D01*
X98183387Y-54778525D01*
X98134463Y-54758081D01*
X98081395Y-54747602D01*
X98081395Y-55011751D01*
X97932896Y-55011751D01*
G37*
G36*
X98480000Y-54375743D02*
G01*
X97353124Y-54375743D01*
X98158148Y-53605889D01*
X97424870Y-53605889D01*
X97424870Y-53448658D01*
X98544235Y-53448658D01*
X97741287Y-54218511D01*
X98480000Y-54218511D01*
X98480000Y-54375743D01*
G37*
G36*
X98048631Y-52385046D02*
G01*
X98134591Y-52405878D01*
X98211999Y-52439730D01*
X98282183Y-52486812D01*
X98346032Y-52548135D01*
X98392135Y-52607614D01*
X98426637Y-52667202D01*
X98450629Y-52727348D01*
X98465658Y-52786737D01*
X98476062Y-52867766D01*
X98480000Y-52975682D01*
X98480000Y-53194584D01*
X97424870Y-53194584D01*
X97424870Y-52972995D01*
X97425173Y-52965179D01*
X97573370Y-52965179D01*
X97573370Y-53037353D01*
X98331500Y-53037353D01*
X98331500Y-52965179D01*
X98325293Y-52861976D01*
X98308907Y-52785661D01*
X98277999Y-52717818D01*
X98232826Y-52656334D01*
X98187253Y-52613825D01*
X98137206Y-52581121D01*
X98082053Y-52557575D01*
X98020870Y-52543077D01*
X97952496Y-52538060D01*
X97883416Y-52543040D01*
X97821673Y-52557420D01*
X97766102Y-52580739D01*
X97715770Y-52613066D01*
X97670029Y-52654991D01*
X97637224Y-52697881D01*
X97610728Y-52748875D01*
X97590748Y-52809290D01*
X97577939Y-52880762D01*
X97573370Y-52965179D01*
X97425173Y-52965179D01*
X97429005Y-52866196D01*
X97440070Y-52783750D01*
X97456317Y-52721242D01*
X97481387Y-52657566D01*
X97516049Y-52597759D01*
X97560914Y-52541296D01*
X97623887Y-52482719D01*
X97693407Y-52437546D01*
X97770395Y-52404941D01*
X97856181Y-52384815D01*
X97952435Y-52377836D01*
X98048631Y-52385046D01*
G37*
G36*
X97613370Y-51700935D02*
G01*
X97613370Y-51883445D01*
X97464870Y-51795945D01*
X97464870Y-51543703D01*
X98520000Y-51543703D01*
X98520000Y-51700935D01*
X97613370Y-51700935D01*
G37*
G36*
X98371500Y-50976449D02*
G01*
X98371500Y-50584256D01*
X98520000Y-50584256D01*
X98520000Y-51292255D01*
X98075844Y-50925830D01*
X97960867Y-50835277D01*
X97879412Y-50779590D01*
X97835214Y-50756729D01*
X97797083Y-50744374D01*
X97763763Y-50740572D01*
X97716713Y-50746465D01*
X97675959Y-50763625D01*
X97639931Y-50792534D01*
X97612255Y-50829719D01*
X97595655Y-50872040D01*
X97589923Y-50921067D01*
X97595310Y-50971079D01*
X97610420Y-51011422D01*
X97634773Y-51044258D01*
X97669379Y-51070803D01*
X97716588Y-51091148D01*
X97779822Y-51104249D01*
X97779822Y-51262885D01*
X97694472Y-51247463D01*
X97625432Y-51223918D01*
X97569976Y-51193312D01*
X97525922Y-51156043D01*
X97491749Y-51111813D01*
X97466719Y-51059648D01*
X97450934Y-50997986D01*
X97445331Y-50924792D01*
X97451341Y-50853853D01*
X97468741Y-50790642D01*
X97497202Y-50733734D01*
X97537227Y-50682076D01*
X97586370Y-50638533D01*
X97639940Y-50608067D01*
X97698933Y-50589659D01*
X97764801Y-50583340D01*
X97821275Y-50588324D01*
X97877463Y-50603442D01*
X97934122Y-50629380D01*
X97978614Y-50656361D01*
X98036643Y-50697768D01*
X98176777Y-50811524D01*
X98371500Y-50976449D01*
G37*
G36*
X97464870Y-50283349D02*
G01*
X98195889Y-49991418D01*
X97464870Y-49695457D01*
X97464870Y-49521128D01*
X98598951Y-49994837D01*
X97464870Y-50457616D01*
X97464870Y-50283349D01*
G37*
G36*
X102728159Y-50974367D02*
G01*
X102782287Y-50990686D01*
X102831629Y-51017673D01*
X102877065Y-51056147D01*
X102909015Y-51093252D01*
X102933201Y-51132508D01*
X102950216Y-51174300D01*
X102964554Y-51250631D01*
X102970000Y-51353879D01*
X102970000Y-51594947D01*
X101914870Y-51594947D01*
X101914870Y-51436495D01*
X101917412Y-51381540D01*
X102059462Y-51381540D01*
X102059462Y-51437716D01*
X102368185Y-51437716D01*
X102368185Y-51387768D01*
X102365426Y-51356688D01*
X102501053Y-51356688D01*
X102501053Y-51437716D01*
X102821500Y-51437716D01*
X102821500Y-51338859D01*
X102815858Y-51267494D01*
X102800989Y-51216015D01*
X102778941Y-51179551D01*
X102745300Y-51149639D01*
X102706969Y-51132036D01*
X102662315Y-51126001D01*
X102618819Y-51131770D01*
X102580862Y-51148679D01*
X102546971Y-51177475D01*
X102523763Y-51214178D01*
X102507461Y-51271266D01*
X102501053Y-51356688D01*
X102365426Y-51356688D01*
X102363026Y-51329644D01*
X102349327Y-51287486D01*
X102328679Y-51257342D01*
X102299712Y-51235161D01*
X102261755Y-51221042D01*
X102212053Y-51215882D01*
X102163903Y-51221111D01*
X102126853Y-51235501D01*
X102098297Y-51258319D01*
X102077668Y-51288893D01*
X102064354Y-51329028D01*
X102059462Y-51381540D01*
X101917412Y-51381540D01*
X101919521Y-51335959D01*
X101931296Y-51267723D01*
X101953716Y-51208379D01*
X101986678Y-51160500D01*
X102031401Y-51121066D01*
X102087123Y-51090158D01*
X102148780Y-51070040D01*
X102210160Y-51063475D01*
X102264926Y-51068985D01*
X102314459Y-51085130D01*
X102359968Y-51112068D01*
X102402257Y-51150914D01*
X102426371Y-51098337D01*
X102459617Y-51054420D01*
X102502641Y-51018046D01*
X102552024Y-50990912D01*
X102606697Y-50974441D01*
X102667993Y-50968770D01*
X102728159Y-50974367D01*
G37*
G36*
X102485422Y-50826071D02*
G01*
X102356461Y-50826071D01*
X102356461Y-50525163D01*
X102059462Y-50525163D01*
X102059462Y-50400111D01*
X102356461Y-50400111D01*
X102356461Y-50099204D01*
X102485422Y-50099204D01*
X102485422Y-50400111D01*
X102778513Y-50400111D01*
X102778513Y-50525163D01*
X102485422Y-50525163D01*
X102485422Y-50826071D01*
G37*
G36*
X102442896Y-55061751D02*
G01*
X102442896Y-54624068D01*
X102477578Y-54624068D01*
X102556202Y-54627422D01*
X102625688Y-54636977D01*
X102687077Y-54652095D01*
X102741320Y-54674116D01*
X102793812Y-54704660D01*
X102844919Y-54744419D01*
X102904631Y-54806963D01*
X102950213Y-54874682D01*
X102982777Y-54948337D01*
X103002687Y-55029073D01*
X103009539Y-55118354D01*
X103003025Y-55205231D01*
X102983931Y-55285561D01*
X102952441Y-55360525D01*
X102908094Y-55431066D01*
X102849804Y-55497847D01*
X102782204Y-55555325D01*
X102710707Y-55599161D01*
X102634642Y-55630349D01*
X102553067Y-55649286D01*
X102464816Y-55655750D01*
X102374575Y-55649130D01*
X102291669Y-55629787D01*
X102214848Y-55598010D01*
X102143107Y-55553444D01*
X102075737Y-55495099D01*
X102017513Y-55427398D01*
X101973014Y-55355297D01*
X101941272Y-55278084D01*
X101921945Y-55194756D01*
X101915331Y-55104066D01*
X101921012Y-55022728D01*
X101937783Y-54946000D01*
X101965584Y-54873012D01*
X102003891Y-54808122D01*
X102057414Y-54741087D01*
X102128616Y-54671390D01*
X102238220Y-54785268D01*
X102172654Y-54842280D01*
X102124199Y-54901703D01*
X102090623Y-54964031D01*
X102070605Y-55030196D01*
X102063831Y-55101502D01*
X102068637Y-55167477D01*
X102082640Y-55227678D01*
X102105567Y-55283058D01*
X102137623Y-55334385D01*
X102179480Y-55382198D01*
X102239688Y-55431664D01*
X102306253Y-55466722D01*
X102380470Y-55488128D01*
X102464145Y-55495526D01*
X102533699Y-55490253D01*
X102596553Y-55474940D01*
X102653840Y-55449919D01*
X102706448Y-55414941D01*
X102754977Y-55369192D01*
X102802777Y-55306701D01*
X102835473Y-55243779D01*
X102854654Y-55179603D01*
X102861039Y-55113103D01*
X102856107Y-55055868D01*
X102841509Y-55002147D01*
X102817086Y-54951082D01*
X102782088Y-54902016D01*
X102739072Y-54859427D01*
X102693387Y-54828525D01*
X102644463Y-54808081D01*
X102591395Y-54797602D01*
X102591395Y-55061751D01*
X102442896Y-55061751D01*
G37*
G36*
X102990000Y-54425743D02*
G01*
X101863124Y-54425743D01*
X102668148Y-53655889D01*
X101934870Y-53655889D01*
X101934870Y-53498658D01*
X103054235Y-53498658D01*
X102251287Y-54268511D01*
X102990000Y-54268511D01*
X102990000Y-54425743D01*
G37*
G36*
X102558631Y-52435046D02*
G01*
X102644591Y-52455878D01*
X102721999Y-52489730D01*
X102792183Y-52536812D01*
X102856032Y-52598135D01*
X102902135Y-52657614D01*
X102936637Y-52717202D01*
X102960629Y-52777348D01*
X102975658Y-52836737D01*
X102986062Y-52917766D01*
X102990000Y-53025682D01*
X102990000Y-53244584D01*
X101934870Y-53244584D01*
X101934870Y-53022995D01*
X101935173Y-53015179D01*
X102083370Y-53015179D01*
X102083370Y-53087353D01*
X102841500Y-53087353D01*
X102841500Y-53015179D01*
X102835293Y-52911976D01*
X102818907Y-52835661D01*
X102787999Y-52767818D01*
X102742826Y-52706334D01*
X102697253Y-52663825D01*
X102647206Y-52631121D01*
X102592053Y-52607575D01*
X102530870Y-52593077D01*
X102462496Y-52588060D01*
X102393416Y-52593040D01*
X102331673Y-52607420D01*
X102276102Y-52630739D01*
X102225770Y-52663066D01*
X102180029Y-52704991D01*
X102147224Y-52747881D01*
X102120728Y-52798875D01*
X102100748Y-52859290D01*
X102087939Y-52930762D01*
X102083370Y-53015179D01*
X101935173Y-53015179D01*
X101939005Y-52916196D01*
X101950070Y-52833750D01*
X101966317Y-52771242D01*
X101991387Y-52707566D01*
X102026049Y-52647759D01*
X102070914Y-52591296D01*
X102133887Y-52532719D01*
X102203407Y-52487546D01*
X102280395Y-52454941D01*
X102366181Y-52434815D01*
X102462435Y-52427836D01*
X102558631Y-52435046D01*
G37*
G36*
X106613370Y-55104848D02*
G01*
X107518046Y-55104848D01*
X107518046Y-55262079D01*
X106613370Y-55262079D01*
X106613370Y-55504368D01*
X106464870Y-55504368D01*
X106464870Y-54859567D01*
X106613370Y-54859567D01*
X106613370Y-55104848D01*
G37*
G36*
X107521953Y-54232962D02*
G01*
X107090132Y-54534052D01*
X107090132Y-54562629D01*
X107521953Y-54562629D01*
X107521953Y-54719860D01*
X106468778Y-54719860D01*
X106468778Y-54533625D01*
X106470340Y-54506147D01*
X106617278Y-54506147D01*
X106617278Y-54562629D01*
X106952135Y-54562629D01*
X106952135Y-54512315D01*
X106945948Y-54435138D01*
X106929546Y-54378879D01*
X106905072Y-54338548D01*
X106872983Y-54310572D01*
X106831972Y-54293239D01*
X106779211Y-54287001D01*
X106730247Y-54292949D01*
X106691999Y-54309541D01*
X106661874Y-54336491D01*
X106638747Y-54375613D01*
X106623170Y-54430514D01*
X106617278Y-54506147D01*
X106470340Y-54506147D01*
X106474890Y-54426125D01*
X106491342Y-54343063D01*
X106515900Y-54279693D01*
X106547241Y-54232046D01*
X106594371Y-54187318D01*
X106647585Y-54155765D01*
X106708116Y-54136475D01*
X106777807Y-54129769D01*
X106850076Y-54137171D01*
X106913559Y-54158619D01*
X106970148Y-54194066D01*
X107017227Y-54241287D01*
X107051341Y-54297231D01*
X107073096Y-54363571D01*
X107521953Y-54036774D01*
X107521953Y-54232962D01*
G37*
G36*
X106464870Y-53720479D02*
G01*
X107520000Y-53720479D01*
X107520000Y-53877711D01*
X106464870Y-53877711D01*
X106464870Y-53720479D01*
G37*
G36*
X106972896Y-52922233D02*
G01*
X106972896Y-52484549D01*
X107007578Y-52484549D01*
X107086202Y-52487904D01*
X107155688Y-52497459D01*
X107217077Y-52512576D01*
X107271320Y-52534598D01*
X107323812Y-52565141D01*
X107374919Y-52604900D01*
X107434631Y-52667444D01*
X107480213Y-52735164D01*
X107512777Y-52808818D01*
X107532687Y-52889554D01*
X107539539Y-52978836D01*
X107533025Y-53065713D01*
X107513931Y-53146043D01*
X107482441Y-53221006D01*
X107438094Y-53291548D01*
X107379804Y-53358328D01*
X107312204Y-53415806D01*
X107240707Y-53459642D01*
X107164642Y-53490830D01*
X107083067Y-53509767D01*
X106994816Y-53516231D01*
X106904575Y-53509611D01*
X106821669Y-53490268D01*
X106744848Y-53458492D01*
X106673107Y-53413925D01*
X106605737Y-53355580D01*
X106547513Y-53287879D01*
X106503014Y-53215778D01*
X106471272Y-53138566D01*
X106451945Y-53055238D01*
X106445331Y-52964548D01*
X106451012Y-52883209D01*
X106467783Y-52806482D01*
X106495584Y-52733494D01*
X106533891Y-52668603D01*
X106587414Y-52601569D01*
X106658616Y-52531871D01*
X106768220Y-52645750D01*
X106702654Y-52702762D01*
X106654199Y-52762184D01*
X106620623Y-52824512D01*
X106600605Y-52890677D01*
X106593831Y-52961983D01*
X106598637Y-53027959D01*
X106612640Y-53088159D01*
X106635567Y-53143539D01*
X106667623Y-53194866D01*
X106709480Y-53242679D01*
X106769688Y-53292146D01*
X106836253Y-53327204D01*
X106910470Y-53348609D01*
X106994145Y-53356008D01*
X107063699Y-53350734D01*
X107126553Y-53335421D01*
X107183840Y-53310400D01*
X107236448Y-53275422D01*
X107284977Y-53229673D01*
X107332777Y-53167183D01*
X107365473Y-53104260D01*
X107384654Y-53040085D01*
X107391039Y-52973585D01*
X107386107Y-52916350D01*
X107371509Y-52862628D01*
X107347086Y-52811563D01*
X107312088Y-52762498D01*
X107269072Y-52719909D01*
X107223387Y-52689007D01*
X107174463Y-52668563D01*
X107121395Y-52658084D01*
X107121395Y-52922233D01*
X106972896Y-52922233D01*
G37*
G36*
X106972896Y-51743028D02*
G01*
X106972896Y-51305345D01*
X107007578Y-51305345D01*
X107086202Y-51308699D01*
X107155688Y-51318254D01*
X107217077Y-51333372D01*
X107271320Y-51355394D01*
X107323812Y-51385937D01*
X107374919Y-51425696D01*
X107434631Y-51488240D01*
X107480213Y-51555959D01*
X107512777Y-51629614D01*
X107532687Y-51710350D01*
X107539539Y-51799631D01*
X107533025Y-51886508D01*
X107513931Y-51966838D01*
X107482441Y-52041802D01*
X107438094Y-52112343D01*
X107379804Y-52179124D01*
X107312204Y-52236602D01*
X107240707Y-52280438D01*
X107164642Y-52311626D01*
X107083067Y-52330563D01*
X106994816Y-52337027D01*
X106904575Y-52330407D01*
X106821669Y-52311064D01*
X106744848Y-52279287D01*
X106673107Y-52234721D01*
X106605737Y-52176376D01*
X106547513Y-52108675D01*
X106503014Y-52036574D01*
X106471272Y-51959361D01*
X106451945Y-51876033D01*
X106445331Y-51785343D01*
X106451012Y-51704005D01*
X106467783Y-51627277D01*
X106495584Y-51554289D01*
X106533891Y-51489399D01*
X106587414Y-51422364D01*
X106658616Y-51352667D01*
X106768220Y-51466545D01*
X106702654Y-51523557D01*
X106654199Y-51582980D01*
X106620623Y-51645308D01*
X106600605Y-51711473D01*
X106593831Y-51782779D01*
X106598637Y-51848754D01*
X106612640Y-51908955D01*
X106635567Y-51964335D01*
X106667623Y-52015662D01*
X106709480Y-52063475D01*
X106769688Y-52112941D01*
X106836253Y-52147999D01*
X106910470Y-52169405D01*
X106994145Y-52176803D01*
X107063699Y-52171530D01*
X107126553Y-52156217D01*
X107183840Y-52131196D01*
X107236448Y-52096218D01*
X107284977Y-52050469D01*
X107332777Y-51987979D01*
X107365473Y-51925056D01*
X107384654Y-51860880D01*
X107391039Y-51794380D01*
X107386107Y-51737145D01*
X107371509Y-51683424D01*
X107347086Y-51632359D01*
X107312088Y-51583293D01*
X107269072Y-51540704D01*
X107223387Y-51509803D01*
X107174463Y-51489358D01*
X107121395Y-51478879D01*
X107121395Y-51743028D01*
X106972896Y-51743028D01*
G37*
G36*
X106613370Y-50524745D02*
G01*
X106613370Y-50949788D01*
X106867383Y-50949788D01*
X106867383Y-50536468D01*
X107015882Y-50536468D01*
X107015882Y-50949788D01*
X107371500Y-50949788D01*
X107371500Y-50524745D01*
X107520000Y-50524745D01*
X107520000Y-51107020D01*
X106464870Y-51107020D01*
X106464870Y-50524745D01*
X106613370Y-50524745D01*
G37*
G36*
X107521953Y-49828775D02*
G01*
X107090132Y-50129865D01*
X107090132Y-50158442D01*
X107521953Y-50158442D01*
X107521953Y-50315673D01*
X106468778Y-50315673D01*
X106468778Y-50129438D01*
X106470340Y-50101960D01*
X106617278Y-50101960D01*
X106617278Y-50158442D01*
X106952135Y-50158442D01*
X106952135Y-50108128D01*
X106945948Y-50030951D01*
X106929546Y-49974692D01*
X106905072Y-49934361D01*
X106872983Y-49906385D01*
X106831972Y-49889052D01*
X106779211Y-49882814D01*
X106730247Y-49888762D01*
X106691999Y-49905354D01*
X106661874Y-49932304D01*
X106638747Y-49971426D01*
X106623170Y-50026327D01*
X106617278Y-50101960D01*
X106470340Y-50101960D01*
X106474890Y-50021938D01*
X106491342Y-49938876D01*
X106515900Y-49875506D01*
X106547241Y-49827859D01*
X106594371Y-49783131D01*
X106647585Y-49751577D01*
X106708116Y-49732288D01*
X106777807Y-49725582D01*
X106850076Y-49732984D01*
X106913559Y-49754432D01*
X106970148Y-49789879D01*
X107017227Y-49837100D01*
X107051341Y-49893044D01*
X107073096Y-49959384D01*
X107521953Y-49632587D01*
X107521953Y-49828775D01*
G37*
G36*
X111081919Y-53946613D02*
G01*
X111157939Y-54075818D01*
X111102422Y-54114389D01*
X111075751Y-54145244D01*
X111059720Y-54183023D01*
X111053831Y-54233965D01*
X111058253Y-54277027D01*
X111070872Y-54313465D01*
X111091444Y-54344668D01*
X111118563Y-54369313D01*
X111149175Y-54383717D01*
X111184562Y-54388632D01*
X111218600Y-54382510D01*
X111250011Y-54363661D01*
X111280126Y-54329120D01*
X111309064Y-54273410D01*
X111352173Y-54167836D01*
X111392098Y-54084916D01*
X111434537Y-54023407D01*
X111479180Y-53979342D01*
X111531896Y-53946662D01*
X111592465Y-53926660D01*
X111662911Y-53919685D01*
X111734187Y-53926035D01*
X111797095Y-53944373D01*
X111853230Y-53974362D01*
X111903735Y-54016650D01*
X111945593Y-54068363D01*
X111975233Y-54125253D01*
X111993304Y-54188388D01*
X111999539Y-54259244D01*
X111994119Y-54326980D01*
X111978549Y-54386458D01*
X111953338Y-54439110D01*
X111918267Y-54486024D01*
X111875142Y-54524729D01*
X111823574Y-54556065D01*
X111762240Y-54580028D01*
X111689412Y-54596055D01*
X111653813Y-54435954D01*
X111716003Y-54425302D01*
X111757001Y-54412097D01*
X111782529Y-54397547D01*
X111812290Y-54370270D01*
X111833385Y-54337934D01*
X111846434Y-54299541D01*
X111851039Y-54253504D01*
X111845317Y-54205758D01*
X111828783Y-54164922D01*
X111801214Y-54129368D01*
X111765347Y-54102091D01*
X111723762Y-54085632D01*
X111674757Y-54079909D01*
X111644820Y-54082116D01*
X111618398Y-54088457D01*
X111593903Y-54099339D01*
X111571259Y-54115141D01*
X111550913Y-54135331D01*
X111530959Y-54161974D01*
X111494994Y-54230301D01*
X111452618Y-54332212D01*
X111416174Y-54404424D01*
X111376668Y-54459050D01*
X111334329Y-54499079D01*
X111288856Y-54526713D01*
X111239435Y-54543226D01*
X111184806Y-54548855D01*
X111127367Y-54543083D01*
X111075884Y-54526235D01*
X111029030Y-54498223D01*
X110985931Y-54457936D01*
X110951041Y-54410328D01*
X110926040Y-54357474D01*
X110910662Y-54298371D01*
X110905331Y-54231706D01*
X110912374Y-54161997D01*
X110932868Y-54100025D01*
X110966860Y-54044090D01*
X111015699Y-53993086D01*
X111081919Y-53946613D01*
G37*
G36*
X111978046Y-53007744D02*
G01*
X111722079Y-53118508D01*
X111722079Y-53570357D01*
X111978046Y-53687899D01*
X111978046Y-53859480D01*
X110864206Y-53339975D01*
X111214909Y-53339975D01*
X111573579Y-53504045D01*
X111573579Y-53183415D01*
X111214909Y-53339975D01*
X110864206Y-53339975D01*
X110858314Y-53337227D01*
X111978046Y-52833415D01*
X111978046Y-53007744D01*
G37*
G36*
X111077278Y-52175792D02*
G01*
X111077278Y-52546125D01*
X111331290Y-52546125D01*
X111331290Y-52189469D01*
X111479790Y-52189469D01*
X111479790Y-52546125D01*
X111981953Y-52546125D01*
X111981953Y-52703356D01*
X110928778Y-52703356D01*
X110928778Y-52175792D01*
X111077278Y-52175792D01*
G37*
G36*
X111073370Y-51409846D02*
G01*
X111073370Y-51834890D01*
X111327383Y-51834890D01*
X111327383Y-51421570D01*
X111475882Y-51421570D01*
X111475882Y-51834890D01*
X111831500Y-51834890D01*
X111831500Y-51409846D01*
X111980000Y-51409846D01*
X111980000Y-51992121D01*
X110924870Y-51992121D01*
X110924870Y-51409846D01*
X111073370Y-51409846D01*
G37*
G36*
X111073370Y-50910675D02*
G01*
X111978046Y-50910675D01*
X111978046Y-51067906D01*
X111073370Y-51067906D01*
X111073370Y-51310195D01*
X110924870Y-51310195D01*
X110924870Y-50665394D01*
X111073370Y-50665394D01*
X111073370Y-50910675D01*
G37*
G36*
X111524181Y-50242365D02*
G01*
X110924870Y-50586870D01*
X110924870Y-50403688D01*
X111346495Y-50163414D01*
X110924870Y-49922468D01*
X110924870Y-49739286D01*
X111524181Y-50085134D01*
X111980000Y-50085134D01*
X111980000Y-50242365D01*
X111524181Y-50242365D01*
G37*
G36*
X115982896Y-54991751D02*
G01*
X115982896Y-54554068D01*
X116017578Y-54554068D01*
X116096202Y-54557422D01*
X116165688Y-54566977D01*
X116227077Y-54582095D01*
X116281320Y-54604116D01*
X116333812Y-54634660D01*
X116384919Y-54674419D01*
X116444631Y-54736963D01*
X116490213Y-54804682D01*
X116522777Y-54878337D01*
X116542687Y-54959073D01*
X116549539Y-55048354D01*
X116543025Y-55135231D01*
X116523931Y-55215561D01*
X116492441Y-55290525D01*
X116448094Y-55361066D01*
X116389804Y-55427847D01*
X116322204Y-55485325D01*
X116250707Y-55529161D01*
X116174642Y-55560349D01*
X116093067Y-55579286D01*
X116004816Y-55585750D01*
X115914575Y-55579130D01*
X115831669Y-55559787D01*
X115754848Y-55528010D01*
X115683107Y-55483444D01*
X115615737Y-55425099D01*
X115557513Y-55357398D01*
X115513014Y-55285297D01*
X115481272Y-55208084D01*
X115461945Y-55124756D01*
X115455331Y-55034066D01*
X115461012Y-54952728D01*
X115477783Y-54876000D01*
X115505584Y-54803012D01*
X115543891Y-54738122D01*
X115597414Y-54671087D01*
X115668616Y-54601390D01*
X115778220Y-54715268D01*
X115712654Y-54772280D01*
X115664199Y-54831703D01*
X115630623Y-54894031D01*
X115610605Y-54960196D01*
X115603831Y-55031502D01*
X115608637Y-55097477D01*
X115622640Y-55157678D01*
X115645567Y-55213058D01*
X115677623Y-55264385D01*
X115719480Y-55312198D01*
X115779688Y-55361664D01*
X115846253Y-55396722D01*
X115920470Y-55418128D01*
X116004145Y-55425526D01*
X116073699Y-55420253D01*
X116136553Y-55404940D01*
X116193840Y-55379919D01*
X116246448Y-55344941D01*
X116294977Y-55299192D01*
X116342777Y-55236701D01*
X116375473Y-55173779D01*
X116394654Y-55109603D01*
X116401039Y-55043103D01*
X116396107Y-54985868D01*
X116381509Y-54932147D01*
X116357086Y-54881082D01*
X116322088Y-54832016D01*
X116279072Y-54789427D01*
X116233387Y-54758525D01*
X116184463Y-54738081D01*
X116131395Y-54727602D01*
X116131395Y-54991751D01*
X115982896Y-54991751D01*
G37*
G36*
X116530000Y-54355743D02*
G01*
X115403124Y-54355743D01*
X116208148Y-53585889D01*
X115474870Y-53585889D01*
X115474870Y-53428658D01*
X116594235Y-53428658D01*
X115791287Y-54198511D01*
X116530000Y-54198511D01*
X116530000Y-54355743D01*
G37*
G36*
X116098631Y-52365046D02*
G01*
X116184591Y-52385878D01*
X116261999Y-52419730D01*
X116332183Y-52466812D01*
X116396032Y-52528135D01*
X116442135Y-52587614D01*
X116476637Y-52647202D01*
X116500629Y-52707348D01*
X116515658Y-52766737D01*
X116526062Y-52847766D01*
X116530000Y-52955682D01*
X116530000Y-53174584D01*
X115474870Y-53174584D01*
X115474870Y-52952995D01*
X115475173Y-52945179D01*
X115623370Y-52945179D01*
X115623370Y-53017353D01*
X116381500Y-53017353D01*
X116381500Y-52945179D01*
X116375293Y-52841976D01*
X116358907Y-52765661D01*
X116327999Y-52697818D01*
X116282826Y-52636334D01*
X116237253Y-52593825D01*
X116187206Y-52561121D01*
X116132053Y-52537575D01*
X116070870Y-52523077D01*
X116002496Y-52518060D01*
X115933416Y-52523040D01*
X115871673Y-52537420D01*
X115816102Y-52560739D01*
X115765770Y-52593066D01*
X115720029Y-52634991D01*
X115687224Y-52677881D01*
X115660728Y-52728875D01*
X115640748Y-52789290D01*
X115627939Y-52860762D01*
X115623370Y-52945179D01*
X115475173Y-52945179D01*
X115479005Y-52846196D01*
X115490070Y-52763750D01*
X115506317Y-52701242D01*
X115531387Y-52637566D01*
X115566049Y-52577759D01*
X115610914Y-52521296D01*
X115673887Y-52462719D01*
X115743407Y-52417546D01*
X115820395Y-52384941D01*
X115906181Y-52364815D01*
X116002435Y-52357836D01*
X116098631Y-52365046D01*
G37*
G36*
X115663370Y-51680935D02*
G01*
X115663370Y-51863445D01*
X115514870Y-51775945D01*
X115514870Y-51523703D01*
X116570000Y-51523703D01*
X116570000Y-51680935D01*
X115663370Y-51680935D01*
G37*
G36*
X116421500Y-50956449D02*
G01*
X116421500Y-50564256D01*
X116570000Y-50564256D01*
X116570000Y-51272255D01*
X116125844Y-50905830D01*
X116010867Y-50815277D01*
X115929412Y-50759590D01*
X115885214Y-50736729D01*
X115847083Y-50724374D01*
X115813763Y-50720572D01*
X115766713Y-50726465D01*
X115725959Y-50743625D01*
X115689931Y-50772534D01*
X115662255Y-50809719D01*
X115645655Y-50852040D01*
X115639923Y-50901067D01*
X115645310Y-50951079D01*
X115660420Y-50991422D01*
X115684773Y-51024258D01*
X115719379Y-51050803D01*
X115766588Y-51071148D01*
X115829822Y-51084249D01*
X115829822Y-51242885D01*
X115744472Y-51227463D01*
X115675432Y-51203918D01*
X115619976Y-51173312D01*
X115575922Y-51136043D01*
X115541749Y-51091813D01*
X115516719Y-51039648D01*
X115500934Y-50977986D01*
X115495331Y-50904792D01*
X115501341Y-50833853D01*
X115518741Y-50770642D01*
X115547202Y-50713734D01*
X115587227Y-50662076D01*
X115636370Y-50618533D01*
X115689940Y-50588067D01*
X115748933Y-50569659D01*
X115814801Y-50563340D01*
X115871275Y-50568324D01*
X115927463Y-50583442D01*
X115984122Y-50609380D01*
X116028614Y-50636361D01*
X116086643Y-50677768D01*
X116226777Y-50791524D01*
X116421500Y-50956449D01*
G37*
G36*
X115514870Y-50263349D02*
G01*
X116245889Y-49971418D01*
X115514870Y-49675457D01*
X115514870Y-49501128D01*
X116648951Y-49974837D01*
X115514870Y-50437616D01*
X115514870Y-50263349D01*
G37*
D11*
G36*
X93386881Y-121048011D02*
G01*
X93551772Y-121070140D01*
X93676789Y-121102634D01*
X93804140Y-121152774D01*
X93923754Y-121222099D01*
X94036681Y-121311828D01*
X94153834Y-121437774D01*
X94244181Y-121576815D01*
X94309392Y-121730790D01*
X94349643Y-121902362D01*
X94363600Y-122094870D01*
X94349180Y-122287263D01*
X94307516Y-122459182D01*
X94239813Y-122613999D01*
X94145649Y-122754367D01*
X94023004Y-122882065D01*
X93904044Y-122974270D01*
X93784869Y-123043274D01*
X93664577Y-123091259D01*
X93545799Y-123121316D01*
X93383742Y-123142125D01*
X93167909Y-123150000D01*
X92730104Y-123150000D01*
X92730104Y-122853000D01*
X93044567Y-122853000D01*
X93188914Y-122853000D01*
X93395321Y-122840586D01*
X93547951Y-122807815D01*
X93683637Y-122745999D01*
X93806605Y-122655652D01*
X93891623Y-122564507D01*
X93957031Y-122464413D01*
X94004122Y-122354107D01*
X94033119Y-122231741D01*
X94043154Y-122094993D01*
X94033192Y-121956832D01*
X94004432Y-121833346D01*
X93957794Y-121722204D01*
X93893141Y-121621540D01*
X93809291Y-121530059D01*
X93723510Y-121464449D01*
X93621524Y-121411456D01*
X93500692Y-121371496D01*
X93357749Y-121345879D01*
X93188914Y-121336741D01*
X93044567Y-121336741D01*
X93044567Y-122853000D01*
X92730104Y-122853000D01*
X92730104Y-121039741D01*
X93173283Y-121039741D01*
X93386881Y-121048011D01*
G37*
G36*
X94644968Y-122180844D02*
G01*
X94644968Y-121922923D01*
X95246782Y-121922923D01*
X95246782Y-121328925D01*
X95496887Y-121328925D01*
X95496887Y-121922923D01*
X96098702Y-121922923D01*
X96098702Y-122180844D01*
X95496887Y-122180844D01*
X95496887Y-122767027D01*
X95246782Y-122767027D01*
X95246782Y-122180844D01*
X94644968Y-122180844D01*
G37*
G36*
X93386881Y-124408011D02*
G01*
X93551772Y-124430140D01*
X93676789Y-124462634D01*
X93804140Y-124512774D01*
X93923754Y-124582099D01*
X94036681Y-124671828D01*
X94153834Y-124797774D01*
X94244181Y-124936815D01*
X94309392Y-125090790D01*
X94349643Y-125262362D01*
X94363600Y-125454870D01*
X94349180Y-125647263D01*
X94307516Y-125819182D01*
X94239813Y-125973999D01*
X94145649Y-126114367D01*
X94023004Y-126242065D01*
X93904044Y-126334270D01*
X93784869Y-126403274D01*
X93664577Y-126451259D01*
X93545799Y-126481316D01*
X93383742Y-126502125D01*
X93167909Y-126510000D01*
X92730104Y-126510000D01*
X92730104Y-126213000D01*
X93044567Y-126213000D01*
X93188914Y-126213000D01*
X93395321Y-126200586D01*
X93547951Y-126167815D01*
X93683637Y-126105999D01*
X93806605Y-126015652D01*
X93891623Y-125924507D01*
X93957031Y-125824413D01*
X94004122Y-125714107D01*
X94033119Y-125591741D01*
X94043154Y-125454993D01*
X94033192Y-125316832D01*
X94004432Y-125193346D01*
X93957794Y-125082204D01*
X93893141Y-124981540D01*
X93809291Y-124890059D01*
X93723510Y-124824449D01*
X93621524Y-124771456D01*
X93500692Y-124731496D01*
X93357749Y-124705879D01*
X93188914Y-124696741D01*
X93044567Y-124696741D01*
X93044567Y-126213000D01*
X92730104Y-126213000D01*
X92730104Y-124399741D01*
X93173283Y-124399741D01*
X93386881Y-124408011D01*
G37*
G36*
X94512100Y-125704975D02*
G01*
X95121730Y-125704975D01*
X95121730Y-125970711D01*
X94512100Y-125970711D01*
X94512100Y-125704975D01*
G37*
G36*
X94853119Y-59896092D02*
G01*
X94504462Y-59896092D01*
X94282934Y-59384159D01*
X93379235Y-59384159D01*
X93144152Y-59896092D01*
X92800990Y-59896092D01*
X93178283Y-59087159D01*
X93511859Y-59087159D01*
X94153119Y-59087159D01*
X93840000Y-58369818D01*
X93511859Y-59087159D01*
X93178283Y-59087159D01*
X93845495Y-57656629D01*
X94853119Y-59896092D01*
G37*
G36*
X94996001Y-58930844D02*
G01*
X94996001Y-58672923D01*
X95597815Y-58672923D01*
X95597815Y-58078925D01*
X95847920Y-58078925D01*
X95847920Y-58672923D01*
X96449734Y-58672923D01*
X96449734Y-58930844D01*
X95847920Y-58930844D01*
X95847920Y-59517027D01*
X95597815Y-59517027D01*
X95597815Y-58930844D01*
X94996001Y-58930844D01*
G37*
G36*
X94853119Y-63256092D02*
G01*
X94504462Y-63256092D01*
X94282934Y-62744159D01*
X93379235Y-62744159D01*
X93144152Y-63256092D01*
X92800990Y-63256092D01*
X93178283Y-62447159D01*
X93511859Y-62447159D01*
X94153119Y-62447159D01*
X93840000Y-61729818D01*
X93511859Y-62447159D01*
X93178283Y-62447159D01*
X93845495Y-61016629D01*
X94853119Y-63256092D01*
G37*
G36*
X95005771Y-62454975D02*
G01*
X95615401Y-62454975D01*
X95615401Y-62720711D01*
X95005771Y-62720711D01*
X95005771Y-62454975D01*
G37*
G36*
X93608080Y-78469042D02*
G01*
X93744553Y-78492592D01*
X93863241Y-78537432D01*
X93958998Y-78603356D01*
X94037866Y-78692803D01*
X94099682Y-78804246D01*
X94139919Y-78927560D01*
X94153049Y-79050321D01*
X94142029Y-79159852D01*
X94109739Y-79258918D01*
X94055863Y-79349936D01*
X93978171Y-79434515D01*
X94083325Y-79482743D01*
X94171159Y-79549234D01*
X94243907Y-79635282D01*
X94298175Y-79734049D01*
X94331117Y-79843394D01*
X94342459Y-79965987D01*
X94331264Y-80086318D01*
X94298627Y-80194574D01*
X94244653Y-80293258D01*
X94167704Y-80384131D01*
X94093495Y-80448030D01*
X94014983Y-80496403D01*
X93931399Y-80530432D01*
X93778737Y-80559108D01*
X93572240Y-80570000D01*
X93090104Y-80570000D01*
X93090104Y-80273000D01*
X93404567Y-80273000D01*
X93602281Y-80273000D01*
X93745011Y-80261716D01*
X93847968Y-80231978D01*
X93920896Y-80187882D01*
X93980721Y-80120601D01*
X94015926Y-80043939D01*
X94027997Y-79954630D01*
X94016459Y-79867638D01*
X93982640Y-79791724D01*
X93925048Y-79723942D01*
X93851642Y-79677527D01*
X93737466Y-79644922D01*
X93566622Y-79632107D01*
X93404567Y-79632107D01*
X93404567Y-80273000D01*
X93090104Y-80273000D01*
X93090104Y-79366371D01*
X93404567Y-79366371D01*
X93504462Y-79366371D01*
X93620710Y-79356052D01*
X93705026Y-79328655D01*
X93765314Y-79287358D01*
X93809677Y-79229425D01*
X93837915Y-79153510D01*
X93848234Y-79054106D01*
X93837777Y-78957807D01*
X93808996Y-78883706D01*
X93763360Y-78826594D01*
X93702212Y-78785336D01*
X93621942Y-78758708D01*
X93516919Y-78748925D01*
X93404567Y-78748925D01*
X93404567Y-79366371D01*
X93090104Y-79366371D01*
X93090104Y-78459741D01*
X93407009Y-78459741D01*
X93608080Y-78469042D01*
G37*
G36*
X94627857Y-79600844D02*
G01*
X94627857Y-79342923D01*
X95229672Y-79342923D01*
X95229672Y-78748925D01*
X95479776Y-78748925D01*
X95479776Y-79342923D01*
X96081591Y-79342923D01*
X96081591Y-79600844D01*
X95479776Y-79600844D01*
X95479776Y-80187027D01*
X95229672Y-80187027D01*
X95229672Y-79600844D01*
X94627857Y-79600844D01*
G37*
G36*
X93608080Y-81829042D02*
G01*
X93744553Y-81852592D01*
X93863241Y-81897432D01*
X93958998Y-81963356D01*
X94037866Y-82052803D01*
X94099682Y-82164246D01*
X94139919Y-82287560D01*
X94153049Y-82410321D01*
X94142029Y-82519852D01*
X94109739Y-82618918D01*
X94055863Y-82709936D01*
X93978171Y-82794515D01*
X94083325Y-82842743D01*
X94171159Y-82909234D01*
X94243907Y-82995282D01*
X94298175Y-83094049D01*
X94331117Y-83203394D01*
X94342459Y-83325987D01*
X94331264Y-83446318D01*
X94298627Y-83554574D01*
X94244653Y-83653258D01*
X94167704Y-83744131D01*
X94093495Y-83808030D01*
X94014983Y-83856403D01*
X93931399Y-83890432D01*
X93778737Y-83919108D01*
X93572240Y-83930000D01*
X93090104Y-83930000D01*
X93090104Y-83633000D01*
X93404567Y-83633000D01*
X93602281Y-83633000D01*
X93745011Y-83621716D01*
X93847968Y-83591978D01*
X93920896Y-83547882D01*
X93980721Y-83480601D01*
X94015926Y-83403939D01*
X94027997Y-83314630D01*
X94016459Y-83227638D01*
X93982640Y-83151724D01*
X93925048Y-83083942D01*
X93851642Y-83037527D01*
X93737466Y-83004922D01*
X93566622Y-82992107D01*
X93404567Y-82992107D01*
X93404567Y-83633000D01*
X93090104Y-83633000D01*
X93090104Y-82726371D01*
X93404567Y-82726371D01*
X93504462Y-82726371D01*
X93620710Y-82716052D01*
X93705026Y-82688655D01*
X93765314Y-82647358D01*
X93809677Y-82589425D01*
X93837915Y-82513510D01*
X93848234Y-82414106D01*
X93837777Y-82317807D01*
X93808996Y-82243706D01*
X93763360Y-82186594D01*
X93702212Y-82145336D01*
X93621942Y-82118708D01*
X93516919Y-82108925D01*
X93404567Y-82108925D01*
X93404567Y-82726371D01*
X93090104Y-82726371D01*
X93090104Y-81819741D01*
X93407009Y-81819741D01*
X93608080Y-81829042D01*
G37*
G36*
X94494989Y-83124975D02*
G01*
X95104619Y-83124975D01*
X95104619Y-83390711D01*
X94494989Y-83390711D01*
X94494989Y-83124975D01*
G37*
G36*
X94833258Y-99293192D02*
G01*
X94833258Y-99669204D01*
X94687494Y-99563953D01*
X94544916Y-99492626D01*
X94403695Y-99451266D01*
X94261608Y-99437662D01*
X94133757Y-99447305D01*
X94016671Y-99475464D01*
X93908478Y-99521726D01*
X93807688Y-99586682D01*
X93713283Y-99671891D01*
X93615030Y-99795006D01*
X93545630Y-99929300D01*
X93503452Y-100077151D01*
X93488946Y-100241831D01*
X93503433Y-100404286D01*
X93545553Y-100549982D01*
X93614892Y-100682211D01*
X93713161Y-100803346D01*
X93832509Y-100904002D01*
X93962236Y-100974658D01*
X94104660Y-101017409D01*
X94263073Y-101032079D01*
X94374210Y-101025424D01*
X94468570Y-101006716D01*
X94548715Y-100977369D01*
X94614188Y-100945931D01*
X94684881Y-100903363D01*
X94833258Y-100791011D01*
X94833258Y-101175083D01*
X94693241Y-101243133D01*
X94551595Y-101290977D01*
X94407292Y-101319525D01*
X94259166Y-101329078D01*
X94081175Y-101316110D01*
X93917108Y-101278167D01*
X93764581Y-101215770D01*
X93621666Y-101128195D01*
X93486992Y-101013517D01*
X93371043Y-100879216D01*
X93282644Y-100736918D01*
X93219750Y-100585266D01*
X93181547Y-100422337D01*
X93168499Y-100245739D01*
X93179260Y-100087297D01*
X93211024Y-99937708D01*
X93263639Y-99795350D01*
X93337789Y-99658857D01*
X93434968Y-99527177D01*
X93551124Y-99407799D01*
X93675761Y-99312022D01*
X93809751Y-99237963D01*
X93954470Y-99184619D01*
X94111732Y-99151905D01*
X94283712Y-99140662D01*
X94423421Y-99150020D01*
X94560840Y-99178113D01*
X94697113Y-99225456D01*
X94833258Y-99293192D01*
G37*
G36*
X95114626Y-100320844D02*
G01*
X95114626Y-100062923D01*
X95716441Y-100062923D01*
X95716441Y-99468925D01*
X95966545Y-99468925D01*
X95966545Y-100062923D01*
X96568360Y-100062923D01*
X96568360Y-100320844D01*
X95966545Y-100320844D01*
X95966545Y-100907027D01*
X95716441Y-100907027D01*
X95716441Y-100320844D01*
X95114626Y-100320844D01*
G37*
G36*
X94833258Y-102653192D02*
G01*
X94833258Y-103029204D01*
X94687494Y-102923953D01*
X94544916Y-102852626D01*
X94403695Y-102811266D01*
X94261608Y-102797662D01*
X94133757Y-102807305D01*
X94016671Y-102835464D01*
X93908478Y-102881726D01*
X93807688Y-102946682D01*
X93713283Y-103031891D01*
X93615030Y-103155006D01*
X93545630Y-103289300D01*
X93503452Y-103437151D01*
X93488946Y-103601831D01*
X93503433Y-103764286D01*
X93545553Y-103909982D01*
X93614892Y-104042211D01*
X93713161Y-104163346D01*
X93832509Y-104264002D01*
X93962236Y-104334658D01*
X94104660Y-104377409D01*
X94263073Y-104392079D01*
X94374210Y-104385424D01*
X94468570Y-104366716D01*
X94548715Y-104337369D01*
X94614188Y-104305931D01*
X94684881Y-104263363D01*
X94833258Y-104151011D01*
X94833258Y-104535083D01*
X94693241Y-104603133D01*
X94551595Y-104650977D01*
X94407292Y-104679525D01*
X94259166Y-104689078D01*
X94081175Y-104676110D01*
X93917108Y-104638167D01*
X93764581Y-104575770D01*
X93621666Y-104488195D01*
X93486992Y-104373517D01*
X93371043Y-104239216D01*
X93282644Y-104096918D01*
X93219750Y-103945266D01*
X93181547Y-103782337D01*
X93168499Y-103605739D01*
X93179260Y-103447297D01*
X93211024Y-103297708D01*
X93263639Y-103155350D01*
X93337789Y-103018857D01*
X93434968Y-102887177D01*
X93551124Y-102767799D01*
X93675761Y-102672022D01*
X93809751Y-102597963D01*
X93954470Y-102544619D01*
X94111732Y-102511905D01*
X94283712Y-102500662D01*
X94423421Y-102510020D01*
X94560840Y-102538113D01*
X94697113Y-102585456D01*
X94833258Y-102653192D01*
G37*
G36*
X94981758Y-103844975D02*
G01*
X95591388Y-103844975D01*
X95591388Y-104110711D01*
X94981758Y-104110711D01*
X94981758Y-103844975D01*
G37*
G36*
X132218080Y-123809042D02*
G01*
X132354553Y-123832592D01*
X132473241Y-123877432D01*
X132568998Y-123943356D01*
X132647866Y-124032803D01*
X132709682Y-124144246D01*
X132749919Y-124267560D01*
X132763049Y-124390321D01*
X132752029Y-124499852D01*
X132719739Y-124598918D01*
X132665863Y-124689936D01*
X132588171Y-124774515D01*
X132693325Y-124822743D01*
X132781159Y-124889234D01*
X132853907Y-124975282D01*
X132908175Y-125074049D01*
X132941117Y-125183394D01*
X132952459Y-125305987D01*
X132941264Y-125426318D01*
X132908627Y-125534574D01*
X132854653Y-125633258D01*
X132777704Y-125724131D01*
X132703495Y-125788030D01*
X132624983Y-125836403D01*
X132541399Y-125870432D01*
X132388737Y-125899108D01*
X132182240Y-125910000D01*
X131700104Y-125910000D01*
X131700104Y-125613000D01*
X132014567Y-125613000D01*
X132212281Y-125613000D01*
X132355011Y-125601716D01*
X132457968Y-125571978D01*
X132530896Y-125527882D01*
X132590721Y-125460601D01*
X132625926Y-125383939D01*
X132637997Y-125294630D01*
X132626459Y-125207638D01*
X132592640Y-125131724D01*
X132535048Y-125063942D01*
X132461642Y-125017527D01*
X132347466Y-124984922D01*
X132176622Y-124972107D01*
X132014567Y-124972107D01*
X132014567Y-125613000D01*
X131700104Y-125613000D01*
X131700104Y-124706371D01*
X132014567Y-124706371D01*
X132114462Y-124706371D01*
X132230710Y-124696052D01*
X132315026Y-124668655D01*
X132375314Y-124627358D01*
X132419677Y-124569425D01*
X132447915Y-124493510D01*
X132458234Y-124394106D01*
X132447777Y-124297807D01*
X132418996Y-124223706D01*
X132373360Y-124166594D01*
X132312212Y-124125336D01*
X132231942Y-124098708D01*
X132126919Y-124088925D01*
X132014567Y-124088925D01*
X132014567Y-124706371D01*
X131700104Y-124706371D01*
X131700104Y-123799741D01*
X132017009Y-123799741D01*
X132218080Y-123809042D01*
G37*
G36*
X135136845Y-125906092D02*
G01*
X134788189Y-125906092D01*
X134566660Y-125394159D01*
X133662962Y-125394159D01*
X133427878Y-125906092D01*
X133084717Y-125906092D01*
X133462010Y-125097159D01*
X133795586Y-125097159D01*
X134436845Y-125097159D01*
X134123726Y-124379818D01*
X133795586Y-125097159D01*
X133462010Y-125097159D01*
X134129221Y-123666629D01*
X135136845Y-125906092D01*
G37*
G36*
X135859926Y-124096741D02*
G01*
X135859926Y-125906092D01*
X135545464Y-125906092D01*
X135545464Y-124096741D01*
X135060886Y-124096741D01*
X135060886Y-123799741D01*
X136350488Y-123799741D01*
X136350488Y-124096741D01*
X135859926Y-124096741D01*
G37*
G36*
X136512665Y-124940844D02*
G01*
X136512665Y-124682923D01*
X137114480Y-124682923D01*
X137114480Y-124088925D01*
X137364584Y-124088925D01*
X137364584Y-124682923D01*
X137966399Y-124682923D01*
X137966399Y-124940844D01*
X137364584Y-124940844D01*
X137364584Y-125527027D01*
X137114480Y-125527027D01*
X137114480Y-124940844D01*
X136512665Y-124940844D01*
G37*
G36*
X142329734Y-123809042D02*
G01*
X142466207Y-123832592D01*
X142584895Y-123877432D01*
X142680652Y-123943356D01*
X142759520Y-124032803D01*
X142821336Y-124144246D01*
X142861573Y-124267560D01*
X142874703Y-124390321D01*
X142863683Y-124499852D01*
X142831393Y-124598918D01*
X142777517Y-124689936D01*
X142699825Y-124774515D01*
X142804979Y-124822743D01*
X142892813Y-124889234D01*
X142965561Y-124975282D01*
X143019829Y-125074049D01*
X143052771Y-125183394D01*
X143064113Y-125305987D01*
X143052918Y-125426318D01*
X143020281Y-125534574D01*
X142966307Y-125633258D01*
X142889357Y-125724131D01*
X142815149Y-125788030D01*
X142736637Y-125836403D01*
X142653053Y-125870432D01*
X142500391Y-125899108D01*
X142293893Y-125910000D01*
X141811758Y-125910000D01*
X141811758Y-125613000D01*
X142126221Y-125613000D01*
X142323935Y-125613000D01*
X142466665Y-125601716D01*
X142569621Y-125571978D01*
X142642550Y-125527882D01*
X142702375Y-125460601D01*
X142737580Y-125383939D01*
X142749651Y-125294630D01*
X142738113Y-125207638D01*
X142704294Y-125131724D01*
X142646702Y-125063942D01*
X142573296Y-125017527D01*
X142459120Y-124984922D01*
X142288276Y-124972107D01*
X142126221Y-124972107D01*
X142126221Y-125613000D01*
X141811758Y-125613000D01*
X141811758Y-124706371D01*
X142126221Y-124706371D01*
X142226116Y-124706371D01*
X142342364Y-124696052D01*
X142426680Y-124668655D01*
X142486967Y-124627358D01*
X142531331Y-124569425D01*
X142559569Y-124493510D01*
X142569888Y-124394106D01*
X142559431Y-124297807D01*
X142530650Y-124223706D01*
X142485013Y-124166594D01*
X142423866Y-124125336D01*
X142343596Y-124098708D01*
X142238572Y-124088925D01*
X142126221Y-124088925D01*
X142126221Y-124706371D01*
X141811758Y-124706371D01*
X141811758Y-123799741D01*
X142128663Y-123799741D01*
X142329734Y-123809042D01*
G37*
G36*
X145248499Y-125906092D02*
G01*
X144899842Y-125906092D01*
X144678314Y-125394159D01*
X143774616Y-125394159D01*
X143539532Y-125906092D01*
X143196371Y-125906092D01*
X143573664Y-125097159D01*
X143907240Y-125097159D01*
X144548499Y-125097159D01*
X144235380Y-124379818D01*
X143907240Y-125097159D01*
X143573664Y-125097159D01*
X144240875Y-123666629D01*
X145248499Y-125906092D01*
G37*
G36*
X145971580Y-124096741D02*
G01*
X145971580Y-125906092D01*
X145657117Y-125906092D01*
X145657117Y-124096741D01*
X145172540Y-124096741D01*
X145172540Y-123799741D01*
X146462142Y-123799741D01*
X146462142Y-124096741D01*
X145971580Y-124096741D01*
G37*
G36*
X146524668Y-125104975D02*
G01*
X147134298Y-125104975D01*
X147134298Y-125370711D01*
X146524668Y-125370711D01*
X146524668Y-125104975D01*
G37*
D12*
X103357142Y-77524819D02*
X103023809Y-77048628D01*
X102785714Y-77524819D02*
X102785714Y-76524819D01*
X102785714Y-76524819D02*
X103166666Y-76524819D01*
X103166666Y-76524819D02*
X103261904Y-76572438D01*
X103261904Y-76572438D02*
X103309523Y-76620057D01*
X103309523Y-76620057D02*
X103357142Y-76715295D01*
X103357142Y-76715295D02*
X103357142Y-76858152D01*
X103357142Y-76858152D02*
X103309523Y-76953390D01*
X103309523Y-76953390D02*
X103261904Y-77001009D01*
X103261904Y-77001009D02*
X103166666Y-77048628D01*
X103166666Y-77048628D02*
X102785714Y-77048628D01*
X103738095Y-76620057D02*
X103785714Y-76572438D01*
X103785714Y-76572438D02*
X103880952Y-76524819D01*
X103880952Y-76524819D02*
X104119047Y-76524819D01*
X104119047Y-76524819D02*
X104214285Y-76572438D01*
X104214285Y-76572438D02*
X104261904Y-76620057D01*
X104261904Y-76620057D02*
X104309523Y-76715295D01*
X104309523Y-76715295D02*
X104309523Y-76810533D01*
X104309523Y-76810533D02*
X104261904Y-76953390D01*
X104261904Y-76953390D02*
X103690476Y-77524819D01*
X103690476Y-77524819D02*
X104309523Y-77524819D01*
X105261904Y-77524819D02*
X104690476Y-77524819D01*
X104976190Y-77524819D02*
X104976190Y-76524819D01*
X104976190Y-76524819D02*
X104880952Y-76667676D01*
X104880952Y-76667676D02*
X104785714Y-76762914D01*
X104785714Y-76762914D02*
X104690476Y-76810533D01*
X93534819Y-102833333D02*
X94249104Y-102833333D01*
X94249104Y-102833333D02*
X94391961Y-102880952D01*
X94391961Y-102880952D02*
X94487200Y-102976190D01*
X94487200Y-102976190D02*
X94534819Y-103119047D01*
X94534819Y-103119047D02*
X94534819Y-103214285D01*
X93534819Y-102452380D02*
X93534819Y-101785714D01*
X93534819Y-101785714D02*
X94534819Y-102214285D01*
X144204819Y-81142857D02*
X143728628Y-81476190D01*
X144204819Y-81714285D02*
X143204819Y-81714285D01*
X143204819Y-81714285D02*
X143204819Y-81333333D01*
X143204819Y-81333333D02*
X143252438Y-81238095D01*
X143252438Y-81238095D02*
X143300057Y-81190476D01*
X143300057Y-81190476D02*
X143395295Y-81142857D01*
X143395295Y-81142857D02*
X143538152Y-81142857D01*
X143538152Y-81142857D02*
X143633390Y-81190476D01*
X143633390Y-81190476D02*
X143681009Y-81238095D01*
X143681009Y-81238095D02*
X143728628Y-81333333D01*
X143728628Y-81333333D02*
X143728628Y-81714285D01*
X144204819Y-80190476D02*
X144204819Y-80761904D01*
X144204819Y-80476190D02*
X143204819Y-80476190D01*
X143204819Y-80476190D02*
X143347676Y-80571428D01*
X143347676Y-80571428D02*
X143442914Y-80666666D01*
X143442914Y-80666666D02*
X143490533Y-80761904D01*
X144204819Y-79238095D02*
X144204819Y-79809523D01*
X144204819Y-79523809D02*
X143204819Y-79523809D01*
X143204819Y-79523809D02*
X143347676Y-79619047D01*
X143347676Y-79619047D02*
X143442914Y-79714285D01*
X143442914Y-79714285D02*
X143490533Y-79809523D01*
X109333333Y-84024819D02*
X109000000Y-83548628D01*
X108761905Y-84024819D02*
X108761905Y-83024819D01*
X108761905Y-83024819D02*
X109142857Y-83024819D01*
X109142857Y-83024819D02*
X109238095Y-83072438D01*
X109238095Y-83072438D02*
X109285714Y-83120057D01*
X109285714Y-83120057D02*
X109333333Y-83215295D01*
X109333333Y-83215295D02*
X109333333Y-83358152D01*
X109333333Y-83358152D02*
X109285714Y-83453390D01*
X109285714Y-83453390D02*
X109238095Y-83501009D01*
X109238095Y-83501009D02*
X109142857Y-83548628D01*
X109142857Y-83548628D02*
X108761905Y-83548628D01*
X110285714Y-84024819D02*
X109714286Y-84024819D01*
X110000000Y-84024819D02*
X110000000Y-83024819D01*
X110000000Y-83024819D02*
X109904762Y-83167676D01*
X109904762Y-83167676D02*
X109809524Y-83262914D01*
X109809524Y-83262914D02*
X109714286Y-83310533D01*
X161104819Y-81301904D02*
X161914342Y-81301904D01*
X161914342Y-81301904D02*
X162009580Y-81254285D01*
X162009580Y-81254285D02*
X162057200Y-81206666D01*
X162057200Y-81206666D02*
X162104819Y-81111428D01*
X162104819Y-81111428D02*
X162104819Y-80920952D01*
X162104819Y-80920952D02*
X162057200Y-80825714D01*
X162057200Y-80825714D02*
X162009580Y-80778095D01*
X162009580Y-80778095D02*
X161914342Y-80730476D01*
X161914342Y-80730476D02*
X161104819Y-80730476D01*
X161104819Y-79825714D02*
X161104819Y-80016190D01*
X161104819Y-80016190D02*
X161152438Y-80111428D01*
X161152438Y-80111428D02*
X161200057Y-80159047D01*
X161200057Y-80159047D02*
X161342914Y-80254285D01*
X161342914Y-80254285D02*
X161533390Y-80301904D01*
X161533390Y-80301904D02*
X161914342Y-80301904D01*
X161914342Y-80301904D02*
X162009580Y-80254285D01*
X162009580Y-80254285D02*
X162057200Y-80206666D01*
X162057200Y-80206666D02*
X162104819Y-80111428D01*
X162104819Y-80111428D02*
X162104819Y-79920952D01*
X162104819Y-79920952D02*
X162057200Y-79825714D01*
X162057200Y-79825714D02*
X162009580Y-79778095D01*
X162009580Y-79778095D02*
X161914342Y-79730476D01*
X161914342Y-79730476D02*
X161676247Y-79730476D01*
X161676247Y-79730476D02*
X161581009Y-79778095D01*
X161581009Y-79778095D02*
X161533390Y-79825714D01*
X161533390Y-79825714D02*
X161485771Y-79920952D01*
X161485771Y-79920952D02*
X161485771Y-80111428D01*
X161485771Y-80111428D02*
X161533390Y-80206666D01*
X161533390Y-80206666D02*
X161581009Y-80254285D01*
X161581009Y-80254285D02*
X161676247Y-80301904D01*
X112384819Y-109166666D02*
X111908628Y-109499999D01*
X112384819Y-109738094D02*
X111384819Y-109738094D01*
X111384819Y-109738094D02*
X111384819Y-109357142D01*
X111384819Y-109357142D02*
X111432438Y-109261904D01*
X111432438Y-109261904D02*
X111480057Y-109214285D01*
X111480057Y-109214285D02*
X111575295Y-109166666D01*
X111575295Y-109166666D02*
X111718152Y-109166666D01*
X111718152Y-109166666D02*
X111813390Y-109214285D01*
X111813390Y-109214285D02*
X111861009Y-109261904D01*
X111861009Y-109261904D02*
X111908628Y-109357142D01*
X111908628Y-109357142D02*
X111908628Y-109738094D01*
X111718152Y-108309523D02*
X112384819Y-108309523D01*
X111337200Y-108547618D02*
X112051485Y-108785713D01*
X112051485Y-108785713D02*
X112051485Y-108166666D01*
X110289580Y-114916666D02*
X110337200Y-114964285D01*
X110337200Y-114964285D02*
X110384819Y-115107142D01*
X110384819Y-115107142D02*
X110384819Y-115202380D01*
X110384819Y-115202380D02*
X110337200Y-115345237D01*
X110337200Y-115345237D02*
X110241961Y-115440475D01*
X110241961Y-115440475D02*
X110146723Y-115488094D01*
X110146723Y-115488094D02*
X109956247Y-115535713D01*
X109956247Y-115535713D02*
X109813390Y-115535713D01*
X109813390Y-115535713D02*
X109622914Y-115488094D01*
X109622914Y-115488094D02*
X109527676Y-115440475D01*
X109527676Y-115440475D02*
X109432438Y-115345237D01*
X109432438Y-115345237D02*
X109384819Y-115202380D01*
X109384819Y-115202380D02*
X109384819Y-115107142D01*
X109384819Y-115107142D02*
X109432438Y-114964285D01*
X109432438Y-114964285D02*
X109480057Y-114916666D01*
X109384819Y-114059523D02*
X109384819Y-114249999D01*
X109384819Y-114249999D02*
X109432438Y-114345237D01*
X109432438Y-114345237D02*
X109480057Y-114392856D01*
X109480057Y-114392856D02*
X109622914Y-114488094D01*
X109622914Y-114488094D02*
X109813390Y-114535713D01*
X109813390Y-114535713D02*
X110194342Y-114535713D01*
X110194342Y-114535713D02*
X110289580Y-114488094D01*
X110289580Y-114488094D02*
X110337200Y-114440475D01*
X110337200Y-114440475D02*
X110384819Y-114345237D01*
X110384819Y-114345237D02*
X110384819Y-114154761D01*
X110384819Y-114154761D02*
X110337200Y-114059523D01*
X110337200Y-114059523D02*
X110289580Y-114011904D01*
X110289580Y-114011904D02*
X110194342Y-113964285D01*
X110194342Y-113964285D02*
X109956247Y-113964285D01*
X109956247Y-113964285D02*
X109861009Y-114011904D01*
X109861009Y-114011904D02*
X109813390Y-114059523D01*
X109813390Y-114059523D02*
X109765771Y-114154761D01*
X109765771Y-114154761D02*
X109765771Y-114345237D01*
X109765771Y-114345237D02*
X109813390Y-114440475D01*
X109813390Y-114440475D02*
X109861009Y-114488094D01*
X109861009Y-114488094D02*
X109956247Y-114535713D01*
X142011905Y-48054819D02*
X142011905Y-48864342D01*
X142011905Y-48864342D02*
X142059524Y-48959580D01*
X142059524Y-48959580D02*
X142107143Y-49007200D01*
X142107143Y-49007200D02*
X142202381Y-49054819D01*
X142202381Y-49054819D02*
X142392857Y-49054819D01*
X142392857Y-49054819D02*
X142488095Y-49007200D01*
X142488095Y-49007200D02*
X142535714Y-48959580D01*
X142535714Y-48959580D02*
X142583333Y-48864342D01*
X142583333Y-48864342D02*
X142583333Y-48054819D01*
X143583333Y-49054819D02*
X143011905Y-49054819D01*
X143297619Y-49054819D02*
X143297619Y-48054819D01*
X143297619Y-48054819D02*
X143202381Y-48197676D01*
X143202381Y-48197676D02*
X143107143Y-48292914D01*
X143107143Y-48292914D02*
X143011905Y-48340533D01*
X144535714Y-49054819D02*
X143964286Y-49054819D01*
X144250000Y-49054819D02*
X144250000Y-48054819D01*
X144250000Y-48054819D02*
X144154762Y-48197676D01*
X144154762Y-48197676D02*
X144059524Y-48292914D01*
X144059524Y-48292914D02*
X143964286Y-48340533D01*
X98954819Y-118261904D02*
X99764342Y-118261904D01*
X99764342Y-118261904D02*
X99859580Y-118214285D01*
X99859580Y-118214285D02*
X99907200Y-118166666D01*
X99907200Y-118166666D02*
X99954819Y-118071428D01*
X99954819Y-118071428D02*
X99954819Y-117880952D01*
X99954819Y-117880952D02*
X99907200Y-117785714D01*
X99907200Y-117785714D02*
X99859580Y-117738095D01*
X99859580Y-117738095D02*
X99764342Y-117690476D01*
X99764342Y-117690476D02*
X98954819Y-117690476D01*
X99288152Y-116785714D02*
X99954819Y-116785714D01*
X98907200Y-117023809D02*
X99621485Y-117261904D01*
X99621485Y-117261904D02*
X99621485Y-116642857D01*
X118189580Y-120766666D02*
X118237200Y-120814285D01*
X118237200Y-120814285D02*
X118284819Y-120957142D01*
X118284819Y-120957142D02*
X118284819Y-121052380D01*
X118284819Y-121052380D02*
X118237200Y-121195237D01*
X118237200Y-121195237D02*
X118141961Y-121290475D01*
X118141961Y-121290475D02*
X118046723Y-121338094D01*
X118046723Y-121338094D02*
X117856247Y-121385713D01*
X117856247Y-121385713D02*
X117713390Y-121385713D01*
X117713390Y-121385713D02*
X117522914Y-121338094D01*
X117522914Y-121338094D02*
X117427676Y-121290475D01*
X117427676Y-121290475D02*
X117332438Y-121195237D01*
X117332438Y-121195237D02*
X117284819Y-121052380D01*
X117284819Y-121052380D02*
X117284819Y-120957142D01*
X117284819Y-120957142D02*
X117332438Y-120814285D01*
X117332438Y-120814285D02*
X117380057Y-120766666D01*
X117284819Y-119861904D02*
X117284819Y-120338094D01*
X117284819Y-120338094D02*
X117761009Y-120385713D01*
X117761009Y-120385713D02*
X117713390Y-120338094D01*
X117713390Y-120338094D02*
X117665771Y-120242856D01*
X117665771Y-120242856D02*
X117665771Y-120004761D01*
X117665771Y-120004761D02*
X117713390Y-119909523D01*
X117713390Y-119909523D02*
X117761009Y-119861904D01*
X117761009Y-119861904D02*
X117856247Y-119814285D01*
X117856247Y-119814285D02*
X118094342Y-119814285D01*
X118094342Y-119814285D02*
X118189580Y-119861904D01*
X118189580Y-119861904D02*
X118237200Y-119909523D01*
X118237200Y-119909523D02*
X118284819Y-120004761D01*
X118284819Y-120004761D02*
X118284819Y-120242856D01*
X118284819Y-120242856D02*
X118237200Y-120338094D01*
X118237200Y-120338094D02*
X118189580Y-120385713D01*
X131579580Y-56366666D02*
X131627200Y-56414285D01*
X131627200Y-56414285D02*
X131674819Y-56557142D01*
X131674819Y-56557142D02*
X131674819Y-56652380D01*
X131674819Y-56652380D02*
X131627200Y-56795237D01*
X131627200Y-56795237D02*
X131531961Y-56890475D01*
X131531961Y-56890475D02*
X131436723Y-56938094D01*
X131436723Y-56938094D02*
X131246247Y-56985713D01*
X131246247Y-56985713D02*
X131103390Y-56985713D01*
X131103390Y-56985713D02*
X130912914Y-56938094D01*
X130912914Y-56938094D02*
X130817676Y-56890475D01*
X130817676Y-56890475D02*
X130722438Y-56795237D01*
X130722438Y-56795237D02*
X130674819Y-56652380D01*
X130674819Y-56652380D02*
X130674819Y-56557142D01*
X130674819Y-56557142D02*
X130722438Y-56414285D01*
X130722438Y-56414285D02*
X130770057Y-56366666D01*
X130674819Y-56033332D02*
X130674819Y-55366666D01*
X130674819Y-55366666D02*
X131674819Y-55795237D01*
X140647142Y-56224819D02*
X140313809Y-55748628D01*
X140075714Y-56224819D02*
X140075714Y-55224819D01*
X140075714Y-55224819D02*
X140456666Y-55224819D01*
X140456666Y-55224819D02*
X140551904Y-55272438D01*
X140551904Y-55272438D02*
X140599523Y-55320057D01*
X140599523Y-55320057D02*
X140647142Y-55415295D01*
X140647142Y-55415295D02*
X140647142Y-55558152D01*
X140647142Y-55558152D02*
X140599523Y-55653390D01*
X140599523Y-55653390D02*
X140551904Y-55701009D01*
X140551904Y-55701009D02*
X140456666Y-55748628D01*
X140456666Y-55748628D02*
X140075714Y-55748628D01*
X141599523Y-56224819D02*
X141028095Y-56224819D01*
X141313809Y-56224819D02*
X141313809Y-55224819D01*
X141313809Y-55224819D02*
X141218571Y-55367676D01*
X141218571Y-55367676D02*
X141123333Y-55462914D01*
X141123333Y-55462914D02*
X141028095Y-55510533D01*
X142456666Y-55224819D02*
X142266190Y-55224819D01*
X142266190Y-55224819D02*
X142170952Y-55272438D01*
X142170952Y-55272438D02*
X142123333Y-55320057D01*
X142123333Y-55320057D02*
X142028095Y-55462914D01*
X142028095Y-55462914D02*
X141980476Y-55653390D01*
X141980476Y-55653390D02*
X141980476Y-56034342D01*
X141980476Y-56034342D02*
X142028095Y-56129580D01*
X142028095Y-56129580D02*
X142075714Y-56177200D01*
X142075714Y-56177200D02*
X142170952Y-56224819D01*
X142170952Y-56224819D02*
X142361428Y-56224819D01*
X142361428Y-56224819D02*
X142456666Y-56177200D01*
X142456666Y-56177200D02*
X142504285Y-56129580D01*
X142504285Y-56129580D02*
X142551904Y-56034342D01*
X142551904Y-56034342D02*
X142551904Y-55796247D01*
X142551904Y-55796247D02*
X142504285Y-55701009D01*
X142504285Y-55701009D02*
X142456666Y-55653390D01*
X142456666Y-55653390D02*
X142361428Y-55605771D01*
X142361428Y-55605771D02*
X142170952Y-55605771D01*
X142170952Y-55605771D02*
X142075714Y-55653390D01*
X142075714Y-55653390D02*
X142028095Y-55701009D01*
X142028095Y-55701009D02*
X141980476Y-55796247D01*
X123666667Y-133157200D02*
X123809524Y-133204819D01*
X123809524Y-133204819D02*
X124047619Y-133204819D01*
X124047619Y-133204819D02*
X124142857Y-133157200D01*
X124142857Y-133157200D02*
X124190476Y-133109580D01*
X124190476Y-133109580D02*
X124238095Y-133014342D01*
X124238095Y-133014342D02*
X124238095Y-132919104D01*
X124238095Y-132919104D02*
X124190476Y-132823866D01*
X124190476Y-132823866D02*
X124142857Y-132776247D01*
X124142857Y-132776247D02*
X124047619Y-132728628D01*
X124047619Y-132728628D02*
X123857143Y-132681009D01*
X123857143Y-132681009D02*
X123761905Y-132633390D01*
X123761905Y-132633390D02*
X123714286Y-132585771D01*
X123714286Y-132585771D02*
X123666667Y-132490533D01*
X123666667Y-132490533D02*
X123666667Y-132395295D01*
X123666667Y-132395295D02*
X123714286Y-132300057D01*
X123714286Y-132300057D02*
X123761905Y-132252438D01*
X123761905Y-132252438D02*
X123857143Y-132204819D01*
X123857143Y-132204819D02*
X124095238Y-132204819D01*
X124095238Y-132204819D02*
X124238095Y-132252438D01*
X124571429Y-132204819D02*
X124809524Y-133204819D01*
X124809524Y-133204819D02*
X125000000Y-132490533D01*
X125000000Y-132490533D02*
X125190476Y-133204819D01*
X125190476Y-133204819D02*
X125428572Y-132204819D01*
X126333333Y-133204819D02*
X125761905Y-133204819D01*
X126047619Y-133204819D02*
X126047619Y-132204819D01*
X126047619Y-132204819D02*
X125952381Y-132347676D01*
X125952381Y-132347676D02*
X125857143Y-132442914D01*
X125857143Y-132442914D02*
X125761905Y-132490533D01*
X93534819Y-60333333D02*
X94249104Y-60333333D01*
X94249104Y-60333333D02*
X94391961Y-60380952D01*
X94391961Y-60380952D02*
X94487200Y-60476190D01*
X94487200Y-60476190D02*
X94534819Y-60619047D01*
X94534819Y-60619047D02*
X94534819Y-60714285D01*
X93534819Y-59380952D02*
X93534819Y-59857142D01*
X93534819Y-59857142D02*
X94011009Y-59904761D01*
X94011009Y-59904761D02*
X93963390Y-59857142D01*
X93963390Y-59857142D02*
X93915771Y-59761904D01*
X93915771Y-59761904D02*
X93915771Y-59523809D01*
X93915771Y-59523809D02*
X93963390Y-59428571D01*
X93963390Y-59428571D02*
X94011009Y-59380952D01*
X94011009Y-59380952D02*
X94106247Y-59333333D01*
X94106247Y-59333333D02*
X94344342Y-59333333D01*
X94344342Y-59333333D02*
X94439580Y-59380952D01*
X94439580Y-59380952D02*
X94487200Y-59428571D01*
X94487200Y-59428571D02*
X94534819Y-59523809D01*
X94534819Y-59523809D02*
X94534819Y-59761904D01*
X94534819Y-59761904D02*
X94487200Y-59857142D01*
X94487200Y-59857142D02*
X94439580Y-59904761D01*
X99916666Y-48324819D02*
X99916666Y-49039104D01*
X99916666Y-49039104D02*
X99869047Y-49181961D01*
X99869047Y-49181961D02*
X99773809Y-49277200D01*
X99773809Y-49277200D02*
X99630952Y-49324819D01*
X99630952Y-49324819D02*
X99535714Y-49324819D01*
X100821428Y-48658152D02*
X100821428Y-49324819D01*
X100583333Y-48277200D02*
X100345238Y-48991485D01*
X100345238Y-48991485D02*
X100964285Y-48991485D01*
X153107142Y-85039580D02*
X153059523Y-85087200D01*
X153059523Y-85087200D02*
X152916666Y-85134819D01*
X152916666Y-85134819D02*
X152821428Y-85134819D01*
X152821428Y-85134819D02*
X152678571Y-85087200D01*
X152678571Y-85087200D02*
X152583333Y-84991961D01*
X152583333Y-84991961D02*
X152535714Y-84896723D01*
X152535714Y-84896723D02*
X152488095Y-84706247D01*
X152488095Y-84706247D02*
X152488095Y-84563390D01*
X152488095Y-84563390D02*
X152535714Y-84372914D01*
X152535714Y-84372914D02*
X152583333Y-84277676D01*
X152583333Y-84277676D02*
X152678571Y-84182438D01*
X152678571Y-84182438D02*
X152821428Y-84134819D01*
X152821428Y-84134819D02*
X152916666Y-84134819D01*
X152916666Y-84134819D02*
X153059523Y-84182438D01*
X153059523Y-84182438D02*
X153107142Y-84230057D01*
X154059523Y-85134819D02*
X153488095Y-85134819D01*
X153773809Y-85134819D02*
X153773809Y-84134819D01*
X153773809Y-84134819D02*
X153678571Y-84277676D01*
X153678571Y-84277676D02*
X153583333Y-84372914D01*
X153583333Y-84372914D02*
X153488095Y-84420533D01*
X155011904Y-85134819D02*
X154440476Y-85134819D01*
X154726190Y-85134819D02*
X154726190Y-84134819D01*
X154726190Y-84134819D02*
X154630952Y-84277676D01*
X154630952Y-84277676D02*
X154535714Y-84372914D01*
X154535714Y-84372914D02*
X154440476Y-84420533D01*
X98858095Y-85404819D02*
X98858095Y-86214342D01*
X98858095Y-86214342D02*
X98905714Y-86309580D01*
X98905714Y-86309580D02*
X98953333Y-86357200D01*
X98953333Y-86357200D02*
X99048571Y-86404819D01*
X99048571Y-86404819D02*
X99239047Y-86404819D01*
X99239047Y-86404819D02*
X99334285Y-86357200D01*
X99334285Y-86357200D02*
X99381904Y-86309580D01*
X99381904Y-86309580D02*
X99429523Y-86214342D01*
X99429523Y-86214342D02*
X99429523Y-85404819D01*
X99858095Y-85500057D02*
X99905714Y-85452438D01*
X99905714Y-85452438D02*
X100000952Y-85404819D01*
X100000952Y-85404819D02*
X100239047Y-85404819D01*
X100239047Y-85404819D02*
X100334285Y-85452438D01*
X100334285Y-85452438D02*
X100381904Y-85500057D01*
X100381904Y-85500057D02*
X100429523Y-85595295D01*
X100429523Y-85595295D02*
X100429523Y-85690533D01*
X100429523Y-85690533D02*
X100381904Y-85833390D01*
X100381904Y-85833390D02*
X99810476Y-86404819D01*
X99810476Y-86404819D02*
X100429523Y-86404819D01*
X104884819Y-83142857D02*
X104408628Y-83476190D01*
X104884819Y-83714285D02*
X103884819Y-83714285D01*
X103884819Y-83714285D02*
X103884819Y-83333333D01*
X103884819Y-83333333D02*
X103932438Y-83238095D01*
X103932438Y-83238095D02*
X103980057Y-83190476D01*
X103980057Y-83190476D02*
X104075295Y-83142857D01*
X104075295Y-83142857D02*
X104218152Y-83142857D01*
X104218152Y-83142857D02*
X104313390Y-83190476D01*
X104313390Y-83190476D02*
X104361009Y-83238095D01*
X104361009Y-83238095D02*
X104408628Y-83333333D01*
X104408628Y-83333333D02*
X104408628Y-83714285D01*
X104884819Y-82190476D02*
X104884819Y-82761904D01*
X104884819Y-82476190D02*
X103884819Y-82476190D01*
X103884819Y-82476190D02*
X104027676Y-82571428D01*
X104027676Y-82571428D02*
X104122914Y-82666666D01*
X104122914Y-82666666D02*
X104170533Y-82761904D01*
X104884819Y-81714285D02*
X104884819Y-81523809D01*
X104884819Y-81523809D02*
X104837200Y-81428571D01*
X104837200Y-81428571D02*
X104789580Y-81380952D01*
X104789580Y-81380952D02*
X104646723Y-81285714D01*
X104646723Y-81285714D02*
X104456247Y-81238095D01*
X104456247Y-81238095D02*
X104075295Y-81238095D01*
X104075295Y-81238095D02*
X103980057Y-81285714D01*
X103980057Y-81285714D02*
X103932438Y-81333333D01*
X103932438Y-81333333D02*
X103884819Y-81428571D01*
X103884819Y-81428571D02*
X103884819Y-81619047D01*
X103884819Y-81619047D02*
X103932438Y-81714285D01*
X103932438Y-81714285D02*
X103980057Y-81761904D01*
X103980057Y-81761904D02*
X104075295Y-81809523D01*
X104075295Y-81809523D02*
X104313390Y-81809523D01*
X104313390Y-81809523D02*
X104408628Y-81761904D01*
X104408628Y-81761904D02*
X104456247Y-81714285D01*
X104456247Y-81714285D02*
X104503866Y-81619047D01*
X104503866Y-81619047D02*
X104503866Y-81428571D01*
X104503866Y-81428571D02*
X104456247Y-81333333D01*
X104456247Y-81333333D02*
X104408628Y-81285714D01*
X104408628Y-81285714D02*
X104313390Y-81238095D01*
X126051905Y-48054819D02*
X126051905Y-48864342D01*
X126051905Y-48864342D02*
X126099524Y-48959580D01*
X126099524Y-48959580D02*
X126147143Y-49007200D01*
X126147143Y-49007200D02*
X126242381Y-49054819D01*
X126242381Y-49054819D02*
X126432857Y-49054819D01*
X126432857Y-49054819D02*
X126528095Y-49007200D01*
X126528095Y-49007200D02*
X126575714Y-48959580D01*
X126575714Y-48959580D02*
X126623333Y-48864342D01*
X126623333Y-48864342D02*
X126623333Y-48054819D01*
X127623333Y-49054819D02*
X127051905Y-49054819D01*
X127337619Y-49054819D02*
X127337619Y-48054819D01*
X127337619Y-48054819D02*
X127242381Y-48197676D01*
X127242381Y-48197676D02*
X127147143Y-48292914D01*
X127147143Y-48292914D02*
X127051905Y-48340533D01*
X128242381Y-48054819D02*
X128337619Y-48054819D01*
X128337619Y-48054819D02*
X128432857Y-48102438D01*
X128432857Y-48102438D02*
X128480476Y-48150057D01*
X128480476Y-48150057D02*
X128528095Y-48245295D01*
X128528095Y-48245295D02*
X128575714Y-48435771D01*
X128575714Y-48435771D02*
X128575714Y-48673866D01*
X128575714Y-48673866D02*
X128528095Y-48864342D01*
X128528095Y-48864342D02*
X128480476Y-48959580D01*
X128480476Y-48959580D02*
X128432857Y-49007200D01*
X128432857Y-49007200D02*
X128337619Y-49054819D01*
X128337619Y-49054819D02*
X128242381Y-49054819D01*
X128242381Y-49054819D02*
X128147143Y-49007200D01*
X128147143Y-49007200D02*
X128099524Y-48959580D01*
X128099524Y-48959580D02*
X128051905Y-48864342D01*
X128051905Y-48864342D02*
X128004286Y-48673866D01*
X128004286Y-48673866D02*
X128004286Y-48435771D01*
X128004286Y-48435771D02*
X128051905Y-48245295D01*
X128051905Y-48245295D02*
X128099524Y-48150057D01*
X128099524Y-48150057D02*
X128147143Y-48102438D01*
X128147143Y-48102438D02*
X128242381Y-48054819D01*
X97566667Y-128657200D02*
X97709524Y-128704819D01*
X97709524Y-128704819D02*
X97947619Y-128704819D01*
X97947619Y-128704819D02*
X98042857Y-128657200D01*
X98042857Y-128657200D02*
X98090476Y-128609580D01*
X98090476Y-128609580D02*
X98138095Y-128514342D01*
X98138095Y-128514342D02*
X98138095Y-128419104D01*
X98138095Y-128419104D02*
X98090476Y-128323866D01*
X98090476Y-128323866D02*
X98042857Y-128276247D01*
X98042857Y-128276247D02*
X97947619Y-128228628D01*
X97947619Y-128228628D02*
X97757143Y-128181009D01*
X97757143Y-128181009D02*
X97661905Y-128133390D01*
X97661905Y-128133390D02*
X97614286Y-128085771D01*
X97614286Y-128085771D02*
X97566667Y-127990533D01*
X97566667Y-127990533D02*
X97566667Y-127895295D01*
X97566667Y-127895295D02*
X97614286Y-127800057D01*
X97614286Y-127800057D02*
X97661905Y-127752438D01*
X97661905Y-127752438D02*
X97757143Y-127704819D01*
X97757143Y-127704819D02*
X97995238Y-127704819D01*
X97995238Y-127704819D02*
X98138095Y-127752438D01*
X98471429Y-127704819D02*
X98709524Y-128704819D01*
X98709524Y-128704819D02*
X98900000Y-127990533D01*
X98900000Y-127990533D02*
X99090476Y-128704819D01*
X99090476Y-128704819D02*
X99328572Y-127704819D01*
X99661905Y-127800057D02*
X99709524Y-127752438D01*
X99709524Y-127752438D02*
X99804762Y-127704819D01*
X99804762Y-127704819D02*
X100042857Y-127704819D01*
X100042857Y-127704819D02*
X100138095Y-127752438D01*
X100138095Y-127752438D02*
X100185714Y-127800057D01*
X100185714Y-127800057D02*
X100233333Y-127895295D01*
X100233333Y-127895295D02*
X100233333Y-127990533D01*
X100233333Y-127990533D02*
X100185714Y-128133390D01*
X100185714Y-128133390D02*
X99614286Y-128704819D01*
X99614286Y-128704819D02*
X100233333Y-128704819D01*
X123524819Y-91666666D02*
X123048628Y-91999999D01*
X123524819Y-92238094D02*
X122524819Y-92238094D01*
X122524819Y-92238094D02*
X122524819Y-91857142D01*
X122524819Y-91857142D02*
X122572438Y-91761904D01*
X122572438Y-91761904D02*
X122620057Y-91714285D01*
X122620057Y-91714285D02*
X122715295Y-91666666D01*
X122715295Y-91666666D02*
X122858152Y-91666666D01*
X122858152Y-91666666D02*
X122953390Y-91714285D01*
X122953390Y-91714285D02*
X123001009Y-91761904D01*
X123001009Y-91761904D02*
X123048628Y-91857142D01*
X123048628Y-91857142D02*
X123048628Y-92238094D01*
X122953390Y-91095237D02*
X122905771Y-91190475D01*
X122905771Y-91190475D02*
X122858152Y-91238094D01*
X122858152Y-91238094D02*
X122762914Y-91285713D01*
X122762914Y-91285713D02*
X122715295Y-91285713D01*
X122715295Y-91285713D02*
X122620057Y-91238094D01*
X122620057Y-91238094D02*
X122572438Y-91190475D01*
X122572438Y-91190475D02*
X122524819Y-91095237D01*
X122524819Y-91095237D02*
X122524819Y-90904761D01*
X122524819Y-90904761D02*
X122572438Y-90809523D01*
X122572438Y-90809523D02*
X122620057Y-90761904D01*
X122620057Y-90761904D02*
X122715295Y-90714285D01*
X122715295Y-90714285D02*
X122762914Y-90714285D01*
X122762914Y-90714285D02*
X122858152Y-90761904D01*
X122858152Y-90761904D02*
X122905771Y-90809523D01*
X122905771Y-90809523D02*
X122953390Y-90904761D01*
X122953390Y-90904761D02*
X122953390Y-91095237D01*
X122953390Y-91095237D02*
X123001009Y-91190475D01*
X123001009Y-91190475D02*
X123048628Y-91238094D01*
X123048628Y-91238094D02*
X123143866Y-91285713D01*
X123143866Y-91285713D02*
X123334342Y-91285713D01*
X123334342Y-91285713D02*
X123429580Y-91238094D01*
X123429580Y-91238094D02*
X123477200Y-91190475D01*
X123477200Y-91190475D02*
X123524819Y-91095237D01*
X123524819Y-91095237D02*
X123524819Y-90904761D01*
X123524819Y-90904761D02*
X123477200Y-90809523D01*
X123477200Y-90809523D02*
X123429580Y-90761904D01*
X123429580Y-90761904D02*
X123334342Y-90714285D01*
X123334342Y-90714285D02*
X123143866Y-90714285D01*
X123143866Y-90714285D02*
X123048628Y-90761904D01*
X123048628Y-90761904D02*
X123001009Y-90809523D01*
X123001009Y-90809523D02*
X122953390Y-90904761D01*
X124147142Y-54224819D02*
X123813809Y-53748628D01*
X123575714Y-54224819D02*
X123575714Y-53224819D01*
X123575714Y-53224819D02*
X123956666Y-53224819D01*
X123956666Y-53224819D02*
X124051904Y-53272438D01*
X124051904Y-53272438D02*
X124099523Y-53320057D01*
X124099523Y-53320057D02*
X124147142Y-53415295D01*
X124147142Y-53415295D02*
X124147142Y-53558152D01*
X124147142Y-53558152D02*
X124099523Y-53653390D01*
X124099523Y-53653390D02*
X124051904Y-53701009D01*
X124051904Y-53701009D02*
X123956666Y-53748628D01*
X123956666Y-53748628D02*
X123575714Y-53748628D01*
X125099523Y-54224819D02*
X124528095Y-54224819D01*
X124813809Y-54224819D02*
X124813809Y-53224819D01*
X124813809Y-53224819D02*
X124718571Y-53367676D01*
X124718571Y-53367676D02*
X124623333Y-53462914D01*
X124623333Y-53462914D02*
X124528095Y-53510533D01*
X125956666Y-53558152D02*
X125956666Y-54224819D01*
X125718571Y-53177200D02*
X125480476Y-53891485D01*
X125480476Y-53891485D02*
X126099523Y-53891485D01*
X107429580Y-82666666D02*
X107477200Y-82714285D01*
X107477200Y-82714285D02*
X107524819Y-82857142D01*
X107524819Y-82857142D02*
X107524819Y-82952380D01*
X107524819Y-82952380D02*
X107477200Y-83095237D01*
X107477200Y-83095237D02*
X107381961Y-83190475D01*
X107381961Y-83190475D02*
X107286723Y-83238094D01*
X107286723Y-83238094D02*
X107096247Y-83285713D01*
X107096247Y-83285713D02*
X106953390Y-83285713D01*
X106953390Y-83285713D02*
X106762914Y-83238094D01*
X106762914Y-83238094D02*
X106667676Y-83190475D01*
X106667676Y-83190475D02*
X106572438Y-83095237D01*
X106572438Y-83095237D02*
X106524819Y-82952380D01*
X106524819Y-82952380D02*
X106524819Y-82857142D01*
X106524819Y-82857142D02*
X106572438Y-82714285D01*
X106572438Y-82714285D02*
X106620057Y-82666666D01*
X106620057Y-82285713D02*
X106572438Y-82238094D01*
X106572438Y-82238094D02*
X106524819Y-82142856D01*
X106524819Y-82142856D02*
X106524819Y-81904761D01*
X106524819Y-81904761D02*
X106572438Y-81809523D01*
X106572438Y-81809523D02*
X106620057Y-81761904D01*
X106620057Y-81761904D02*
X106715295Y-81714285D01*
X106715295Y-81714285D02*
X106810533Y-81714285D01*
X106810533Y-81714285D02*
X106953390Y-81761904D01*
X106953390Y-81761904D02*
X107524819Y-82333332D01*
X107524819Y-82333332D02*
X107524819Y-81714285D01*
X153082142Y-99289580D02*
X153034523Y-99337200D01*
X153034523Y-99337200D02*
X152891666Y-99384819D01*
X152891666Y-99384819D02*
X152796428Y-99384819D01*
X152796428Y-99384819D02*
X152653571Y-99337200D01*
X152653571Y-99337200D02*
X152558333Y-99241961D01*
X152558333Y-99241961D02*
X152510714Y-99146723D01*
X152510714Y-99146723D02*
X152463095Y-98956247D01*
X152463095Y-98956247D02*
X152463095Y-98813390D01*
X152463095Y-98813390D02*
X152510714Y-98622914D01*
X152510714Y-98622914D02*
X152558333Y-98527676D01*
X152558333Y-98527676D02*
X152653571Y-98432438D01*
X152653571Y-98432438D02*
X152796428Y-98384819D01*
X152796428Y-98384819D02*
X152891666Y-98384819D01*
X152891666Y-98384819D02*
X153034523Y-98432438D01*
X153034523Y-98432438D02*
X153082142Y-98480057D01*
X154034523Y-99384819D02*
X153463095Y-99384819D01*
X153748809Y-99384819D02*
X153748809Y-98384819D01*
X153748809Y-98384819D02*
X153653571Y-98527676D01*
X153653571Y-98527676D02*
X153558333Y-98622914D01*
X153558333Y-98622914D02*
X153463095Y-98670533D01*
X154415476Y-98480057D02*
X154463095Y-98432438D01*
X154463095Y-98432438D02*
X154558333Y-98384819D01*
X154558333Y-98384819D02*
X154796428Y-98384819D01*
X154796428Y-98384819D02*
X154891666Y-98432438D01*
X154891666Y-98432438D02*
X154939285Y-98480057D01*
X154939285Y-98480057D02*
X154986904Y-98575295D01*
X154986904Y-98575295D02*
X154986904Y-98670533D01*
X154986904Y-98670533D02*
X154939285Y-98813390D01*
X154939285Y-98813390D02*
X154367857Y-99384819D01*
X154367857Y-99384819D02*
X154986904Y-99384819D01*
X104416666Y-48324819D02*
X104416666Y-49039104D01*
X104416666Y-49039104D02*
X104369047Y-49181961D01*
X104369047Y-49181961D02*
X104273809Y-49277200D01*
X104273809Y-49277200D02*
X104130952Y-49324819D01*
X104130952Y-49324819D02*
X104035714Y-49324819D01*
X104940476Y-49324819D02*
X105130952Y-49324819D01*
X105130952Y-49324819D02*
X105226190Y-49277200D01*
X105226190Y-49277200D02*
X105273809Y-49229580D01*
X105273809Y-49229580D02*
X105369047Y-49086723D01*
X105369047Y-49086723D02*
X105416666Y-48896247D01*
X105416666Y-48896247D02*
X105416666Y-48515295D01*
X105416666Y-48515295D02*
X105369047Y-48420057D01*
X105369047Y-48420057D02*
X105321428Y-48372438D01*
X105321428Y-48372438D02*
X105226190Y-48324819D01*
X105226190Y-48324819D02*
X105035714Y-48324819D01*
X105035714Y-48324819D02*
X104940476Y-48372438D01*
X104940476Y-48372438D02*
X104892857Y-48420057D01*
X104892857Y-48420057D02*
X104845238Y-48515295D01*
X104845238Y-48515295D02*
X104845238Y-48753390D01*
X104845238Y-48753390D02*
X104892857Y-48848628D01*
X104892857Y-48848628D02*
X104940476Y-48896247D01*
X104940476Y-48896247D02*
X105035714Y-48943866D01*
X105035714Y-48943866D02*
X105226190Y-48943866D01*
X105226190Y-48943866D02*
X105321428Y-48896247D01*
X105321428Y-48896247D02*
X105369047Y-48848628D01*
X105369047Y-48848628D02*
X105416666Y-48753390D01*
X115333333Y-124929580D02*
X115285714Y-124977200D01*
X115285714Y-124977200D02*
X115142857Y-125024819D01*
X115142857Y-125024819D02*
X115047619Y-125024819D01*
X115047619Y-125024819D02*
X114904762Y-124977200D01*
X114904762Y-124977200D02*
X114809524Y-124881961D01*
X114809524Y-124881961D02*
X114761905Y-124786723D01*
X114761905Y-124786723D02*
X114714286Y-124596247D01*
X114714286Y-124596247D02*
X114714286Y-124453390D01*
X114714286Y-124453390D02*
X114761905Y-124262914D01*
X114761905Y-124262914D02*
X114809524Y-124167676D01*
X114809524Y-124167676D02*
X114904762Y-124072438D01*
X114904762Y-124072438D02*
X115047619Y-124024819D01*
X115047619Y-124024819D02*
X115142857Y-124024819D01*
X115142857Y-124024819D02*
X115285714Y-124072438D01*
X115285714Y-124072438D02*
X115333333Y-124120057D01*
X115666667Y-124024819D02*
X116285714Y-124024819D01*
X116285714Y-124024819D02*
X115952381Y-124405771D01*
X115952381Y-124405771D02*
X116095238Y-124405771D01*
X116095238Y-124405771D02*
X116190476Y-124453390D01*
X116190476Y-124453390D02*
X116238095Y-124501009D01*
X116238095Y-124501009D02*
X116285714Y-124596247D01*
X116285714Y-124596247D02*
X116285714Y-124834342D01*
X116285714Y-124834342D02*
X116238095Y-124929580D01*
X116238095Y-124929580D02*
X116190476Y-124977200D01*
X116190476Y-124977200D02*
X116095238Y-125024819D01*
X116095238Y-125024819D02*
X115809524Y-125024819D01*
X115809524Y-125024819D02*
X115714286Y-124977200D01*
X115714286Y-124977200D02*
X115666667Y-124929580D01*
X112416667Y-49252200D02*
X112559524Y-49299819D01*
X112559524Y-49299819D02*
X112797619Y-49299819D01*
X112797619Y-49299819D02*
X112892857Y-49252200D01*
X112892857Y-49252200D02*
X112940476Y-49204580D01*
X112940476Y-49204580D02*
X112988095Y-49109342D01*
X112988095Y-49109342D02*
X112988095Y-49014104D01*
X112988095Y-49014104D02*
X112940476Y-48918866D01*
X112940476Y-48918866D02*
X112892857Y-48871247D01*
X112892857Y-48871247D02*
X112797619Y-48823628D01*
X112797619Y-48823628D02*
X112607143Y-48776009D01*
X112607143Y-48776009D02*
X112511905Y-48728390D01*
X112511905Y-48728390D02*
X112464286Y-48680771D01*
X112464286Y-48680771D02*
X112416667Y-48585533D01*
X112416667Y-48585533D02*
X112416667Y-48490295D01*
X112416667Y-48490295D02*
X112464286Y-48395057D01*
X112464286Y-48395057D02*
X112511905Y-48347438D01*
X112511905Y-48347438D02*
X112607143Y-48299819D01*
X112607143Y-48299819D02*
X112845238Y-48299819D01*
X112845238Y-48299819D02*
X112988095Y-48347438D01*
X113321429Y-48299819D02*
X113559524Y-49299819D01*
X113559524Y-49299819D02*
X113750000Y-48585533D01*
X113750000Y-48585533D02*
X113940476Y-49299819D01*
X113940476Y-49299819D02*
X114178572Y-48299819D01*
X114988095Y-48633152D02*
X114988095Y-49299819D01*
X114750000Y-48252200D02*
X114511905Y-48966485D01*
X114511905Y-48966485D02*
X115130952Y-48966485D01*
X117916666Y-48299819D02*
X117916666Y-49014104D01*
X117916666Y-49014104D02*
X117869047Y-49156961D01*
X117869047Y-49156961D02*
X117773809Y-49252200D01*
X117773809Y-49252200D02*
X117630952Y-49299819D01*
X117630952Y-49299819D02*
X117535714Y-49299819D01*
X118345238Y-48395057D02*
X118392857Y-48347438D01*
X118392857Y-48347438D02*
X118488095Y-48299819D01*
X118488095Y-48299819D02*
X118726190Y-48299819D01*
X118726190Y-48299819D02*
X118821428Y-48347438D01*
X118821428Y-48347438D02*
X118869047Y-48395057D01*
X118869047Y-48395057D02*
X118916666Y-48490295D01*
X118916666Y-48490295D02*
X118916666Y-48585533D01*
X118916666Y-48585533D02*
X118869047Y-48728390D01*
X118869047Y-48728390D02*
X118297619Y-49299819D01*
X118297619Y-49299819D02*
X118916666Y-49299819D01*
X136054761Y-88860057D02*
X135959523Y-88812438D01*
X135959523Y-88812438D02*
X135864285Y-88717200D01*
X135864285Y-88717200D02*
X135721428Y-88574342D01*
X135721428Y-88574342D02*
X135626190Y-88526723D01*
X135626190Y-88526723D02*
X135530952Y-88526723D01*
X135578571Y-88764819D02*
X135483333Y-88717200D01*
X135483333Y-88717200D02*
X135388095Y-88621961D01*
X135388095Y-88621961D02*
X135340476Y-88431485D01*
X135340476Y-88431485D02*
X135340476Y-88098152D01*
X135340476Y-88098152D02*
X135388095Y-87907676D01*
X135388095Y-87907676D02*
X135483333Y-87812438D01*
X135483333Y-87812438D02*
X135578571Y-87764819D01*
X135578571Y-87764819D02*
X135769047Y-87764819D01*
X135769047Y-87764819D02*
X135864285Y-87812438D01*
X135864285Y-87812438D02*
X135959523Y-87907676D01*
X135959523Y-87907676D02*
X136007142Y-88098152D01*
X136007142Y-88098152D02*
X136007142Y-88431485D01*
X136007142Y-88431485D02*
X135959523Y-88621961D01*
X135959523Y-88621961D02*
X135864285Y-88717200D01*
X135864285Y-88717200D02*
X135769047Y-88764819D01*
X135769047Y-88764819D02*
X135578571Y-88764819D01*
X136340476Y-87764819D02*
X136959523Y-87764819D01*
X136959523Y-87764819D02*
X136626190Y-88145771D01*
X136626190Y-88145771D02*
X136769047Y-88145771D01*
X136769047Y-88145771D02*
X136864285Y-88193390D01*
X136864285Y-88193390D02*
X136911904Y-88241009D01*
X136911904Y-88241009D02*
X136959523Y-88336247D01*
X136959523Y-88336247D02*
X136959523Y-88574342D01*
X136959523Y-88574342D02*
X136911904Y-88669580D01*
X136911904Y-88669580D02*
X136864285Y-88717200D01*
X136864285Y-88717200D02*
X136769047Y-88764819D01*
X136769047Y-88764819D02*
X136483333Y-88764819D01*
X136483333Y-88764819D02*
X136388095Y-88717200D01*
X136388095Y-88717200D02*
X136340476Y-88669580D01*
X144204819Y-111142857D02*
X143728628Y-111476190D01*
X144204819Y-111714285D02*
X143204819Y-111714285D01*
X143204819Y-111714285D02*
X143204819Y-111333333D01*
X143204819Y-111333333D02*
X143252438Y-111238095D01*
X143252438Y-111238095D02*
X143300057Y-111190476D01*
X143300057Y-111190476D02*
X143395295Y-111142857D01*
X143395295Y-111142857D02*
X143538152Y-111142857D01*
X143538152Y-111142857D02*
X143633390Y-111190476D01*
X143633390Y-111190476D02*
X143681009Y-111238095D01*
X143681009Y-111238095D02*
X143728628Y-111333333D01*
X143728628Y-111333333D02*
X143728628Y-111714285D01*
X144204819Y-110190476D02*
X144204819Y-110761904D01*
X144204819Y-110476190D02*
X143204819Y-110476190D01*
X143204819Y-110476190D02*
X143347676Y-110571428D01*
X143347676Y-110571428D02*
X143442914Y-110666666D01*
X143442914Y-110666666D02*
X143490533Y-110761904D01*
X143204819Y-109857142D02*
X143204819Y-109238095D01*
X143204819Y-109238095D02*
X143585771Y-109571428D01*
X143585771Y-109571428D02*
X143585771Y-109428571D01*
X143585771Y-109428571D02*
X143633390Y-109333333D01*
X143633390Y-109333333D02*
X143681009Y-109285714D01*
X143681009Y-109285714D02*
X143776247Y-109238095D01*
X143776247Y-109238095D02*
X144014342Y-109238095D01*
X144014342Y-109238095D02*
X144109580Y-109285714D01*
X144109580Y-109285714D02*
X144157200Y-109333333D01*
X144157200Y-109333333D02*
X144204819Y-109428571D01*
X144204819Y-109428571D02*
X144204819Y-109714285D01*
X144204819Y-109714285D02*
X144157200Y-109809523D01*
X144157200Y-109809523D02*
X144109580Y-109857142D01*
X136054761Y-73860057D02*
X135959523Y-73812438D01*
X135959523Y-73812438D02*
X135864285Y-73717200D01*
X135864285Y-73717200D02*
X135721428Y-73574342D01*
X135721428Y-73574342D02*
X135626190Y-73526723D01*
X135626190Y-73526723D02*
X135530952Y-73526723D01*
X135578571Y-73764819D02*
X135483333Y-73717200D01*
X135483333Y-73717200D02*
X135388095Y-73621961D01*
X135388095Y-73621961D02*
X135340476Y-73431485D01*
X135340476Y-73431485D02*
X135340476Y-73098152D01*
X135340476Y-73098152D02*
X135388095Y-72907676D01*
X135388095Y-72907676D02*
X135483333Y-72812438D01*
X135483333Y-72812438D02*
X135578571Y-72764819D01*
X135578571Y-72764819D02*
X135769047Y-72764819D01*
X135769047Y-72764819D02*
X135864285Y-72812438D01*
X135864285Y-72812438D02*
X135959523Y-72907676D01*
X135959523Y-72907676D02*
X136007142Y-73098152D01*
X136007142Y-73098152D02*
X136007142Y-73431485D01*
X136007142Y-73431485D02*
X135959523Y-73621961D01*
X135959523Y-73621961D02*
X135864285Y-73717200D01*
X135864285Y-73717200D02*
X135769047Y-73764819D01*
X135769047Y-73764819D02*
X135578571Y-73764819D01*
X136388095Y-72860057D02*
X136435714Y-72812438D01*
X136435714Y-72812438D02*
X136530952Y-72764819D01*
X136530952Y-72764819D02*
X136769047Y-72764819D01*
X136769047Y-72764819D02*
X136864285Y-72812438D01*
X136864285Y-72812438D02*
X136911904Y-72860057D01*
X136911904Y-72860057D02*
X136959523Y-72955295D01*
X136959523Y-72955295D02*
X136959523Y-73050533D01*
X136959523Y-73050533D02*
X136911904Y-73193390D01*
X136911904Y-73193390D02*
X136340476Y-73764819D01*
X136340476Y-73764819D02*
X136959523Y-73764819D01*
X111190476Y-126059819D02*
X111190476Y-126774104D01*
X111190476Y-126774104D02*
X111142857Y-126916961D01*
X111142857Y-126916961D02*
X111047619Y-127012200D01*
X111047619Y-127012200D02*
X110904762Y-127059819D01*
X110904762Y-127059819D02*
X110809524Y-127059819D01*
X112190476Y-127059819D02*
X111619048Y-127059819D01*
X111904762Y-127059819D02*
X111904762Y-126059819D01*
X111904762Y-126059819D02*
X111809524Y-126202676D01*
X111809524Y-126202676D02*
X111714286Y-126297914D01*
X111714286Y-126297914D02*
X111619048Y-126345533D01*
X112809524Y-126059819D02*
X112904762Y-126059819D01*
X112904762Y-126059819D02*
X113000000Y-126107438D01*
X113000000Y-126107438D02*
X113047619Y-126155057D01*
X113047619Y-126155057D02*
X113095238Y-126250295D01*
X113095238Y-126250295D02*
X113142857Y-126440771D01*
X113142857Y-126440771D02*
X113142857Y-126678866D01*
X113142857Y-126678866D02*
X113095238Y-126869342D01*
X113095238Y-126869342D02*
X113047619Y-126964580D01*
X113047619Y-126964580D02*
X113000000Y-127012200D01*
X113000000Y-127012200D02*
X112904762Y-127059819D01*
X112904762Y-127059819D02*
X112809524Y-127059819D01*
X112809524Y-127059819D02*
X112714286Y-127012200D01*
X112714286Y-127012200D02*
X112666667Y-126964580D01*
X112666667Y-126964580D02*
X112619048Y-126869342D01*
X112619048Y-126869342D02*
X112571429Y-126678866D01*
X112571429Y-126678866D02*
X112571429Y-126440771D01*
X112571429Y-126440771D02*
X112619048Y-126250295D01*
X112619048Y-126250295D02*
X112666667Y-126155057D01*
X112666667Y-126155057D02*
X112714286Y-126107438D01*
X112714286Y-126107438D02*
X112809524Y-126059819D01*
X153107142Y-114289580D02*
X153059523Y-114337200D01*
X153059523Y-114337200D02*
X152916666Y-114384819D01*
X152916666Y-114384819D02*
X152821428Y-114384819D01*
X152821428Y-114384819D02*
X152678571Y-114337200D01*
X152678571Y-114337200D02*
X152583333Y-114241961D01*
X152583333Y-114241961D02*
X152535714Y-114146723D01*
X152535714Y-114146723D02*
X152488095Y-113956247D01*
X152488095Y-113956247D02*
X152488095Y-113813390D01*
X152488095Y-113813390D02*
X152535714Y-113622914D01*
X152535714Y-113622914D02*
X152583333Y-113527676D01*
X152583333Y-113527676D02*
X152678571Y-113432438D01*
X152678571Y-113432438D02*
X152821428Y-113384819D01*
X152821428Y-113384819D02*
X152916666Y-113384819D01*
X152916666Y-113384819D02*
X153059523Y-113432438D01*
X153059523Y-113432438D02*
X153107142Y-113480057D01*
X154059523Y-114384819D02*
X153488095Y-114384819D01*
X153773809Y-114384819D02*
X153773809Y-113384819D01*
X153773809Y-113384819D02*
X153678571Y-113527676D01*
X153678571Y-113527676D02*
X153583333Y-113622914D01*
X153583333Y-113622914D02*
X153488095Y-113670533D01*
X154392857Y-113384819D02*
X155011904Y-113384819D01*
X155011904Y-113384819D02*
X154678571Y-113765771D01*
X154678571Y-113765771D02*
X154821428Y-113765771D01*
X154821428Y-113765771D02*
X154916666Y-113813390D01*
X154916666Y-113813390D02*
X154964285Y-113861009D01*
X154964285Y-113861009D02*
X155011904Y-113956247D01*
X155011904Y-113956247D02*
X155011904Y-114194342D01*
X155011904Y-114194342D02*
X154964285Y-114289580D01*
X154964285Y-114289580D02*
X154916666Y-114337200D01*
X154916666Y-114337200D02*
X154821428Y-114384819D01*
X154821428Y-114384819D02*
X154535714Y-114384819D01*
X154535714Y-114384819D02*
X154440476Y-114337200D01*
X154440476Y-114337200D02*
X154392857Y-114289580D01*
X161104819Y-110761904D02*
X161914342Y-110761904D01*
X161914342Y-110761904D02*
X162009580Y-110714285D01*
X162009580Y-110714285D02*
X162057200Y-110666666D01*
X162057200Y-110666666D02*
X162104819Y-110571428D01*
X162104819Y-110571428D02*
X162104819Y-110380952D01*
X162104819Y-110380952D02*
X162057200Y-110285714D01*
X162057200Y-110285714D02*
X162009580Y-110238095D01*
X162009580Y-110238095D02*
X161914342Y-110190476D01*
X161914342Y-110190476D02*
X161104819Y-110190476D01*
X162104819Y-109666666D02*
X162104819Y-109476190D01*
X162104819Y-109476190D02*
X162057200Y-109380952D01*
X162057200Y-109380952D02*
X162009580Y-109333333D01*
X162009580Y-109333333D02*
X161866723Y-109238095D01*
X161866723Y-109238095D02*
X161676247Y-109190476D01*
X161676247Y-109190476D02*
X161295295Y-109190476D01*
X161295295Y-109190476D02*
X161200057Y-109238095D01*
X161200057Y-109238095D02*
X161152438Y-109285714D01*
X161152438Y-109285714D02*
X161104819Y-109380952D01*
X161104819Y-109380952D02*
X161104819Y-109571428D01*
X161104819Y-109571428D02*
X161152438Y-109666666D01*
X161152438Y-109666666D02*
X161200057Y-109714285D01*
X161200057Y-109714285D02*
X161295295Y-109761904D01*
X161295295Y-109761904D02*
X161533390Y-109761904D01*
X161533390Y-109761904D02*
X161628628Y-109714285D01*
X161628628Y-109714285D02*
X161676247Y-109666666D01*
X161676247Y-109666666D02*
X161723866Y-109571428D01*
X161723866Y-109571428D02*
X161723866Y-109380952D01*
X161723866Y-109380952D02*
X161676247Y-109285714D01*
X161676247Y-109285714D02*
X161628628Y-109238095D01*
X161628628Y-109238095D02*
X161533390Y-109190476D01*
X155238095Y-126304819D02*
X155238095Y-125304819D01*
X155238095Y-125781009D02*
X155809523Y-125781009D01*
X155809523Y-126304819D02*
X155809523Y-125304819D01*
X156714285Y-125638152D02*
X156714285Y-126304819D01*
X156476190Y-125257200D02*
X156238095Y-125971485D01*
X156238095Y-125971485D02*
X156857142Y-125971485D01*
X136079761Y-103925057D02*
X135984523Y-103877438D01*
X135984523Y-103877438D02*
X135889285Y-103782200D01*
X135889285Y-103782200D02*
X135746428Y-103639342D01*
X135746428Y-103639342D02*
X135651190Y-103591723D01*
X135651190Y-103591723D02*
X135555952Y-103591723D01*
X135603571Y-103829819D02*
X135508333Y-103782200D01*
X135508333Y-103782200D02*
X135413095Y-103686961D01*
X135413095Y-103686961D02*
X135365476Y-103496485D01*
X135365476Y-103496485D02*
X135365476Y-103163152D01*
X135365476Y-103163152D02*
X135413095Y-102972676D01*
X135413095Y-102972676D02*
X135508333Y-102877438D01*
X135508333Y-102877438D02*
X135603571Y-102829819D01*
X135603571Y-102829819D02*
X135794047Y-102829819D01*
X135794047Y-102829819D02*
X135889285Y-102877438D01*
X135889285Y-102877438D02*
X135984523Y-102972676D01*
X135984523Y-102972676D02*
X136032142Y-103163152D01*
X136032142Y-103163152D02*
X136032142Y-103496485D01*
X136032142Y-103496485D02*
X135984523Y-103686961D01*
X135984523Y-103686961D02*
X135889285Y-103782200D01*
X135889285Y-103782200D02*
X135794047Y-103829819D01*
X135794047Y-103829819D02*
X135603571Y-103829819D01*
X136889285Y-103163152D02*
X136889285Y-103829819D01*
X136651190Y-102782200D02*
X136413095Y-103496485D01*
X136413095Y-103496485D02*
X137032142Y-103496485D01*
X105357142Y-86789580D02*
X105309523Y-86837200D01*
X105309523Y-86837200D02*
X105166666Y-86884819D01*
X105166666Y-86884819D02*
X105071428Y-86884819D01*
X105071428Y-86884819D02*
X104928571Y-86837200D01*
X104928571Y-86837200D02*
X104833333Y-86741961D01*
X104833333Y-86741961D02*
X104785714Y-86646723D01*
X104785714Y-86646723D02*
X104738095Y-86456247D01*
X104738095Y-86456247D02*
X104738095Y-86313390D01*
X104738095Y-86313390D02*
X104785714Y-86122914D01*
X104785714Y-86122914D02*
X104833333Y-86027676D01*
X104833333Y-86027676D02*
X104928571Y-85932438D01*
X104928571Y-85932438D02*
X105071428Y-85884819D01*
X105071428Y-85884819D02*
X105166666Y-85884819D01*
X105166666Y-85884819D02*
X105309523Y-85932438D01*
X105309523Y-85932438D02*
X105357142Y-85980057D01*
X106309523Y-86884819D02*
X105738095Y-86884819D01*
X106023809Y-86884819D02*
X106023809Y-85884819D01*
X106023809Y-85884819D02*
X105928571Y-86027676D01*
X105928571Y-86027676D02*
X105833333Y-86122914D01*
X105833333Y-86122914D02*
X105738095Y-86170533D01*
X107214285Y-85884819D02*
X106738095Y-85884819D01*
X106738095Y-85884819D02*
X106690476Y-86361009D01*
X106690476Y-86361009D02*
X106738095Y-86313390D01*
X106738095Y-86313390D02*
X106833333Y-86265771D01*
X106833333Y-86265771D02*
X107071428Y-86265771D01*
X107071428Y-86265771D02*
X107166666Y-86313390D01*
X107166666Y-86313390D02*
X107214285Y-86361009D01*
X107214285Y-86361009D02*
X107261904Y-86456247D01*
X107261904Y-86456247D02*
X107261904Y-86694342D01*
X107261904Y-86694342D02*
X107214285Y-86789580D01*
X107214285Y-86789580D02*
X107166666Y-86837200D01*
X107166666Y-86837200D02*
X107071428Y-86884819D01*
X107071428Y-86884819D02*
X106833333Y-86884819D01*
X106833333Y-86884819D02*
X106738095Y-86837200D01*
X106738095Y-86837200D02*
X106690476Y-86789580D01*
X98333333Y-115884819D02*
X98000000Y-115408628D01*
X97761905Y-115884819D02*
X97761905Y-114884819D01*
X97761905Y-114884819D02*
X98142857Y-114884819D01*
X98142857Y-114884819D02*
X98238095Y-114932438D01*
X98238095Y-114932438D02*
X98285714Y-114980057D01*
X98285714Y-114980057D02*
X98333333Y-115075295D01*
X98333333Y-115075295D02*
X98333333Y-115218152D01*
X98333333Y-115218152D02*
X98285714Y-115313390D01*
X98285714Y-115313390D02*
X98238095Y-115361009D01*
X98238095Y-115361009D02*
X98142857Y-115408628D01*
X98142857Y-115408628D02*
X97761905Y-115408628D01*
X99238095Y-114884819D02*
X98761905Y-114884819D01*
X98761905Y-114884819D02*
X98714286Y-115361009D01*
X98714286Y-115361009D02*
X98761905Y-115313390D01*
X98761905Y-115313390D02*
X98857143Y-115265771D01*
X98857143Y-115265771D02*
X99095238Y-115265771D01*
X99095238Y-115265771D02*
X99190476Y-115313390D01*
X99190476Y-115313390D02*
X99238095Y-115361009D01*
X99238095Y-115361009D02*
X99285714Y-115456247D01*
X99285714Y-115456247D02*
X99285714Y-115694342D01*
X99285714Y-115694342D02*
X99238095Y-115789580D01*
X99238095Y-115789580D02*
X99190476Y-115837200D01*
X99190476Y-115837200D02*
X99095238Y-115884819D01*
X99095238Y-115884819D02*
X98857143Y-115884819D01*
X98857143Y-115884819D02*
X98761905Y-115837200D01*
X98761905Y-115837200D02*
X98714286Y-115789580D01*
X107384819Y-83142857D02*
X106908628Y-83476190D01*
X107384819Y-83714285D02*
X106384819Y-83714285D01*
X106384819Y-83714285D02*
X106384819Y-83333333D01*
X106384819Y-83333333D02*
X106432438Y-83238095D01*
X106432438Y-83238095D02*
X106480057Y-83190476D01*
X106480057Y-83190476D02*
X106575295Y-83142857D01*
X106575295Y-83142857D02*
X106718152Y-83142857D01*
X106718152Y-83142857D02*
X106813390Y-83190476D01*
X106813390Y-83190476D02*
X106861009Y-83238095D01*
X106861009Y-83238095D02*
X106908628Y-83333333D01*
X106908628Y-83333333D02*
X106908628Y-83714285D01*
X106480057Y-82761904D02*
X106432438Y-82714285D01*
X106432438Y-82714285D02*
X106384819Y-82619047D01*
X106384819Y-82619047D02*
X106384819Y-82380952D01*
X106384819Y-82380952D02*
X106432438Y-82285714D01*
X106432438Y-82285714D02*
X106480057Y-82238095D01*
X106480057Y-82238095D02*
X106575295Y-82190476D01*
X106575295Y-82190476D02*
X106670533Y-82190476D01*
X106670533Y-82190476D02*
X106813390Y-82238095D01*
X106813390Y-82238095D02*
X107384819Y-82809523D01*
X107384819Y-82809523D02*
X107384819Y-82190476D01*
X106384819Y-81571428D02*
X106384819Y-81476190D01*
X106384819Y-81476190D02*
X106432438Y-81380952D01*
X106432438Y-81380952D02*
X106480057Y-81333333D01*
X106480057Y-81333333D02*
X106575295Y-81285714D01*
X106575295Y-81285714D02*
X106765771Y-81238095D01*
X106765771Y-81238095D02*
X107003866Y-81238095D01*
X107003866Y-81238095D02*
X107194342Y-81285714D01*
X107194342Y-81285714D02*
X107289580Y-81333333D01*
X107289580Y-81333333D02*
X107337200Y-81380952D01*
X107337200Y-81380952D02*
X107384819Y-81476190D01*
X107384819Y-81476190D02*
X107384819Y-81571428D01*
X107384819Y-81571428D02*
X107337200Y-81666666D01*
X107337200Y-81666666D02*
X107289580Y-81714285D01*
X107289580Y-81714285D02*
X107194342Y-81761904D01*
X107194342Y-81761904D02*
X107003866Y-81809523D01*
X107003866Y-81809523D02*
X106765771Y-81809523D01*
X106765771Y-81809523D02*
X106575295Y-81761904D01*
X106575295Y-81761904D02*
X106480057Y-81714285D01*
X106480057Y-81714285D02*
X106432438Y-81666666D01*
X106432438Y-81666666D02*
X106384819Y-81571428D01*
X153107142Y-70539580D02*
X153059523Y-70587200D01*
X153059523Y-70587200D02*
X152916666Y-70634819D01*
X152916666Y-70634819D02*
X152821428Y-70634819D01*
X152821428Y-70634819D02*
X152678571Y-70587200D01*
X152678571Y-70587200D02*
X152583333Y-70491961D01*
X152583333Y-70491961D02*
X152535714Y-70396723D01*
X152535714Y-70396723D02*
X152488095Y-70206247D01*
X152488095Y-70206247D02*
X152488095Y-70063390D01*
X152488095Y-70063390D02*
X152535714Y-69872914D01*
X152535714Y-69872914D02*
X152583333Y-69777676D01*
X152583333Y-69777676D02*
X152678571Y-69682438D01*
X152678571Y-69682438D02*
X152821428Y-69634819D01*
X152821428Y-69634819D02*
X152916666Y-69634819D01*
X152916666Y-69634819D02*
X153059523Y-69682438D01*
X153059523Y-69682438D02*
X153107142Y-69730057D01*
X154059523Y-70634819D02*
X153488095Y-70634819D01*
X153773809Y-70634819D02*
X153773809Y-69634819D01*
X153773809Y-69634819D02*
X153678571Y-69777676D01*
X153678571Y-69777676D02*
X153583333Y-69872914D01*
X153583333Y-69872914D02*
X153488095Y-69920533D01*
X154678571Y-69634819D02*
X154773809Y-69634819D01*
X154773809Y-69634819D02*
X154869047Y-69682438D01*
X154869047Y-69682438D02*
X154916666Y-69730057D01*
X154916666Y-69730057D02*
X154964285Y-69825295D01*
X154964285Y-69825295D02*
X155011904Y-70015771D01*
X155011904Y-70015771D02*
X155011904Y-70253866D01*
X155011904Y-70253866D02*
X154964285Y-70444342D01*
X154964285Y-70444342D02*
X154916666Y-70539580D01*
X154916666Y-70539580D02*
X154869047Y-70587200D01*
X154869047Y-70587200D02*
X154773809Y-70634819D01*
X154773809Y-70634819D02*
X154678571Y-70634819D01*
X154678571Y-70634819D02*
X154583333Y-70587200D01*
X154583333Y-70587200D02*
X154535714Y-70539580D01*
X154535714Y-70539580D02*
X154488095Y-70444342D01*
X154488095Y-70444342D02*
X154440476Y-70253866D01*
X154440476Y-70253866D02*
X154440476Y-70015771D01*
X154440476Y-70015771D02*
X154488095Y-69825295D01*
X154488095Y-69825295D02*
X154535714Y-69730057D01*
X154535714Y-69730057D02*
X154583333Y-69682438D01*
X154583333Y-69682438D02*
X154678571Y-69634819D01*
X107429580Y-120416666D02*
X107477200Y-120464285D01*
X107477200Y-120464285D02*
X107524819Y-120607142D01*
X107524819Y-120607142D02*
X107524819Y-120702380D01*
X107524819Y-120702380D02*
X107477200Y-120845237D01*
X107477200Y-120845237D02*
X107381961Y-120940475D01*
X107381961Y-120940475D02*
X107286723Y-120988094D01*
X107286723Y-120988094D02*
X107096247Y-121035713D01*
X107096247Y-121035713D02*
X106953390Y-121035713D01*
X106953390Y-121035713D02*
X106762914Y-120988094D01*
X106762914Y-120988094D02*
X106667676Y-120940475D01*
X106667676Y-120940475D02*
X106572438Y-120845237D01*
X106572438Y-120845237D02*
X106524819Y-120702380D01*
X106524819Y-120702380D02*
X106524819Y-120607142D01*
X106524819Y-120607142D02*
X106572438Y-120464285D01*
X106572438Y-120464285D02*
X106620057Y-120416666D01*
X106858152Y-119559523D02*
X107524819Y-119559523D01*
X106477200Y-119797618D02*
X107191485Y-120035713D01*
X107191485Y-120035713D02*
X107191485Y-119416666D01*
X161104819Y-95801904D02*
X161914342Y-95801904D01*
X161914342Y-95801904D02*
X162009580Y-95754285D01*
X162009580Y-95754285D02*
X162057200Y-95706666D01*
X162057200Y-95706666D02*
X162104819Y-95611428D01*
X162104819Y-95611428D02*
X162104819Y-95420952D01*
X162104819Y-95420952D02*
X162057200Y-95325714D01*
X162057200Y-95325714D02*
X162009580Y-95278095D01*
X162009580Y-95278095D02*
X161914342Y-95230476D01*
X161914342Y-95230476D02*
X161104819Y-95230476D01*
X161104819Y-94849523D02*
X161104819Y-94182857D01*
X161104819Y-94182857D02*
X162104819Y-94611428D01*
X148079580Y-56366666D02*
X148127200Y-56414285D01*
X148127200Y-56414285D02*
X148174819Y-56557142D01*
X148174819Y-56557142D02*
X148174819Y-56652380D01*
X148174819Y-56652380D02*
X148127200Y-56795237D01*
X148127200Y-56795237D02*
X148031961Y-56890475D01*
X148031961Y-56890475D02*
X147936723Y-56938094D01*
X147936723Y-56938094D02*
X147746247Y-56985713D01*
X147746247Y-56985713D02*
X147603390Y-56985713D01*
X147603390Y-56985713D02*
X147412914Y-56938094D01*
X147412914Y-56938094D02*
X147317676Y-56890475D01*
X147317676Y-56890475D02*
X147222438Y-56795237D01*
X147222438Y-56795237D02*
X147174819Y-56652380D01*
X147174819Y-56652380D02*
X147174819Y-56557142D01*
X147174819Y-56557142D02*
X147222438Y-56414285D01*
X147222438Y-56414285D02*
X147270057Y-56366666D01*
X148174819Y-55890475D02*
X148174819Y-55699999D01*
X148174819Y-55699999D02*
X148127200Y-55604761D01*
X148127200Y-55604761D02*
X148079580Y-55557142D01*
X148079580Y-55557142D02*
X147936723Y-55461904D01*
X147936723Y-55461904D02*
X147746247Y-55414285D01*
X147746247Y-55414285D02*
X147365295Y-55414285D01*
X147365295Y-55414285D02*
X147270057Y-55461904D01*
X147270057Y-55461904D02*
X147222438Y-55509523D01*
X147222438Y-55509523D02*
X147174819Y-55604761D01*
X147174819Y-55604761D02*
X147174819Y-55795237D01*
X147174819Y-55795237D02*
X147222438Y-55890475D01*
X147222438Y-55890475D02*
X147270057Y-55938094D01*
X147270057Y-55938094D02*
X147365295Y-55985713D01*
X147365295Y-55985713D02*
X147603390Y-55985713D01*
X147603390Y-55985713D02*
X147698628Y-55938094D01*
X147698628Y-55938094D02*
X147746247Y-55890475D01*
X147746247Y-55890475D02*
X147793866Y-55795237D01*
X147793866Y-55795237D02*
X147793866Y-55604761D01*
X147793866Y-55604761D02*
X147746247Y-55509523D01*
X147746247Y-55509523D02*
X147698628Y-55461904D01*
X147698628Y-55461904D02*
X147603390Y-55414285D01*
X115233333Y-123224819D02*
X114900000Y-122748628D01*
X114661905Y-123224819D02*
X114661905Y-122224819D01*
X114661905Y-122224819D02*
X115042857Y-122224819D01*
X115042857Y-122224819D02*
X115138095Y-122272438D01*
X115138095Y-122272438D02*
X115185714Y-122320057D01*
X115185714Y-122320057D02*
X115233333Y-122415295D01*
X115233333Y-122415295D02*
X115233333Y-122558152D01*
X115233333Y-122558152D02*
X115185714Y-122653390D01*
X115185714Y-122653390D02*
X115138095Y-122701009D01*
X115138095Y-122701009D02*
X115042857Y-122748628D01*
X115042857Y-122748628D02*
X114661905Y-122748628D01*
X115566667Y-122224819D02*
X116185714Y-122224819D01*
X116185714Y-122224819D02*
X115852381Y-122605771D01*
X115852381Y-122605771D02*
X115995238Y-122605771D01*
X115995238Y-122605771D02*
X116090476Y-122653390D01*
X116090476Y-122653390D02*
X116138095Y-122701009D01*
X116138095Y-122701009D02*
X116185714Y-122796247D01*
X116185714Y-122796247D02*
X116185714Y-123034342D01*
X116185714Y-123034342D02*
X116138095Y-123129580D01*
X116138095Y-123129580D02*
X116090476Y-123177200D01*
X116090476Y-123177200D02*
X115995238Y-123224819D01*
X115995238Y-123224819D02*
X115709524Y-123224819D01*
X115709524Y-123224819D02*
X115614286Y-123177200D01*
X115614286Y-123177200D02*
X115566667Y-123129580D01*
X144204819Y-66142857D02*
X143728628Y-66476190D01*
X144204819Y-66714285D02*
X143204819Y-66714285D01*
X143204819Y-66714285D02*
X143204819Y-66333333D01*
X143204819Y-66333333D02*
X143252438Y-66238095D01*
X143252438Y-66238095D02*
X143300057Y-66190476D01*
X143300057Y-66190476D02*
X143395295Y-66142857D01*
X143395295Y-66142857D02*
X143538152Y-66142857D01*
X143538152Y-66142857D02*
X143633390Y-66190476D01*
X143633390Y-66190476D02*
X143681009Y-66238095D01*
X143681009Y-66238095D02*
X143728628Y-66333333D01*
X143728628Y-66333333D02*
X143728628Y-66714285D01*
X144204819Y-65190476D02*
X144204819Y-65761904D01*
X144204819Y-65476190D02*
X143204819Y-65476190D01*
X143204819Y-65476190D02*
X143347676Y-65571428D01*
X143347676Y-65571428D02*
X143442914Y-65666666D01*
X143442914Y-65666666D02*
X143490533Y-65761904D01*
X143204819Y-64571428D02*
X143204819Y-64476190D01*
X143204819Y-64476190D02*
X143252438Y-64380952D01*
X143252438Y-64380952D02*
X143300057Y-64333333D01*
X143300057Y-64333333D02*
X143395295Y-64285714D01*
X143395295Y-64285714D02*
X143585771Y-64238095D01*
X143585771Y-64238095D02*
X143823866Y-64238095D01*
X143823866Y-64238095D02*
X144014342Y-64285714D01*
X144014342Y-64285714D02*
X144109580Y-64333333D01*
X144109580Y-64333333D02*
X144157200Y-64380952D01*
X144157200Y-64380952D02*
X144204819Y-64476190D01*
X144204819Y-64476190D02*
X144204819Y-64571428D01*
X144204819Y-64571428D02*
X144157200Y-64666666D01*
X144157200Y-64666666D02*
X144109580Y-64714285D01*
X144109580Y-64714285D02*
X144014342Y-64761904D01*
X144014342Y-64761904D02*
X143823866Y-64809523D01*
X143823866Y-64809523D02*
X143585771Y-64809523D01*
X143585771Y-64809523D02*
X143395295Y-64761904D01*
X143395295Y-64761904D02*
X143300057Y-64714285D01*
X143300057Y-64714285D02*
X143252438Y-64666666D01*
X143252438Y-64666666D02*
X143204819Y-64571428D01*
X135979761Y-59125057D02*
X135884523Y-59077438D01*
X135884523Y-59077438D02*
X135789285Y-58982200D01*
X135789285Y-58982200D02*
X135646428Y-58839342D01*
X135646428Y-58839342D02*
X135551190Y-58791723D01*
X135551190Y-58791723D02*
X135455952Y-58791723D01*
X135503571Y-59029819D02*
X135408333Y-58982200D01*
X135408333Y-58982200D02*
X135313095Y-58886961D01*
X135313095Y-58886961D02*
X135265476Y-58696485D01*
X135265476Y-58696485D02*
X135265476Y-58363152D01*
X135265476Y-58363152D02*
X135313095Y-58172676D01*
X135313095Y-58172676D02*
X135408333Y-58077438D01*
X135408333Y-58077438D02*
X135503571Y-58029819D01*
X135503571Y-58029819D02*
X135694047Y-58029819D01*
X135694047Y-58029819D02*
X135789285Y-58077438D01*
X135789285Y-58077438D02*
X135884523Y-58172676D01*
X135884523Y-58172676D02*
X135932142Y-58363152D01*
X135932142Y-58363152D02*
X135932142Y-58696485D01*
X135932142Y-58696485D02*
X135884523Y-58886961D01*
X135884523Y-58886961D02*
X135789285Y-58982200D01*
X135789285Y-58982200D02*
X135694047Y-59029819D01*
X135694047Y-59029819D02*
X135503571Y-59029819D01*
X136884523Y-59029819D02*
X136313095Y-59029819D01*
X136598809Y-59029819D02*
X136598809Y-58029819D01*
X136598809Y-58029819D02*
X136503571Y-58172676D01*
X136503571Y-58172676D02*
X136408333Y-58267914D01*
X136408333Y-58267914D02*
X136313095Y-58315533D01*
X144204819Y-96142857D02*
X143728628Y-96476190D01*
X144204819Y-96714285D02*
X143204819Y-96714285D01*
X143204819Y-96714285D02*
X143204819Y-96333333D01*
X143204819Y-96333333D02*
X143252438Y-96238095D01*
X143252438Y-96238095D02*
X143300057Y-96190476D01*
X143300057Y-96190476D02*
X143395295Y-96142857D01*
X143395295Y-96142857D02*
X143538152Y-96142857D01*
X143538152Y-96142857D02*
X143633390Y-96190476D01*
X143633390Y-96190476D02*
X143681009Y-96238095D01*
X143681009Y-96238095D02*
X143728628Y-96333333D01*
X143728628Y-96333333D02*
X143728628Y-96714285D01*
X144204819Y-95190476D02*
X144204819Y-95761904D01*
X144204819Y-95476190D02*
X143204819Y-95476190D01*
X143204819Y-95476190D02*
X143347676Y-95571428D01*
X143347676Y-95571428D02*
X143442914Y-95666666D01*
X143442914Y-95666666D02*
X143490533Y-95761904D01*
X143300057Y-94809523D02*
X143252438Y-94761904D01*
X143252438Y-94761904D02*
X143204819Y-94666666D01*
X143204819Y-94666666D02*
X143204819Y-94428571D01*
X143204819Y-94428571D02*
X143252438Y-94333333D01*
X143252438Y-94333333D02*
X143300057Y-94285714D01*
X143300057Y-94285714D02*
X143395295Y-94238095D01*
X143395295Y-94238095D02*
X143490533Y-94238095D01*
X143490533Y-94238095D02*
X143633390Y-94285714D01*
X143633390Y-94285714D02*
X144204819Y-94857142D01*
X144204819Y-94857142D02*
X144204819Y-94238095D01*
X123524819Y-61916666D02*
X123048628Y-62249999D01*
X123524819Y-62488094D02*
X122524819Y-62488094D01*
X122524819Y-62488094D02*
X122524819Y-62107142D01*
X122524819Y-62107142D02*
X122572438Y-62011904D01*
X122572438Y-62011904D02*
X122620057Y-61964285D01*
X122620057Y-61964285D02*
X122715295Y-61916666D01*
X122715295Y-61916666D02*
X122858152Y-61916666D01*
X122858152Y-61916666D02*
X122953390Y-61964285D01*
X122953390Y-61964285D02*
X123001009Y-62011904D01*
X123001009Y-62011904D02*
X123048628Y-62107142D01*
X123048628Y-62107142D02*
X123048628Y-62488094D01*
X122524819Y-61059523D02*
X122524819Y-61249999D01*
X122524819Y-61249999D02*
X122572438Y-61345237D01*
X122572438Y-61345237D02*
X122620057Y-61392856D01*
X122620057Y-61392856D02*
X122762914Y-61488094D01*
X122762914Y-61488094D02*
X122953390Y-61535713D01*
X122953390Y-61535713D02*
X123334342Y-61535713D01*
X123334342Y-61535713D02*
X123429580Y-61488094D01*
X123429580Y-61488094D02*
X123477200Y-61440475D01*
X123477200Y-61440475D02*
X123524819Y-61345237D01*
X123524819Y-61345237D02*
X123524819Y-61154761D01*
X123524819Y-61154761D02*
X123477200Y-61059523D01*
X123477200Y-61059523D02*
X123429580Y-61011904D01*
X123429580Y-61011904D02*
X123334342Y-60964285D01*
X123334342Y-60964285D02*
X123096247Y-60964285D01*
X123096247Y-60964285D02*
X123001009Y-61011904D01*
X123001009Y-61011904D02*
X122953390Y-61059523D01*
X122953390Y-61059523D02*
X122905771Y-61154761D01*
X122905771Y-61154761D02*
X122905771Y-61345237D01*
X122905771Y-61345237D02*
X122953390Y-61440475D01*
X122953390Y-61440475D02*
X123001009Y-61488094D01*
X123001009Y-61488094D02*
X123096247Y-61535713D01*
X96804819Y-118238094D02*
X95804819Y-118238094D01*
X95804819Y-118238094D02*
X95804819Y-117999999D01*
X95804819Y-117999999D02*
X95852438Y-117857142D01*
X95852438Y-117857142D02*
X95947676Y-117761904D01*
X95947676Y-117761904D02*
X96042914Y-117714285D01*
X96042914Y-117714285D02*
X96233390Y-117666666D01*
X96233390Y-117666666D02*
X96376247Y-117666666D01*
X96376247Y-117666666D02*
X96566723Y-117714285D01*
X96566723Y-117714285D02*
X96661961Y-117761904D01*
X96661961Y-117761904D02*
X96757200Y-117857142D01*
X96757200Y-117857142D02*
X96804819Y-117999999D01*
X96804819Y-117999999D02*
X96804819Y-118238094D01*
X95900057Y-117285713D02*
X95852438Y-117238094D01*
X95852438Y-117238094D02*
X95804819Y-117142856D01*
X95804819Y-117142856D02*
X95804819Y-116904761D01*
X95804819Y-116904761D02*
X95852438Y-116809523D01*
X95852438Y-116809523D02*
X95900057Y-116761904D01*
X95900057Y-116761904D02*
X95995295Y-116714285D01*
X95995295Y-116714285D02*
X96090533Y-116714285D01*
X96090533Y-116714285D02*
X96233390Y-116761904D01*
X96233390Y-116761904D02*
X96804819Y-117333332D01*
X96804819Y-117333332D02*
X96804819Y-116714285D01*
X101900057Y-67220238D02*
X101852438Y-67315476D01*
X101852438Y-67315476D02*
X101757200Y-67410714D01*
X101757200Y-67410714D02*
X101614342Y-67553571D01*
X101614342Y-67553571D02*
X101566723Y-67648809D01*
X101566723Y-67648809D02*
X101566723Y-67744047D01*
X101804819Y-67696428D02*
X101757200Y-67791666D01*
X101757200Y-67791666D02*
X101661961Y-67886904D01*
X101661961Y-67886904D02*
X101471485Y-67934523D01*
X101471485Y-67934523D02*
X101138152Y-67934523D01*
X101138152Y-67934523D02*
X100947676Y-67886904D01*
X100947676Y-67886904D02*
X100852438Y-67791666D01*
X100852438Y-67791666D02*
X100804819Y-67696428D01*
X100804819Y-67696428D02*
X100804819Y-67505952D01*
X100804819Y-67505952D02*
X100852438Y-67410714D01*
X100852438Y-67410714D02*
X100947676Y-67315476D01*
X100947676Y-67315476D02*
X101138152Y-67267857D01*
X101138152Y-67267857D02*
X101471485Y-67267857D01*
X101471485Y-67267857D02*
X101661961Y-67315476D01*
X101661961Y-67315476D02*
X101757200Y-67410714D01*
X101757200Y-67410714D02*
X101804819Y-67505952D01*
X101804819Y-67505952D02*
X101804819Y-67696428D01*
X100804819Y-66363095D02*
X100804819Y-66839285D01*
X100804819Y-66839285D02*
X101281009Y-66886904D01*
X101281009Y-66886904D02*
X101233390Y-66839285D01*
X101233390Y-66839285D02*
X101185771Y-66744047D01*
X101185771Y-66744047D02*
X101185771Y-66505952D01*
X101185771Y-66505952D02*
X101233390Y-66410714D01*
X101233390Y-66410714D02*
X101281009Y-66363095D01*
X101281009Y-66363095D02*
X101376247Y-66315476D01*
X101376247Y-66315476D02*
X101614342Y-66315476D01*
X101614342Y-66315476D02*
X101709580Y-66363095D01*
X101709580Y-66363095D02*
X101757200Y-66410714D01*
X101757200Y-66410714D02*
X101804819Y-66505952D01*
X101804819Y-66505952D02*
X101804819Y-66744047D01*
X101804819Y-66744047D02*
X101757200Y-66839285D01*
X101757200Y-66839285D02*
X101709580Y-66886904D01*
X98857142Y-81524819D02*
X98523809Y-81048628D01*
X98285714Y-81524819D02*
X98285714Y-80524819D01*
X98285714Y-80524819D02*
X98666666Y-80524819D01*
X98666666Y-80524819D02*
X98761904Y-80572438D01*
X98761904Y-80572438D02*
X98809523Y-80620057D01*
X98809523Y-80620057D02*
X98857142Y-80715295D01*
X98857142Y-80715295D02*
X98857142Y-80858152D01*
X98857142Y-80858152D02*
X98809523Y-80953390D01*
X98809523Y-80953390D02*
X98761904Y-81001009D01*
X98761904Y-81001009D02*
X98666666Y-81048628D01*
X98666666Y-81048628D02*
X98285714Y-81048628D01*
X99809523Y-81524819D02*
X99238095Y-81524819D01*
X99523809Y-81524819D02*
X99523809Y-80524819D01*
X99523809Y-80524819D02*
X99428571Y-80667676D01*
X99428571Y-80667676D02*
X99333333Y-80762914D01*
X99333333Y-80762914D02*
X99238095Y-80810533D01*
X100380952Y-80953390D02*
X100285714Y-80905771D01*
X100285714Y-80905771D02*
X100238095Y-80858152D01*
X100238095Y-80858152D02*
X100190476Y-80762914D01*
X100190476Y-80762914D02*
X100190476Y-80715295D01*
X100190476Y-80715295D02*
X100238095Y-80620057D01*
X100238095Y-80620057D02*
X100285714Y-80572438D01*
X100285714Y-80572438D02*
X100380952Y-80524819D01*
X100380952Y-80524819D02*
X100571428Y-80524819D01*
X100571428Y-80524819D02*
X100666666Y-80572438D01*
X100666666Y-80572438D02*
X100714285Y-80620057D01*
X100714285Y-80620057D02*
X100761904Y-80715295D01*
X100761904Y-80715295D02*
X100761904Y-80762914D01*
X100761904Y-80762914D02*
X100714285Y-80858152D01*
X100714285Y-80858152D02*
X100666666Y-80905771D01*
X100666666Y-80905771D02*
X100571428Y-80953390D01*
X100571428Y-80953390D02*
X100380952Y-80953390D01*
X100380952Y-80953390D02*
X100285714Y-81001009D01*
X100285714Y-81001009D02*
X100238095Y-81048628D01*
X100238095Y-81048628D02*
X100190476Y-81143866D01*
X100190476Y-81143866D02*
X100190476Y-81334342D01*
X100190476Y-81334342D02*
X100238095Y-81429580D01*
X100238095Y-81429580D02*
X100285714Y-81477200D01*
X100285714Y-81477200D02*
X100380952Y-81524819D01*
X100380952Y-81524819D02*
X100571428Y-81524819D01*
X100571428Y-81524819D02*
X100666666Y-81477200D01*
X100666666Y-81477200D02*
X100714285Y-81429580D01*
X100714285Y-81429580D02*
X100761904Y-81334342D01*
X100761904Y-81334342D02*
X100761904Y-81143866D01*
X100761904Y-81143866D02*
X100714285Y-81048628D01*
X100714285Y-81048628D02*
X100666666Y-81001009D01*
X100666666Y-81001009D02*
X100571428Y-80953390D01*
X109704819Y-119936904D02*
X110514342Y-119936904D01*
X110514342Y-119936904D02*
X110609580Y-119889285D01*
X110609580Y-119889285D02*
X110657200Y-119841666D01*
X110657200Y-119841666D02*
X110704819Y-119746428D01*
X110704819Y-119746428D02*
X110704819Y-119555952D01*
X110704819Y-119555952D02*
X110657200Y-119460714D01*
X110657200Y-119460714D02*
X110609580Y-119413095D01*
X110609580Y-119413095D02*
X110514342Y-119365476D01*
X110514342Y-119365476D02*
X109704819Y-119365476D01*
X109704819Y-118984523D02*
X109704819Y-118365476D01*
X109704819Y-118365476D02*
X110085771Y-118698809D01*
X110085771Y-118698809D02*
X110085771Y-118555952D01*
X110085771Y-118555952D02*
X110133390Y-118460714D01*
X110133390Y-118460714D02*
X110181009Y-118413095D01*
X110181009Y-118413095D02*
X110276247Y-118365476D01*
X110276247Y-118365476D02*
X110514342Y-118365476D01*
X110514342Y-118365476D02*
X110609580Y-118413095D01*
X110609580Y-118413095D02*
X110657200Y-118460714D01*
X110657200Y-118460714D02*
X110704819Y-118555952D01*
X110704819Y-118555952D02*
X110704819Y-118841666D01*
X110704819Y-118841666D02*
X110657200Y-118936904D01*
X110657200Y-118936904D02*
X110609580Y-118984523D01*
X109429580Y-82666666D02*
X109477200Y-82714285D01*
X109477200Y-82714285D02*
X109524819Y-82857142D01*
X109524819Y-82857142D02*
X109524819Y-82952380D01*
X109524819Y-82952380D02*
X109477200Y-83095237D01*
X109477200Y-83095237D02*
X109381961Y-83190475D01*
X109381961Y-83190475D02*
X109286723Y-83238094D01*
X109286723Y-83238094D02*
X109096247Y-83285713D01*
X109096247Y-83285713D02*
X108953390Y-83285713D01*
X108953390Y-83285713D02*
X108762914Y-83238094D01*
X108762914Y-83238094D02*
X108667676Y-83190475D01*
X108667676Y-83190475D02*
X108572438Y-83095237D01*
X108572438Y-83095237D02*
X108524819Y-82952380D01*
X108524819Y-82952380D02*
X108524819Y-82857142D01*
X108524819Y-82857142D02*
X108572438Y-82714285D01*
X108572438Y-82714285D02*
X108620057Y-82666666D01*
X109524819Y-81714285D02*
X109524819Y-82285713D01*
X109524819Y-81999999D02*
X108524819Y-81999999D01*
X108524819Y-81999999D02*
X108667676Y-82095237D01*
X108667676Y-82095237D02*
X108762914Y-82190475D01*
X108762914Y-82190475D02*
X108810533Y-82285713D01*
X161104819Y-66721904D02*
X161914342Y-66721904D01*
X161914342Y-66721904D02*
X162009580Y-66674285D01*
X162009580Y-66674285D02*
X162057200Y-66626666D01*
X162057200Y-66626666D02*
X162104819Y-66531428D01*
X162104819Y-66531428D02*
X162104819Y-66340952D01*
X162104819Y-66340952D02*
X162057200Y-66245714D01*
X162057200Y-66245714D02*
X162009580Y-66198095D01*
X162009580Y-66198095D02*
X161914342Y-66150476D01*
X161914342Y-66150476D02*
X161104819Y-66150476D01*
X161104819Y-65198095D02*
X161104819Y-65674285D01*
X161104819Y-65674285D02*
X161581009Y-65721904D01*
X161581009Y-65721904D02*
X161533390Y-65674285D01*
X161533390Y-65674285D02*
X161485771Y-65579047D01*
X161485771Y-65579047D02*
X161485771Y-65340952D01*
X161485771Y-65340952D02*
X161533390Y-65245714D01*
X161533390Y-65245714D02*
X161581009Y-65198095D01*
X161581009Y-65198095D02*
X161676247Y-65150476D01*
X161676247Y-65150476D02*
X161914342Y-65150476D01*
X161914342Y-65150476D02*
X162009580Y-65198095D01*
X162009580Y-65198095D02*
X162057200Y-65245714D01*
X162057200Y-65245714D02*
X162104819Y-65340952D01*
X162104819Y-65340952D02*
X162104819Y-65579047D01*
X162104819Y-65579047D02*
X162057200Y-65674285D01*
X162057200Y-65674285D02*
X162009580Y-65721904D01*
X123524819Y-76591666D02*
X123048628Y-76924999D01*
X123524819Y-77163094D02*
X122524819Y-77163094D01*
X122524819Y-77163094D02*
X122524819Y-76782142D01*
X122524819Y-76782142D02*
X122572438Y-76686904D01*
X122572438Y-76686904D02*
X122620057Y-76639285D01*
X122620057Y-76639285D02*
X122715295Y-76591666D01*
X122715295Y-76591666D02*
X122858152Y-76591666D01*
X122858152Y-76591666D02*
X122953390Y-76639285D01*
X122953390Y-76639285D02*
X123001009Y-76686904D01*
X123001009Y-76686904D02*
X123048628Y-76782142D01*
X123048628Y-76782142D02*
X123048628Y-77163094D01*
X122524819Y-76258332D02*
X122524819Y-75591666D01*
X122524819Y-75591666D02*
X123524819Y-76020237D01*
X124147142Y-56224819D02*
X123813809Y-55748628D01*
X123575714Y-56224819D02*
X123575714Y-55224819D01*
X123575714Y-55224819D02*
X123956666Y-55224819D01*
X123956666Y-55224819D02*
X124051904Y-55272438D01*
X124051904Y-55272438D02*
X124099523Y-55320057D01*
X124099523Y-55320057D02*
X124147142Y-55415295D01*
X124147142Y-55415295D02*
X124147142Y-55558152D01*
X124147142Y-55558152D02*
X124099523Y-55653390D01*
X124099523Y-55653390D02*
X124051904Y-55701009D01*
X124051904Y-55701009D02*
X123956666Y-55748628D01*
X123956666Y-55748628D02*
X123575714Y-55748628D01*
X125099523Y-56224819D02*
X124528095Y-56224819D01*
X124813809Y-56224819D02*
X124813809Y-55224819D01*
X124813809Y-55224819D02*
X124718571Y-55367676D01*
X124718571Y-55367676D02*
X124623333Y-55462914D01*
X124623333Y-55462914D02*
X124528095Y-55510533D01*
X126004285Y-55224819D02*
X125528095Y-55224819D01*
X125528095Y-55224819D02*
X125480476Y-55701009D01*
X125480476Y-55701009D02*
X125528095Y-55653390D01*
X125528095Y-55653390D02*
X125623333Y-55605771D01*
X125623333Y-55605771D02*
X125861428Y-55605771D01*
X125861428Y-55605771D02*
X125956666Y-55653390D01*
X125956666Y-55653390D02*
X126004285Y-55701009D01*
X126004285Y-55701009D02*
X126051904Y-55796247D01*
X126051904Y-55796247D02*
X126051904Y-56034342D01*
X126051904Y-56034342D02*
X126004285Y-56129580D01*
X126004285Y-56129580D02*
X125956666Y-56177200D01*
X125956666Y-56177200D02*
X125861428Y-56224819D01*
X125861428Y-56224819D02*
X125623333Y-56224819D01*
X125623333Y-56224819D02*
X125528095Y-56177200D01*
X125528095Y-56177200D02*
X125480476Y-56129580D01*
X123524819Y-106916666D02*
X123048628Y-107249999D01*
X123524819Y-107488094D02*
X122524819Y-107488094D01*
X122524819Y-107488094D02*
X122524819Y-107107142D01*
X122524819Y-107107142D02*
X122572438Y-107011904D01*
X122572438Y-107011904D02*
X122620057Y-106964285D01*
X122620057Y-106964285D02*
X122715295Y-106916666D01*
X122715295Y-106916666D02*
X122858152Y-106916666D01*
X122858152Y-106916666D02*
X122953390Y-106964285D01*
X122953390Y-106964285D02*
X123001009Y-107011904D01*
X123001009Y-107011904D02*
X123048628Y-107107142D01*
X123048628Y-107107142D02*
X123048628Y-107488094D01*
X123524819Y-106440475D02*
X123524819Y-106249999D01*
X123524819Y-106249999D02*
X123477200Y-106154761D01*
X123477200Y-106154761D02*
X123429580Y-106107142D01*
X123429580Y-106107142D02*
X123286723Y-106011904D01*
X123286723Y-106011904D02*
X123096247Y-105964285D01*
X123096247Y-105964285D02*
X122715295Y-105964285D01*
X122715295Y-105964285D02*
X122620057Y-106011904D01*
X122620057Y-106011904D02*
X122572438Y-106059523D01*
X122572438Y-106059523D02*
X122524819Y-106154761D01*
X122524819Y-106154761D02*
X122524819Y-106345237D01*
X122524819Y-106345237D02*
X122572438Y-106440475D01*
X122572438Y-106440475D02*
X122620057Y-106488094D01*
X122620057Y-106488094D02*
X122715295Y-106535713D01*
X122715295Y-106535713D02*
X122953390Y-106535713D01*
X122953390Y-106535713D02*
X123048628Y-106488094D01*
X123048628Y-106488094D02*
X123096247Y-106440475D01*
X123096247Y-106440475D02*
X123143866Y-106345237D01*
X123143866Y-106345237D02*
X123143866Y-106154761D01*
X123143866Y-106154761D02*
X123096247Y-106059523D01*
X123096247Y-106059523D02*
X123048628Y-106011904D01*
X123048628Y-106011904D02*
X122953390Y-105964285D01*
X140647142Y-54224819D02*
X140313809Y-53748628D01*
X140075714Y-54224819D02*
X140075714Y-53224819D01*
X140075714Y-53224819D02*
X140456666Y-53224819D01*
X140456666Y-53224819D02*
X140551904Y-53272438D01*
X140551904Y-53272438D02*
X140599523Y-53320057D01*
X140599523Y-53320057D02*
X140647142Y-53415295D01*
X140647142Y-53415295D02*
X140647142Y-53558152D01*
X140647142Y-53558152D02*
X140599523Y-53653390D01*
X140599523Y-53653390D02*
X140551904Y-53701009D01*
X140551904Y-53701009D02*
X140456666Y-53748628D01*
X140456666Y-53748628D02*
X140075714Y-53748628D01*
X141599523Y-54224819D02*
X141028095Y-54224819D01*
X141313809Y-54224819D02*
X141313809Y-53224819D01*
X141313809Y-53224819D02*
X141218571Y-53367676D01*
X141218571Y-53367676D02*
X141123333Y-53462914D01*
X141123333Y-53462914D02*
X141028095Y-53510533D01*
X141932857Y-53224819D02*
X142599523Y-53224819D01*
X142599523Y-53224819D02*
X142170952Y-54224819D01*
X95416666Y-48324819D02*
X95416666Y-49039104D01*
X95416666Y-49039104D02*
X95369047Y-49181961D01*
X95369047Y-49181961D02*
X95273809Y-49277200D01*
X95273809Y-49277200D02*
X95130952Y-49324819D01*
X95130952Y-49324819D02*
X95035714Y-49324819D01*
X95797619Y-48324819D02*
X96416666Y-48324819D01*
X96416666Y-48324819D02*
X96083333Y-48705771D01*
X96083333Y-48705771D02*
X96226190Y-48705771D01*
X96226190Y-48705771D02*
X96321428Y-48753390D01*
X96321428Y-48753390D02*
X96369047Y-48801009D01*
X96369047Y-48801009D02*
X96416666Y-48896247D01*
X96416666Y-48896247D02*
X96416666Y-49134342D01*
X96416666Y-49134342D02*
X96369047Y-49229580D01*
X96369047Y-49229580D02*
X96321428Y-49277200D01*
X96321428Y-49277200D02*
X96226190Y-49324819D01*
X96226190Y-49324819D02*
X95940476Y-49324819D01*
X95940476Y-49324819D02*
X95845238Y-49277200D01*
X95845238Y-49277200D02*
X95797619Y-49229580D01*
X93534819Y-81833333D02*
X94249104Y-81833333D01*
X94249104Y-81833333D02*
X94391961Y-81880952D01*
X94391961Y-81880952D02*
X94487200Y-81976190D01*
X94487200Y-81976190D02*
X94534819Y-82119047D01*
X94534819Y-82119047D02*
X94534819Y-82214285D01*
X93534819Y-80928571D02*
X93534819Y-81119047D01*
X93534819Y-81119047D02*
X93582438Y-81214285D01*
X93582438Y-81214285D02*
X93630057Y-81261904D01*
X93630057Y-81261904D02*
X93772914Y-81357142D01*
X93772914Y-81357142D02*
X93963390Y-81404761D01*
X93963390Y-81404761D02*
X94344342Y-81404761D01*
X94344342Y-81404761D02*
X94439580Y-81357142D01*
X94439580Y-81357142D02*
X94487200Y-81309523D01*
X94487200Y-81309523D02*
X94534819Y-81214285D01*
X94534819Y-81214285D02*
X94534819Y-81023809D01*
X94534819Y-81023809D02*
X94487200Y-80928571D01*
X94487200Y-80928571D02*
X94439580Y-80880952D01*
X94439580Y-80880952D02*
X94344342Y-80833333D01*
X94344342Y-80833333D02*
X94106247Y-80833333D01*
X94106247Y-80833333D02*
X94011009Y-80880952D01*
X94011009Y-80880952D02*
X93963390Y-80928571D01*
X93963390Y-80928571D02*
X93915771Y-81023809D01*
X93915771Y-81023809D02*
X93915771Y-81214285D01*
X93915771Y-81214285D02*
X93963390Y-81309523D01*
X93963390Y-81309523D02*
X94011009Y-81357142D01*
X94011009Y-81357142D02*
X94106247Y-81404761D01*
X107357142Y-77524819D02*
X107023809Y-77048628D01*
X106785714Y-77524819D02*
X106785714Y-76524819D01*
X106785714Y-76524819D02*
X107166666Y-76524819D01*
X107166666Y-76524819D02*
X107261904Y-76572438D01*
X107261904Y-76572438D02*
X107309523Y-76620057D01*
X107309523Y-76620057D02*
X107357142Y-76715295D01*
X107357142Y-76715295D02*
X107357142Y-76858152D01*
X107357142Y-76858152D02*
X107309523Y-76953390D01*
X107309523Y-76953390D02*
X107261904Y-77001009D01*
X107261904Y-77001009D02*
X107166666Y-77048628D01*
X107166666Y-77048628D02*
X106785714Y-77048628D01*
X107738095Y-76620057D02*
X107785714Y-76572438D01*
X107785714Y-76572438D02*
X107880952Y-76524819D01*
X107880952Y-76524819D02*
X108119047Y-76524819D01*
X108119047Y-76524819D02*
X108214285Y-76572438D01*
X108214285Y-76572438D02*
X108261904Y-76620057D01*
X108261904Y-76620057D02*
X108309523Y-76715295D01*
X108309523Y-76715295D02*
X108309523Y-76810533D01*
X108309523Y-76810533D02*
X108261904Y-76953390D01*
X108261904Y-76953390D02*
X107690476Y-77524819D01*
X107690476Y-77524819D02*
X108309523Y-77524819D01*
X108690476Y-76620057D02*
X108738095Y-76572438D01*
X108738095Y-76572438D02*
X108833333Y-76524819D01*
X108833333Y-76524819D02*
X109071428Y-76524819D01*
X109071428Y-76524819D02*
X109166666Y-76572438D01*
X109166666Y-76572438D02*
X109214285Y-76620057D01*
X109214285Y-76620057D02*
X109261904Y-76715295D01*
X109261904Y-76715295D02*
X109261904Y-76810533D01*
X109261904Y-76810533D02*
X109214285Y-76953390D01*
X109214285Y-76953390D02*
X108642857Y-77524819D01*
X108642857Y-77524819D02*
X109261904Y-77524819D01*
X138488095Y-133704819D02*
X138488095Y-134514342D01*
X138488095Y-134514342D02*
X138535714Y-134609580D01*
X138535714Y-134609580D02*
X138583333Y-134657200D01*
X138583333Y-134657200D02*
X138678571Y-134704819D01*
X138678571Y-134704819D02*
X138869047Y-134704819D01*
X138869047Y-134704819D02*
X138964285Y-134657200D01*
X138964285Y-134657200D02*
X139011904Y-134609580D01*
X139011904Y-134609580D02*
X139059523Y-134514342D01*
X139059523Y-134514342D02*
X139059523Y-133704819D01*
X139678571Y-134133390D02*
X139583333Y-134085771D01*
X139583333Y-134085771D02*
X139535714Y-134038152D01*
X139535714Y-134038152D02*
X139488095Y-133942914D01*
X139488095Y-133942914D02*
X139488095Y-133895295D01*
X139488095Y-133895295D02*
X139535714Y-133800057D01*
X139535714Y-133800057D02*
X139583333Y-133752438D01*
X139583333Y-133752438D02*
X139678571Y-133704819D01*
X139678571Y-133704819D02*
X139869047Y-133704819D01*
X139869047Y-133704819D02*
X139964285Y-133752438D01*
X139964285Y-133752438D02*
X140011904Y-133800057D01*
X140011904Y-133800057D02*
X140059523Y-133895295D01*
X140059523Y-133895295D02*
X140059523Y-133942914D01*
X140059523Y-133942914D02*
X140011904Y-134038152D01*
X140011904Y-134038152D02*
X139964285Y-134085771D01*
X139964285Y-134085771D02*
X139869047Y-134133390D01*
X139869047Y-134133390D02*
X139678571Y-134133390D01*
X139678571Y-134133390D02*
X139583333Y-134181009D01*
X139583333Y-134181009D02*
X139535714Y-134228628D01*
X139535714Y-134228628D02*
X139488095Y-134323866D01*
X139488095Y-134323866D02*
X139488095Y-134514342D01*
X139488095Y-134514342D02*
X139535714Y-134609580D01*
X139535714Y-134609580D02*
X139583333Y-134657200D01*
X139583333Y-134657200D02*
X139678571Y-134704819D01*
X139678571Y-134704819D02*
X139869047Y-134704819D01*
X139869047Y-134704819D02*
X139964285Y-134657200D01*
X139964285Y-134657200D02*
X140011904Y-134609580D01*
X140011904Y-134609580D02*
X140059523Y-134514342D01*
X140059523Y-134514342D02*
X140059523Y-134323866D01*
X140059523Y-134323866D02*
X140011904Y-134228628D01*
X140011904Y-134228628D02*
X139964285Y-134181009D01*
X139964285Y-134181009D02*
X139869047Y-134133390D01*
X129579580Y-56366666D02*
X129627200Y-56414285D01*
X129627200Y-56414285D02*
X129674819Y-56557142D01*
X129674819Y-56557142D02*
X129674819Y-56652380D01*
X129674819Y-56652380D02*
X129627200Y-56795237D01*
X129627200Y-56795237D02*
X129531961Y-56890475D01*
X129531961Y-56890475D02*
X129436723Y-56938094D01*
X129436723Y-56938094D02*
X129246247Y-56985713D01*
X129246247Y-56985713D02*
X129103390Y-56985713D01*
X129103390Y-56985713D02*
X128912914Y-56938094D01*
X128912914Y-56938094D02*
X128817676Y-56890475D01*
X128817676Y-56890475D02*
X128722438Y-56795237D01*
X128722438Y-56795237D02*
X128674819Y-56652380D01*
X128674819Y-56652380D02*
X128674819Y-56557142D01*
X128674819Y-56557142D02*
X128722438Y-56414285D01*
X128722438Y-56414285D02*
X128770057Y-56366666D01*
X129103390Y-55795237D02*
X129055771Y-55890475D01*
X129055771Y-55890475D02*
X129008152Y-55938094D01*
X129008152Y-55938094D02*
X128912914Y-55985713D01*
X128912914Y-55985713D02*
X128865295Y-55985713D01*
X128865295Y-55985713D02*
X128770057Y-55938094D01*
X128770057Y-55938094D02*
X128722438Y-55890475D01*
X128722438Y-55890475D02*
X128674819Y-55795237D01*
X128674819Y-55795237D02*
X128674819Y-55604761D01*
X128674819Y-55604761D02*
X128722438Y-55509523D01*
X128722438Y-55509523D02*
X128770057Y-55461904D01*
X128770057Y-55461904D02*
X128865295Y-55414285D01*
X128865295Y-55414285D02*
X128912914Y-55414285D01*
X128912914Y-55414285D02*
X129008152Y-55461904D01*
X129008152Y-55461904D02*
X129055771Y-55509523D01*
X129055771Y-55509523D02*
X129103390Y-55604761D01*
X129103390Y-55604761D02*
X129103390Y-55795237D01*
X129103390Y-55795237D02*
X129151009Y-55890475D01*
X129151009Y-55890475D02*
X129198628Y-55938094D01*
X129198628Y-55938094D02*
X129293866Y-55985713D01*
X129293866Y-55985713D02*
X129484342Y-55985713D01*
X129484342Y-55985713D02*
X129579580Y-55938094D01*
X129579580Y-55938094D02*
X129627200Y-55890475D01*
X129627200Y-55890475D02*
X129674819Y-55795237D01*
X129674819Y-55795237D02*
X129674819Y-55604761D01*
X129674819Y-55604761D02*
X129627200Y-55509523D01*
X129627200Y-55509523D02*
X129579580Y-55461904D01*
X129579580Y-55461904D02*
X129484342Y-55414285D01*
X129484342Y-55414285D02*
X129293866Y-55414285D01*
X129293866Y-55414285D02*
X129198628Y-55461904D01*
X129198628Y-55461904D02*
X129151009Y-55509523D01*
X129151009Y-55509523D02*
X129103390Y-55604761D01*
X155238095Y-50304819D02*
X155238095Y-49304819D01*
X155238095Y-49781009D02*
X155809523Y-49781009D01*
X155809523Y-50304819D02*
X155809523Y-49304819D01*
X156809523Y-50304819D02*
X156238095Y-50304819D01*
X156523809Y-50304819D02*
X156523809Y-49304819D01*
X156523809Y-49304819D02*
X156428571Y-49447676D01*
X156428571Y-49447676D02*
X156333333Y-49542914D01*
X156333333Y-49542914D02*
X156238095Y-49590533D01*
X107916667Y-49252200D02*
X108059524Y-49299819D01*
X108059524Y-49299819D02*
X108297619Y-49299819D01*
X108297619Y-49299819D02*
X108392857Y-49252200D01*
X108392857Y-49252200D02*
X108440476Y-49204580D01*
X108440476Y-49204580D02*
X108488095Y-49109342D01*
X108488095Y-49109342D02*
X108488095Y-49014104D01*
X108488095Y-49014104D02*
X108440476Y-48918866D01*
X108440476Y-48918866D02*
X108392857Y-48871247D01*
X108392857Y-48871247D02*
X108297619Y-48823628D01*
X108297619Y-48823628D02*
X108107143Y-48776009D01*
X108107143Y-48776009D02*
X108011905Y-48728390D01*
X108011905Y-48728390D02*
X107964286Y-48680771D01*
X107964286Y-48680771D02*
X107916667Y-48585533D01*
X107916667Y-48585533D02*
X107916667Y-48490295D01*
X107916667Y-48490295D02*
X107964286Y-48395057D01*
X107964286Y-48395057D02*
X108011905Y-48347438D01*
X108011905Y-48347438D02*
X108107143Y-48299819D01*
X108107143Y-48299819D02*
X108345238Y-48299819D01*
X108345238Y-48299819D02*
X108488095Y-48347438D01*
X108821429Y-48299819D02*
X109059524Y-49299819D01*
X109059524Y-49299819D02*
X109250000Y-48585533D01*
X109250000Y-48585533D02*
X109440476Y-49299819D01*
X109440476Y-49299819D02*
X109678572Y-48299819D01*
X109964286Y-48299819D02*
X110583333Y-48299819D01*
X110583333Y-48299819D02*
X110250000Y-48680771D01*
X110250000Y-48680771D02*
X110392857Y-48680771D01*
X110392857Y-48680771D02*
X110488095Y-48728390D01*
X110488095Y-48728390D02*
X110535714Y-48776009D01*
X110535714Y-48776009D02*
X110583333Y-48871247D01*
X110583333Y-48871247D02*
X110583333Y-49109342D01*
X110583333Y-49109342D02*
X110535714Y-49204580D01*
X110535714Y-49204580D02*
X110488095Y-49252200D01*
X110488095Y-49252200D02*
X110392857Y-49299819D01*
X110392857Y-49299819D02*
X110107143Y-49299819D01*
X110107143Y-49299819D02*
X110011905Y-49252200D01*
X110011905Y-49252200D02*
X109964286Y-49204580D01*
X93579819Y-124253333D02*
X94294104Y-124253333D01*
X94294104Y-124253333D02*
X94436961Y-124300952D01*
X94436961Y-124300952D02*
X94532200Y-124396190D01*
X94532200Y-124396190D02*
X94579819Y-124539047D01*
X94579819Y-124539047D02*
X94579819Y-124634285D01*
X94008390Y-123634285D02*
X93960771Y-123729523D01*
X93960771Y-123729523D02*
X93913152Y-123777142D01*
X93913152Y-123777142D02*
X93817914Y-123824761D01*
X93817914Y-123824761D02*
X93770295Y-123824761D01*
X93770295Y-123824761D02*
X93675057Y-123777142D01*
X93675057Y-123777142D02*
X93627438Y-123729523D01*
X93627438Y-123729523D02*
X93579819Y-123634285D01*
X93579819Y-123634285D02*
X93579819Y-123443809D01*
X93579819Y-123443809D02*
X93627438Y-123348571D01*
X93627438Y-123348571D02*
X93675057Y-123300952D01*
X93675057Y-123300952D02*
X93770295Y-123253333D01*
X93770295Y-123253333D02*
X93817914Y-123253333D01*
X93817914Y-123253333D02*
X93913152Y-123300952D01*
X93913152Y-123300952D02*
X93960771Y-123348571D01*
X93960771Y-123348571D02*
X94008390Y-123443809D01*
X94008390Y-123443809D02*
X94008390Y-123634285D01*
X94008390Y-123634285D02*
X94056009Y-123729523D01*
X94056009Y-123729523D02*
X94103628Y-123777142D01*
X94103628Y-123777142D02*
X94198866Y-123824761D01*
X94198866Y-123824761D02*
X94389342Y-123824761D01*
X94389342Y-123824761D02*
X94484580Y-123777142D01*
X94484580Y-123777142D02*
X94532200Y-123729523D01*
X94532200Y-123729523D02*
X94579819Y-123634285D01*
X94579819Y-123634285D02*
X94579819Y-123443809D01*
X94579819Y-123443809D02*
X94532200Y-123348571D01*
X94532200Y-123348571D02*
X94484580Y-123300952D01*
X94484580Y-123300952D02*
X94389342Y-123253333D01*
X94389342Y-123253333D02*
X94198866Y-123253333D01*
X94198866Y-123253333D02*
X94103628Y-123300952D01*
X94103628Y-123300952D02*
X94056009Y-123348571D01*
X94056009Y-123348571D02*
X94008390Y-123443809D01*
X146079580Y-56842857D02*
X146127200Y-56890476D01*
X146127200Y-56890476D02*
X146174819Y-57033333D01*
X146174819Y-57033333D02*
X146174819Y-57128571D01*
X146174819Y-57128571D02*
X146127200Y-57271428D01*
X146127200Y-57271428D02*
X146031961Y-57366666D01*
X146031961Y-57366666D02*
X145936723Y-57414285D01*
X145936723Y-57414285D02*
X145746247Y-57461904D01*
X145746247Y-57461904D02*
X145603390Y-57461904D01*
X145603390Y-57461904D02*
X145412914Y-57414285D01*
X145412914Y-57414285D02*
X145317676Y-57366666D01*
X145317676Y-57366666D02*
X145222438Y-57271428D01*
X145222438Y-57271428D02*
X145174819Y-57128571D01*
X145174819Y-57128571D02*
X145174819Y-57033333D01*
X145174819Y-57033333D02*
X145222438Y-56890476D01*
X145222438Y-56890476D02*
X145270057Y-56842857D01*
X146174819Y-55890476D02*
X146174819Y-56461904D01*
X146174819Y-56176190D02*
X145174819Y-56176190D01*
X145174819Y-56176190D02*
X145317676Y-56271428D01*
X145317676Y-56271428D02*
X145412914Y-56366666D01*
X145412914Y-56366666D02*
X145460533Y-56461904D01*
X145508152Y-55033333D02*
X146174819Y-55033333D01*
X145127200Y-55271428D02*
X145841485Y-55509523D01*
X145841485Y-55509523D02*
X145841485Y-54890476D01*
X109583333Y-127884819D02*
X109250000Y-127408628D01*
X109011905Y-127884819D02*
X109011905Y-126884819D01*
X109011905Y-126884819D02*
X109392857Y-126884819D01*
X109392857Y-126884819D02*
X109488095Y-126932438D01*
X109488095Y-126932438D02*
X109535714Y-126980057D01*
X109535714Y-126980057D02*
X109583333Y-127075295D01*
X109583333Y-127075295D02*
X109583333Y-127218152D01*
X109583333Y-127218152D02*
X109535714Y-127313390D01*
X109535714Y-127313390D02*
X109488095Y-127361009D01*
X109488095Y-127361009D02*
X109392857Y-127408628D01*
X109392857Y-127408628D02*
X109011905Y-127408628D01*
X109964286Y-126980057D02*
X110011905Y-126932438D01*
X110011905Y-126932438D02*
X110107143Y-126884819D01*
X110107143Y-126884819D02*
X110345238Y-126884819D01*
X110345238Y-126884819D02*
X110440476Y-126932438D01*
X110440476Y-126932438D02*
X110488095Y-126980057D01*
X110488095Y-126980057D02*
X110535714Y-127075295D01*
X110535714Y-127075295D02*
X110535714Y-127170533D01*
X110535714Y-127170533D02*
X110488095Y-127313390D01*
X110488095Y-127313390D02*
X109916667Y-127884819D01*
X109916667Y-127884819D02*
X110535714Y-127884819D01*
%TO.C,R21*%
D13*
X103762742Y-77977500D02*
X104237258Y-77977500D01*
X103762742Y-79022500D02*
X104237258Y-79022500D01*
%TO.C,J7*%
D11*
X73630000Y-92340000D02*
X73630000Y-112660000D01*
X73630000Y-95980000D02*
X76580000Y-95980000D01*
X73630000Y-106140000D02*
X76580000Y-106140000D01*
X76490000Y-98810000D02*
X73630000Y-98810000D01*
X76490000Y-108970000D02*
X73630000Y-108970000D01*
X76580000Y-95980000D02*
X77000000Y-96400000D01*
X76580000Y-106140000D02*
X77000000Y-106560000D01*
X77000000Y-96400000D02*
X77000000Y-98310000D01*
X77000000Y-98310000D02*
X76490000Y-98810000D01*
X77000000Y-106560000D02*
X77000000Y-108470000D01*
X77000000Y-108470000D02*
X76490000Y-108970000D01*
X77860000Y-92340000D02*
X77860000Y-112660000D01*
X79900000Y-92340000D02*
X79900000Y-95540000D01*
X79900000Y-99300000D02*
X79900000Y-105700000D01*
X79900000Y-109460000D02*
X79900000Y-112660000D01*
X90910000Y-92340000D02*
X90910000Y-95730000D01*
X90910000Y-99110000D02*
X90910000Y-105890000D01*
X90910000Y-109270000D02*
X90910000Y-112660000D01*
X92280000Y-92340000D02*
X73630000Y-92340000D01*
X92280000Y-92340000D02*
X92280000Y-112660000D01*
X92280000Y-112660000D02*
X73630000Y-112660000D01*
D14*
X92310000Y-92340000D02*
G75*
G02*
X92250000Y-92340000I-30000J0D01*
G01*
X92250000Y-92340000D02*
G75*
G02*
X92310000Y-92340000I30000J0D01*
G01*
D15*
G36*
X76618000Y-97420000D02*
G01*
X75475000Y-98182000D01*
X75475000Y-96658000D01*
X76618000Y-97420000D01*
G37*
G36*
X76618000Y-107580000D02*
G01*
X75475000Y-108342000D01*
X75475000Y-106818000D01*
X76618000Y-107580000D01*
G37*
G36*
X75475000Y-97547000D02*
G01*
X74078000Y-97547000D01*
X74078000Y-97293000D01*
X75475000Y-97293000D01*
X75475000Y-97547000D01*
G37*
G36*
X75475000Y-107707000D02*
G01*
X74078000Y-107707000D01*
X74078000Y-107453000D01*
X75475000Y-107453000D01*
X75475000Y-107707000D01*
G37*
%TO.C,R11*%
D13*
X144880000Y-73380000D02*
X150120000Y-73380000D01*
X144880000Y-87620000D02*
X144880000Y-73380000D01*
X150120000Y-73380000D02*
X150120000Y-87620000D01*
X150120000Y-87620000D02*
X144880000Y-87620000D01*
%TO.C,R1*%
X109262742Y-84477500D02*
X109737258Y-84477500D01*
X109262742Y-85522500D02*
X109737258Y-85522500D01*
%TO.C,U6*%
X156190000Y-75430000D02*
X160810000Y-75430000D01*
X156190000Y-85650000D02*
X156190000Y-75430000D01*
X159430000Y-75430000D02*
X159430000Y-85650000D01*
X160810000Y-75430000D02*
X160810000Y-85650000D01*
X160810000Y-78690000D02*
X159430000Y-78690000D01*
X160810000Y-82390000D02*
X159430000Y-82390000D01*
X160810000Y-85650000D02*
X156190000Y-85650000D01*
%TO.C,R4*%
X109977500Y-108762742D02*
X109977500Y-109237258D01*
X111022500Y-108762742D02*
X111022500Y-109237258D01*
%TO.C,C6*%
X107990000Y-114609420D02*
X107990000Y-114890580D01*
X109010000Y-114609420D02*
X109010000Y-114890580D01*
%TO.C,U11*%
X138140000Y-49440000D02*
X148360000Y-49440000D01*
X138140000Y-50820000D02*
X148360000Y-50820000D01*
X138140000Y-54060000D02*
X138140000Y-49440000D01*
X141400000Y-49440000D02*
X141400000Y-50820000D01*
X145100000Y-49440000D02*
X145100000Y-50820000D01*
X148360000Y-49440000D02*
X148360000Y-54060000D01*
X148360000Y-54060000D02*
X138140000Y-54060000D01*
%TO.C,U4*%
X100590000Y-115590000D02*
X101850000Y-115590000D01*
X100590000Y-119350000D02*
X100590000Y-115590000D01*
X107410000Y-115590000D02*
X106150000Y-115590000D01*
X107410000Y-119350000D02*
X107410000Y-115590000D01*
X100690000Y-120630000D02*
X100360000Y-120870000D01*
X100360000Y-120390000D01*
X100690000Y-120630000D01*
G36*
X100690000Y-120630000D02*
G01*
X100360000Y-120870000D01*
X100360000Y-120390000D01*
X100690000Y-120630000D01*
G37*
%TO.C,C5*%
X115890000Y-120459420D02*
X115890000Y-120740580D01*
X116910000Y-120459420D02*
X116910000Y-120740580D01*
%TO.C,C7*%
X129280000Y-56059420D02*
X129280000Y-56340580D01*
X130300000Y-56059420D02*
X130300000Y-56340580D01*
%TO.C,R16*%
X141052742Y-56677500D02*
X141527258Y-56677500D01*
X141052742Y-57722500D02*
X141527258Y-57722500D01*
%TO.C,SW1*%
X122930000Y-128930000D02*
X127070000Y-128930000D01*
X122930000Y-129230000D02*
X122930000Y-128930000D01*
X122930000Y-132070000D02*
X122930000Y-131770000D01*
X127070000Y-128930000D02*
X127070000Y-129230000D01*
X127070000Y-131770000D02*
X127070000Y-132070000D01*
X127070000Y-132070000D02*
X122930000Y-132070000D01*
%TO.C,J5*%
D11*
X73630000Y-49840000D02*
X73630000Y-70160000D01*
X73630000Y-53480000D02*
X76580000Y-53480000D01*
X73630000Y-63640000D02*
X76580000Y-63640000D01*
X76490000Y-56310000D02*
X73630000Y-56310000D01*
X76490000Y-66470000D02*
X73630000Y-66470000D01*
X76580000Y-53480000D02*
X77000000Y-53900000D01*
X76580000Y-63640000D02*
X77000000Y-64060000D01*
X77000000Y-53900000D02*
X77000000Y-55810000D01*
X77000000Y-55810000D02*
X76490000Y-56310000D01*
X77000000Y-64060000D02*
X77000000Y-65970000D01*
X77000000Y-65970000D02*
X76490000Y-66470000D01*
X77860000Y-49840000D02*
X77860000Y-70160000D01*
X79900000Y-49840000D02*
X79900000Y-53040000D01*
X79900000Y-56800000D02*
X79900000Y-63200000D01*
X79900000Y-66960000D02*
X79900000Y-70160000D01*
X90910000Y-49840000D02*
X90910000Y-53230000D01*
X90910000Y-56610000D02*
X90910000Y-63390000D01*
X90910000Y-66770000D02*
X90910000Y-70160000D01*
X92280000Y-49840000D02*
X73630000Y-49840000D01*
X92280000Y-49840000D02*
X92280000Y-70160000D01*
X92280000Y-70160000D02*
X73630000Y-70160000D01*
D14*
X92310000Y-49840000D02*
G75*
G02*
X92250000Y-49840000I-30000J0D01*
G01*
X92250000Y-49840000D02*
G75*
G02*
X92310000Y-49840000I30000J0D01*
G01*
D15*
G36*
X76618000Y-54920000D02*
G01*
X75475000Y-55682000D01*
X75475000Y-54158000D01*
X76618000Y-54920000D01*
G37*
G36*
X76618000Y-65080000D02*
G01*
X75475000Y-65842000D01*
X75475000Y-64318000D01*
X76618000Y-65080000D01*
G37*
G36*
X75475000Y-55047000D02*
G01*
X74078000Y-55047000D01*
X74078000Y-54793000D01*
X75475000Y-54793000D01*
X75475000Y-55047000D01*
G37*
G36*
X75475000Y-65207000D02*
G01*
X74078000Y-65207000D01*
X74078000Y-64953000D01*
X75475000Y-64953000D01*
X75475000Y-65207000D01*
G37*
%TO.C,J4*%
D13*
X98870000Y-49870000D02*
X100250000Y-49870000D01*
X98870000Y-51250000D02*
X98870000Y-49870000D01*
X98870000Y-52520000D02*
X98870000Y-55170000D01*
X98870000Y-52520000D02*
X101630000Y-52520000D01*
X98870000Y-55170000D02*
X101630000Y-55170000D01*
X101630000Y-52520000D02*
X101630000Y-55170000D01*
%TO.C,C11*%
X153890580Y-82740000D02*
X153609420Y-82740000D01*
X153890580Y-83760000D02*
X153609420Y-83760000D01*
%TO.C,U2*%
X97740000Y-87340000D02*
X97740000Y-105560000D01*
X98040000Y-87340000D02*
X97740000Y-87340000D01*
X98040000Y-105560000D02*
X97740000Y-105560000D01*
X117960000Y-87340000D02*
X112150000Y-87340000D01*
X117960000Y-87340000D02*
X117960000Y-105560000D01*
X117960000Y-105560000D02*
X111460000Y-105560000D01*
X111450000Y-87350000D02*
X111450000Y-86850000D01*
X111950000Y-87350000D01*
X111450000Y-87350000D01*
G36*
X111950000Y-87350000D02*
G01*
X111450000Y-87350000D01*
X111450000Y-86850000D01*
X111950000Y-87350000D01*
G37*
%TO.C,R19*%
X102477500Y-82262742D02*
X102477500Y-82737258D01*
X103522500Y-82262742D02*
X103522500Y-82737258D01*
%TO.C,U10*%
X122180000Y-49440000D02*
X132400000Y-49440000D01*
X122180000Y-50820000D02*
X132400000Y-50820000D01*
X122180000Y-54060000D02*
X122180000Y-49440000D01*
X125440000Y-49440000D02*
X125440000Y-50820000D01*
X129140000Y-49440000D02*
X129140000Y-50820000D01*
X132400000Y-49440000D02*
X132400000Y-54060000D01*
X132400000Y-54060000D02*
X122180000Y-54060000D01*
%TO.C,SW2*%
X96830000Y-128930000D02*
X100970000Y-128930000D01*
X96830000Y-129230000D02*
X96830000Y-128930000D01*
X96830000Y-132070000D02*
X96830000Y-131770000D01*
X100970000Y-128930000D02*
X100970000Y-129230000D01*
X100970000Y-131770000D02*
X100970000Y-132070000D01*
X100970000Y-132070000D02*
X96830000Y-132070000D01*
%TO.C,R8*%
X123977500Y-91737258D02*
X123977500Y-91262742D01*
X125022500Y-91737258D02*
X125022500Y-91262742D01*
%TO.C,R14*%
X124552742Y-54677500D02*
X125027258Y-54677500D01*
X124552742Y-55722500D02*
X125027258Y-55722500D01*
%TO.C,C2*%
X107990000Y-82640580D02*
X107990000Y-82359420D01*
X109010000Y-82640580D02*
X109010000Y-82359420D01*
%TO.C,C12*%
X153865580Y-96990000D02*
X153584420Y-96990000D01*
X153865580Y-98010000D02*
X153584420Y-98010000D01*
%TO.C,J9*%
X103370000Y-49870000D02*
X104750000Y-49870000D01*
X103370000Y-51250000D02*
X103370000Y-49870000D01*
X103370000Y-52520000D02*
X103370000Y-55170000D01*
X103370000Y-52520000D02*
X106130000Y-52520000D01*
X103370000Y-55170000D02*
X106130000Y-55170000D01*
X106130000Y-52520000D02*
X106130000Y-55170000D01*
%TO.C,C3*%
X115359420Y-125490000D02*
X115640580Y-125490000D01*
X115359420Y-126510000D02*
X115640580Y-126510000D01*
%TO.C,SW4*%
X112370000Y-49845000D02*
X113750000Y-49845000D01*
X112370000Y-51225000D02*
X112370000Y-49845000D01*
X112370000Y-52495000D02*
X112370000Y-55145000D01*
X112370000Y-52495000D02*
X115130000Y-52495000D01*
X112370000Y-55145000D02*
X115130000Y-55145000D01*
X115130000Y-52495000D02*
X115130000Y-55145000D01*
%TO.C,J2*%
X116870000Y-49845000D02*
X118250000Y-49845000D01*
X116870000Y-51225000D02*
X116870000Y-49845000D01*
X116870000Y-52495000D02*
X116870000Y-55145000D01*
X116870000Y-52495000D02*
X119630000Y-52495000D01*
X116870000Y-55145000D02*
X119630000Y-55145000D01*
X119630000Y-52495000D02*
X119630000Y-55145000D01*
%TO.C,Q3*%
X131325000Y-89760000D02*
X131325000Y-91570000D01*
X131325000Y-100160000D02*
X131325000Y-98350000D01*
X132690000Y-89760000D02*
X131325000Y-89760000D01*
X132690000Y-100160000D02*
X131325000Y-100160000D01*
X128500000Y-91610000D02*
X128160000Y-91140000D01*
X128840000Y-91140000D01*
X128500000Y-91610000D01*
G36*
X128500000Y-91610000D02*
G01*
X128160000Y-91140000D01*
X128840000Y-91140000D01*
X128500000Y-91610000D01*
G37*
%TO.C,R13*%
X144880000Y-103380000D02*
X150120000Y-103380000D01*
X144880000Y-117620000D02*
X144880000Y-103380000D01*
X150120000Y-103380000D02*
X150120000Y-117620000D01*
X150120000Y-117620000D02*
X144880000Y-117620000D01*
%TO.C,Q2*%
X131325000Y-74760000D02*
X131325000Y-76570000D01*
X131325000Y-85160000D02*
X131325000Y-83350000D01*
X132690000Y-74760000D02*
X131325000Y-74760000D01*
X132690000Y-85160000D02*
X131325000Y-85160000D01*
X128500000Y-76610000D02*
X128160000Y-76140000D01*
X128840000Y-76140000D01*
X128500000Y-76610000D01*
G36*
X128500000Y-76610000D02*
G01*
X128160000Y-76140000D01*
X128840000Y-76140000D01*
X128500000Y-76610000D01*
G37*
%TO.C,J10*%
X107300000Y-130350000D02*
X107300000Y-132350000D01*
X107300000Y-134250000D02*
X107300000Y-136150000D01*
X107300000Y-136150000D02*
X116700000Y-136150000D01*
X116700000Y-130350000D02*
X116700000Y-132350000D01*
X116700000Y-134250000D02*
X116700000Y-136150000D01*
%TO.C,C13*%
X153890580Y-111990000D02*
X153609420Y-111990000D01*
X153890580Y-113010000D02*
X153609420Y-113010000D01*
%TO.C,U9*%
X156190000Y-104890000D02*
X160810000Y-104890000D01*
X156190000Y-115110000D02*
X156190000Y-104890000D01*
X159430000Y-104890000D02*
X159430000Y-115110000D01*
X160810000Y-104890000D02*
X160810000Y-115110000D01*
X160810000Y-108150000D02*
X159430000Y-108150000D01*
X160810000Y-111850000D02*
X159430000Y-111850000D01*
X160810000Y-115110000D02*
X156190000Y-115110000D01*
%TO.C,Q4*%
X131350000Y-104825000D02*
X131350000Y-106635000D01*
X131350000Y-115225000D02*
X131350000Y-113415000D01*
X132715000Y-104825000D02*
X131350000Y-104825000D01*
X132715000Y-115225000D02*
X131350000Y-115225000D01*
X128525000Y-106675000D02*
X128185000Y-106205000D01*
X128865000Y-106205000D01*
X128525000Y-106675000D01*
G36*
X128525000Y-106675000D02*
G01*
X128185000Y-106205000D01*
X128865000Y-106205000D01*
X128525000Y-106675000D01*
G37*
%TO.C,C15*%
X106140580Y-84490000D02*
X105859420Y-84490000D01*
X106140580Y-85510000D02*
X105859420Y-85510000D01*
%TO.C,R5*%
X98737258Y-113477500D02*
X98262742Y-113477500D01*
X98737258Y-114522500D02*
X98262742Y-114522500D01*
%TO.C,R20*%
X104977500Y-82262742D02*
X104977500Y-82737258D01*
X106022500Y-82262742D02*
X106022500Y-82737258D01*
%TO.C,C10*%
X153890580Y-68240000D02*
X153609420Y-68240000D01*
X153890580Y-69260000D02*
X153609420Y-69260000D01*
%TO.C,C4*%
X107990000Y-120390580D02*
X107990000Y-120109420D01*
X109010000Y-120390580D02*
X109010000Y-120109420D01*
%TO.C,U7*%
X156190000Y-89930000D02*
X160810000Y-89930000D01*
X156190000Y-100150000D02*
X156190000Y-89930000D01*
X159430000Y-89930000D02*
X159430000Y-100150000D01*
X160810000Y-89930000D02*
X160810000Y-100150000D01*
X160810000Y-93190000D02*
X159430000Y-93190000D01*
X160810000Y-96890000D02*
X159430000Y-96890000D01*
X160810000Y-100150000D02*
X156190000Y-100150000D01*
%TO.C,C9*%
X145780000Y-56059420D02*
X145780000Y-56340580D01*
X146800000Y-56059420D02*
X146800000Y-56340580D01*
%TO.C,R3*%
X115162742Y-123677500D02*
X115637258Y-123677500D01*
X115162742Y-124722500D02*
X115637258Y-124722500D01*
%TO.C,R10*%
X144880000Y-58380000D02*
X150120000Y-58380000D01*
X144880000Y-72620000D02*
X144880000Y-58380000D01*
X150120000Y-58380000D02*
X150120000Y-72620000D01*
X150120000Y-72620000D02*
X144880000Y-72620000D01*
%TO.C,Q1*%
X131250000Y-60025000D02*
X131250000Y-61835000D01*
X131250000Y-70425000D02*
X131250000Y-68615000D01*
X132615000Y-60025000D02*
X131250000Y-60025000D01*
X132615000Y-70425000D02*
X131250000Y-70425000D01*
X128425000Y-61875000D02*
X128085000Y-61405000D01*
X128765000Y-61405000D01*
X128425000Y-61875000D01*
G36*
X128425000Y-61875000D02*
G01*
X128085000Y-61405000D01*
X128765000Y-61405000D01*
X128425000Y-61875000D01*
G37*
%TO.C,R12*%
X144880000Y-88380000D02*
X150120000Y-88380000D01*
X144880000Y-102620000D02*
X144880000Y-88380000D01*
X150120000Y-88380000D02*
X150120000Y-102620000D01*
X150120000Y-102620000D02*
X144880000Y-102620000D01*
%TO.C,R6*%
X123977500Y-61987258D02*
X123977500Y-61512742D01*
X125022500Y-61987258D02*
X125022500Y-61512742D01*
%TO.C,D2*%
X97040000Y-116500000D02*
X97040000Y-119185000D01*
X97040000Y-119185000D02*
X98960000Y-119185000D01*
X98960000Y-119185000D02*
X98960000Y-116500000D01*
%TO.C,Q5*%
X102800000Y-70585000D02*
X102800000Y-71950000D01*
X102800000Y-71950000D02*
X104610000Y-71950000D01*
X113200000Y-70585000D02*
X113200000Y-71950000D01*
X113200000Y-71950000D02*
X111390000Y-71950000D01*
X104650000Y-74775000D02*
X104180000Y-75115000D01*
X104180000Y-74435000D01*
X104650000Y-74775000D01*
G36*
X104650000Y-74775000D02*
G01*
X104180000Y-75115000D01*
X104180000Y-74435000D01*
X104650000Y-74775000D01*
G37*
%TO.C,R18*%
X99262742Y-81977500D02*
X99737258Y-81977500D01*
X99262742Y-83022500D02*
X99737258Y-83022500D01*
%TO.C,U3*%
X111090000Y-118265000D02*
X111140000Y-118265000D01*
X111090000Y-120085000D02*
X111090000Y-118265000D01*
X111140000Y-120085000D02*
X111090000Y-120085000D01*
X114160000Y-118265000D02*
X114210000Y-118265000D01*
X114210000Y-118265000D02*
X114210000Y-120085000D01*
X114210000Y-120085000D02*
X114160000Y-120085000D01*
X111140000Y-120625000D02*
X110810000Y-120865000D01*
X110810000Y-120385000D01*
X111140000Y-120625000D01*
G36*
X111140000Y-120625000D02*
G01*
X110810000Y-120865000D01*
X110810000Y-120385000D01*
X111140000Y-120625000D01*
G37*
%TO.C,C1*%
X109990000Y-82640580D02*
X109990000Y-82359420D01*
X111010000Y-82640580D02*
X111010000Y-82359420D01*
%TO.C,U5*%
X156190000Y-60850000D02*
X160810000Y-60850000D01*
X156190000Y-71070000D02*
X156190000Y-60850000D01*
X159430000Y-60850000D02*
X159430000Y-71070000D01*
X160810000Y-60850000D02*
X160810000Y-71070000D01*
X160810000Y-64110000D02*
X159430000Y-64110000D01*
X160810000Y-67810000D02*
X159430000Y-67810000D01*
X160810000Y-71070000D02*
X156190000Y-71070000D01*
%TO.C,R7*%
X123977500Y-76662258D02*
X123977500Y-76187742D01*
X125022500Y-76662258D02*
X125022500Y-76187742D01*
%TO.C,R15*%
X124552742Y-56677500D02*
X125027258Y-56677500D01*
X124552742Y-57722500D02*
X125027258Y-57722500D01*
%TO.C,R9*%
X123977500Y-106987258D02*
X123977500Y-106512742D01*
X125022500Y-106987258D02*
X125022500Y-106512742D01*
%TO.C,R17*%
X141052742Y-54677500D02*
X141527258Y-54677500D01*
X141052742Y-55722500D02*
X141527258Y-55722500D01*
%TO.C,J3*%
X94370000Y-49870000D02*
X95750000Y-49870000D01*
X94370000Y-51250000D02*
X94370000Y-49870000D01*
X94370000Y-52520000D02*
X94370000Y-55170000D01*
X94370000Y-52520000D02*
X97130000Y-52520000D01*
X94370000Y-55170000D02*
X97130000Y-55170000D01*
X97130000Y-52520000D02*
X97130000Y-55170000D01*
%TO.C,J6*%
D11*
X73630000Y-71340000D02*
X73630000Y-91660000D01*
X73630000Y-74980000D02*
X76580000Y-74980000D01*
X73630000Y-85140000D02*
X76580000Y-85140000D01*
X76490000Y-77810000D02*
X73630000Y-77810000D01*
X76490000Y-87970000D02*
X73630000Y-87970000D01*
X76580000Y-74980000D02*
X77000000Y-75400000D01*
X76580000Y-85140000D02*
X77000000Y-85560000D01*
X77000000Y-75400000D02*
X77000000Y-77310000D01*
X77000000Y-77310000D02*
X76490000Y-77810000D01*
X77000000Y-85560000D02*
X77000000Y-87470000D01*
X77000000Y-87470000D02*
X76490000Y-87970000D01*
X77860000Y-71340000D02*
X77860000Y-91660000D01*
X79900000Y-71340000D02*
X79900000Y-74540000D01*
X79900000Y-78300000D02*
X79900000Y-84700000D01*
X79900000Y-88460000D02*
X79900000Y-91660000D01*
X90910000Y-71340000D02*
X90910000Y-74730000D01*
X90910000Y-78110000D02*
X90910000Y-84890000D01*
X90910000Y-88270000D02*
X90910000Y-91660000D01*
X92280000Y-71340000D02*
X73630000Y-71340000D01*
X92280000Y-71340000D02*
X92280000Y-91660000D01*
X92280000Y-91660000D02*
X73630000Y-91660000D01*
D14*
X92310000Y-71340000D02*
G75*
G02*
X92250000Y-71340000I-30000J0D01*
G01*
X92250000Y-71340000D02*
G75*
G02*
X92310000Y-71340000I30000J0D01*
G01*
D15*
G36*
X76618000Y-76420000D02*
G01*
X75475000Y-77182000D01*
X75475000Y-75658000D01*
X76618000Y-76420000D01*
G37*
G36*
X76618000Y-86580000D02*
G01*
X75475000Y-87342000D01*
X75475000Y-85818000D01*
X76618000Y-86580000D01*
G37*
G36*
X75475000Y-76547000D02*
G01*
X74078000Y-76547000D01*
X74078000Y-76293000D01*
X75475000Y-76293000D01*
X75475000Y-76547000D01*
G37*
G36*
X75475000Y-86707000D02*
G01*
X74078000Y-86707000D01*
X74078000Y-86453000D01*
X75475000Y-86453000D01*
X75475000Y-86707000D01*
G37*
%TO.C,R22*%
D13*
X107762742Y-77977500D02*
X108237258Y-77977500D01*
X107762742Y-79022500D02*
X108237258Y-79022500D01*
%TO.C,U8*%
D11*
X131450000Y-126250000D02*
X131450000Y-134350000D01*
X131450000Y-134350000D02*
X144550000Y-134350000D01*
X144450000Y-134350000D02*
X145350000Y-134350000D01*
X145350000Y-134350000D02*
X146950000Y-132750000D01*
X145350000Y-134350000D02*
X147050000Y-134350000D01*
X145450000Y-126250000D02*
X131450000Y-126250000D01*
X146950000Y-127750000D02*
X145450000Y-126250000D01*
X146950000Y-132750000D02*
X146950000Y-127750000D01*
X147050000Y-126250000D02*
X145250000Y-126250000D01*
X147050000Y-134350000D02*
X147050000Y-126250000D01*
D14*
X147030000Y-126200000D02*
G75*
G02*
X146970000Y-126200000I-30000J0D01*
G01*
X146970000Y-126200000D02*
G75*
G02*
X147030000Y-126200000I30000J0D01*
G01*
%TO.C,C8*%
D13*
X127280000Y-56059420D02*
X127280000Y-56340580D01*
X128300000Y-56059420D02*
X128300000Y-56340580D01*
%TO.C,SW3*%
X107870000Y-49845000D02*
X109250000Y-49845000D01*
X107870000Y-51225000D02*
X107870000Y-49845000D01*
X107870000Y-52495000D02*
X107870000Y-55145000D01*
X107870000Y-52495000D02*
X110630000Y-52495000D01*
X107870000Y-55145000D02*
X110630000Y-55145000D01*
X110630000Y-52495000D02*
X110630000Y-55145000D01*
%TO.C,J8*%
D11*
X73675000Y-113760000D02*
X73675000Y-134080000D01*
X73675000Y-117400000D02*
X76625000Y-117400000D01*
X73675000Y-127560000D02*
X76625000Y-127560000D01*
X76535000Y-120230000D02*
X73675000Y-120230000D01*
X76535000Y-130390000D02*
X73675000Y-130390000D01*
X76625000Y-117400000D02*
X77045000Y-117820000D01*
X76625000Y-127560000D02*
X77045000Y-127980000D01*
X77045000Y-117820000D02*
X77045000Y-119730000D01*
X77045000Y-119730000D02*
X76535000Y-120230000D01*
X77045000Y-127980000D02*
X77045000Y-129890000D01*
X77045000Y-129890000D02*
X76535000Y-130390000D01*
X77905000Y-113760000D02*
X77905000Y-134080000D01*
X79945000Y-113760000D02*
X79945000Y-116960000D01*
X79945000Y-120720000D02*
X79945000Y-127120000D01*
X79945000Y-130880000D02*
X79945000Y-134080000D01*
X90955000Y-113760000D02*
X90955000Y-117150000D01*
X90955000Y-120530000D02*
X90955000Y-127310000D01*
X90955000Y-130690000D02*
X90955000Y-134080000D01*
X92325000Y-113760000D02*
X73675000Y-113760000D01*
X92325000Y-113760000D02*
X92325000Y-134080000D01*
X92325000Y-134080000D02*
X73675000Y-134080000D01*
D14*
X92355000Y-113760000D02*
G75*
G02*
X92295000Y-113760000I-30000J0D01*
G01*
X92295000Y-113760000D02*
G75*
G02*
X92355000Y-113760000I30000J0D01*
G01*
D15*
G36*
X76663000Y-118840000D02*
G01*
X75520000Y-119602000D01*
X75520000Y-118078000D01*
X76663000Y-118840000D01*
G37*
G36*
X76663000Y-129000000D02*
G01*
X75520000Y-129762000D01*
X75520000Y-128238000D01*
X76663000Y-129000000D01*
G37*
G36*
X75520000Y-118967000D02*
G01*
X74123000Y-118967000D01*
X74123000Y-118713000D01*
X75520000Y-118713000D01*
X75520000Y-118967000D01*
G37*
G36*
X75520000Y-129127000D02*
G01*
X74123000Y-129127000D01*
X74123000Y-128873000D01*
X75520000Y-128873000D01*
X75520000Y-129127000D01*
G37*
%TO.C,C14*%
D13*
X143780000Y-56059420D02*
X143780000Y-56340580D01*
X144800000Y-56059420D02*
X144800000Y-56340580D01*
%TO.C,R2*%
X109987258Y-125477500D02*
X109512742Y-125477500D01*
X109987258Y-126522500D02*
X109512742Y-126522500D01*
%TD*%
M02*
