%TF.GenerationSoftware,KiCad,Pcbnew,10.0.3*%
%TF.CreationDate,2026-08-07T23:50:31-07:00*%
%TF.ProjectId,Laser Rifle,4c617365-7220-4526-9966-6c652e6b6963,rev?*%
%TF.SameCoordinates,Original*%
%TF.FileFunction,Paste,Top*%
%TF.FilePolarity,Positive*%
%FSLAX46Y46*%
G04 Gerber Fmt 4.6, Leading zero omitted, Abs format (unit mm)*
G04 Created by KiCad (PCBNEW 10.0.3) date 2026-08-07 23:50:31*
%MOMM*%
%LPD*%
G01*
G04 APERTURE LIST*
G04 Aperture macros list*
%AMRoundRect*
0 Rectangle with rounded corners*
0 $1 Rounding radius*
0 $2 $3 $4 $5 $6 $7 $8 $9 X,Y pos of 4 corners*
0 Add a 4 corners polygon primitive as box body*
4,1,4,$2,$3,$4,$5,$6,$7,$8,$9,$2,$3,0*
0 Add four circle primitives for the rounded corners*
1,1,$1+$1,$2,$3*
1,1,$1+$1,$4,$5*
1,1,$1+$1,$6,$7*
1,1,$1+$1,$8,$9*
0 Add four rect primitives between the rounded corners*
20,1,$1+$1,$2,$3,$4,$5,0*
20,1,$1+$1,$4,$5,$6,$7,0*
20,1,$1+$1,$6,$7,$8,$9,0*
20,1,$1+$1,$8,$9,$2,$3,0*%
G04 Aperture macros list end*
%ADD10RoundRect,0.200000X-0.200000X-0.275000X0.200000X-0.275000X0.200000X0.275000X-0.200000X0.275000X0*%
%ADD11RoundRect,0.200000X-0.275000X0.200000X-0.275000X-0.200000X0.275000X-0.200000X0.275000X0.200000X0*%
%ADD12RoundRect,0.225000X-0.250000X0.225000X-0.250000X-0.225000X0.250000X-0.225000X0.250000X0.225000X0*%
%ADD13RoundRect,0.375000X0.375000X-0.625000X0.375000X0.625000X-0.375000X0.625000X-0.375000X-0.625000X0*%
%ADD14RoundRect,0.500000X1.400000X-0.500000X1.400000X0.500000X-1.400000X0.500000X-1.400000X-0.500000X0*%
%ADD15RoundRect,0.200000X0.200000X0.800000X-0.200000X0.800000X-0.200000X-0.800000X0.200000X-0.800000X0*%
%ADD16RoundRect,0.225000X0.225000X0.250000X-0.225000X0.250000X-0.225000X-0.250000X0.225000X-0.250000X0*%
%ADD17R,0.700000X0.700000*%
%ADD18R,0.900000X1.500000*%
%ADD19RoundRect,0.200000X-0.200000X-0.800000X0.200000X-0.800000X0.200000X0.800000X-0.200000X0.800000X0*%
%ADD20RoundRect,0.200000X0.275000X-0.200000X0.275000X0.200000X-0.275000X0.200000X-0.275000X-0.200000X0*%
%ADD21RoundRect,0.225000X0.250000X-0.225000X0.250000X0.225000X-0.250000X0.225000X-0.250000X-0.225000X0*%
%ADD22RoundRect,0.225000X-0.225000X-0.250000X0.225000X-0.250000X0.225000X0.250000X-0.225000X0.250000X0*%
%ADD23RoundRect,0.250000X-2.025000X-2.375000X2.025000X-2.375000X2.025000X2.375000X-2.025000X2.375000X0*%
%ADD24RoundRect,0.250000X-2.050000X-0.300000X2.050000X-0.300000X2.050000X0.300000X-2.050000X0.300000X0*%
%ADD25RoundRect,0.150000X-0.150000X-0.575000X0.150000X-0.575000X0.150000X0.575000X-0.150000X0.575000X0*%
%ADD26RoundRect,0.075000X-0.075000X-0.650000X0.075000X-0.650000X0.075000X0.650000X-0.075000X0.650000X0*%
%ADD27RoundRect,0.200000X0.200000X0.275000X-0.200000X0.275000X-0.200000X-0.275000X0.200000X-0.275000X0*%
%ADD28RoundRect,0.243750X0.456250X-0.243750X0.456250X0.243750X-0.456250X0.243750X-0.456250X-0.243750X0*%
%ADD29RoundRect,0.250000X2.375000X-2.025000X2.375000X2.025000X-2.375000X2.025000X-2.375000X-2.025000X0*%
%ADD30RoundRect,0.250000X0.300000X-2.050000X0.300000X2.050000X-0.300000X2.050000X-0.300000X-2.050000X0*%
%ADD31RoundRect,0.150000X0.150000X-0.512500X0.150000X0.512500X-0.150000X0.512500X-0.150000X-0.512500X0*%
G04 APERTURE END LIST*
D10*
%TO.C,R21*%
X103175000Y-78500000D03*
X104825000Y-78500000D03*
%TD*%
%TO.C,R1*%
X108675000Y-85000000D03*
X110325000Y-85000000D03*
%TD*%
D11*
%TO.C,R4*%
X110500000Y-108175000D03*
X110500000Y-109825000D03*
%TD*%
D12*
%TO.C,C6*%
X108500000Y-113975000D03*
X108500000Y-115525000D03*
%TD*%
D13*
%TO.C,U4*%
X101700000Y-120650000D03*
X104000000Y-120650000D03*
D14*
X104000000Y-114350000D03*
D13*
X106300000Y-120650000D03*
%TD*%
D12*
%TO.C,C5*%
X116400000Y-119825000D03*
X116400000Y-121375000D03*
%TD*%
%TO.C,C7*%
X129790000Y-55425000D03*
X129790000Y-56975000D03*
%TD*%
D10*
%TO.C,R16*%
X140465000Y-57200000D03*
X142115000Y-57200000D03*
%TD*%
D15*
%TO.C,SW1*%
X127100000Y-130500000D03*
X122900000Y-130500000D03*
%TD*%
D16*
%TO.C,C11*%
X154525000Y-83250000D03*
X152975000Y-83250000D03*
%TD*%
D17*
%TO.C,U2*%
X105650000Y-96310000D03*
X104550000Y-96310000D03*
X103450000Y-96310000D03*
X105650000Y-97410000D03*
X104550000Y-97410000D03*
X103450000Y-97410000D03*
X105650000Y-98510000D03*
X104550000Y-98510000D03*
X103450000Y-98510000D03*
D18*
X110750000Y-87700000D03*
X109250000Y-87700000D03*
X107750000Y-87700000D03*
X106250000Y-87700000D03*
X104750000Y-87700000D03*
X103250000Y-87700000D03*
X101750000Y-87700000D03*
X100250000Y-87700000D03*
X98750000Y-87700000D03*
X98750000Y-105200000D03*
X100250000Y-105200000D03*
X101750000Y-105200000D03*
X103250000Y-105200000D03*
X104750000Y-105200000D03*
X106250000Y-105200000D03*
X107750000Y-105200000D03*
X109250000Y-105200000D03*
X110750000Y-105200000D03*
%TD*%
D11*
%TO.C,R19*%
X103000000Y-81675000D03*
X103000000Y-83325000D03*
%TD*%
D19*
%TO.C,SW2*%
X96800000Y-130500000D03*
X101000000Y-130500000D03*
%TD*%
D20*
%TO.C,R8*%
X124500000Y-92325000D03*
X124500000Y-90675000D03*
%TD*%
D10*
%TO.C,R14*%
X123965000Y-55200000D03*
X125615000Y-55200000D03*
%TD*%
D21*
%TO.C,C2*%
X108500000Y-83275000D03*
X108500000Y-81725000D03*
%TD*%
D16*
%TO.C,C12*%
X154500000Y-97500000D03*
X152950000Y-97500000D03*
%TD*%
D22*
%TO.C,C3*%
X114725000Y-126000000D03*
X116275000Y-126000000D03*
%TD*%
D23*
%TO.C,Q3*%
X135225000Y-92185000D03*
X135225000Y-97735000D03*
X140075000Y-92185000D03*
X140075000Y-97735000D03*
D24*
X128500000Y-92420000D03*
X128500000Y-97500000D03*
%TD*%
D23*
%TO.C,Q2*%
X135225000Y-77185000D03*
X135225000Y-82735000D03*
X140075000Y-77185000D03*
X140075000Y-82735000D03*
D24*
X128500000Y-77420000D03*
X128500000Y-82500000D03*
%TD*%
D25*
%TO.C,J10*%
X108750000Y-128205000D03*
X109550000Y-128205000D03*
D26*
X110750000Y-128205000D03*
X111750000Y-128205000D03*
X112250000Y-128205000D03*
X113250000Y-128205000D03*
D25*
X114450000Y-128205000D03*
X115250000Y-128205000D03*
X115250000Y-128205000D03*
X114450000Y-128205000D03*
D26*
X113750000Y-128205000D03*
X112750000Y-128205000D03*
X111250000Y-128205000D03*
X110250000Y-128205000D03*
D25*
X109550000Y-128205000D03*
X108750000Y-128205000D03*
%TD*%
D16*
%TO.C,C13*%
X154525000Y-112500000D03*
X152975000Y-112500000D03*
%TD*%
D23*
%TO.C,Q4*%
X135250000Y-107250000D03*
X135250000Y-112800000D03*
X140100000Y-107250000D03*
X140100000Y-112800000D03*
D24*
X128525000Y-107485000D03*
X128525000Y-112565000D03*
%TD*%
D16*
%TO.C,C15*%
X106775000Y-85000000D03*
X105225000Y-85000000D03*
%TD*%
D27*
%TO.C,R5*%
X99325000Y-114000000D03*
X97675000Y-114000000D03*
%TD*%
D11*
%TO.C,R20*%
X105500000Y-81675000D03*
X105500000Y-83325000D03*
%TD*%
D16*
%TO.C,C10*%
X154525000Y-68750000D03*
X152975000Y-68750000D03*
%TD*%
D21*
%TO.C,C4*%
X108500000Y-121025000D03*
X108500000Y-119475000D03*
%TD*%
D12*
%TO.C,C9*%
X146290000Y-55425000D03*
X146290000Y-56975000D03*
%TD*%
D10*
%TO.C,R3*%
X114575000Y-124200000D03*
X116225000Y-124200000D03*
%TD*%
D23*
%TO.C,Q1*%
X135150000Y-62450000D03*
X135150000Y-68000000D03*
X140000000Y-62450000D03*
X140000000Y-68000000D03*
D24*
X128425000Y-62685000D03*
X128425000Y-67765000D03*
%TD*%
D20*
%TO.C,R6*%
X124500000Y-62575000D03*
X124500000Y-60925000D03*
%TD*%
D28*
%TO.C,D2*%
X98000000Y-118437500D03*
X98000000Y-116562500D03*
%TD*%
D29*
%TO.C,Q5*%
X105225000Y-68050000D03*
X110775000Y-68050000D03*
X105225000Y-63200000D03*
X110775000Y-63200000D03*
D30*
X105460000Y-74775000D03*
X110540000Y-74775000D03*
%TD*%
D10*
%TO.C,R18*%
X98675000Y-82500000D03*
X100325000Y-82500000D03*
%TD*%
D31*
%TO.C,U3*%
X111700000Y-120312500D03*
X112650000Y-120312500D03*
X113600000Y-120312500D03*
X113600000Y-118037500D03*
X112650000Y-118037500D03*
X111700000Y-118037500D03*
%TD*%
D21*
%TO.C,C1*%
X110500000Y-83275000D03*
X110500000Y-81725000D03*
%TD*%
D20*
%TO.C,R7*%
X124500000Y-77250000D03*
X124500000Y-75600000D03*
%TD*%
D10*
%TO.C,R15*%
X123965000Y-57200000D03*
X125615000Y-57200000D03*
%TD*%
D20*
%TO.C,R9*%
X124500000Y-107575000D03*
X124500000Y-105925000D03*
%TD*%
D10*
%TO.C,R17*%
X140465000Y-55200000D03*
X142115000Y-55200000D03*
%TD*%
%TO.C,R22*%
X107175000Y-78500000D03*
X108825000Y-78500000D03*
%TD*%
D12*
%TO.C,C8*%
X127790000Y-55425000D03*
X127790000Y-56975000D03*
%TD*%
%TO.C,C14*%
X144290000Y-55425000D03*
X144290000Y-56975000D03*
%TD*%
D27*
%TO.C,R2*%
X110575000Y-126000000D03*
X108925000Y-126000000D03*
%TD*%
M02*
