%TF.GenerationSoftware,KiCad,Pcbnew,10.0.3*%
%TF.CreationDate,2026-08-07T23:50:31-07:00*%
%TF.ProjectId,Laser Rifle,4c617365-7220-4526-9966-6c652e6b6963,rev?*%
%TF.SameCoordinates,Original*%
%TF.FileFunction,Copper,L2,Bot*%
%TF.FilePolarity,Positive*%
%FSLAX46Y46*%
G04 Gerber Fmt 4.6, Leading zero omitted, Abs format (unit mm)*
G04 Created by KiCad (PCBNEW 10.0.3) date 2026-08-07 23:50:31*
%MOMM*%
%LPD*%
G01*
G04 APERTURE LIST*
%TA.AperFunction,ComponentPad*%
%ADD10C,3.300000*%
%TD*%
%TA.AperFunction,ComponentPad*%
%ADD11C,2.000000*%
%TD*%
%TA.AperFunction,ComponentPad*%
%ADD12R,2.000000X1.905000*%
%TD*%
%TA.AperFunction,ComponentPad*%
%ADD13O,2.000000X1.905000*%
%TD*%
%TA.AperFunction,ComponentPad*%
%ADD14R,1.905000X2.000000*%
%TD*%
%TA.AperFunction,ComponentPad*%
%ADD15O,1.905000X2.000000*%
%TD*%
%TA.AperFunction,ComponentPad*%
%ADD16R,1.700000X1.700000*%
%TD*%
%TA.AperFunction,ComponentPad*%
%ADD17C,1.700000*%
%TD*%
%TA.AperFunction,ComponentPad*%
%ADD18O,1.000000X2.100000*%
%TD*%
%TA.AperFunction,ComponentPad*%
%ADD19O,1.000000X1.600000*%
%TD*%
%TA.AperFunction,ComponentPad*%
%ADD20C,5.800000*%
%TD*%
%TA.AperFunction,ViaPad*%
%ADD21C,1.400000*%
%TD*%
%TA.AperFunction,ViaPad*%
%ADD22C,0.600000*%
%TD*%
%TA.AperFunction,Conductor*%
%ADD23C,2.000000*%
%TD*%
%TA.AperFunction,Conductor*%
%ADD24C,0.200000*%
%TD*%
%TA.AperFunction,Conductor*%
%ADD25C,1.000000*%
%TD*%
%TA.AperFunction,Conductor*%
%ADD26C,0.500000*%
%TD*%
G04 APERTURE END LIST*
D10*
%TO.P,J7,1,Pin_1_1*%
%TO.N,STRING_C+*%
X90080000Y-97420000D03*
X79920000Y-97420000D03*
%TO.P,J7,2,Pin_2_2*%
%TO.N,Net-(J7-Pin_2)*%
X90080000Y-107580000D03*
X79920000Y-107580000D03*
%TD*%
D11*
%TO.P,R11,1*%
%TO.N,STRING_B+*%
X147500000Y-85000000D03*
%TO.P,R11,2*%
%TO.N,Net-(U6-ADJ)*%
X147500000Y-76000000D03*
%TD*%
D12*
%TO.P,U6,1,ADJ_1*%
%TO.N,Net-(U6-ADJ)*%
X157550000Y-78000000D03*
D13*
%TO.P,U6,2,VO_2*%
%TO.N,STRING_B+*%
X157550000Y-80540000D03*
%TO.P,U6,3,VI_3*%
%TO.N,BATT+*%
X157550000Y-83080000D03*
%TD*%
D14*
%TO.P,U11,1,ADJ_1*%
%TO.N,Net-(U11-ADJ)*%
X140710000Y-52700000D03*
D15*
%TO.P,U11,2,VO_2*%
%TO.N,+12V*%
X143250000Y-52700000D03*
%TO.P,U11,3,VI_3*%
%TO.N,BATT+*%
X145790000Y-52700000D03*
%TD*%
D10*
%TO.P,J5,1,Pin_1_1*%
%TO.N,STRING_A+*%
X90080000Y-54920000D03*
X79920000Y-54920000D03*
%TO.P,J5,2,Pin_2_2*%
%TO.N,Net-(J5-Pin_2)*%
X90080000Y-65080000D03*
X79920000Y-65080000D03*
%TD*%
D16*
%TO.P,J4,1,Pin_1_1*%
%TO.N,+12V*%
X100250000Y-51250000D03*
D17*
%TO.P,J4,2,Pin_2_2*%
%TO.N,GND*%
X100250000Y-53790000D03*
%TD*%
D14*
%TO.P,U10,1,ADJ_1*%
%TO.N,Net-(U10-ADJ)*%
X124750000Y-52700000D03*
D15*
%TO.P,U10,2,VO_2*%
%TO.N,+5V*%
X127290000Y-52700000D03*
%TO.P,U10,3,VI_3*%
%TO.N,BATT+*%
X129830000Y-52700000D03*
%TD*%
D16*
%TO.P,J9,1,Pin_1_1*%
%TO.N,BATT+*%
X104750000Y-51250000D03*
D17*
%TO.P,J9,2,Pin_2_2*%
%TO.N,GND*%
X104750000Y-53790000D03*
%TD*%
D16*
%TO.P,SW4,1,1_1*%
%TO.N,Net-(SW3-Pad2)*%
X113750000Y-51225000D03*
D17*
%TO.P,SW4,2,2_2*%
%TO.N,+5V*%
X113750000Y-53765000D03*
%TD*%
D16*
%TO.P,J2,1,Pin_1_1*%
%TO.N,+12V*%
X118250000Y-51225000D03*
D17*
%TO.P,J2,2,Pin_2_2*%
%TO.N,GND*%
X118250000Y-53765000D03*
%TD*%
D11*
%TO.P,R13,1*%
%TO.N,STRING_D+*%
X147500000Y-115000000D03*
%TO.P,R13,2*%
%TO.N,Net-(U9-ADJ)*%
X147500000Y-106000000D03*
%TD*%
D18*
%TO.P,J10,SH,SHIELD_SH*%
%TO.N,GND*%
X107680000Y-129120000D03*
D19*
X107680000Y-133300000D03*
D18*
X116320000Y-129120000D03*
D19*
X116320000Y-133300000D03*
%TD*%
D12*
%TO.P,U9,1,ADJ_1*%
%TO.N,Net-(U9-ADJ)*%
X157550000Y-107460000D03*
D13*
%TO.P,U9,2,VO_2*%
%TO.N,STRING_D+*%
X157550000Y-110000000D03*
%TO.P,U9,3,VI_3*%
%TO.N,BATT+*%
X157550000Y-112540000D03*
%TD*%
D12*
%TO.P,U7,1,ADJ_1*%
%TO.N,Net-(U7-ADJ)*%
X157550000Y-92500000D03*
D13*
%TO.P,U7,2,VO_2*%
%TO.N,STRING_C+*%
X157550000Y-95040000D03*
%TO.P,U7,3,VI_3*%
%TO.N,BATT+*%
X157550000Y-97580000D03*
%TD*%
D11*
%TO.P,R10,1*%
%TO.N,STRING_A+*%
X147500000Y-70000000D03*
%TO.P,R10,2*%
%TO.N,Net-(U5-ADJ)*%
X147500000Y-61000000D03*
%TD*%
%TO.P,R12,1*%
%TO.N,STRING_C+*%
X147500000Y-100000000D03*
%TO.P,R12,2*%
%TO.N,Net-(U7-ADJ)*%
X147500000Y-91000000D03*
%TD*%
D12*
%TO.P,U5,1,ADJ_1*%
%TO.N,Net-(U5-ADJ)*%
X157550000Y-63420000D03*
D13*
%TO.P,U5,2,VO_2*%
%TO.N,STRING_A+*%
X157550000Y-65960000D03*
%TO.P,U5,3,VI_3*%
%TO.N,BATT+*%
X157550000Y-68500000D03*
%TD*%
D16*
%TO.P,J3,1,Pin_1_1*%
%TO.N,+12V*%
X95750000Y-51250000D03*
D17*
%TO.P,J3,2,Pin_2_2*%
%TO.N,GND*%
X95750000Y-53790000D03*
%TD*%
D10*
%TO.P,J6,1,Pin_1_1*%
%TO.N,STRING_B+*%
X90080000Y-76420000D03*
X79920000Y-76420000D03*
%TO.P,J6,2,Pin_2_2*%
%TO.N,Net-(J6-Pin_2)*%
X90080000Y-86580000D03*
X79920000Y-86580000D03*
%TD*%
D20*
%TO.P,U8,1,-_1*%
%TO.N,GND*%
X142850000Y-130250000D03*
%TO.P,U8,2,+_2*%
%TO.N,BATT+*%
X135650000Y-130250000D03*
%TD*%
D16*
%TO.P,SW3,1,1_1*%
%TO.N,Laser_Signal*%
X109250000Y-51225000D03*
D17*
%TO.P,SW3,2,2_2*%
%TO.N,Net-(SW3-Pad2)*%
X109250000Y-53765000D03*
%TD*%
D10*
%TO.P,J8,1,Pin_1_1*%
%TO.N,STRING_D+*%
X90125000Y-118840000D03*
X79965000Y-118840000D03*
%TO.P,J8,2,Pin_2_2*%
%TO.N,Net-(J8-Pin_2)*%
X90125000Y-129000000D03*
X79965000Y-129000000D03*
%TD*%
D21*
%TO.N,Net-(J7-Pin_2)*%
X135800000Y-87600000D03*
X137400000Y-87600000D03*
D22*
%TO.N,GND*%
X121000000Y-126000000D03*
D21*
X145000000Y-65400000D03*
D22*
X149460000Y-109540000D03*
X151450000Y-54600000D03*
X126850000Y-116550000D03*
X75500000Y-103450000D03*
X147600000Y-110100000D03*
X110850000Y-92150000D03*
X155770000Y-58770000D03*
X99050000Y-125600000D03*
X78910000Y-81990000D03*
X104600000Y-129800000D03*
X83400000Y-50950000D03*
X124900000Y-88000000D03*
X151000000Y-52250000D03*
X142500000Y-87800000D03*
X84150000Y-61550000D03*
X84250000Y-90750000D03*
D21*
X120800000Y-67600000D03*
D22*
X81470000Y-103250000D03*
X149730000Y-120840000D03*
X100200000Y-86400000D03*
X104000000Y-125250000D03*
X149800000Y-50790000D03*
X85350000Y-132500000D03*
X124080000Y-126580000D03*
X84910000Y-124940000D03*
X83700000Y-82750000D03*
X137000000Y-55330000D03*
X159180000Y-59630000D03*
X82850000Y-72350000D03*
X138400000Y-121550000D03*
X134980000Y-121840000D03*
D21*
X117600000Y-67600000D03*
X119200000Y-67600000D03*
D22*
X113310000Y-78510000D03*
X84420000Y-104760000D03*
X103920000Y-132690000D03*
X135030000Y-52750000D03*
D21*
X100800000Y-91800000D03*
D22*
X95200000Y-94050000D03*
X151150000Y-87200000D03*
X124550000Y-85300000D03*
X150950000Y-128250000D03*
X119350000Y-131300000D03*
X99500000Y-97000000D03*
X86460000Y-70720000D03*
X93350000Y-129790000D03*
X146900000Y-67050000D03*
X75500000Y-89550000D03*
X79160000Y-58880000D03*
X110800000Y-98350000D03*
X157500000Y-123000000D03*
X83750000Y-102000000D03*
D21*
X116000000Y-67600000D03*
D22*
X108750000Y-95000000D03*
X85750000Y-68250000D03*
X103950000Y-102350000D03*
X159240000Y-88290000D03*
X150650000Y-74400000D03*
X128380000Y-124380000D03*
X75800000Y-94150000D03*
D21*
X104600000Y-98110000D03*
D22*
X75570000Y-62030000D03*
D21*
X144800000Y-63800000D03*
D22*
X94750000Y-83750000D03*
X95700000Y-92000000D03*
X158000000Y-58250000D03*
X129800000Y-132450000D03*
X159580000Y-119380000D03*
X75600000Y-51200000D03*
X79400000Y-72150000D03*
X143270000Y-109140000D03*
X152080000Y-133050000D03*
X75850000Y-59600000D03*
X152650000Y-50150000D03*
X104050000Y-97000000D03*
X147250000Y-124630000D03*
X130200000Y-129360000D03*
X146700000Y-111950000D03*
X96500000Y-111850000D03*
X102200000Y-117340000D03*
X88120000Y-110950000D03*
X96050000Y-67250000D03*
X150000000Y-130750000D03*
X82070000Y-132910000D03*
X82500000Y-60050000D03*
X101250000Y-100000000D03*
X85250000Y-111750000D03*
X157750000Y-73000000D03*
X82350000Y-68100000D03*
X78990000Y-51430000D03*
X148870000Y-101710000D03*
X103800000Y-84600000D03*
X88750000Y-124000000D03*
X125510000Y-133710000D03*
X77200000Y-101300000D03*
X155990000Y-74150000D03*
X159110000Y-116680000D03*
X133070000Y-124210000D03*
X149020000Y-132180000D03*
X123250000Y-116000000D03*
X106000000Y-117340000D03*
X88270000Y-89840000D03*
X138360000Y-122810000D03*
X142750000Y-72500000D03*
X147550000Y-95300000D03*
X121240000Y-132820000D03*
X107000000Y-83200000D03*
X140480000Y-72120000D03*
X76950000Y-124400000D03*
X120550000Y-81400000D03*
X84000000Y-58450000D03*
X118960000Y-127350000D03*
X150500000Y-125000000D03*
X147030000Y-63400000D03*
X76300000Y-115050000D03*
X85850000Y-51360000D03*
X88160000Y-68950000D03*
X99350000Y-110000000D03*
X141780000Y-116780000D03*
X143210000Y-73830000D03*
X96250000Y-99250000D03*
X74870000Y-83920000D03*
X75700000Y-131650000D03*
X118540000Y-133690000D03*
X158450000Y-102650000D03*
X75100000Y-110900000D03*
X156950000Y-87550000D03*
X84400000Y-79000000D03*
X151500000Y-71250000D03*
X75500000Y-73350000D03*
X81250000Y-93850000D03*
X76550000Y-68650000D03*
X102970000Y-127550000D03*
X93630000Y-133500000D03*
X82050000Y-80750000D03*
X130500000Y-125500000D03*
X75400000Y-57350000D03*
X151100000Y-102000000D03*
X119130000Y-124880000D03*
X108750000Y-101750000D03*
X135500000Y-124000000D03*
X147450000Y-80500000D03*
X121150000Y-114950000D03*
X87980000Y-115830000D03*
X76400000Y-81200000D03*
X75060000Y-78450000D03*
X159140000Y-125400000D03*
X147750000Y-65500000D03*
X151160000Y-104570000D03*
X151500000Y-122250000D03*
X82750000Y-115500000D03*
X156740000Y-103440000D03*
X154750000Y-124750000D03*
X82950000Y-122400000D03*
X154590000Y-120770000D03*
D21*
%TO.N,BATT+*%
X99600000Y-80400000D03*
X102200000Y-56200000D03*
X94200000Y-79400000D03*
%TO.N,+12V*%
X105400000Y-58400000D03*
X119600000Y-60000000D03*
%TO.N,+5V*%
X115400000Y-116200000D03*
X103400000Y-59600000D03*
X112000000Y-55800000D03*
X93600000Y-113000000D03*
X109400000Y-55955000D03*
X98600000Y-56800000D03*
%TO.N,Net-(J5-Pin_2)*%
X136400000Y-62200000D03*
X138400000Y-62200000D03*
X140200000Y-62200000D03*
D22*
%TO.N,Laser_Signal*%
X127600000Y-89400000D03*
X126600000Y-80400000D03*
D21*
%TO.N,Net-(J6-Pin_2)*%
X134200000Y-72800000D03*
X135800000Y-72800000D03*
%TO.N,Net-(J8-Pin_2)*%
X131400000Y-121600000D03*
X129400000Y-121600000D03*
%TD*%
%TO.N,STRING_C+*%
D23*
X123314214Y-112140000D02*
X127200000Y-108254214D01*
X90080000Y-97420000D02*
X104800000Y-112140000D01*
X129800000Y-102200000D02*
X145300000Y-102200000D01*
X104800000Y-112140000D02*
X123314214Y-112140000D01*
X145300000Y-102200000D02*
X147500000Y-100000000D01*
X127200000Y-104800000D02*
X129800000Y-102200000D01*
X127200000Y-108254214D02*
X127200000Y-104800000D01*
%TO.N,Net-(J7-Pin_2)*%
X90080000Y-107580000D02*
X87230000Y-104730000D01*
X87230000Y-104730000D02*
X87230000Y-96239491D01*
X102869491Y-80600000D02*
X117400000Y-80600000D01*
X129800000Y-87000000D02*
X130400000Y-87600000D01*
X117400000Y-80600000D02*
X119100000Y-78900000D01*
X129800000Y-80200000D02*
X129800000Y-87000000D01*
X130400000Y-87600000D02*
X135800000Y-87600000D01*
X119100000Y-78900000D02*
X128500000Y-78900000D01*
X87230000Y-96239491D02*
X102869491Y-80600000D01*
X128500000Y-78900000D02*
X129800000Y-80200000D01*
%TO.N,STRING_B+*%
X138000000Y-84600000D02*
X141800000Y-84600000D01*
X90080000Y-76420000D02*
X129820000Y-76420000D01*
X141800000Y-84600000D02*
X142200000Y-85000000D01*
X129820000Y-76420000D02*
X138000000Y-84600000D01*
X142200000Y-85000000D02*
X147500000Y-85000000D01*
%TO.N,GND*%
D24*
X103800000Y-84600000D02*
X102000000Y-86400000D01*
X102000000Y-86400000D02*
X100200000Y-86400000D01*
D23*
X145000000Y-65400000D02*
X137000000Y-65400000D01*
X134800000Y-67600000D02*
X120800000Y-67600000D01*
X145000000Y-65400000D02*
X145000000Y-64000000D01*
D24*
X105600000Y-84600000D02*
X103800000Y-84600000D01*
D25*
X104750000Y-53790000D02*
X100250000Y-53790000D01*
D24*
X100800000Y-91800000D02*
X104050000Y-95050000D01*
X106000000Y-117400000D02*
X106000000Y-117340000D01*
D25*
X95750000Y-53790000D02*
X100250000Y-53790000D01*
D23*
X145000000Y-64000000D02*
X144800000Y-63800000D01*
D24*
X102260000Y-117400000D02*
X106000000Y-117400000D01*
X107000000Y-83200000D02*
X105600000Y-84600000D01*
X102200000Y-117340000D02*
X102260000Y-117400000D01*
X104050000Y-95050000D02*
X104050000Y-97000000D01*
D23*
X137000000Y-65400000D02*
X134800000Y-67600000D01*
%TO.N,BATT+*%
X102200000Y-56200000D02*
X106800000Y-56200000D01*
X153600000Y-87030000D02*
X157550000Y-83080000D01*
X153600000Y-72450000D02*
X157550000Y-68500000D01*
D26*
X99600000Y-80400000D02*
X98600000Y-79400000D01*
D23*
X153600000Y-72450000D02*
X154125000Y-71925000D01*
X153600000Y-87030000D02*
X153600000Y-72450000D01*
X154125000Y-61035000D02*
X150945000Y-57855000D01*
X134985000Y-57855000D02*
X108455000Y-57855000D01*
X135650000Y-130250000D02*
X147500000Y-118400000D01*
X134985000Y-57855000D02*
X129830000Y-52700000D01*
X150945000Y-57855000D02*
X134985000Y-57855000D01*
X105109138Y-51250000D02*
X104750000Y-51250000D01*
X153600000Y-118400000D02*
X157550000Y-114450000D01*
X153600000Y-118400000D02*
X153600000Y-101530000D01*
X153600000Y-101530000D02*
X153600000Y-87030000D01*
X106800000Y-56200000D02*
X106800000Y-52940862D01*
D26*
X98600000Y-79400000D02*
X94200000Y-79400000D01*
D23*
X153600000Y-101530000D02*
X157550000Y-97580000D01*
X157550000Y-114450000D02*
X157550000Y-112540000D01*
X147500000Y-118400000D02*
X153600000Y-118400000D01*
X108455000Y-57855000D02*
X106800000Y-56200000D01*
X106800000Y-52940862D02*
X105109138Y-51250000D01*
X154125000Y-71925000D02*
X154125000Y-61035000D01*
X150945000Y-57855000D02*
X145790000Y-52700000D01*
%TO.N,+12V*%
D25*
X106600000Y-59600000D02*
X108200000Y-59600000D01*
X105400000Y-58400000D02*
X106600000Y-59600000D01*
X108200000Y-59600000D02*
X108600000Y-60000000D01*
X143250000Y-51887500D02*
X142362500Y-51000000D01*
X118475000Y-51000000D02*
X118250000Y-51225000D01*
X143250000Y-52700000D02*
X143250000Y-51887500D01*
X142362500Y-51000000D02*
X118475000Y-51000000D01*
X108600000Y-60000000D02*
X119600000Y-60000000D01*
%TO.N,+5V*%
X126590000Y-55400000D02*
X127290000Y-54700000D01*
X93600000Y-113000000D02*
X96800000Y-116200000D01*
X127290000Y-54700000D02*
X127290000Y-52700000D01*
X113750000Y-53765000D02*
X113750000Y-55150000D01*
X96800000Y-116200000D02*
X115400000Y-116200000D01*
X109400000Y-56000000D02*
X109400000Y-55955000D01*
X109600000Y-55800000D02*
X109400000Y-56000000D01*
X101400000Y-59600000D02*
X98600000Y-56800000D01*
X113750000Y-55150000D02*
X114000000Y-55400000D01*
X112000000Y-55800000D02*
X109600000Y-55800000D01*
X114000000Y-55400000D02*
X126590000Y-55400000D01*
X103400000Y-59600000D02*
X101400000Y-59600000D01*
X115400000Y-116200000D02*
X115600000Y-116200000D01*
%TO.N,STRING_A+*%
D23*
X90080000Y-54920000D02*
X105160000Y-70000000D01*
X105160000Y-70000000D02*
X147500000Y-70000000D01*
%TO.N,Net-(J5-Pin_2)*%
X101260862Y-62200000D02*
X136400000Y-62200000D01*
X138400000Y-62200000D02*
X140200000Y-62200000D01*
X92170000Y-52070000D02*
X93700000Y-53600000D01*
X88899491Y-52070000D02*
X92170000Y-52070000D01*
X140200000Y-62200000D02*
X140400000Y-62200000D01*
X93700000Y-54639138D02*
X101260862Y-62200000D01*
X93700000Y-53600000D02*
X93700000Y-54639138D01*
X136400000Y-62200000D02*
X138400000Y-62200000D01*
X87230000Y-62230000D02*
X87230000Y-53739491D01*
X90080000Y-65080000D02*
X87230000Y-62230000D01*
X87230000Y-53739491D02*
X88899491Y-52070000D01*
%TO.N,Laser_Signal*%
D24*
X126600000Y-88400000D02*
X127600000Y-89400000D01*
X126600000Y-80400000D02*
X126600000Y-88400000D01*
%TO.N,Net-(SW3-Pad2)*%
D25*
X111210000Y-53765000D02*
X109250000Y-53765000D01*
X113750000Y-51225000D02*
X111210000Y-53765000D01*
%TO.N,STRING_D+*%
D23*
X90125000Y-118840000D02*
X143660000Y-118840000D01*
X143660000Y-118840000D02*
X147500000Y-115000000D01*
%TO.N,Net-(J6-Pin_2)*%
X90080000Y-86580000D02*
X87230000Y-83730000D01*
X89669491Y-72800000D02*
X134200000Y-72800000D01*
X87230000Y-75239491D02*
X89669491Y-72800000D01*
X87230000Y-83730000D02*
X87230000Y-75239491D01*
%TO.N,Net-(J8-Pin_2)*%
X97525000Y-121600000D02*
X129400000Y-121600000D01*
X90125000Y-129000000D02*
X97525000Y-121600000D01*
%TD*%
%TA.AperFunction,Conductor*%
%TO.N,GND*%
G36*
X139200039Y-52020185D02*
G01*
X139245794Y-52072989D01*
X139257000Y-52124500D01*
X139257000Y-53747870D01*
X139257001Y-53747876D01*
X139263408Y-53807483D01*
X139313702Y-53942328D01*
X139313706Y-53942335D01*
X139399952Y-54057544D01*
X139399955Y-54057547D01*
X139515164Y-54143793D01*
X139515171Y-54143797D01*
X139650017Y-54194091D01*
X139650016Y-54194091D01*
X139656944Y-54194835D01*
X139709627Y-54200500D01*
X141710372Y-54200499D01*
X141769983Y-54194091D01*
X141904831Y-54143796D01*
X142020046Y-54057546D01*
X142106296Y-53942331D01*
X142116690Y-53914460D01*
X142158560Y-53858527D01*
X142224023Y-53834108D01*
X142292297Y-53848958D01*
X142305746Y-53857465D01*
X142488462Y-53990217D01*
X142620599Y-54057544D01*
X142692244Y-54094049D01*
X142909751Y-54164721D01*
X142909752Y-54164721D01*
X142909755Y-54164722D01*
X143135646Y-54200500D01*
X143135647Y-54200500D01*
X143364353Y-54200500D01*
X143364354Y-54200500D01*
X143590245Y-54164722D01*
X143590248Y-54164721D01*
X143590249Y-54164721D01*
X143807755Y-54094049D01*
X143807755Y-54094048D01*
X143807758Y-54094048D01*
X144011538Y-53990217D01*
X144196566Y-53855786D01*
X144358286Y-53694066D01*
X144407582Y-53626215D01*
X144462909Y-53583551D01*
X144532522Y-53577571D01*
X144594317Y-53610177D01*
X144608212Y-53626211D01*
X144645483Y-53677510D01*
X144645485Y-53677512D01*
X147110792Y-56142819D01*
X147144277Y-56204142D01*
X147139293Y-56273834D01*
X147097421Y-56329767D01*
X147031957Y-56354184D01*
X147023111Y-56354500D01*
X135657889Y-56354500D01*
X135590850Y-56334815D01*
X135570208Y-56318181D01*
X131464208Y-52212181D01*
X131430723Y-52150858D01*
X131435707Y-52081166D01*
X131477579Y-52025233D01*
X131543043Y-52000816D01*
X131551889Y-52000500D01*
X139133000Y-52000500D01*
X139200039Y-52020185D01*
G37*
%TD.AperFunction*%
%TA.AperFunction,Conductor*%
G36*
X123240039Y-52020185D02*
G01*
X123285794Y-52072989D01*
X123297000Y-52124500D01*
X123297000Y-53747870D01*
X123297001Y-53747876D01*
X123303408Y-53807483D01*
X123353702Y-53942328D01*
X123353706Y-53942335D01*
X123439952Y-54057544D01*
X123439955Y-54057547D01*
X123555164Y-54143793D01*
X123555171Y-54143797D01*
X123596785Y-54159318D01*
X123652719Y-54201189D01*
X123677136Y-54266653D01*
X123662285Y-54334926D01*
X123612880Y-54384332D01*
X123553452Y-54399500D01*
X119633984Y-54399500D01*
X119566945Y-54379815D01*
X119521190Y-54327011D01*
X119511246Y-54257853D01*
X119516053Y-54237182D01*
X119566757Y-54081130D01*
X119566757Y-54081127D01*
X119600000Y-53871246D01*
X119600000Y-53658753D01*
X119566757Y-53448872D01*
X119566757Y-53448869D01*
X119501095Y-53246782D01*
X119404624Y-53057449D01*
X119365270Y-53003282D01*
X119365269Y-53003282D01*
X118732962Y-53635589D01*
X118715925Y-53572007D01*
X118650099Y-53457993D01*
X118557007Y-53364901D01*
X118442993Y-53299075D01*
X118379409Y-53282037D01*
X119049627Y-52611818D01*
X119110950Y-52578333D01*
X119137307Y-52575499D01*
X119147872Y-52575499D01*
X119207483Y-52569091D01*
X119342331Y-52518796D01*
X119457546Y-52432546D01*
X119543796Y-52317331D01*
X119594091Y-52182483D01*
X119600500Y-52122873D01*
X119600500Y-52122845D01*
X119600678Y-52119548D01*
X119601934Y-52119615D01*
X119620185Y-52057461D01*
X119672989Y-52011706D01*
X119724500Y-52000500D01*
X123173000Y-52000500D01*
X123240039Y-52020185D01*
G37*
%TD.AperFunction*%
%TA.AperFunction,Conductor*%
G36*
X156002702Y-49500617D02*
G01*
X156386773Y-49517386D01*
X156397505Y-49518326D01*
X156775963Y-49568150D01*
X156786601Y-49570025D01*
X157159279Y-49652647D01*
X157169720Y-49655445D01*
X157533765Y-49770227D01*
X157543911Y-49773920D01*
X157896578Y-49920000D01*
X157906369Y-49924566D01*
X158244942Y-50100816D01*
X158254310Y-50106224D01*
X158576244Y-50311318D01*
X158585105Y-50317523D01*
X158887930Y-50549889D01*
X158896217Y-50556843D01*
X159177635Y-50814715D01*
X159185284Y-50822364D01*
X159443156Y-51103782D01*
X159450110Y-51112069D01*
X159682476Y-51414894D01*
X159688681Y-51423755D01*
X159893775Y-51745689D01*
X159899183Y-51755057D01*
X160075430Y-52093623D01*
X160080002Y-52103427D01*
X160226075Y-52456078D01*
X160229775Y-52466244D01*
X160344553Y-52830276D01*
X160347353Y-52840724D01*
X160429972Y-53213390D01*
X160431850Y-53224044D01*
X160468053Y-53499035D01*
X160480951Y-53597007D01*
X160481671Y-53602472D01*
X160482613Y-53613247D01*
X160491985Y-53827890D01*
X160499382Y-53997297D01*
X160499500Y-54002706D01*
X160499500Y-129997293D01*
X160499382Y-130002702D01*
X160482614Y-130386751D01*
X160481671Y-130397527D01*
X160431850Y-130775955D01*
X160429972Y-130786609D01*
X160347353Y-131159275D01*
X160344553Y-131169723D01*
X160229775Y-131533755D01*
X160226075Y-131543921D01*
X160080002Y-131896572D01*
X160075430Y-131906376D01*
X159899183Y-132244942D01*
X159893775Y-132254310D01*
X159688681Y-132576244D01*
X159682476Y-132585105D01*
X159450110Y-132887930D01*
X159443156Y-132896217D01*
X159185284Y-133177635D01*
X159177635Y-133185284D01*
X158896217Y-133443156D01*
X158887930Y-133450110D01*
X158585105Y-133682476D01*
X158576244Y-133688681D01*
X158254310Y-133893775D01*
X158244942Y-133899183D01*
X157906376Y-134075430D01*
X157896572Y-134080002D01*
X157543921Y-134226075D01*
X157533755Y-134229775D01*
X157169723Y-134344553D01*
X157159275Y-134347353D01*
X156786609Y-134429972D01*
X156775955Y-134431850D01*
X156397527Y-134481671D01*
X156386751Y-134482614D01*
X156002703Y-134499382D01*
X155997294Y-134499500D01*
X117134077Y-134499500D01*
X117067038Y-134479815D01*
X117021283Y-134427011D01*
X117011339Y-134357853D01*
X117040364Y-134294297D01*
X117046396Y-134287819D01*
X117096748Y-134237466D01*
X117096751Y-134237462D01*
X117206185Y-134073684D01*
X117206192Y-134073671D01*
X117281569Y-133891693D01*
X117281572Y-133891681D01*
X117319999Y-133698495D01*
X117320000Y-133698492D01*
X117320000Y-133550000D01*
X116620000Y-133550000D01*
X116620000Y-133050000D01*
X117320000Y-133050000D01*
X117320000Y-132901508D01*
X117319999Y-132901504D01*
X117281572Y-132708318D01*
X117281569Y-132708306D01*
X117206192Y-132526328D01*
X117206185Y-132526315D01*
X117096751Y-132362537D01*
X117096748Y-132362533D01*
X116957466Y-132223251D01*
X116957462Y-132223248D01*
X116793684Y-132113814D01*
X116793671Y-132113807D01*
X116611691Y-132038429D01*
X116611683Y-132038427D01*
X116570000Y-132030135D01*
X116570000Y-132833011D01*
X116560060Y-132815795D01*
X116504205Y-132759940D01*
X116435796Y-132720444D01*
X116359496Y-132700000D01*
X116280504Y-132700000D01*
X116204204Y-132720444D01*
X116135795Y-132759940D01*
X116079940Y-132815795D01*
X116070000Y-132833011D01*
X116070000Y-132030136D01*
X116069999Y-132030135D01*
X116028316Y-132038427D01*
X116028308Y-132038429D01*
X115846328Y-132113807D01*
X115846315Y-132113814D01*
X115682537Y-132223248D01*
X115682533Y-132223251D01*
X115543251Y-132362533D01*
X115543248Y-132362537D01*
X115433814Y-132526315D01*
X115433807Y-132526328D01*
X115358430Y-132708306D01*
X115358427Y-132708318D01*
X115320000Y-132901504D01*
X115320000Y-133050000D01*
X116020000Y-133050000D01*
X116020000Y-133550000D01*
X115320000Y-133550000D01*
X115320000Y-133698495D01*
X115358427Y-133891681D01*
X115358430Y-133891693D01*
X115433807Y-134073671D01*
X115433814Y-134073684D01*
X115543248Y-134237462D01*
X115543251Y-134237466D01*
X115593604Y-134287819D01*
X115627089Y-134349142D01*
X115622105Y-134418834D01*
X115580233Y-134474767D01*
X115514769Y-134499184D01*
X115505923Y-134499500D01*
X108494077Y-134499500D01*
X108427038Y-134479815D01*
X108381283Y-134427011D01*
X108371339Y-134357853D01*
X108400364Y-134294297D01*
X108406396Y-134287819D01*
X108456748Y-134237466D01*
X108456751Y-134237462D01*
X108566185Y-134073684D01*
X108566192Y-134073671D01*
X108641569Y-133891693D01*
X108641572Y-133891681D01*
X108679999Y-133698495D01*
X108680000Y-133698492D01*
X108680000Y-133550000D01*
X107980000Y-133550000D01*
X107980000Y-133050000D01*
X108680000Y-133050000D01*
X108680000Y-132901508D01*
X108679999Y-132901504D01*
X108641572Y-132708318D01*
X108641569Y-132708306D01*
X108566192Y-132526328D01*
X108566185Y-132526315D01*
X108456751Y-132362537D01*
X108456748Y-132362533D01*
X108317466Y-132223251D01*
X108317462Y-132223248D01*
X108153684Y-132113814D01*
X108153671Y-132113807D01*
X107971691Y-132038429D01*
X107971683Y-132038427D01*
X107930000Y-132030135D01*
X107930000Y-132833011D01*
X107920060Y-132815795D01*
X107864205Y-132759940D01*
X107795796Y-132720444D01*
X107719496Y-132700000D01*
X107640504Y-132700000D01*
X107564204Y-132720444D01*
X107495795Y-132759940D01*
X107439940Y-132815795D01*
X107430000Y-132833011D01*
X107430000Y-132030136D01*
X107429999Y-132030135D01*
X107388316Y-132038427D01*
X107388308Y-132038429D01*
X107206328Y-132113807D01*
X107206315Y-132113814D01*
X107042537Y-132223248D01*
X107042533Y-132223251D01*
X106903251Y-132362533D01*
X106903248Y-132362537D01*
X106793814Y-132526315D01*
X106793807Y-132526328D01*
X106718430Y-132708306D01*
X106718427Y-132708318D01*
X106680000Y-132901504D01*
X106680000Y-133050000D01*
X107380000Y-133050000D01*
X107380000Y-133550000D01*
X106680000Y-133550000D01*
X106680000Y-133698495D01*
X106718427Y-133891681D01*
X106718430Y-133891693D01*
X106793807Y-134073671D01*
X106793814Y-134073684D01*
X106903248Y-134237462D01*
X106903251Y-134237466D01*
X106953604Y-134287819D01*
X106987089Y-134349142D01*
X106982105Y-134418834D01*
X106940233Y-134474767D01*
X106874769Y-134499184D01*
X106865923Y-134499500D01*
X77502706Y-134499500D01*
X77497297Y-134499382D01*
X77113248Y-134482614D01*
X77102474Y-134481671D01*
X77040007Y-134473447D01*
X76724044Y-134431850D01*
X76713390Y-134429972D01*
X76340724Y-134347353D01*
X76330276Y-134344553D01*
X75966244Y-134229775D01*
X75956078Y-134226075D01*
X75603427Y-134080002D01*
X75593623Y-134075430D01*
X75255057Y-133899183D01*
X75245689Y-133893775D01*
X74923755Y-133688681D01*
X74914894Y-133682476D01*
X74612069Y-133450110D01*
X74603782Y-133443156D01*
X74322364Y-133185284D01*
X74314715Y-133177635D01*
X74132874Y-132979190D01*
X74056843Y-132896217D01*
X74049889Y-132887930D01*
X73817523Y-132585105D01*
X73811318Y-132576244D01*
X73785931Y-132536395D01*
X73606223Y-132254309D01*
X73600816Y-132244942D01*
X73473471Y-132000315D01*
X73424566Y-131906369D01*
X73419997Y-131896572D01*
X73273920Y-131543911D01*
X73270224Y-131533755D01*
X73251659Y-131474875D01*
X73155445Y-131169720D01*
X73152646Y-131159275D01*
X73150701Y-131150500D01*
X73070025Y-130786601D01*
X73068149Y-130775955D01*
X73064674Y-130749559D01*
X73018326Y-130397505D01*
X73017386Y-130386773D01*
X73000618Y-130002702D01*
X73000500Y-129997293D01*
X73000500Y-128859041D01*
X77814500Y-128859041D01*
X77814500Y-129140958D01*
X77851295Y-129420439D01*
X77924259Y-129692743D01*
X78032135Y-129953179D01*
X78032140Y-129953190D01*
X78166716Y-130186281D01*
X78173088Y-130197317D01*
X78341701Y-130417056D01*
X78344704Y-130420970D01*
X78544029Y-130620295D01*
X78544033Y-130620298D01*
X78544035Y-130620300D01*
X78767683Y-130791912D01*
X78767690Y-130791916D01*
X79011809Y-130932859D01*
X79011814Y-130932861D01*
X79011817Y-130932863D01*
X79272261Y-131040742D01*
X79544558Y-131113704D01*
X79824049Y-131150500D01*
X79824056Y-131150500D01*
X80105944Y-131150500D01*
X80105951Y-131150500D01*
X80385442Y-131113704D01*
X80657739Y-131040742D01*
X80918183Y-130932863D01*
X81162317Y-130791912D01*
X81385965Y-130620300D01*
X81585300Y-130420965D01*
X81756912Y-130197317D01*
X81897863Y-129953183D01*
X82005742Y-129692739D01*
X82078704Y-129420442D01*
X82115500Y-129140951D01*
X82115500Y-128859049D01*
X82078704Y-128579558D01*
X82005742Y-128307261D01*
X81993753Y-128278318D01*
X81970377Y-128221882D01*
X81897863Y-128046817D01*
X81897861Y-128046814D01*
X81897859Y-128046809D01*
X81756916Y-127802690D01*
X81756912Y-127802683D01*
X81585300Y-127579035D01*
X81585298Y-127579033D01*
X81585295Y-127579029D01*
X81385970Y-127379704D01*
X81326427Y-127334015D01*
X81162317Y-127208088D01*
X81162311Y-127208084D01*
X81162309Y-127208083D01*
X80918190Y-127067140D01*
X80918179Y-127067135D01*
X80657743Y-126959259D01*
X80385439Y-126886295D01*
X80105958Y-126849500D01*
X80105951Y-126849500D01*
X79824049Y-126849500D01*
X79824041Y-126849500D01*
X79544560Y-126886295D01*
X79272256Y-126959259D01*
X79011820Y-127067135D01*
X79011809Y-127067140D01*
X78767690Y-127208083D01*
X78767682Y-127208089D01*
X78544029Y-127379704D01*
X78344704Y-127579029D01*
X78322145Y-127608429D01*
X78180326Y-127793251D01*
X78173089Y-127802682D01*
X78173083Y-127802690D01*
X78032140Y-128046809D01*
X78032135Y-128046820D01*
X77924259Y-128307256D01*
X77851295Y-128579560D01*
X77814500Y-128859041D01*
X73000500Y-128859041D01*
X73000500Y-118699041D01*
X77814500Y-118699041D01*
X77814500Y-118980958D01*
X77851295Y-119260439D01*
X77924259Y-119532743D01*
X78032135Y-119793179D01*
X78032140Y-119793190D01*
X78115065Y-119936819D01*
X78173088Y-120037317D01*
X78344700Y-120260965D01*
X78344704Y-120260970D01*
X78544029Y-120460295D01*
X78544033Y-120460298D01*
X78544035Y-120460300D01*
X78767683Y-120631912D01*
X78767690Y-120631916D01*
X79011809Y-120772859D01*
X79011814Y-120772861D01*
X79011817Y-120772863D01*
X79272261Y-120880742D01*
X79544558Y-120953704D01*
X79824049Y-120990500D01*
X79824056Y-120990500D01*
X80105944Y-120990500D01*
X80105951Y-120990500D01*
X80385442Y-120953704D01*
X80657739Y-120880742D01*
X80918183Y-120772863D01*
X81162317Y-120631912D01*
X81385965Y-120460300D01*
X81585300Y-120260965D01*
X81756912Y-120037317D01*
X81897863Y-119793183D01*
X82005742Y-119532739D01*
X82078704Y-119260442D01*
X82115500Y-118980951D01*
X82115500Y-118699049D01*
X82078704Y-118419558D01*
X82005742Y-118147261D01*
X81897863Y-117886817D01*
X81897861Y-117886814D01*
X81897859Y-117886809D01*
X81756916Y-117642690D01*
X81756912Y-117642683D01*
X81585300Y-117419035D01*
X81585298Y-117419033D01*
X81585295Y-117419029D01*
X81385970Y-117219704D01*
X81360943Y-117200500D01*
X81162317Y-117048088D01*
X81162311Y-117048084D01*
X81162309Y-117048083D01*
X80918190Y-116907140D01*
X80918179Y-116907135D01*
X80657743Y-116799259D01*
X80385439Y-116726295D01*
X80105958Y-116689500D01*
X80105951Y-116689500D01*
X79824049Y-116689500D01*
X79824041Y-116689500D01*
X79544560Y-116726295D01*
X79272256Y-116799259D01*
X79011820Y-116907135D01*
X79011809Y-116907140D01*
X78767690Y-117048083D01*
X78767682Y-117048089D01*
X78544029Y-117219704D01*
X78344704Y-117419029D01*
X78173089Y-117642682D01*
X78173083Y-117642690D01*
X78032140Y-117886809D01*
X78032135Y-117886820D01*
X77924259Y-118147256D01*
X77851295Y-118419560D01*
X77814500Y-118699041D01*
X73000500Y-118699041D01*
X73000500Y-107439041D01*
X77769500Y-107439041D01*
X77769500Y-107720958D01*
X77806295Y-108000439D01*
X77879259Y-108272743D01*
X77987135Y-108533179D01*
X77987140Y-108533190D01*
X78128083Y-108777309D01*
X78128088Y-108777317D01*
X78291250Y-108989953D01*
X78299704Y-109000970D01*
X78499029Y-109200295D01*
X78499033Y-109200298D01*
X78499035Y-109200300D01*
X78722683Y-109371912D01*
X78722690Y-109371916D01*
X78966809Y-109512859D01*
X78966814Y-109512861D01*
X78966817Y-109512863D01*
X79227261Y-109620742D01*
X79499558Y-109693704D01*
X79779049Y-109730500D01*
X79779056Y-109730500D01*
X80060944Y-109730500D01*
X80060951Y-109730500D01*
X80340442Y-109693704D01*
X80612739Y-109620742D01*
X80873183Y-109512863D01*
X81117317Y-109371912D01*
X81340965Y-109200300D01*
X81540300Y-109000965D01*
X81711912Y-108777317D01*
X81852863Y-108533183D01*
X81960742Y-108272739D01*
X82033704Y-108000442D01*
X82070500Y-107720951D01*
X82070500Y-107439049D01*
X82033704Y-107159558D01*
X81960742Y-106887261D01*
X81852863Y-106626817D01*
X81852861Y-106626814D01*
X81852859Y-106626809D01*
X81711916Y-106382690D01*
X81711912Y-106382683D01*
X81540300Y-106159035D01*
X81540298Y-106159033D01*
X81540295Y-106159029D01*
X81340970Y-105959704D01*
X81340965Y-105959700D01*
X81117317Y-105788088D01*
X81117311Y-105788084D01*
X81117309Y-105788083D01*
X80873190Y-105647140D01*
X80873179Y-105647135D01*
X80612743Y-105539259D01*
X80340439Y-105466295D01*
X80060958Y-105429500D01*
X80060951Y-105429500D01*
X79779049Y-105429500D01*
X79779041Y-105429500D01*
X79499560Y-105466295D01*
X79227256Y-105539259D01*
X78966820Y-105647135D01*
X78966809Y-105647140D01*
X78722690Y-105788083D01*
X78722682Y-105788089D01*
X78499029Y-105959704D01*
X78299704Y-106159029D01*
X78128089Y-106382682D01*
X78128083Y-106382690D01*
X77987140Y-106626809D01*
X77987135Y-106626820D01*
X77879259Y-106887256D01*
X77806295Y-107159560D01*
X77769500Y-107439041D01*
X73000500Y-107439041D01*
X73000500Y-97279041D01*
X77769500Y-97279041D01*
X77769500Y-97560958D01*
X77806295Y-97840439D01*
X77879259Y-98112743D01*
X77987135Y-98373179D01*
X77987140Y-98373190D01*
X78123536Y-98609433D01*
X78128088Y-98617317D01*
X78204315Y-98716657D01*
X78299704Y-98840970D01*
X78499029Y-99040295D01*
X78499033Y-99040298D01*
X78499035Y-99040300D01*
X78722683Y-99211912D01*
X78722690Y-99211916D01*
X78966809Y-99352859D01*
X78966814Y-99352861D01*
X78966817Y-99352863D01*
X79227261Y-99460742D01*
X79499558Y-99533704D01*
X79779049Y-99570500D01*
X79779056Y-99570500D01*
X80060944Y-99570500D01*
X80060951Y-99570500D01*
X80340442Y-99533704D01*
X80612739Y-99460742D01*
X80873183Y-99352863D01*
X81117317Y-99211912D01*
X81340965Y-99040300D01*
X81540300Y-98840965D01*
X81711912Y-98617317D01*
X81852863Y-98373183D01*
X81960742Y-98112739D01*
X82033704Y-97840442D01*
X82070500Y-97560951D01*
X82070500Y-97279049D01*
X82033704Y-96999558D01*
X81960742Y-96727261D01*
X81852863Y-96466817D01*
X81852861Y-96466814D01*
X81852859Y-96466809D01*
X81711916Y-96222690D01*
X81711912Y-96222683D01*
X81540300Y-95999035D01*
X81540298Y-95999033D01*
X81540295Y-95999029D01*
X81340970Y-95799704D01*
X81340965Y-95799700D01*
X81117317Y-95628088D01*
X81117311Y-95628084D01*
X81117309Y-95628083D01*
X80873190Y-95487140D01*
X80873179Y-95487135D01*
X80612743Y-95379259D01*
X80340439Y-95306295D01*
X80060958Y-95269500D01*
X80060951Y-95269500D01*
X79779049Y-95269500D01*
X79779041Y-95269500D01*
X79499560Y-95306295D01*
X79227256Y-95379259D01*
X78966820Y-95487135D01*
X78966809Y-95487140D01*
X78722690Y-95628083D01*
X78722682Y-95628089D01*
X78499029Y-95799704D01*
X78299704Y-95999029D01*
X78128089Y-96222682D01*
X78128083Y-96222690D01*
X77987140Y-96466809D01*
X77987135Y-96466820D01*
X77879259Y-96727256D01*
X77806295Y-96999560D01*
X77769500Y-97279041D01*
X73000500Y-97279041D01*
X73000500Y-86439041D01*
X77769500Y-86439041D01*
X77769500Y-86720958D01*
X77806295Y-87000439D01*
X77879259Y-87272743D01*
X77987135Y-87533179D01*
X77987140Y-87533190D01*
X78128083Y-87777309D01*
X78128088Y-87777317D01*
X78281703Y-87977511D01*
X78299704Y-88000970D01*
X78499029Y-88200295D01*
X78499033Y-88200298D01*
X78499035Y-88200300D01*
X78722683Y-88371912D01*
X78722690Y-88371916D01*
X78966809Y-88512859D01*
X78966814Y-88512861D01*
X78966817Y-88512863D01*
X79227261Y-88620742D01*
X79499558Y-88693704D01*
X79779049Y-88730500D01*
X79779056Y-88730500D01*
X80060944Y-88730500D01*
X80060951Y-88730500D01*
X80340442Y-88693704D01*
X80612739Y-88620742D01*
X80873183Y-88512863D01*
X81117317Y-88371912D01*
X81340965Y-88200300D01*
X81540300Y-88000965D01*
X81711912Y-87777317D01*
X81852863Y-87533183D01*
X81960742Y-87272739D01*
X82033704Y-87000442D01*
X82070500Y-86720951D01*
X82070500Y-86439049D01*
X82033704Y-86159558D01*
X81960742Y-85887261D01*
X81852863Y-85626817D01*
X81852861Y-85626814D01*
X81852859Y-85626809D01*
X81711916Y-85382690D01*
X81711912Y-85382683D01*
X81540300Y-85159035D01*
X81540298Y-85159033D01*
X81540295Y-85159029D01*
X81340970Y-84959704D01*
X81340965Y-84959700D01*
X81117317Y-84788088D01*
X81117311Y-84788084D01*
X81117309Y-84788083D01*
X80873190Y-84647140D01*
X80873179Y-84647135D01*
X80612743Y-84539259D01*
X80340439Y-84466295D01*
X80060958Y-84429500D01*
X80060951Y-84429500D01*
X79779049Y-84429500D01*
X79779041Y-84429500D01*
X79499560Y-84466295D01*
X79227256Y-84539259D01*
X78966820Y-84647135D01*
X78966809Y-84647140D01*
X78722690Y-84788083D01*
X78722682Y-84788089D01*
X78499029Y-84959704D01*
X78299704Y-85159029D01*
X78128089Y-85382682D01*
X78128083Y-85382690D01*
X77987140Y-85626809D01*
X77987135Y-85626820D01*
X77879259Y-85887256D01*
X77806295Y-86159560D01*
X77769500Y-86439041D01*
X73000500Y-86439041D01*
X73000500Y-76279041D01*
X77769500Y-76279041D01*
X77769500Y-76560958D01*
X77806295Y-76840439D01*
X77879259Y-77112743D01*
X77987135Y-77373179D01*
X77987140Y-77373190D01*
X78128083Y-77617309D01*
X78128088Y-77617317D01*
X78299700Y-77840965D01*
X78299704Y-77840970D01*
X78499029Y-78040295D01*
X78499033Y-78040298D01*
X78499035Y-78040300D01*
X78722683Y-78211912D01*
X78722690Y-78211916D01*
X78966809Y-78352859D01*
X78966814Y-78352861D01*
X78966817Y-78352863D01*
X79227261Y-78460742D01*
X79499558Y-78533704D01*
X79779049Y-78570500D01*
X79779056Y-78570500D01*
X80060944Y-78570500D01*
X80060951Y-78570500D01*
X80340442Y-78533704D01*
X80612739Y-78460742D01*
X80873183Y-78352863D01*
X81117317Y-78211912D01*
X81340965Y-78040300D01*
X81540300Y-77840965D01*
X81711912Y-77617317D01*
X81852863Y-77373183D01*
X81960742Y-77112739D01*
X82033704Y-76840442D01*
X82070500Y-76560951D01*
X82070500Y-76279049D01*
X82033704Y-75999558D01*
X81960742Y-75727261D01*
X81852863Y-75466817D01*
X81852861Y-75466814D01*
X81852859Y-75466809D01*
X81711916Y-75222690D01*
X81711912Y-75222683D01*
X81540300Y-74999035D01*
X81540298Y-74999033D01*
X81540295Y-74999029D01*
X81340970Y-74799704D01*
X81340965Y-74799700D01*
X81117317Y-74628088D01*
X81117311Y-74628084D01*
X81117309Y-74628083D01*
X80873190Y-74487140D01*
X80873179Y-74487135D01*
X80612743Y-74379259D01*
X80340439Y-74306295D01*
X80060958Y-74269500D01*
X80060951Y-74269500D01*
X79779049Y-74269500D01*
X79779041Y-74269500D01*
X79499560Y-74306295D01*
X79227256Y-74379259D01*
X78966820Y-74487135D01*
X78966809Y-74487140D01*
X78722690Y-74628083D01*
X78722686Y-74628086D01*
X78722683Y-74628088D01*
X78676535Y-74663499D01*
X78499029Y-74799704D01*
X78299704Y-74999029D01*
X78128089Y-75222682D01*
X78128083Y-75222690D01*
X77987140Y-75466809D01*
X77987135Y-75466820D01*
X77879259Y-75727256D01*
X77806295Y-75999560D01*
X77769500Y-76279041D01*
X73000500Y-76279041D01*
X73000500Y-64939041D01*
X77769500Y-64939041D01*
X77769500Y-65220958D01*
X77806295Y-65500439D01*
X77879259Y-65772743D01*
X77987135Y-66033179D01*
X77987140Y-66033190D01*
X78128083Y-66277309D01*
X78128088Y-66277317D01*
X78299700Y-66500965D01*
X78299704Y-66500970D01*
X78499029Y-66700295D01*
X78499033Y-66700298D01*
X78499035Y-66700300D01*
X78722683Y-66871912D01*
X78722690Y-66871916D01*
X78966809Y-67012859D01*
X78966814Y-67012861D01*
X78966817Y-67012863D01*
X79227261Y-67120742D01*
X79499558Y-67193704D01*
X79779049Y-67230500D01*
X79779056Y-67230500D01*
X80060944Y-67230500D01*
X80060951Y-67230500D01*
X80340442Y-67193704D01*
X80612739Y-67120742D01*
X80873183Y-67012863D01*
X81117317Y-66871912D01*
X81340965Y-66700300D01*
X81540300Y-66500965D01*
X81711912Y-66277317D01*
X81852863Y-66033183D01*
X81960742Y-65772739D01*
X82033704Y-65500442D01*
X82070500Y-65220951D01*
X82070500Y-64939049D01*
X82033704Y-64659558D01*
X81960742Y-64387261D01*
X81852863Y-64126817D01*
X81852861Y-64126814D01*
X81852859Y-64126809D01*
X81711916Y-63882690D01*
X81711912Y-63882683D01*
X81540300Y-63659035D01*
X81540298Y-63659033D01*
X81540295Y-63659029D01*
X81340970Y-63459704D01*
X81340965Y-63459700D01*
X81117317Y-63288088D01*
X81117311Y-63288084D01*
X81117309Y-63288083D01*
X80873190Y-63147140D01*
X80873179Y-63147135D01*
X80612743Y-63039259D01*
X80340439Y-62966295D01*
X80060958Y-62929500D01*
X80060951Y-62929500D01*
X79779049Y-62929500D01*
X79779041Y-62929500D01*
X79499560Y-62966295D01*
X79227256Y-63039259D01*
X78966820Y-63147135D01*
X78966809Y-63147140D01*
X78722690Y-63288083D01*
X78722682Y-63288089D01*
X78499029Y-63459704D01*
X78299704Y-63659029D01*
X78128089Y-63882682D01*
X78128083Y-63882690D01*
X77987140Y-64126809D01*
X77987135Y-64126820D01*
X77879259Y-64387256D01*
X77806295Y-64659560D01*
X77769500Y-64939041D01*
X73000500Y-64939041D01*
X73000500Y-54779041D01*
X77769500Y-54779041D01*
X77769500Y-55060958D01*
X77806295Y-55340439D01*
X77879259Y-55612743D01*
X77987135Y-55873179D01*
X77987140Y-55873190D01*
X78128083Y-56117309D01*
X78128088Y-56117317D01*
X78294981Y-56334815D01*
X78299704Y-56340970D01*
X78499029Y-56540295D01*
X78499033Y-56540298D01*
X78499035Y-56540300D01*
X78722683Y-56711912D01*
X78722690Y-56711916D01*
X78966809Y-56852859D01*
X78966814Y-56852861D01*
X78966817Y-56852863D01*
X79227261Y-56960742D01*
X79499558Y-57033704D01*
X79779049Y-57070500D01*
X79779056Y-57070500D01*
X80060944Y-57070500D01*
X80060951Y-57070500D01*
X80340442Y-57033704D01*
X80612739Y-56960742D01*
X80873183Y-56852863D01*
X81117317Y-56711912D01*
X81340965Y-56540300D01*
X81540300Y-56340965D01*
X81711912Y-56117317D01*
X81852863Y-55873183D01*
X81960742Y-55612739D01*
X82033704Y-55340442D01*
X82070500Y-55060951D01*
X82070500Y-54779049D01*
X82033704Y-54499558D01*
X81960742Y-54227261D01*
X81852863Y-53966817D01*
X81852861Y-53966814D01*
X81852859Y-53966809D01*
X81711916Y-53722690D01*
X81711912Y-53722683D01*
X81695200Y-53700904D01*
X81688379Y-53692014D01*
X81688378Y-53692013D01*
X81634189Y-53621393D01*
X85729500Y-53621393D01*
X85729500Y-62348097D01*
X85766446Y-62581368D01*
X85839433Y-62805996D01*
X85931371Y-62986433D01*
X85946657Y-63016434D01*
X85963240Y-63039259D01*
X86085484Y-63207511D01*
X87893181Y-65015208D01*
X87926666Y-65076531D01*
X87929500Y-65102889D01*
X87929500Y-65220958D01*
X87966295Y-65500439D01*
X88039259Y-65772743D01*
X88147135Y-66033179D01*
X88147140Y-66033190D01*
X88288083Y-66277309D01*
X88288088Y-66277317D01*
X88459700Y-66500965D01*
X88459704Y-66500970D01*
X88659029Y-66700295D01*
X88659033Y-66700298D01*
X88659035Y-66700300D01*
X88882683Y-66871912D01*
X88882690Y-66871916D01*
X89126809Y-67012859D01*
X89126814Y-67012861D01*
X89126817Y-67012863D01*
X89387261Y-67120742D01*
X89659558Y-67193704D01*
X89939049Y-67230500D01*
X89939056Y-67230500D01*
X90220944Y-67230500D01*
X90220951Y-67230500D01*
X90500442Y-67193704D01*
X90772739Y-67120742D01*
X91033183Y-67012863D01*
X91277317Y-66871912D01*
X91500965Y-66700300D01*
X91700300Y-66500965D01*
X91871912Y-66277317D01*
X92012863Y-66033183D01*
X92120742Y-65772739D01*
X92193704Y-65500442D01*
X92230500Y-65220951D01*
X92230500Y-64939049D01*
X92193704Y-64659558D01*
X92120742Y-64387261D01*
X92012863Y-64126817D01*
X92012861Y-64126814D01*
X92012859Y-64126809D01*
X91871916Y-63882690D01*
X91871912Y-63882683D01*
X91700300Y-63659035D01*
X91700298Y-63659033D01*
X91700295Y-63659029D01*
X91500970Y-63459704D01*
X91500965Y-63459700D01*
X91277317Y-63288088D01*
X91277311Y-63288084D01*
X91277309Y-63288083D01*
X91033190Y-63147140D01*
X91033179Y-63147135D01*
X90772743Y-63039259D01*
X90500439Y-62966295D01*
X90220958Y-62929500D01*
X90220951Y-62929500D01*
X90102890Y-62929500D01*
X90035851Y-62909815D01*
X90015209Y-62893181D01*
X88766819Y-61644791D01*
X88733334Y-61583468D01*
X88730500Y-61557110D01*
X88730500Y-56838823D01*
X88750185Y-56771784D01*
X88802989Y-56726029D01*
X88872147Y-56716085D01*
X88916500Y-56731436D01*
X89126809Y-56852859D01*
X89126814Y-56852861D01*
X89126817Y-56852863D01*
X89387261Y-56960742D01*
X89659558Y-57033704D01*
X89939049Y-57070500D01*
X90057111Y-57070500D01*
X90124150Y-57090185D01*
X90144792Y-57106819D01*
X104125791Y-71087819D01*
X104159276Y-71149142D01*
X104154292Y-71218834D01*
X104112420Y-71274767D01*
X104046956Y-71299184D01*
X104038110Y-71299500D01*
X89551394Y-71299500D01*
X89318122Y-71336446D01*
X89093494Y-71409433D01*
X88883056Y-71516657D01*
X88691979Y-71655484D01*
X86085484Y-74261979D01*
X85946657Y-74453056D01*
X85857475Y-74628088D01*
X85839432Y-74663499D01*
X85766446Y-74888122D01*
X85729500Y-75121393D01*
X85729500Y-83848097D01*
X85766446Y-84081368D01*
X85839433Y-84305996D01*
X85946657Y-84516434D01*
X85963240Y-84539259D01*
X86085484Y-84707511D01*
X87893181Y-86515208D01*
X87926666Y-86576531D01*
X87929500Y-86602889D01*
X87929500Y-86720958D01*
X87966295Y-87000439D01*
X88039259Y-87272743D01*
X88147135Y-87533179D01*
X88147140Y-87533190D01*
X88288083Y-87777309D01*
X88288088Y-87777317D01*
X88441703Y-87977511D01*
X88459704Y-88000970D01*
X88659029Y-88200295D01*
X88659033Y-88200298D01*
X88659035Y-88200300D01*
X88882683Y-88371912D01*
X88882690Y-88371916D01*
X89126809Y-88512859D01*
X89126814Y-88512861D01*
X89126817Y-88512863D01*
X89387261Y-88620742D01*
X89659558Y-88693704D01*
X89939049Y-88730500D01*
X89939056Y-88730500D01*
X90220944Y-88730500D01*
X90220951Y-88730500D01*
X90500442Y-88693704D01*
X90772739Y-88620742D01*
X91033183Y-88512863D01*
X91277317Y-88371912D01*
X91500965Y-88200300D01*
X91700300Y-88000965D01*
X91871912Y-87777317D01*
X92012863Y-87533183D01*
X92120742Y-87272739D01*
X92193704Y-87000442D01*
X92230500Y-86720951D01*
X92230500Y-86439049D01*
X92193704Y-86159558D01*
X92120742Y-85887261D01*
X92012863Y-85626817D01*
X92012861Y-85626814D01*
X92012859Y-85626809D01*
X91871916Y-85382690D01*
X91871912Y-85382683D01*
X91700300Y-85159035D01*
X91700298Y-85159033D01*
X91700295Y-85159029D01*
X91500970Y-84959704D01*
X91500965Y-84959700D01*
X91277317Y-84788088D01*
X91277311Y-84788084D01*
X91277309Y-84788083D01*
X91033190Y-84647140D01*
X91033179Y-84647135D01*
X90772743Y-84539259D01*
X90500439Y-84466295D01*
X90220958Y-84429500D01*
X90220951Y-84429500D01*
X90102890Y-84429500D01*
X90035851Y-84409815D01*
X90015209Y-84393181D01*
X88766819Y-83144791D01*
X88733334Y-83083468D01*
X88730500Y-83057110D01*
X88730500Y-78338823D01*
X88750185Y-78271784D01*
X88802989Y-78226029D01*
X88872147Y-78216085D01*
X88916500Y-78231436D01*
X89126809Y-78352859D01*
X89126814Y-78352861D01*
X89126817Y-78352863D01*
X89387261Y-78460742D01*
X89659558Y-78533704D01*
X89939049Y-78570500D01*
X89939056Y-78570500D01*
X90220944Y-78570500D01*
X90220951Y-78570500D01*
X90500442Y-78533704D01*
X90772739Y-78460742D01*
X91033183Y-78352863D01*
X91277317Y-78211912D01*
X91500965Y-78040300D01*
X91584447Y-77956817D01*
X91645768Y-77923334D01*
X91672127Y-77920500D01*
X117658111Y-77920500D01*
X117725150Y-77940185D01*
X117770905Y-77992989D01*
X117780849Y-78062147D01*
X117751824Y-78125703D01*
X117745792Y-78132181D01*
X116814792Y-79063181D01*
X116753469Y-79096666D01*
X116727111Y-79099500D01*
X102751394Y-79099500D01*
X102518122Y-79136446D01*
X102293494Y-79209433D01*
X102083056Y-79316657D01*
X101891979Y-79455484D01*
X101891978Y-79455485D01*
X101005596Y-80341866D01*
X100944273Y-80375351D01*
X100874581Y-80370367D01*
X100818648Y-80328495D01*
X100795442Y-80273583D01*
X100792475Y-80254850D01*
X100770940Y-80118882D01*
X100712547Y-79939168D01*
X100712545Y-79939165D01*
X100712545Y-79939163D01*
X100626759Y-79770800D01*
X100515690Y-79617927D01*
X100382073Y-79484310D01*
X100229199Y-79373240D01*
X100060836Y-79287454D01*
X99881118Y-79229059D01*
X99694486Y-79199500D01*
X99694481Y-79199500D01*
X99512229Y-79199500D01*
X99445190Y-79179815D01*
X99424548Y-79163181D01*
X99078421Y-78817052D01*
X99078416Y-78817048D01*
X98996355Y-78762218D01*
X98955495Y-78734916D01*
X98955494Y-78734915D01*
X98955492Y-78734914D01*
X98955490Y-78734913D01*
X98818917Y-78678343D01*
X98818907Y-78678340D01*
X98673920Y-78649500D01*
X98673918Y-78649500D01*
X95198625Y-78649500D01*
X95131586Y-78629815D01*
X95110944Y-78613181D01*
X94982075Y-78484312D01*
X94982073Y-78484310D01*
X94829199Y-78373240D01*
X94761652Y-78338823D01*
X94660836Y-78287454D01*
X94481118Y-78229059D01*
X94294486Y-78199500D01*
X94294481Y-78199500D01*
X94105519Y-78199500D01*
X94105514Y-78199500D01*
X93918881Y-78229059D01*
X93739163Y-78287454D01*
X93570800Y-78373240D01*
X93483579Y-78436610D01*
X93417927Y-78484310D01*
X93417925Y-78484312D01*
X93417924Y-78484312D01*
X93284312Y-78617924D01*
X93284312Y-78617925D01*
X93284310Y-78617927D01*
X93275673Y-78629815D01*
X93173240Y-78770800D01*
X93087454Y-78939163D01*
X93029059Y-79118881D01*
X92999500Y-79305513D01*
X92999500Y-79494486D01*
X93029059Y-79681118D01*
X93087454Y-79860836D01*
X93173240Y-80029199D01*
X93284310Y-80182073D01*
X93417927Y-80315690D01*
X93570801Y-80426760D01*
X93650347Y-80467290D01*
X93739163Y-80512545D01*
X93739165Y-80512545D01*
X93739168Y-80512547D01*
X93835497Y-80543846D01*
X93918881Y-80570940D01*
X94105514Y-80600500D01*
X94105519Y-80600500D01*
X94294486Y-80600500D01*
X94481118Y-80570940D01*
X94524513Y-80556840D01*
X94660832Y-80512547D01*
X94829199Y-80426760D01*
X94982073Y-80315690D01*
X95110944Y-80186819D01*
X95172267Y-80153334D01*
X95198625Y-80150500D01*
X98237769Y-80150500D01*
X98267208Y-80159144D01*
X98297194Y-80165667D01*
X98302210Y-80169422D01*
X98304808Y-80170185D01*
X98325449Y-80186818D01*
X98363180Y-80224548D01*
X98396666Y-80285870D01*
X98399500Y-80312230D01*
X98399500Y-80494486D01*
X98429059Y-80681118D01*
X98487454Y-80860836D01*
X98546924Y-80977551D01*
X98573240Y-81029199D01*
X98684310Y-81182073D01*
X98817927Y-81315690D01*
X98970801Y-81426760D01*
X99050347Y-81467290D01*
X99139163Y-81512545D01*
X99139165Y-81512545D01*
X99139168Y-81512547D01*
X99318882Y-81570940D01*
X99457508Y-81592895D01*
X99473583Y-81595442D01*
X99536717Y-81625371D01*
X99573649Y-81684682D01*
X99572651Y-81754545D01*
X99541866Y-81805596D01*
X86085485Y-95261978D01*
X86085484Y-95261979D01*
X85946655Y-95453058D01*
X85872929Y-95597757D01*
X85839433Y-95663497D01*
X85766446Y-95888122D01*
X85729500Y-96121393D01*
X85729500Y-104848097D01*
X85766446Y-105081368D01*
X85839433Y-105305996D01*
X85924470Y-105472889D01*
X85946657Y-105516434D01*
X85963240Y-105539259D01*
X86085484Y-105707511D01*
X87893181Y-107515208D01*
X87926666Y-107576531D01*
X87929500Y-107602889D01*
X87929500Y-107720958D01*
X87966295Y-108000439D01*
X88039259Y-108272743D01*
X88147135Y-108533179D01*
X88147140Y-108533190D01*
X88288083Y-108777309D01*
X88288088Y-108777317D01*
X88451250Y-108989953D01*
X88459704Y-109000970D01*
X88659029Y-109200295D01*
X88659033Y-109200298D01*
X88659035Y-109200300D01*
X88882683Y-109371912D01*
X88882690Y-109371916D01*
X89126809Y-109512859D01*
X89126814Y-109512861D01*
X89126817Y-109512863D01*
X89387261Y-109620742D01*
X89659558Y-109693704D01*
X89939049Y-109730500D01*
X89939056Y-109730500D01*
X90220944Y-109730500D01*
X90220951Y-109730500D01*
X90500442Y-109693704D01*
X90772739Y-109620742D01*
X91033183Y-109512863D01*
X91277317Y-109371912D01*
X91500965Y-109200300D01*
X91700300Y-109000965D01*
X91871912Y-108777317D01*
X92012863Y-108533183D01*
X92120742Y-108272739D01*
X92193704Y-108000442D01*
X92230500Y-107720951D01*
X92230500Y-107439049D01*
X92193704Y-107159558D01*
X92120742Y-106887261D01*
X92012863Y-106626817D01*
X92012861Y-106626814D01*
X92012859Y-106626809D01*
X91871916Y-106382690D01*
X91871912Y-106382683D01*
X91700300Y-106159035D01*
X91700298Y-106159033D01*
X91700295Y-106159029D01*
X91500970Y-105959704D01*
X91500965Y-105959700D01*
X91277317Y-105788088D01*
X91277311Y-105788084D01*
X91277309Y-105788083D01*
X91033190Y-105647140D01*
X91033179Y-105647135D01*
X90772743Y-105539259D01*
X90500439Y-105466295D01*
X90220958Y-105429500D01*
X90220951Y-105429500D01*
X90102890Y-105429500D01*
X90035851Y-105409815D01*
X90015209Y-105393181D01*
X88766819Y-104144791D01*
X88733334Y-104083468D01*
X88730500Y-104057110D01*
X88730500Y-99338823D01*
X88750185Y-99271784D01*
X88802989Y-99226029D01*
X88872147Y-99216085D01*
X88916500Y-99231436D01*
X89126809Y-99352859D01*
X89126814Y-99352861D01*
X89126817Y-99352863D01*
X89387261Y-99460742D01*
X89659558Y-99533704D01*
X89939049Y-99570500D01*
X90057111Y-99570500D01*
X90124150Y-99590185D01*
X90144792Y-99606819D01*
X103822491Y-113284519D01*
X103822496Y-113284523D01*
X103989155Y-113405606D01*
X104013567Y-113423343D01*
X104147659Y-113491666D01*
X104224003Y-113530566D01*
X104224005Y-113530566D01*
X104224008Y-113530568D01*
X104344412Y-113569689D01*
X104448631Y-113603553D01*
X104681903Y-113640500D01*
X104681908Y-113640500D01*
X123432311Y-113640500D01*
X123665582Y-113603553D01*
X123890206Y-113530568D01*
X124100648Y-113423343D01*
X124291724Y-113284517D01*
X128344517Y-109231724D01*
X128483343Y-109040648D01*
X128590568Y-108830206D01*
X128663553Y-108605582D01*
X128675020Y-108533183D01*
X128700500Y-108372311D01*
X128700500Y-105881902D01*
X145999500Y-105881902D01*
X145999500Y-106118097D01*
X146036446Y-106351368D01*
X146109433Y-106575996D01*
X146216657Y-106786433D01*
X146355483Y-106977510D01*
X146522490Y-107144517D01*
X146713567Y-107283343D01*
X146812991Y-107334002D01*
X146924003Y-107390566D01*
X146924005Y-107390566D01*
X146924008Y-107390568D01*
X147044412Y-107429689D01*
X147148631Y-107463553D01*
X147381903Y-107500500D01*
X147381908Y-107500500D01*
X147618097Y-107500500D01*
X147851368Y-107463553D01*
X148075992Y-107390568D01*
X148286433Y-107283343D01*
X148477510Y-107144517D01*
X148644517Y-106977510D01*
X148783343Y-106786433D01*
X148890568Y-106575992D01*
X148963553Y-106351368D01*
X148977205Y-106265171D01*
X149000500Y-106118097D01*
X149000500Y-105881902D01*
X148963553Y-105648631D01*
X148890566Y-105424003D01*
X148783342Y-105213566D01*
X148644517Y-105022490D01*
X148477510Y-104855483D01*
X148286433Y-104716657D01*
X148075996Y-104609433D01*
X147851368Y-104536446D01*
X147618097Y-104499500D01*
X147618092Y-104499500D01*
X147381908Y-104499500D01*
X147381903Y-104499500D01*
X147148631Y-104536446D01*
X146924003Y-104609433D01*
X146713566Y-104716657D01*
X146604550Y-104795862D01*
X146522490Y-104855483D01*
X146522488Y-104855485D01*
X146522487Y-104855485D01*
X146355485Y-105022487D01*
X146355485Y-105022488D01*
X146355483Y-105022490D01*
X146295862Y-105104550D01*
X146216657Y-105213566D01*
X146109433Y-105424003D01*
X146036446Y-105648631D01*
X145999500Y-105881902D01*
X128700500Y-105881902D01*
X128700500Y-105472889D01*
X128720185Y-105405850D01*
X128736819Y-105385208D01*
X130385208Y-103736819D01*
X130446531Y-103703334D01*
X130472889Y-103700500D01*
X145418097Y-103700500D01*
X145651368Y-103663553D01*
X145875992Y-103590568D01*
X146086434Y-103483343D01*
X146277510Y-103344517D01*
X148644517Y-100977510D01*
X148783343Y-100786433D01*
X148890568Y-100575992D01*
X148963553Y-100351368D01*
X149000500Y-100118097D01*
X149000500Y-99881902D01*
X148963553Y-99648634D01*
X148963553Y-99648631D01*
X148890568Y-99424008D01*
X148783343Y-99213566D01*
X148644517Y-99022490D01*
X148477510Y-98855483D01*
X148286434Y-98716657D01*
X148075992Y-98609432D01*
X147851369Y-98536447D01*
X147851367Y-98536446D01*
X147851365Y-98536446D01*
X147618097Y-98499500D01*
X147618092Y-98499500D01*
X147381908Y-98499500D01*
X147381903Y-98499500D01*
X147148631Y-98536446D01*
X146924003Y-98609433D01*
X146713566Y-98716657D01*
X146604550Y-98795862D01*
X146522490Y-98855483D01*
X146522488Y-98855485D01*
X146522487Y-98855485D01*
X144714792Y-100663181D01*
X144653469Y-100696666D01*
X144627111Y-100699500D01*
X129681903Y-100699500D01*
X129448631Y-100736446D01*
X129224003Y-100809433D01*
X129013565Y-100916657D01*
X128822488Y-101055484D01*
X126055484Y-103822488D01*
X125916655Y-104013567D01*
X125845099Y-104154007D01*
X125845099Y-104154008D01*
X125809433Y-104224003D01*
X125736446Y-104448631D01*
X125699500Y-104681902D01*
X125699500Y-107581325D01*
X125679815Y-107648364D01*
X125663181Y-107669006D01*
X123061681Y-110270506D01*
X123000358Y-110303991D01*
X122930666Y-110299007D01*
X122874733Y-110257135D01*
X122850316Y-110191671D01*
X122850000Y-110182825D01*
X122850000Y-90881902D01*
X145999500Y-90881902D01*
X145999500Y-91118097D01*
X146036446Y-91351368D01*
X146109433Y-91575996D01*
X146216657Y-91786433D01*
X146355483Y-91977510D01*
X146522490Y-92144517D01*
X146713567Y-92283343D01*
X146812991Y-92334002D01*
X146924003Y-92390566D01*
X146924005Y-92390566D01*
X146924008Y-92390568D01*
X147044412Y-92429689D01*
X147148631Y-92463553D01*
X147381903Y-92500500D01*
X147381908Y-92500500D01*
X147618097Y-92500500D01*
X147851368Y-92463553D01*
X148075992Y-92390568D01*
X148286433Y-92283343D01*
X148477510Y-92144517D01*
X148644517Y-91977510D01*
X148783343Y-91786433D01*
X148890568Y-91575992D01*
X148963553Y-91351368D01*
X148970871Y-91305164D01*
X149000500Y-91118097D01*
X149000500Y-90881902D01*
X148963553Y-90648631D01*
X148890566Y-90424003D01*
X148783342Y-90213566D01*
X148773849Y-90200500D01*
X148644517Y-90022490D01*
X148477510Y-89855483D01*
X148286433Y-89716657D01*
X148075996Y-89609433D01*
X147851368Y-89536446D01*
X147618097Y-89499500D01*
X147618092Y-89499500D01*
X147381908Y-89499500D01*
X147381903Y-89499500D01*
X147148631Y-89536446D01*
X146924003Y-89609433D01*
X146713566Y-89716657D01*
X146627523Y-89779172D01*
X146522490Y-89855483D01*
X146522488Y-89855485D01*
X146522487Y-89855485D01*
X146355485Y-90022487D01*
X146355485Y-90022488D01*
X146355483Y-90022490D01*
X146295862Y-90104550D01*
X146216657Y-90213566D01*
X146109433Y-90424003D01*
X146036446Y-90648631D01*
X145999500Y-90881902D01*
X122850000Y-90881902D01*
X122850000Y-82450000D01*
X111850000Y-82450000D01*
X111850000Y-110468440D01*
X111861304Y-110489142D01*
X111856320Y-110558834D01*
X111814448Y-110614767D01*
X111748984Y-110639184D01*
X111740138Y-110639500D01*
X105472890Y-110639500D01*
X105405851Y-110619815D01*
X105385209Y-110603181D01*
X92266819Y-97484791D01*
X92233334Y-97423468D01*
X92230500Y-97397110D01*
X92230500Y-97279055D01*
X92230499Y-97279041D01*
X92223862Y-97228630D01*
X92193704Y-96999558D01*
X92120742Y-96727261D01*
X92012863Y-96466817D01*
X92012861Y-96466814D01*
X92012859Y-96466809D01*
X91871916Y-96222690D01*
X91871912Y-96222683D01*
X91700300Y-95999035D01*
X91700298Y-95999033D01*
X91700295Y-95999029D01*
X91500970Y-95799704D01*
X91500965Y-95799700D01*
X91277317Y-95628088D01*
X91277311Y-95628084D01*
X91277309Y-95628083D01*
X91033190Y-95487140D01*
X91033179Y-95487135D01*
X90772743Y-95379259D01*
X90722455Y-95365784D01*
X90538156Y-95316401D01*
X90478497Y-95280037D01*
X90447968Y-95217190D01*
X90456263Y-95147814D01*
X90482567Y-95108949D01*
X103454699Y-82136819D01*
X103516022Y-82103334D01*
X103542380Y-82100500D01*
X117518097Y-82100500D01*
X117751368Y-82063553D01*
X117975992Y-81990568D01*
X118186434Y-81883343D01*
X118377510Y-81744517D01*
X119685208Y-80436819D01*
X119746531Y-80403334D01*
X119772889Y-80400500D01*
X125682152Y-80400500D01*
X125749191Y-80420185D01*
X125794946Y-80472989D01*
X125803769Y-80500308D01*
X125830261Y-80633491D01*
X125830264Y-80633501D01*
X125890602Y-80779172D01*
X125890609Y-80779185D01*
X125978602Y-80910874D01*
X125999480Y-80977551D01*
X125999500Y-80979765D01*
X125999500Y-88313330D01*
X125999499Y-88313348D01*
X125999499Y-88479054D01*
X125999498Y-88479054D01*
X126040423Y-88631785D01*
X126069358Y-88681900D01*
X126069359Y-88681904D01*
X126069360Y-88681904D01*
X126119479Y-88768714D01*
X126119481Y-88768717D01*
X126238349Y-88887585D01*
X126238355Y-88887590D01*
X126765425Y-89414660D01*
X126798910Y-89475983D01*
X126799361Y-89478149D01*
X126830261Y-89633491D01*
X126830264Y-89633501D01*
X126890602Y-89779172D01*
X126890609Y-89779185D01*
X126978210Y-89910288D01*
X126978213Y-89910292D01*
X127089707Y-90021786D01*
X127089711Y-90021789D01*
X127220814Y-90109390D01*
X127220827Y-90109397D01*
X127366498Y-90169735D01*
X127366503Y-90169737D01*
X127521153Y-90200499D01*
X127521156Y-90200500D01*
X127521158Y-90200500D01*
X127678844Y-90200500D01*
X127678845Y-90200499D01*
X127833497Y-90169737D01*
X127979179Y-90109394D01*
X128110289Y-90021789D01*
X128221789Y-89910289D01*
X128309394Y-89779179D01*
X128369737Y-89633497D01*
X128400500Y-89478842D01*
X128400500Y-89321158D01*
X128400500Y-89321155D01*
X128400499Y-89321153D01*
X128369738Y-89166510D01*
X128369737Y-89166503D01*
X128327094Y-89063553D01*
X128309397Y-89020827D01*
X128309390Y-89020814D01*
X128221789Y-88889711D01*
X128221786Y-88889707D01*
X128110292Y-88778213D01*
X128110288Y-88778210D01*
X127979185Y-88690609D01*
X127979172Y-88690602D01*
X127833501Y-88630264D01*
X127833491Y-88630261D01*
X127678151Y-88599362D01*
X127616241Y-88566977D01*
X127614662Y-88565426D01*
X127236819Y-88187583D01*
X127203334Y-88126260D01*
X127200500Y-88099902D01*
X127200500Y-80979765D01*
X127220185Y-80912726D01*
X127221398Y-80910874D01*
X127309390Y-80779185D01*
X127309390Y-80779184D01*
X127309394Y-80779179D01*
X127369737Y-80633497D01*
X127376301Y-80600500D01*
X127396231Y-80500308D01*
X127428616Y-80438397D01*
X127489332Y-80403823D01*
X127517848Y-80400500D01*
X127827111Y-80400500D01*
X127894150Y-80420185D01*
X127914792Y-80436819D01*
X128263181Y-80785208D01*
X128296666Y-80846531D01*
X128299500Y-80872889D01*
X128299500Y-87118097D01*
X128336446Y-87351368D01*
X128409433Y-87575996D01*
X128469807Y-87694486D01*
X128516657Y-87786434D01*
X128655483Y-87977510D01*
X129422490Y-88744517D01*
X129613566Y-88883343D01*
X129824008Y-88990568D01*
X130048631Y-89063553D01*
X130136109Y-89077408D01*
X130281903Y-89100500D01*
X130281908Y-89100500D01*
X135918097Y-89100500D01*
X136151368Y-89063553D01*
X136375992Y-88990568D01*
X136586433Y-88883343D01*
X136777510Y-88744517D01*
X136789548Y-88732478D01*
X136850865Y-88698992D01*
X136920557Y-88703972D01*
X136933529Y-88709674D01*
X136939168Y-88712547D01*
X137076424Y-88757144D01*
X137118881Y-88770940D01*
X137305514Y-88800500D01*
X137305519Y-88800500D01*
X137494486Y-88800500D01*
X137681118Y-88770940D01*
X137687969Y-88768714D01*
X137860832Y-88712547D01*
X138029199Y-88626760D01*
X138182073Y-88515690D01*
X138315690Y-88382073D01*
X138426760Y-88229199D01*
X138512547Y-88060832D01*
X138570940Y-87881118D01*
X138600500Y-87694486D01*
X138600500Y-87505513D01*
X138570940Y-87318881D01*
X138512545Y-87139163D01*
X138467290Y-87050347D01*
X138426760Y-86970801D01*
X138315690Y-86817927D01*
X138182073Y-86684310D01*
X138029199Y-86573240D01*
X137986585Y-86551527D01*
X137860836Y-86487454D01*
X137681118Y-86429059D01*
X137494486Y-86399500D01*
X137494481Y-86399500D01*
X137305519Y-86399500D01*
X137305514Y-86399500D01*
X137118880Y-86429060D01*
X137118877Y-86429060D01*
X136939169Y-86487452D01*
X136939168Y-86487452D01*
X136933516Y-86490332D01*
X136864846Y-86503222D01*
X136800108Y-86476940D01*
X136789550Y-86467523D01*
X136777512Y-86455485D01*
X136777510Y-86455483D01*
X136586433Y-86316657D01*
X136521049Y-86283342D01*
X136375996Y-86209433D01*
X136151368Y-86136446D01*
X135918097Y-86099500D01*
X135918092Y-86099500D01*
X131424500Y-86099500D01*
X131357461Y-86079815D01*
X131311706Y-86027011D01*
X131300500Y-85975500D01*
X131300500Y-80321889D01*
X131320185Y-80254850D01*
X131372989Y-80209095D01*
X131442147Y-80199151D01*
X131505703Y-80228176D01*
X131512181Y-80234208D01*
X137022490Y-85744517D01*
X137213566Y-85883343D01*
X137221256Y-85887261D01*
X137424003Y-85990566D01*
X137424005Y-85990566D01*
X137424008Y-85990568D01*
X137536168Y-86027011D01*
X137648631Y-86063553D01*
X137881903Y-86100500D01*
X137881908Y-86100500D01*
X138118092Y-86100500D01*
X141127111Y-86100500D01*
X141194150Y-86120185D01*
X141214792Y-86136819D01*
X141222490Y-86144517D01*
X141413566Y-86283343D01*
X141516781Y-86335933D01*
X141624006Y-86390568D01*
X141624012Y-86390570D01*
X141696991Y-86414282D01*
X141696992Y-86414282D01*
X141742471Y-86429059D01*
X141848631Y-86463553D01*
X142081903Y-86500500D01*
X142081908Y-86500500D01*
X147618097Y-86500500D01*
X147851368Y-86463553D01*
X148075992Y-86390568D01*
X148286433Y-86283343D01*
X148477510Y-86144517D01*
X148644517Y-85977510D01*
X148783343Y-85786433D01*
X148890568Y-85575992D01*
X148963553Y-85351368D01*
X149000500Y-85118097D01*
X149000500Y-84881902D01*
X148963553Y-84648631D01*
X148890566Y-84424003D01*
X148783342Y-84213566D01*
X148644517Y-84022490D01*
X148477510Y-83855483D01*
X148286433Y-83716657D01*
X148075996Y-83609433D01*
X147851368Y-83536446D01*
X147618097Y-83499500D01*
X147618092Y-83499500D01*
X142872889Y-83499500D01*
X142805850Y-83479815D01*
X142785208Y-83463181D01*
X142777511Y-83455484D01*
X142586434Y-83316657D01*
X142375996Y-83209433D01*
X142151368Y-83136446D01*
X141918097Y-83099500D01*
X141918092Y-83099500D01*
X138672889Y-83099500D01*
X138605850Y-83079815D01*
X138585208Y-83063181D01*
X131403929Y-75881902D01*
X145999500Y-75881902D01*
X145999500Y-76118097D01*
X146036446Y-76351368D01*
X146109433Y-76575996D01*
X146167499Y-76689955D01*
X146216657Y-76786433D01*
X146355483Y-76977510D01*
X146522490Y-77144517D01*
X146713567Y-77283343D01*
X146812991Y-77334002D01*
X146924003Y-77390566D01*
X146924005Y-77390566D01*
X146924008Y-77390568D01*
X147044412Y-77429689D01*
X147148631Y-77463553D01*
X147381903Y-77500500D01*
X147381908Y-77500500D01*
X147618097Y-77500500D01*
X147851368Y-77463553D01*
X148075992Y-77390568D01*
X148286433Y-77283343D01*
X148477510Y-77144517D01*
X148644517Y-76977510D01*
X148783343Y-76786433D01*
X148890568Y-76575992D01*
X148963553Y-76351368D01*
X148975007Y-76279049D01*
X149000500Y-76118097D01*
X149000500Y-75881902D01*
X148963553Y-75648631D01*
X148929689Y-75544412D01*
X148890568Y-75424008D01*
X148890566Y-75424005D01*
X148890566Y-75424003D01*
X148787991Y-75222690D01*
X148783343Y-75213567D01*
X148644517Y-75022490D01*
X148477510Y-74855483D01*
X148286433Y-74716657D01*
X148075996Y-74609433D01*
X147851368Y-74536446D01*
X147618097Y-74499500D01*
X147618092Y-74499500D01*
X147381908Y-74499500D01*
X147381903Y-74499500D01*
X147148631Y-74536446D01*
X146924003Y-74609433D01*
X146713566Y-74716657D01*
X146604550Y-74795862D01*
X146522490Y-74855483D01*
X146522488Y-74855485D01*
X146522487Y-74855485D01*
X146355485Y-75022487D01*
X146355485Y-75022488D01*
X146355483Y-75022490D01*
X146350439Y-75029433D01*
X146216657Y-75213566D01*
X146109433Y-75424003D01*
X146036446Y-75648631D01*
X145999500Y-75881902D01*
X131403929Y-75881902D01*
X130797511Y-75275484D01*
X130724837Y-75222683D01*
X130606434Y-75136657D01*
X130395996Y-75029433D01*
X130171368Y-74956446D01*
X129938097Y-74919500D01*
X129938092Y-74919500D01*
X91672127Y-74919500D01*
X91605088Y-74899815D01*
X91584450Y-74883185D01*
X91500965Y-74799700D01*
X91277317Y-74628088D01*
X91277311Y-74628084D01*
X91277309Y-74628083D01*
X91110693Y-74531887D01*
X91062477Y-74481320D01*
X91049255Y-74412713D01*
X91075223Y-74347848D01*
X91132137Y-74307320D01*
X91172693Y-74300500D01*
X134318097Y-74300500D01*
X134551368Y-74263553D01*
X134556212Y-74261979D01*
X134775992Y-74190568D01*
X134986433Y-74083343D01*
X135177510Y-73944517D01*
X135189548Y-73932478D01*
X135250865Y-73898992D01*
X135320557Y-73903972D01*
X135333529Y-73909674D01*
X135339168Y-73912547D01*
X135476424Y-73957144D01*
X135518881Y-73970940D01*
X135705514Y-74000500D01*
X135705519Y-74000500D01*
X135894486Y-74000500D01*
X136081118Y-73970940D01*
X136260832Y-73912547D01*
X136429199Y-73826760D01*
X136582073Y-73715690D01*
X136715690Y-73582073D01*
X136826760Y-73429199D01*
X136912547Y-73260832D01*
X136970940Y-73081118D01*
X136974942Y-73055850D01*
X137000500Y-72894486D01*
X137000500Y-72705513D01*
X136970940Y-72518881D01*
X136912545Y-72339163D01*
X136826759Y-72170800D01*
X136715690Y-72017927D01*
X136582073Y-71884310D01*
X136429199Y-71773240D01*
X136354118Y-71734984D01*
X136303323Y-71687010D01*
X136286528Y-71619190D01*
X136309065Y-71553055D01*
X136363780Y-71509603D01*
X136410414Y-71500500D01*
X147618097Y-71500500D01*
X147851368Y-71463553D01*
X148075992Y-71390568D01*
X148286433Y-71283343D01*
X148477510Y-71144517D01*
X148644517Y-70977510D01*
X148783343Y-70786433D01*
X148890568Y-70575992D01*
X148963553Y-70351368D01*
X149000500Y-70118097D01*
X149000500Y-69881902D01*
X148963553Y-69648631D01*
X148907951Y-69477508D01*
X148890568Y-69424008D01*
X148890566Y-69424005D01*
X148890566Y-69424003D01*
X148834002Y-69312991D01*
X148783343Y-69213567D01*
X148644517Y-69022490D01*
X148477510Y-68855483D01*
X148286433Y-68716657D01*
X148075996Y-68609433D01*
X147851368Y-68536446D01*
X147618097Y-68499500D01*
X147618092Y-68499500D01*
X105832890Y-68499500D01*
X105765851Y-68479815D01*
X105745209Y-68463181D01*
X101194208Y-63912181D01*
X101160723Y-63850858D01*
X101165707Y-63781166D01*
X101207579Y-63725233D01*
X101273043Y-63700816D01*
X101281889Y-63700500D01*
X140518097Y-63700500D01*
X140751368Y-63663553D01*
X140765291Y-63659029D01*
X140975992Y-63590568D01*
X141186433Y-63483343D01*
X141377510Y-63344517D01*
X141544517Y-63177510D01*
X141683343Y-62986433D01*
X141790568Y-62775992D01*
X141863553Y-62551368D01*
X141871610Y-62500500D01*
X141900500Y-62318097D01*
X141900500Y-62081902D01*
X141863553Y-61848631D01*
X141790566Y-61624003D01*
X141683342Y-61413566D01*
X141544517Y-61222490D01*
X141377510Y-61055483D01*
X141186433Y-60916657D01*
X140975996Y-60809433D01*
X140751368Y-60736446D01*
X140518097Y-60699500D01*
X140518092Y-60699500D01*
X140318092Y-60699500D01*
X138518092Y-60699500D01*
X136518092Y-60699500D01*
X120793290Y-60699500D01*
X120726251Y-60679815D01*
X120680496Y-60627011D01*
X120670552Y-60557853D01*
X120682805Y-60519206D01*
X120712544Y-60460839D01*
X120712544Y-60460835D01*
X120712547Y-60460832D01*
X120770940Y-60281118D01*
X120781639Y-60213566D01*
X120800500Y-60094486D01*
X120800500Y-59905513D01*
X120770940Y-59718881D01*
X120757144Y-59676424D01*
X120712547Y-59539168D01*
X120711161Y-59536447D01*
X120710826Y-59535789D01*
X120697934Y-59467120D01*
X120724213Y-59402380D01*
X120781322Y-59362126D01*
X120821314Y-59355500D01*
X134866908Y-59355500D01*
X146922626Y-59355500D01*
X146989665Y-59375185D01*
X147035420Y-59427989D01*
X147045364Y-59497147D01*
X147016339Y-59560703D01*
X146960944Y-59597430D01*
X146948254Y-59601554D01*
X146924005Y-59609433D01*
X146713566Y-59716657D01*
X146604550Y-59795862D01*
X146522490Y-59855483D01*
X146522488Y-59855485D01*
X146522487Y-59855485D01*
X146355485Y-60022487D01*
X146355485Y-60022488D01*
X146355483Y-60022490D01*
X146330054Y-60057490D01*
X146216657Y-60213566D01*
X146109433Y-60424003D01*
X146036446Y-60648631D01*
X145999500Y-60881902D01*
X145999500Y-61118097D01*
X146036446Y-61351368D01*
X146109433Y-61575996D01*
X146216657Y-61786433D01*
X146355483Y-61977510D01*
X146522490Y-62144517D01*
X146713567Y-62283343D01*
X146781766Y-62318092D01*
X146924003Y-62390566D01*
X146924005Y-62390566D01*
X146924008Y-62390568D01*
X147013467Y-62419635D01*
X147148631Y-62463553D01*
X147381903Y-62500500D01*
X147381908Y-62500500D01*
X147618097Y-62500500D01*
X147851368Y-62463553D01*
X148075992Y-62390568D01*
X148286433Y-62283343D01*
X148477510Y-62144517D01*
X148644517Y-61977510D01*
X148783343Y-61786433D01*
X148890568Y-61575992D01*
X148963553Y-61351368D01*
X149000500Y-61118097D01*
X149000500Y-60881902D01*
X148963553Y-60648631D01*
X148913406Y-60494297D01*
X148890568Y-60424008D01*
X148890566Y-60424005D01*
X148890566Y-60424003D01*
X148795681Y-60237782D01*
X148783343Y-60213567D01*
X148644517Y-60022490D01*
X148477510Y-59855483D01*
X148286433Y-59716657D01*
X148075992Y-59609432D01*
X148039055Y-59597430D01*
X147981380Y-59557993D01*
X147954182Y-59493635D01*
X147966097Y-59424788D01*
X148013341Y-59373313D01*
X148077374Y-59355500D01*
X150272111Y-59355500D01*
X150339150Y-59375185D01*
X150359792Y-59391819D01*
X152588181Y-61620208D01*
X152621666Y-61681531D01*
X152624500Y-61707889D01*
X152624500Y-71252111D01*
X152604815Y-71319150D01*
X152588181Y-71339792D01*
X152455485Y-71472487D01*
X152455484Y-71472488D01*
X152316657Y-71663565D01*
X152304486Y-71687453D01*
X152209433Y-71874003D01*
X152136446Y-72098631D01*
X152099500Y-72331902D01*
X152099500Y-116775500D01*
X152079815Y-116842539D01*
X152027011Y-116888294D01*
X151975500Y-116899500D01*
X148021889Y-116899500D01*
X147954850Y-116879815D01*
X147909095Y-116827011D01*
X147899151Y-116757853D01*
X147928176Y-116694297D01*
X147934208Y-116687819D01*
X148140909Y-116481118D01*
X148644517Y-115977510D01*
X148783343Y-115786434D01*
X148890568Y-115575992D01*
X148963553Y-115351368D01*
X148974174Y-115284310D01*
X149000500Y-115118097D01*
X149000500Y-114881902D01*
X148963553Y-114648631D01*
X148890566Y-114424003D01*
X148783342Y-114213566D01*
X148644517Y-114022490D01*
X148477510Y-113855483D01*
X148286433Y-113716657D01*
X148075996Y-113609433D01*
X147851368Y-113536446D01*
X147618097Y-113499500D01*
X147618092Y-113499500D01*
X147381908Y-113499500D01*
X147381903Y-113499500D01*
X147148631Y-113536446D01*
X146924003Y-113609433D01*
X146713565Y-113716657D01*
X146522488Y-113855484D01*
X146522487Y-113855485D01*
X143074792Y-117303181D01*
X143013469Y-117336666D01*
X142987111Y-117339500D01*
X116255657Y-117339500D01*
X116188618Y-117319815D01*
X116142863Y-117267011D01*
X116132919Y-117197853D01*
X116161944Y-117134297D01*
X116178544Y-117119061D01*
X116178368Y-117118854D01*
X116182062Y-117115697D01*
X116182073Y-117115690D01*
X116315690Y-116982073D01*
X116426760Y-116829199D01*
X116512547Y-116660832D01*
X116570940Y-116481118D01*
X116596973Y-116316743D01*
X116597807Y-116312076D01*
X116600500Y-116298541D01*
X116600500Y-116101459D01*
X116597809Y-116087934D01*
X116596974Y-116083258D01*
X116570940Y-115918882D01*
X116512547Y-115739168D01*
X116512545Y-115739165D01*
X116512545Y-115739163D01*
X116429407Y-115575996D01*
X116426760Y-115570801D01*
X116315690Y-115417927D01*
X116182073Y-115284310D01*
X116029199Y-115173240D01*
X116009457Y-115163181D01*
X115860836Y-115087454D01*
X115681118Y-115029059D01*
X115494486Y-114999500D01*
X115494481Y-114999500D01*
X115305519Y-114999500D01*
X115305514Y-114999500D01*
X115118881Y-115029059D01*
X114939163Y-115087454D01*
X114770799Y-115173240D01*
X114767254Y-115175817D01*
X114701448Y-115199298D01*
X114694367Y-115199500D01*
X97265783Y-115199500D01*
X97198744Y-115179815D01*
X97178102Y-115163181D01*
X94806419Y-112791499D01*
X94772934Y-112730176D01*
X94771626Y-112723212D01*
X94770940Y-112718884D01*
X94770940Y-112718882D01*
X94712547Y-112539168D01*
X94712545Y-112539165D01*
X94712545Y-112539163D01*
X94626759Y-112370800D01*
X94515690Y-112217927D01*
X94382073Y-112084310D01*
X94229199Y-111973240D01*
X94211080Y-111964008D01*
X94060836Y-111887454D01*
X93881118Y-111829059D01*
X93694486Y-111799500D01*
X93694481Y-111799500D01*
X93505519Y-111799500D01*
X93505514Y-111799500D01*
X93318881Y-111829059D01*
X93139163Y-111887454D01*
X92970800Y-111973240D01*
X92883579Y-112036610D01*
X92817927Y-112084310D01*
X92817925Y-112084312D01*
X92817924Y-112084312D01*
X92684312Y-112217924D01*
X92684312Y-112217925D01*
X92684310Y-112217927D01*
X92636610Y-112283579D01*
X92573240Y-112370800D01*
X92487454Y-112539163D01*
X92429059Y-112718881D01*
X92399500Y-112905513D01*
X92399500Y-113094486D01*
X92429059Y-113281118D01*
X92487454Y-113460836D01*
X92560173Y-113603553D01*
X92573240Y-113629199D01*
X92684310Y-113782073D01*
X92817927Y-113915690D01*
X92970801Y-114026760D01*
X93050347Y-114067290D01*
X93139163Y-114112545D01*
X93139165Y-114112545D01*
X93139168Y-114112547D01*
X93318882Y-114170940D01*
X93321177Y-114171303D01*
X93323212Y-114171626D01*
X93386348Y-114201554D01*
X93391498Y-114206418D01*
X96022860Y-116837781D01*
X96022861Y-116837782D01*
X96162218Y-116977139D01*
X96162219Y-116977140D01*
X96169605Y-116982075D01*
X96326086Y-117086632D01*
X96326092Y-117086634D01*
X96326093Y-117086635D01*
X96360626Y-117100939D01*
X96415030Y-117144780D01*
X96437095Y-117211074D01*
X96419816Y-117278773D01*
X96368679Y-117326384D01*
X96313174Y-117339500D01*
X91717127Y-117339500D01*
X91650088Y-117319815D01*
X91629450Y-117303185D01*
X91545965Y-117219700D01*
X91322317Y-117048088D01*
X91322311Y-117048084D01*
X91322309Y-117048083D01*
X91078190Y-116907140D01*
X91078179Y-116907135D01*
X90817743Y-116799259D01*
X90545439Y-116726295D01*
X90265958Y-116689500D01*
X90265951Y-116689500D01*
X89984049Y-116689500D01*
X89984041Y-116689500D01*
X89704560Y-116726295D01*
X89432256Y-116799259D01*
X89171820Y-116907135D01*
X89171809Y-116907140D01*
X88927690Y-117048083D01*
X88927682Y-117048089D01*
X88704029Y-117219704D01*
X88504704Y-117419029D01*
X88333089Y-117642682D01*
X88333083Y-117642690D01*
X88192140Y-117886809D01*
X88192135Y-117886820D01*
X88084259Y-118147256D01*
X88011295Y-118419560D01*
X87974500Y-118699041D01*
X87974500Y-118980958D01*
X88011295Y-119260439D01*
X88084259Y-119532743D01*
X88192135Y-119793179D01*
X88192140Y-119793190D01*
X88275065Y-119936819D01*
X88333088Y-120037317D01*
X88504700Y-120260965D01*
X88504704Y-120260970D01*
X88704029Y-120460295D01*
X88704033Y-120460298D01*
X88704035Y-120460300D01*
X88927683Y-120631912D01*
X88927690Y-120631916D01*
X89171809Y-120772859D01*
X89171814Y-120772861D01*
X89171817Y-120772863D01*
X89432261Y-120880742D01*
X89704558Y-120953704D01*
X89984049Y-120990500D01*
X89984056Y-120990500D01*
X90265944Y-120990500D01*
X90265951Y-120990500D01*
X90545442Y-120953704D01*
X90817739Y-120880742D01*
X91078183Y-120772863D01*
X91322317Y-120631912D01*
X91545965Y-120460300D01*
X91629447Y-120376817D01*
X91690768Y-120343334D01*
X91717127Y-120340500D01*
X96363111Y-120340500D01*
X96430150Y-120360185D01*
X96475905Y-120412989D01*
X96485849Y-120482147D01*
X96456824Y-120545703D01*
X96450792Y-120552181D01*
X90189792Y-126813181D01*
X90128469Y-126846666D01*
X90102111Y-126849500D01*
X89984041Y-126849500D01*
X89704560Y-126886295D01*
X89432256Y-126959259D01*
X89171820Y-127067135D01*
X89171809Y-127067140D01*
X88927690Y-127208083D01*
X88927682Y-127208089D01*
X88704029Y-127379704D01*
X88504704Y-127579029D01*
X88482145Y-127608429D01*
X88340326Y-127793251D01*
X88333089Y-127802682D01*
X88333083Y-127802690D01*
X88192140Y-128046809D01*
X88192135Y-128046820D01*
X88084259Y-128307256D01*
X88011295Y-128579560D01*
X87974500Y-128859041D01*
X87974500Y-129140958D01*
X88011295Y-129420439D01*
X88084259Y-129692743D01*
X88192135Y-129953179D01*
X88192140Y-129953190D01*
X88326716Y-130186281D01*
X88333088Y-130197317D01*
X88501701Y-130417056D01*
X88504704Y-130420970D01*
X88704029Y-130620295D01*
X88704033Y-130620298D01*
X88704035Y-130620300D01*
X88927683Y-130791912D01*
X88927690Y-130791916D01*
X89171809Y-130932859D01*
X89171814Y-130932861D01*
X89171817Y-130932863D01*
X89432261Y-131040742D01*
X89704558Y-131113704D01*
X89984049Y-131150500D01*
X89984056Y-131150500D01*
X90265944Y-131150500D01*
X90265951Y-131150500D01*
X90545442Y-131113704D01*
X90817739Y-131040742D01*
X91078183Y-130932863D01*
X91322317Y-130791912D01*
X91545965Y-130620300D01*
X91745300Y-130420965D01*
X91916912Y-130197317D01*
X92057863Y-129953183D01*
X92165742Y-129692739D01*
X92238704Y-129420442D01*
X92250116Y-129333756D01*
X92254238Y-129302452D01*
X92254238Y-129302451D01*
X92257868Y-129274879D01*
X92275500Y-129140951D01*
X92275500Y-129022889D01*
X92295185Y-128955850D01*
X92311819Y-128935208D01*
X92775523Y-128471504D01*
X106680000Y-128471504D01*
X106680000Y-128870000D01*
X107380000Y-128870000D01*
X107380000Y-129370000D01*
X106680000Y-129370000D01*
X106680000Y-129768495D01*
X106718427Y-129961681D01*
X106718430Y-129961693D01*
X106793807Y-130143671D01*
X106793814Y-130143684D01*
X106903248Y-130307462D01*
X106903251Y-130307466D01*
X107042533Y-130446748D01*
X107042537Y-130446751D01*
X107206315Y-130556185D01*
X107206328Y-130556192D01*
X107388308Y-130631569D01*
X107430000Y-130639862D01*
X107430000Y-129836988D01*
X107439940Y-129854205D01*
X107495795Y-129910060D01*
X107564204Y-129949556D01*
X107640504Y-129970000D01*
X107719496Y-129970000D01*
X107795796Y-129949556D01*
X107864205Y-129910060D01*
X107920060Y-129854205D01*
X107930000Y-129836988D01*
X107930000Y-130639862D01*
X107971690Y-130631569D01*
X107971692Y-130631569D01*
X108153671Y-130556192D01*
X108153684Y-130556185D01*
X108317462Y-130446751D01*
X108317466Y-130446748D01*
X108456748Y-130307466D01*
X108456751Y-130307462D01*
X108569574Y-130138613D01*
X108571007Y-130139570D01*
X108614198Y-130095580D01*
X108682332Y-130080103D01*
X108748018Y-130103919D01*
X108750089Y-130105697D01*
X108750189Y-130105568D01*
X108756630Y-130110510D01*
X108756635Y-130110515D01*
X108887865Y-130186281D01*
X109034234Y-130225500D01*
X109034236Y-130225500D01*
X109185764Y-130225500D01*
X109185766Y-130225500D01*
X109332135Y-130186281D01*
X109463365Y-130110515D01*
X109570515Y-130003365D01*
X109646281Y-129872135D01*
X109685500Y-129725766D01*
X109685500Y-129574234D01*
X114314500Y-129574234D01*
X114314500Y-129725765D01*
X114353719Y-129872136D01*
X114375615Y-129910060D01*
X114429485Y-130003365D01*
X114536635Y-130110515D01*
X114667865Y-130186281D01*
X114814234Y-130225500D01*
X114814236Y-130225500D01*
X114965764Y-130225500D01*
X114965766Y-130225500D01*
X115112135Y-130186281D01*
X115243365Y-130110515D01*
X115243372Y-130110507D01*
X115249811Y-130105568D01*
X115252044Y-130108478D01*
X115298258Y-130082865D01*
X115367980Y-130087411D01*
X115424176Y-130128930D01*
X115430394Y-130138634D01*
X115430426Y-130138613D01*
X115543248Y-130307462D01*
X115543251Y-130307466D01*
X115682533Y-130446748D01*
X115682537Y-130446751D01*
X115846315Y-130556185D01*
X115846328Y-130556192D01*
X116028308Y-130631569D01*
X116070000Y-130639862D01*
X116070000Y-129836988D01*
X116079940Y-129854205D01*
X116135795Y-129910060D01*
X116204204Y-129949556D01*
X116280504Y-129970000D01*
X116359496Y-129970000D01*
X116435796Y-129949556D01*
X116504205Y-129910060D01*
X116560060Y-129854205D01*
X116570000Y-129836988D01*
X116570000Y-130639862D01*
X116611690Y-130631569D01*
X116611692Y-130631569D01*
X116793671Y-130556192D01*
X116793684Y-130556185D01*
X116957462Y-130446751D01*
X116957466Y-130446748D01*
X117096748Y-130307466D01*
X117096751Y-130307462D01*
X117206185Y-130143684D01*
X117206192Y-130143671D01*
X117281569Y-129961693D01*
X117281572Y-129961681D01*
X117319999Y-129768495D01*
X117320000Y-129768492D01*
X117320000Y-129370000D01*
X116620000Y-129370000D01*
X116620000Y-128870000D01*
X117320000Y-128870000D01*
X117320000Y-128471508D01*
X117319999Y-128471504D01*
X117281572Y-128278318D01*
X117281569Y-128278306D01*
X117206192Y-128096328D01*
X117206185Y-128096315D01*
X117096751Y-127932537D01*
X117096748Y-127932533D01*
X116957466Y-127793251D01*
X116957462Y-127793248D01*
X116793684Y-127683814D01*
X116793671Y-127683807D01*
X116611691Y-127608429D01*
X116611683Y-127608427D01*
X116570000Y-127600135D01*
X116570000Y-128403011D01*
X116560060Y-128385795D01*
X116504205Y-128329940D01*
X116435796Y-128290444D01*
X116359496Y-128270000D01*
X116280504Y-128270000D01*
X116204204Y-128290444D01*
X116135795Y-128329940D01*
X116079940Y-128385795D01*
X116070000Y-128403011D01*
X116070000Y-127600136D01*
X116069999Y-127600135D01*
X116028316Y-127608427D01*
X116028308Y-127608429D01*
X115846328Y-127683807D01*
X115846315Y-127683814D01*
X115682537Y-127793248D01*
X115682533Y-127793251D01*
X115543251Y-127932533D01*
X115543248Y-127932537D01*
X115433814Y-128096315D01*
X115433807Y-128096328D01*
X115358430Y-128278306D01*
X115358427Y-128278318D01*
X115320000Y-128471504D01*
X115320000Y-128870000D01*
X116020000Y-128870000D01*
X116020000Y-129370000D01*
X115464464Y-129370000D01*
X115397425Y-129350315D01*
X115357077Y-129308000D01*
X115350517Y-129296638D01*
X115350513Y-129296633D01*
X115243367Y-129189487D01*
X115243365Y-129189485D01*
X115177750Y-129151602D01*
X115112136Y-129113719D01*
X115038950Y-129094109D01*
X114965766Y-129074500D01*
X114814234Y-129074500D01*
X114667863Y-129113719D01*
X114536635Y-129189485D01*
X114536632Y-129189487D01*
X114429487Y-129296632D01*
X114429485Y-129296635D01*
X114353719Y-129427863D01*
X114314500Y-129574234D01*
X109685500Y-129574234D01*
X109646281Y-129427865D01*
X109643332Y-129422758D01*
X109601507Y-129350315D01*
X109570515Y-129296635D01*
X109463365Y-129189485D01*
X109397750Y-129151602D01*
X109332136Y-129113719D01*
X109258950Y-129094109D01*
X109185766Y-129074500D01*
X109034234Y-129074500D01*
X108887863Y-129113719D01*
X108756635Y-129189485D01*
X108756632Y-129189487D01*
X108649486Y-129296633D01*
X108649482Y-129296638D01*
X108642923Y-129308000D01*
X108592356Y-129356216D01*
X108535536Y-129370000D01*
X107980000Y-129370000D01*
X107980000Y-128870000D01*
X108680000Y-128870000D01*
X108680000Y-128471508D01*
X108679999Y-128471504D01*
X108641572Y-128278318D01*
X108641569Y-128278306D01*
X108566192Y-128096328D01*
X108566185Y-128096315D01*
X108456751Y-127932537D01*
X108456748Y-127932533D01*
X108317466Y-127793251D01*
X108317462Y-127793248D01*
X108153684Y-127683814D01*
X108153671Y-127683807D01*
X107971691Y-127608429D01*
X107971683Y-127608427D01*
X107930000Y-127600135D01*
X107930000Y-128403011D01*
X107920060Y-128385795D01*
X107864205Y-128329940D01*
X107795796Y-128290444D01*
X107719496Y-128270000D01*
X107640504Y-128270000D01*
X107564204Y-128290444D01*
X107495795Y-128329940D01*
X107439940Y-128385795D01*
X107430000Y-128403011D01*
X107430000Y-127600136D01*
X107429999Y-127600135D01*
X107388316Y-127608427D01*
X107388308Y-127608429D01*
X107206328Y-127683807D01*
X107206315Y-127683814D01*
X107042537Y-127793248D01*
X107042533Y-127793251D01*
X106903251Y-127932533D01*
X106903248Y-127932537D01*
X106793814Y-128096315D01*
X106793807Y-128096328D01*
X106718430Y-128278306D01*
X106718427Y-128278318D01*
X106680000Y-128471504D01*
X92775523Y-128471504D01*
X98110208Y-123136819D01*
X98171531Y-123103334D01*
X98197889Y-123100500D01*
X129518097Y-123100500D01*
X129751368Y-123063553D01*
X129975992Y-122990568D01*
X130186433Y-122883343D01*
X130377510Y-122744517D01*
X130536327Y-122585700D01*
X130597650Y-122552215D01*
X130667342Y-122557199D01*
X130696893Y-122573062D01*
X130770801Y-122626760D01*
X130850347Y-122667290D01*
X130939163Y-122712545D01*
X130939165Y-122712545D01*
X130939168Y-122712547D01*
X131035497Y-122743846D01*
X131118881Y-122770940D01*
X131305514Y-122800500D01*
X131305519Y-122800500D01*
X131494486Y-122800500D01*
X131681118Y-122770940D01*
X131860832Y-122712547D01*
X132029199Y-122626760D01*
X132182073Y-122515690D01*
X132315690Y-122382073D01*
X132426760Y-122229199D01*
X132512547Y-122060832D01*
X132570940Y-121881118D01*
X132600500Y-121694486D01*
X132600500Y-121505513D01*
X132570940Y-121318881D01*
X132512545Y-121139163D01*
X132436797Y-120990500D01*
X132426760Y-120970801D01*
X132315690Y-120817927D01*
X132182073Y-120684310D01*
X132029199Y-120573240D01*
X132029198Y-120573239D01*
X132029192Y-120573235D01*
X132025047Y-120570695D01*
X132026162Y-120568874D01*
X131981840Y-120527032D01*
X131965031Y-120459215D01*
X131987555Y-120393075D01*
X132042261Y-120349613D01*
X132088918Y-120340500D01*
X143138110Y-120340500D01*
X143205149Y-120360185D01*
X143250904Y-120412989D01*
X143260848Y-120482147D01*
X143231823Y-120545703D01*
X143225791Y-120552181D01*
X136800869Y-126977102D01*
X136739546Y-127010587D01*
X136677193Y-127008082D01*
X136490447Y-126951434D01*
X136477251Y-126947431D01*
X136477250Y-126947430D01*
X136477241Y-126947428D01*
X136477230Y-126947425D01*
X136149565Y-126882250D01*
X136149548Y-126882247D01*
X135898108Y-126857483D01*
X135817056Y-126849500D01*
X135482944Y-126849500D01*
X135407982Y-126856883D01*
X135150451Y-126882247D01*
X135150434Y-126882250D01*
X134822769Y-126947425D01*
X134822758Y-126947428D01*
X134503022Y-127044418D01*
X134194343Y-127172278D01*
X134194338Y-127172280D01*
X133899696Y-127329769D01*
X133899678Y-127329780D01*
X133621890Y-127515393D01*
X133621876Y-127515403D01*
X133363604Y-127727361D01*
X133127361Y-127963604D01*
X132915403Y-128221876D01*
X132915393Y-128221890D01*
X132729780Y-128499678D01*
X132729769Y-128499696D01*
X132572280Y-128794338D01*
X132572278Y-128794343D01*
X132444418Y-129103022D01*
X132347428Y-129422758D01*
X132347425Y-129422769D01*
X132282250Y-129750434D01*
X132282247Y-129750451D01*
X132262281Y-129953179D01*
X132249500Y-130082944D01*
X132249500Y-130417056D01*
X132252425Y-130446751D01*
X132282247Y-130749548D01*
X132282250Y-130749565D01*
X132347425Y-131077230D01*
X132347428Y-131077241D01*
X132444418Y-131396977D01*
X132572278Y-131705656D01*
X132572280Y-131705661D01*
X132729769Y-132000303D01*
X132729780Y-132000321D01*
X132915393Y-132278109D01*
X132915403Y-132278123D01*
X133127361Y-132536395D01*
X133363604Y-132772638D01*
X133363609Y-132772642D01*
X133363610Y-132772643D01*
X133621882Y-132984601D01*
X133899685Y-133170224D01*
X133899694Y-133170229D01*
X133899696Y-133170230D01*
X134194338Y-133327719D01*
X134194340Y-133327719D01*
X134194346Y-133327723D01*
X134503024Y-133455582D01*
X134822749Y-133552569D01*
X134822755Y-133552570D01*
X134822758Y-133552571D01*
X134822769Y-133552574D01*
X135028243Y-133593444D01*
X135150441Y-133617751D01*
X135482944Y-133650500D01*
X135482947Y-133650500D01*
X135817053Y-133650500D01*
X135817056Y-133650500D01*
X136149559Y-133617751D01*
X136311757Y-133585487D01*
X136477230Y-133552574D01*
X136477241Y-133552571D01*
X136477241Y-133552570D01*
X136477251Y-133552569D01*
X136796976Y-133455582D01*
X137105654Y-133327723D01*
X137400315Y-133170224D01*
X137678118Y-132984601D01*
X137936390Y-132772643D01*
X137949093Y-132759940D01*
X138020369Y-132688665D01*
X138172638Y-132536395D01*
X138172643Y-132536390D01*
X138384601Y-132278118D01*
X138570224Y-132000315D01*
X138727723Y-131705654D01*
X138855582Y-131396976D01*
X138952569Y-131077251D01*
X138952571Y-131077241D01*
X138952574Y-131077230D01*
X138985487Y-130911757D01*
X139017751Y-130749559D01*
X139050500Y-130417056D01*
X139050500Y-130082944D01*
X139017751Y-129750441D01*
X138982702Y-129574236D01*
X138952574Y-129422769D01*
X138952571Y-129422758D01*
X138952570Y-129422755D01*
X138952569Y-129422749D01*
X138891915Y-129222803D01*
X138891293Y-129152938D01*
X138922894Y-129099131D01*
X139861790Y-128160235D01*
X139923111Y-128126752D01*
X139992803Y-128131736D01*
X140048736Y-128173608D01*
X140073153Y-128239072D01*
X140058301Y-128307345D01*
X140052572Y-128316808D01*
X139930207Y-128499941D01*
X139930199Y-128499954D01*
X139772733Y-128794552D01*
X139772731Y-128794557D01*
X139644890Y-129103191D01*
X139547915Y-129422876D01*
X139482745Y-129750508D01*
X139482742Y-129750525D01*
X139450000Y-130082972D01*
X139450000Y-130417027D01*
X139482742Y-130749474D01*
X139482745Y-130749491D01*
X139547915Y-131077123D01*
X139644890Y-131396808D01*
X139772731Y-131705442D01*
X139772733Y-131705447D01*
X139930199Y-132000045D01*
X139930210Y-132000063D01*
X140115795Y-132277811D01*
X140115805Y-132277825D01*
X140274837Y-132471606D01*
X140274838Y-132471607D01*
X141127440Y-131619004D01*
X141192407Y-131703670D01*
X141396330Y-131907593D01*
X141480994Y-131972558D01*
X140628391Y-132825160D01*
X140628392Y-132825161D01*
X140822174Y-132984194D01*
X140822188Y-132984204D01*
X141099936Y-133169789D01*
X141099954Y-133169800D01*
X141394552Y-133327266D01*
X141394557Y-133327268D01*
X141703191Y-133455109D01*
X142022876Y-133552084D01*
X142350508Y-133617254D01*
X142350525Y-133617257D01*
X142682972Y-133650000D01*
X143017028Y-133650000D01*
X143349474Y-133617257D01*
X143349491Y-133617254D01*
X143677123Y-133552084D01*
X143996808Y-133455109D01*
X144305442Y-133327268D01*
X144305447Y-133327266D01*
X144600045Y-133169800D01*
X144600063Y-133169789D01*
X144877811Y-132984204D01*
X144877825Y-132984194D01*
X145071606Y-132825161D01*
X145071607Y-132825160D01*
X144219005Y-131972558D01*
X144303670Y-131907593D01*
X144507593Y-131703670D01*
X144572558Y-131619005D01*
X145425160Y-132471607D01*
X145425161Y-132471606D01*
X145584194Y-132277825D01*
X145584204Y-132277811D01*
X145769789Y-132000063D01*
X145769800Y-132000045D01*
X145927266Y-131705447D01*
X145927268Y-131705442D01*
X146055109Y-131396808D01*
X146152084Y-131077123D01*
X146217254Y-130749491D01*
X146217257Y-130749474D01*
X146250000Y-130417027D01*
X146250000Y-130082972D01*
X146230680Y-129886807D01*
X146229883Y-129878711D01*
X154149500Y-129878711D01*
X154149500Y-130121288D01*
X154181161Y-130361785D01*
X154243947Y-130596104D01*
X154322857Y-130786609D01*
X154336776Y-130820212D01*
X154458064Y-131030289D01*
X154458066Y-131030292D01*
X154458067Y-131030293D01*
X154605733Y-131222736D01*
X154605739Y-131222743D01*
X154777256Y-131394260D01*
X154777262Y-131394265D01*
X154969711Y-131541936D01*
X155179788Y-131663224D01*
X155403900Y-131756054D01*
X155638211Y-131818838D01*
X155818586Y-131842584D01*
X155878711Y-131850500D01*
X155878712Y-131850500D01*
X156121289Y-131850500D01*
X156169388Y-131844167D01*
X156361789Y-131818838D01*
X156596100Y-131756054D01*
X156820212Y-131663224D01*
X157030289Y-131541936D01*
X157222738Y-131394265D01*
X157394265Y-131222738D01*
X157541936Y-131030289D01*
X157663224Y-130820212D01*
X157756054Y-130596100D01*
X157818838Y-130361789D01*
X157850500Y-130121288D01*
X157850500Y-129878712D01*
X157818838Y-129638211D01*
X157756054Y-129403900D01*
X157663224Y-129179788D01*
X157541936Y-128969711D01*
X157457016Y-128859041D01*
X157394266Y-128777263D01*
X157394260Y-128777256D01*
X157222743Y-128605739D01*
X157222736Y-128605733D01*
X157030293Y-128458067D01*
X157030292Y-128458066D01*
X157030289Y-128458064D01*
X156820212Y-128336776D01*
X156820205Y-128336773D01*
X156596104Y-128243947D01*
X156361785Y-128181161D01*
X156121289Y-128149500D01*
X156121288Y-128149500D01*
X155878712Y-128149500D01*
X155878711Y-128149500D01*
X155638214Y-128181161D01*
X155403895Y-128243947D01*
X155179794Y-128336773D01*
X155179785Y-128336777D01*
X154969706Y-128458067D01*
X154777263Y-128605733D01*
X154777256Y-128605739D01*
X154605739Y-128777256D01*
X154605733Y-128777263D01*
X154458067Y-128969706D01*
X154336777Y-129179785D01*
X154336773Y-129179794D01*
X154243947Y-129403895D01*
X154181161Y-129638214D01*
X154149500Y-129878711D01*
X146229883Y-129878711D01*
X146217257Y-129750525D01*
X146217254Y-129750508D01*
X146152084Y-129422876D01*
X146055109Y-129103191D01*
X145927268Y-128794557D01*
X145927266Y-128794552D01*
X145769800Y-128499954D01*
X145769789Y-128499936D01*
X145584204Y-128222188D01*
X145584194Y-128222174D01*
X145425161Y-128028392D01*
X145425160Y-128028391D01*
X144572557Y-128880993D01*
X144507593Y-128796330D01*
X144303670Y-128592407D01*
X144219004Y-128527440D01*
X145071607Y-127674838D01*
X145071606Y-127674837D01*
X144877825Y-127515805D01*
X144877811Y-127515795D01*
X144600063Y-127330210D01*
X144600045Y-127330199D01*
X144305447Y-127172733D01*
X144305442Y-127172731D01*
X143996808Y-127044890D01*
X143677123Y-126947915D01*
X143349491Y-126882745D01*
X143349474Y-126882742D01*
X143017028Y-126850000D01*
X142682972Y-126850000D01*
X142350525Y-126882742D01*
X142350508Y-126882745D01*
X142022876Y-126947915D01*
X141703191Y-127044890D01*
X141394557Y-127172731D01*
X141394552Y-127172733D01*
X141099954Y-127330199D01*
X141099926Y-127330216D01*
X140916809Y-127452571D01*
X140850132Y-127473449D01*
X140782752Y-127454964D01*
X140736062Y-127402985D01*
X140724886Y-127334015D01*
X140752772Y-127269952D01*
X140760238Y-127261788D01*
X141208846Y-126813181D01*
X148085209Y-119936819D01*
X148146532Y-119903334D01*
X148172890Y-119900500D01*
X153718097Y-119900500D01*
X153951368Y-119863553D01*
X154175992Y-119790568D01*
X154386434Y-119683343D01*
X154577510Y-119544517D01*
X158694518Y-115427510D01*
X158833343Y-115236433D01*
X158940568Y-115025992D01*
X159013553Y-114801368D01*
X159037744Y-114648631D01*
X159050500Y-114568096D01*
X159050500Y-112421902D01*
X159013553Y-112188631D01*
X158979657Y-112084310D01*
X158940568Y-111964008D01*
X158940566Y-111964005D01*
X158940566Y-111964003D01*
X158884002Y-111852991D01*
X158833343Y-111753567D01*
X158694517Y-111562490D01*
X158527510Y-111395483D01*
X158476215Y-111358215D01*
X158433551Y-111302886D01*
X158427572Y-111233272D01*
X158460178Y-111171477D01*
X158476206Y-111157588D01*
X158544066Y-111108286D01*
X158705786Y-110946566D01*
X158840217Y-110761538D01*
X158944048Y-110557758D01*
X159014722Y-110340245D01*
X159050500Y-110114354D01*
X159050500Y-109885646D01*
X159014722Y-109659755D01*
X159014721Y-109659751D01*
X159014721Y-109659750D01*
X158944049Y-109442244D01*
X158840216Y-109238461D01*
X158835322Y-109231725D01*
X158707472Y-109055755D01*
X158683994Y-108989953D01*
X158699819Y-108921899D01*
X158749925Y-108873204D01*
X158764455Y-108866692D01*
X158792331Y-108856296D01*
X158907546Y-108770046D01*
X158993796Y-108654831D01*
X159044091Y-108519983D01*
X159050500Y-108460373D01*
X159050499Y-106459628D01*
X159044091Y-106400017D01*
X159037628Y-106382690D01*
X158993797Y-106265171D01*
X158993793Y-106265164D01*
X158907547Y-106149955D01*
X158907544Y-106149952D01*
X158792335Y-106063706D01*
X158792328Y-106063702D01*
X158657482Y-106013408D01*
X158657483Y-106013408D01*
X158597883Y-106007001D01*
X158597881Y-106007000D01*
X158597873Y-106007000D01*
X158597864Y-106007000D01*
X156502129Y-106007000D01*
X156502123Y-106007001D01*
X156442516Y-106013408D01*
X156307671Y-106063702D01*
X156307664Y-106063706D01*
X156192455Y-106149952D01*
X156192452Y-106149955D01*
X156106206Y-106265164D01*
X156106202Y-106265171D01*
X156055908Y-106400017D01*
X156049501Y-106459616D01*
X156049501Y-106459623D01*
X156049500Y-106459635D01*
X156049500Y-108460370D01*
X156049501Y-108460376D01*
X156055908Y-108519983D01*
X156106202Y-108654828D01*
X156106206Y-108654835D01*
X156192452Y-108770044D01*
X156192455Y-108770047D01*
X156307664Y-108856293D01*
X156307669Y-108856296D01*
X156335539Y-108866690D01*
X156391473Y-108908561D01*
X156415891Y-108974024D01*
X156401040Y-109042298D01*
X156392525Y-109055759D01*
X156259783Y-109238461D01*
X156155950Y-109442244D01*
X156085278Y-109659750D01*
X156085278Y-109659753D01*
X156049500Y-109885646D01*
X156049500Y-110114353D01*
X156085278Y-110340246D01*
X156085278Y-110340249D01*
X156155950Y-110557755D01*
X156259783Y-110761538D01*
X156394214Y-110946566D01*
X156555934Y-111108286D01*
X156623782Y-111157581D01*
X156666448Y-111212909D01*
X156672427Y-111282523D01*
X156639822Y-111344318D01*
X156623784Y-111358215D01*
X156572490Y-111395482D01*
X156405485Y-111562487D01*
X156405485Y-111562488D01*
X156405483Y-111562490D01*
X156345862Y-111644550D01*
X156266657Y-111753566D01*
X156159433Y-111964003D01*
X156086446Y-112188631D01*
X156049500Y-112421902D01*
X156049500Y-113777110D01*
X156029815Y-113844149D01*
X156013181Y-113864791D01*
X155312181Y-114565791D01*
X155250858Y-114599276D01*
X155181166Y-114594292D01*
X155125233Y-114552420D01*
X155100816Y-114486956D01*
X155100500Y-114478110D01*
X155100500Y-102202889D01*
X155120185Y-102135850D01*
X155136819Y-102115208D01*
X156676035Y-100575992D01*
X158694518Y-98557510D01*
X158833343Y-98366433D01*
X158940568Y-98155992D01*
X159013553Y-97931368D01*
X159027955Y-97840439D01*
X159050500Y-97698096D01*
X159050500Y-97461902D01*
X159013553Y-97228630D01*
X158940566Y-97004002D01*
X158833342Y-96793565D01*
X158694518Y-96602490D01*
X158527510Y-96435482D01*
X158476215Y-96398214D01*
X158433552Y-96342886D01*
X158427573Y-96273273D01*
X158460179Y-96211478D01*
X158476213Y-96197583D01*
X158544066Y-96148286D01*
X158705786Y-95986566D01*
X158840217Y-95801538D01*
X158944048Y-95597758D01*
X158979991Y-95487137D01*
X159014721Y-95380249D01*
X159014721Y-95380248D01*
X159014722Y-95380245D01*
X159050500Y-95154354D01*
X159050500Y-94925646D01*
X159014722Y-94699755D01*
X159014721Y-94699751D01*
X159014721Y-94699750D01*
X158944049Y-94482244D01*
X158840216Y-94278461D01*
X158707472Y-94095755D01*
X158683994Y-94029953D01*
X158699819Y-93961899D01*
X158749925Y-93913204D01*
X158764455Y-93906692D01*
X158792331Y-93896296D01*
X158907546Y-93810046D01*
X158993796Y-93694831D01*
X159044091Y-93559983D01*
X159050500Y-93500373D01*
X159050499Y-91499628D01*
X159044091Y-91440017D01*
X158993796Y-91305169D01*
X158993795Y-91305168D01*
X158993793Y-91305164D01*
X158907547Y-91189955D01*
X158907544Y-91189952D01*
X158792335Y-91103706D01*
X158792328Y-91103702D01*
X158657482Y-91053408D01*
X158657483Y-91053408D01*
X158597883Y-91047001D01*
X158597881Y-91047000D01*
X158597873Y-91047000D01*
X158597864Y-91047000D01*
X156502129Y-91047000D01*
X156502123Y-91047001D01*
X156442516Y-91053408D01*
X156307671Y-91103702D01*
X156307664Y-91103706D01*
X156192455Y-91189952D01*
X156192452Y-91189955D01*
X156106206Y-91305164D01*
X156106202Y-91305171D01*
X156055908Y-91440017D01*
X156049501Y-91499616D01*
X156049501Y-91499623D01*
X156049500Y-91499635D01*
X156049500Y-93500370D01*
X156049501Y-93500376D01*
X156055908Y-93559983D01*
X156106202Y-93694828D01*
X156106206Y-93694835D01*
X156192452Y-93810044D01*
X156192455Y-93810047D01*
X156307664Y-93896293D01*
X156307669Y-93896296D01*
X156335539Y-93906690D01*
X156391473Y-93948561D01*
X156415891Y-94014024D01*
X156401040Y-94082298D01*
X156392525Y-94095759D01*
X156259783Y-94278461D01*
X156155950Y-94482244D01*
X156085278Y-94699750D01*
X156085278Y-94699753D01*
X156049500Y-94925646D01*
X156049500Y-95154353D01*
X156085278Y-95380246D01*
X156085278Y-95380249D01*
X156155950Y-95597755D01*
X156258846Y-95799700D01*
X156259783Y-95801538D01*
X156394214Y-95986566D01*
X156555934Y-96148286D01*
X156623782Y-96197581D01*
X156666447Y-96252910D01*
X156672426Y-96322523D01*
X156639820Y-96384318D01*
X156623781Y-96398216D01*
X156572496Y-96435476D01*
X156572491Y-96435480D01*
X155312181Y-97695791D01*
X155250858Y-97729276D01*
X155181166Y-97724292D01*
X155125233Y-97682420D01*
X155100816Y-97616956D01*
X155100500Y-97608110D01*
X155100500Y-87702889D01*
X155120185Y-87635850D01*
X155136819Y-87615208D01*
X156868685Y-85883342D01*
X158694518Y-84057510D01*
X158833343Y-83866433D01*
X158940568Y-83655992D01*
X159013553Y-83431368D01*
X159017338Y-83407472D01*
X159050500Y-83198096D01*
X159050500Y-82961902D01*
X159013553Y-82728630D01*
X158940566Y-82504002D01*
X158833342Y-82293565D01*
X158694518Y-82102490D01*
X158527510Y-81935482D01*
X158476215Y-81898214D01*
X158433552Y-81842886D01*
X158427573Y-81773273D01*
X158460179Y-81711478D01*
X158476213Y-81697583D01*
X158544066Y-81648286D01*
X158705786Y-81486566D01*
X158840217Y-81301538D01*
X158944048Y-81097758D01*
X158982386Y-80979765D01*
X159014721Y-80880249D01*
X159014721Y-80880248D01*
X159014722Y-80880245D01*
X159050500Y-80654354D01*
X159050500Y-80425646D01*
X159014722Y-80199755D01*
X159014721Y-80199751D01*
X159014721Y-80199750D01*
X158944049Y-79982244D01*
X158922098Y-79939163D01*
X158840217Y-79778462D01*
X158707472Y-79595755D01*
X158683994Y-79529953D01*
X158699819Y-79461899D01*
X158749925Y-79413204D01*
X158764455Y-79406692D01*
X158792331Y-79396296D01*
X158907546Y-79310046D01*
X158993796Y-79194831D01*
X159044091Y-79059983D01*
X159050500Y-79000373D01*
X159050499Y-76999628D01*
X159044091Y-76940017D01*
X158993796Y-76805169D01*
X158993795Y-76805168D01*
X158993793Y-76805164D01*
X158907547Y-76689955D01*
X158907544Y-76689952D01*
X158792335Y-76603706D01*
X158792328Y-76603702D01*
X158657482Y-76553408D01*
X158657483Y-76553408D01*
X158597883Y-76547001D01*
X158597881Y-76547000D01*
X158597873Y-76547000D01*
X158597864Y-76547000D01*
X156502129Y-76547000D01*
X156502123Y-76547001D01*
X156442516Y-76553408D01*
X156307671Y-76603702D01*
X156307664Y-76603706D01*
X156192455Y-76689952D01*
X156192452Y-76689955D01*
X156106206Y-76805164D01*
X156106202Y-76805171D01*
X156055908Y-76940017D01*
X156049501Y-76999616D01*
X156049501Y-76999623D01*
X156049500Y-76999635D01*
X156049500Y-79000370D01*
X156049501Y-79000376D01*
X156055908Y-79059983D01*
X156106202Y-79194828D01*
X156106206Y-79194835D01*
X156192452Y-79310044D01*
X156192455Y-79310047D01*
X156307664Y-79396293D01*
X156307669Y-79396296D01*
X156335539Y-79406690D01*
X156391473Y-79448561D01*
X156415891Y-79514024D01*
X156401040Y-79582298D01*
X156392525Y-79595759D01*
X156259783Y-79778461D01*
X156155950Y-79982244D01*
X156085278Y-80199750D01*
X156085278Y-80199753D01*
X156049500Y-80425646D01*
X156049500Y-80654353D01*
X156085278Y-80880246D01*
X156085278Y-80880249D01*
X156155950Y-81097755D01*
X156259783Y-81301538D01*
X156394214Y-81486566D01*
X156555934Y-81648286D01*
X156623782Y-81697581D01*
X156666447Y-81752910D01*
X156672426Y-81822523D01*
X156639820Y-81884318D01*
X156623781Y-81898216D01*
X156572496Y-81935476D01*
X156572491Y-81935480D01*
X155312181Y-83195791D01*
X155250858Y-83229276D01*
X155181166Y-83224292D01*
X155125233Y-83182420D01*
X155100816Y-83116956D01*
X155100500Y-83108110D01*
X155100500Y-73122889D01*
X155120185Y-73055850D01*
X155136819Y-73035208D01*
X155328076Y-72843951D01*
X155328089Y-72843936D01*
X158694518Y-69477510D01*
X158833343Y-69286433D01*
X158940568Y-69075992D01*
X159013553Y-68851368D01*
X159034889Y-68716657D01*
X159050500Y-68618096D01*
X159050500Y-68381902D01*
X159013553Y-68148630D01*
X158940566Y-67924002D01*
X158833342Y-67713565D01*
X158694518Y-67522490D01*
X158527510Y-67355482D01*
X158476215Y-67318214D01*
X158433552Y-67262886D01*
X158427573Y-67193273D01*
X158460179Y-67131478D01*
X158476213Y-67117583D01*
X158544066Y-67068286D01*
X158705786Y-66906566D01*
X158840217Y-66721538D01*
X158944048Y-66517758D01*
X159014722Y-66300245D01*
X159050500Y-66074354D01*
X159050500Y-65845646D01*
X159014722Y-65619755D01*
X159014721Y-65619751D01*
X159014721Y-65619750D01*
X158944049Y-65402244D01*
X158851679Y-65220958D01*
X158840217Y-65198462D01*
X158707472Y-65015755D01*
X158683994Y-64949953D01*
X158699819Y-64881899D01*
X158749925Y-64833204D01*
X158764455Y-64826692D01*
X158792331Y-64816296D01*
X158907546Y-64730046D01*
X158993796Y-64614831D01*
X159044091Y-64479983D01*
X159050500Y-64420373D01*
X159050499Y-62419628D01*
X159044091Y-62360017D01*
X159039643Y-62348092D01*
X158993797Y-62225171D01*
X158993793Y-62225164D01*
X158907547Y-62109955D01*
X158907544Y-62109952D01*
X158792335Y-62023706D01*
X158792328Y-62023702D01*
X158657482Y-61973408D01*
X158657483Y-61973408D01*
X158597883Y-61967001D01*
X158597881Y-61967000D01*
X158597873Y-61967000D01*
X158597864Y-61967000D01*
X156502129Y-61967000D01*
X156502123Y-61967001D01*
X156442516Y-61973408D01*
X156307671Y-62023702D01*
X156307664Y-62023706D01*
X156192455Y-62109952D01*
X156192452Y-62109955D01*
X156106206Y-62225164D01*
X156106202Y-62225171D01*
X156055908Y-62360017D01*
X156052624Y-62390568D01*
X156049501Y-62419623D01*
X156049500Y-62419635D01*
X156049500Y-64420370D01*
X156049501Y-64420376D01*
X156055908Y-64479983D01*
X156106202Y-64614828D01*
X156106206Y-64614835D01*
X156192452Y-64730044D01*
X156192455Y-64730047D01*
X156307664Y-64816293D01*
X156307669Y-64816296D01*
X156335539Y-64826690D01*
X156391473Y-64868561D01*
X156415891Y-64934024D01*
X156401040Y-65002298D01*
X156392525Y-65015759D01*
X156259783Y-65198461D01*
X156155950Y-65402244D01*
X156085278Y-65619750D01*
X156085278Y-65619753D01*
X156049500Y-65845646D01*
X156049500Y-66074353D01*
X156085278Y-66300246D01*
X156085278Y-66300249D01*
X156155950Y-66517755D01*
X156155952Y-66517758D01*
X156259783Y-66721538D01*
X156394214Y-66906566D01*
X156555934Y-67068286D01*
X156623782Y-67117581D01*
X156666447Y-67172910D01*
X156672426Y-67242523D01*
X156639820Y-67304318D01*
X156623781Y-67318216D01*
X156572496Y-67355476D01*
X156572491Y-67355480D01*
X155837181Y-68090791D01*
X155775858Y-68124276D01*
X155706166Y-68119292D01*
X155650233Y-68077420D01*
X155625816Y-68011956D01*
X155625500Y-68003110D01*
X155625500Y-60916902D01*
X155588553Y-60683635D01*
X155588553Y-60683634D01*
X155588553Y-60683632D01*
X155578621Y-60653065D01*
X155573655Y-60637781D01*
X155515569Y-60459010D01*
X155515567Y-60459007D01*
X155497735Y-60424008D01*
X155408343Y-60248566D01*
X155269517Y-60057490D01*
X151922510Y-56710483D01*
X149090738Y-53878711D01*
X154149500Y-53878711D01*
X154149500Y-54121288D01*
X154170843Y-54283412D01*
X154181162Y-54361789D01*
X154210912Y-54472816D01*
X154243947Y-54596104D01*
X154327800Y-54798543D01*
X154336776Y-54820212D01*
X154458064Y-55030289D01*
X154458066Y-55030292D01*
X154458067Y-55030293D01*
X154605733Y-55222736D01*
X154605739Y-55222743D01*
X154777256Y-55394260D01*
X154777263Y-55394266D01*
X154802417Y-55413567D01*
X154969711Y-55541936D01*
X155179788Y-55663224D01*
X155403900Y-55756054D01*
X155638211Y-55818838D01*
X155818586Y-55842584D01*
X155878711Y-55850500D01*
X155878712Y-55850500D01*
X156121289Y-55850500D01*
X156169388Y-55844167D01*
X156361789Y-55818838D01*
X156596100Y-55756054D01*
X156820212Y-55663224D01*
X157030289Y-55541936D01*
X157222738Y-55394265D01*
X157394265Y-55222738D01*
X157541936Y-55030289D01*
X157663224Y-54820212D01*
X157756054Y-54596100D01*
X157818838Y-54361789D01*
X157850500Y-54121288D01*
X157850500Y-53878712D01*
X157849522Y-53871287D01*
X157833275Y-53747872D01*
X157818838Y-53638211D01*
X157756054Y-53403900D01*
X157663224Y-53179788D01*
X157541936Y-52969711D01*
X157422123Y-52813567D01*
X157394266Y-52777263D01*
X157394260Y-52777256D01*
X157222743Y-52605739D01*
X157222736Y-52605733D01*
X157030293Y-52458067D01*
X157030292Y-52458066D01*
X157030289Y-52458064D01*
X156858661Y-52358974D01*
X156820214Y-52336777D01*
X156820205Y-52336773D01*
X156596104Y-52243947D01*
X156361785Y-52181161D01*
X156121289Y-52149500D01*
X156121288Y-52149500D01*
X155878712Y-52149500D01*
X155878711Y-52149500D01*
X155638214Y-52181161D01*
X155403895Y-52243947D01*
X155179794Y-52336773D01*
X155179785Y-52336777D01*
X155019764Y-52429166D01*
X154970607Y-52457547D01*
X154969706Y-52458067D01*
X154777263Y-52605733D01*
X154777256Y-52605739D01*
X154605739Y-52777256D01*
X154605733Y-52777263D01*
X154458067Y-52969706D01*
X154336777Y-53179785D01*
X154336773Y-53179794D01*
X154243947Y-53403895D01*
X154181161Y-53638214D01*
X154149500Y-53878711D01*
X149090738Y-53878711D01*
X146767510Y-51555483D01*
X146576434Y-51416657D01*
X146570393Y-51413579D01*
X146365996Y-51309433D01*
X146141368Y-51236446D01*
X145908097Y-51199500D01*
X145908092Y-51199500D01*
X145671908Y-51199500D01*
X145671903Y-51199500D01*
X145438631Y-51236446D01*
X145214003Y-51309433D01*
X145003565Y-51416657D01*
X144812488Y-51555484D01*
X144645482Y-51722490D01*
X144608215Y-51773784D01*
X144552885Y-51816449D01*
X144483271Y-51822427D01*
X144421477Y-51789820D01*
X144407582Y-51773784D01*
X144358286Y-51705934D01*
X144204062Y-51551710D01*
X144177182Y-51511482D01*
X144136633Y-51413588D01*
X144136628Y-51413579D01*
X144027140Y-51249719D01*
X144027137Y-51249715D01*
X143146709Y-50369289D01*
X143146706Y-50369285D01*
X143146706Y-50369286D01*
X143139639Y-50362219D01*
X143139639Y-50362218D01*
X143000282Y-50222861D01*
X143000281Y-50222860D01*
X143000280Y-50222859D01*
X142836420Y-50113371D01*
X142836411Y-50113366D01*
X142714723Y-50062961D01*
X142714719Y-50062959D01*
X142707665Y-50060038D01*
X142654336Y-50037949D01*
X142551301Y-50017454D01*
X142546844Y-50016567D01*
X142546839Y-50016566D01*
X142461043Y-49999500D01*
X142461041Y-49999500D01*
X119474835Y-49999500D01*
X119407796Y-49979815D01*
X119400524Y-49974767D01*
X119342331Y-49931204D01*
X119342328Y-49931202D01*
X119207482Y-49880908D01*
X119207483Y-49880908D01*
X119147883Y-49874501D01*
X119147881Y-49874500D01*
X119147873Y-49874500D01*
X119147864Y-49874500D01*
X117352129Y-49874500D01*
X117352123Y-49874501D01*
X117292516Y-49880908D01*
X117157671Y-49931202D01*
X117157664Y-49931206D01*
X117042455Y-50017452D01*
X117042454Y-50017454D01*
X116956206Y-50132664D01*
X116956202Y-50132671D01*
X116905908Y-50267517D01*
X116899501Y-50327116D01*
X116899501Y-50327123D01*
X116899500Y-50327135D01*
X116899500Y-52122870D01*
X116899501Y-52122876D01*
X116905908Y-52182483D01*
X116956202Y-52317328D01*
X116956206Y-52317335D01*
X117042452Y-52432544D01*
X117042455Y-52432547D01*
X117157664Y-52518793D01*
X117157671Y-52518797D01*
X117172474Y-52524318D01*
X117292517Y-52569091D01*
X117352127Y-52575500D01*
X117362685Y-52575499D01*
X117429723Y-52595179D01*
X117450372Y-52611818D01*
X118120591Y-53282037D01*
X118057007Y-53299075D01*
X117942993Y-53364901D01*
X117849901Y-53457993D01*
X117784075Y-53572007D01*
X117767037Y-53635591D01*
X117134728Y-53003282D01*
X117134727Y-53003282D01*
X117095380Y-53057439D01*
X116998904Y-53246782D01*
X116933242Y-53448869D01*
X116933242Y-53448872D01*
X116900000Y-53658753D01*
X116900000Y-53871246D01*
X116933242Y-54081127D01*
X116933242Y-54081130D01*
X116983947Y-54237182D01*
X116985942Y-54307023D01*
X116949862Y-54366856D01*
X116887161Y-54397684D01*
X116866016Y-54399500D01*
X115134509Y-54399500D01*
X115067470Y-54379815D01*
X115021715Y-54327011D01*
X115011771Y-54257853D01*
X115016578Y-54237182D01*
X115018611Y-54230925D01*
X115067246Y-54081243D01*
X115100500Y-53871287D01*
X115100500Y-53658713D01*
X115067246Y-53448757D01*
X115001557Y-53246588D01*
X114905051Y-53057184D01*
X114905049Y-53057181D01*
X114905048Y-53057179D01*
X114780109Y-52885213D01*
X114666569Y-52771673D01*
X114633084Y-52710350D01*
X114638068Y-52640658D01*
X114679940Y-52584725D01*
X114710915Y-52567810D01*
X114842331Y-52518796D01*
X114957546Y-52432546D01*
X115043796Y-52317331D01*
X115094091Y-52182483D01*
X115100500Y-52122873D01*
X115100499Y-50327128D01*
X115094091Y-50267517D01*
X115077435Y-50222861D01*
X115043797Y-50132671D01*
X115043793Y-50132664D01*
X114957546Y-50017454D01*
X114957544Y-50017452D01*
X114842335Y-49931206D01*
X114842328Y-49931202D01*
X114707482Y-49880908D01*
X114707483Y-49880908D01*
X114647883Y-49874501D01*
X114647881Y-49874500D01*
X114647873Y-49874500D01*
X114647864Y-49874500D01*
X112852129Y-49874500D01*
X112852123Y-49874501D01*
X112792516Y-49880908D01*
X112657671Y-49931202D01*
X112657664Y-49931206D01*
X112542455Y-50017452D01*
X112542454Y-50017454D01*
X112456206Y-50132664D01*
X112456202Y-50132671D01*
X112405908Y-50267517D01*
X112399501Y-50327116D01*
X112399501Y-50327123D01*
X112399500Y-50327135D01*
X112399500Y-51109216D01*
X112379815Y-51176255D01*
X112363181Y-51196897D01*
X110831899Y-52728181D01*
X110770576Y-52761666D01*
X110744218Y-52764500D01*
X110370860Y-52764500D01*
X110303821Y-52744815D01*
X110258066Y-52692011D01*
X110248122Y-52622853D01*
X110277147Y-52559297D01*
X110327527Y-52524318D01*
X110342328Y-52518797D01*
X110342327Y-52518797D01*
X110342331Y-52518796D01*
X110457546Y-52432546D01*
X110543796Y-52317331D01*
X110594091Y-52182483D01*
X110600500Y-52122873D01*
X110600499Y-50327128D01*
X110594091Y-50267517D01*
X110577435Y-50222861D01*
X110543797Y-50132671D01*
X110543793Y-50132664D01*
X110457546Y-50017454D01*
X110457544Y-50017452D01*
X110342335Y-49931206D01*
X110342328Y-49931202D01*
X110207482Y-49880908D01*
X110207483Y-49880908D01*
X110147883Y-49874501D01*
X110147881Y-49874500D01*
X110147873Y-49874500D01*
X110147864Y-49874500D01*
X108352129Y-49874500D01*
X108352123Y-49874501D01*
X108292516Y-49880908D01*
X108157671Y-49931202D01*
X108157664Y-49931206D01*
X108042455Y-50017452D01*
X108042454Y-50017454D01*
X107956206Y-50132664D01*
X107956202Y-50132671D01*
X107905908Y-50267517D01*
X107899501Y-50327116D01*
X107899501Y-50327123D01*
X107899500Y-50327135D01*
X107899500Y-51618973D01*
X107879815Y-51686012D01*
X107827011Y-51731767D01*
X107757853Y-51741711D01*
X107694297Y-51712686D01*
X107687819Y-51706654D01*
X106086649Y-50105484D01*
X106083669Y-50103319D01*
X105895572Y-49966657D01*
X105875053Y-49956202D01*
X105685134Y-49859433D01*
X105460506Y-49786446D01*
X105227235Y-49749500D01*
X105227230Y-49749500D01*
X104631908Y-49749500D01*
X104631903Y-49749500D01*
X104398630Y-49786447D01*
X104398627Y-49786447D01*
X104174009Y-49859431D01*
X104174008Y-49859431D01*
X104121893Y-49885985D01*
X104065600Y-49899500D01*
X103852130Y-49899500D01*
X103852123Y-49899501D01*
X103792516Y-49905908D01*
X103657671Y-49956202D01*
X103657664Y-49956206D01*
X103542455Y-50042452D01*
X103542452Y-50042455D01*
X103456206Y-50157664D01*
X103456202Y-50157671D01*
X103405908Y-50292517D01*
X103402187Y-50327135D01*
X103399501Y-50352123D01*
X103399500Y-50352135D01*
X103399500Y-50565599D01*
X103385985Y-50621893D01*
X103359430Y-50674009D01*
X103359430Y-50674011D01*
X103286447Y-50898627D01*
X103286447Y-50898630D01*
X103249500Y-51131902D01*
X103249500Y-51368097D01*
X103286447Y-51601369D01*
X103286447Y-51601372D01*
X103359430Y-51825988D01*
X103359430Y-51825989D01*
X103385985Y-51878106D01*
X103399500Y-51934399D01*
X103399500Y-52147869D01*
X103399501Y-52147876D01*
X103405908Y-52207483D01*
X103456202Y-52342328D01*
X103456206Y-52342335D01*
X103542452Y-52457544D01*
X103542455Y-52457547D01*
X103657664Y-52543793D01*
X103657671Y-52543797D01*
X103684984Y-52553984D01*
X103792517Y-52594091D01*
X103852127Y-52600500D01*
X103862685Y-52600499D01*
X103929723Y-52620179D01*
X103950372Y-52636818D01*
X104620591Y-53307037D01*
X104557007Y-53324075D01*
X104442993Y-53389901D01*
X104349901Y-53482993D01*
X104284075Y-53597007D01*
X104267037Y-53660591D01*
X103634728Y-53028282D01*
X103634727Y-53028282D01*
X103595380Y-53082439D01*
X103498904Y-53271782D01*
X103433242Y-53473869D01*
X103433242Y-53473872D01*
X103400000Y-53683753D01*
X103400000Y-53896246D01*
X103433242Y-54106127D01*
X103433242Y-54106130D01*
X103498904Y-54308217D01*
X103595378Y-54497555D01*
X103599055Y-54502617D01*
X103622533Y-54568424D01*
X103606706Y-54636478D01*
X103556599Y-54685171D01*
X103498735Y-54699500D01*
X102081903Y-54699500D01*
X101848631Y-54736446D01*
X101624003Y-54809433D01*
X101413566Y-54916657D01*
X101328390Y-54978542D01*
X101222490Y-55055483D01*
X101222488Y-55055485D01*
X101222483Y-55055488D01*
X101218544Y-55059428D01*
X101217708Y-55060263D01*
X101217701Y-55060272D01*
X101055482Y-55222491D01*
X100916657Y-55413566D01*
X100809433Y-55624003D01*
X100736446Y-55848631D01*
X100699500Y-56081902D01*
X100699500Y-56318097D01*
X100736446Y-56551368D01*
X100809433Y-56775996D01*
X100848600Y-56852864D01*
X100916657Y-56986433D01*
X101055483Y-57177510D01*
X101222490Y-57344517D01*
X101413567Y-57483343D01*
X101512991Y-57534002D01*
X101624003Y-57590566D01*
X101624005Y-57590566D01*
X101624008Y-57590568D01*
X101744412Y-57629689D01*
X101848631Y-57663553D01*
X102081903Y-57700500D01*
X102081908Y-57700500D01*
X104206710Y-57700500D01*
X104273749Y-57720185D01*
X104319504Y-57772989D01*
X104329448Y-57842147D01*
X104317195Y-57880794D01*
X104287455Y-57939160D01*
X104229059Y-58118881D01*
X104199500Y-58305513D01*
X104199500Y-58457662D01*
X104179815Y-58524701D01*
X104127011Y-58570456D01*
X104057853Y-58580400D01*
X104019206Y-58568147D01*
X103860839Y-58487455D01*
X103681118Y-58429059D01*
X103494486Y-58399500D01*
X103494481Y-58399500D01*
X103305519Y-58399500D01*
X103305514Y-58399500D01*
X103118881Y-58429059D01*
X102939163Y-58487454D01*
X102770799Y-58573240D01*
X102767254Y-58575817D01*
X102701448Y-58599298D01*
X102694367Y-58599500D01*
X101865782Y-58599500D01*
X101798743Y-58579815D01*
X101778101Y-58563181D01*
X99806419Y-56591499D01*
X99772934Y-56530176D01*
X99771626Y-56523212D01*
X99770940Y-56518884D01*
X99770940Y-56518882D01*
X99712547Y-56339168D01*
X99712545Y-56339165D01*
X99712545Y-56339163D01*
X99643392Y-56203444D01*
X99626760Y-56170801D01*
X99515690Y-56017927D01*
X99382073Y-55884310D01*
X99229199Y-55773240D01*
X99060836Y-55687454D01*
X98881118Y-55629059D01*
X98694486Y-55599500D01*
X98694481Y-55599500D01*
X98505519Y-55599500D01*
X98505514Y-55599500D01*
X98318881Y-55629059D01*
X98139163Y-55687454D01*
X97970800Y-55773240D01*
X97908041Y-55818838D01*
X97817927Y-55884310D01*
X97817925Y-55884312D01*
X97817924Y-55884312D01*
X97684312Y-56017924D01*
X97684312Y-56017925D01*
X97684310Y-56017927D01*
X97645241Y-56071700D01*
X97573231Y-56170812D01*
X97571995Y-56172830D01*
X97571326Y-56173434D01*
X97570376Y-56174743D01*
X97570100Y-56174543D01*
X97520176Y-56219698D01*
X97451245Y-56231110D01*
X97387086Y-56203444D01*
X97378596Y-56195706D01*
X96359598Y-55176708D01*
X96326113Y-55115385D01*
X96331097Y-55045693D01*
X96372969Y-54989760D01*
X96390984Y-54978542D01*
X96457554Y-54944622D01*
X96511716Y-54905270D01*
X96511717Y-54905270D01*
X95879409Y-54272962D01*
X95942993Y-54255925D01*
X96057007Y-54190099D01*
X96150099Y-54097007D01*
X96215925Y-53982993D01*
X96232962Y-53919408D01*
X96865270Y-54551717D01*
X96865270Y-54551716D01*
X96904622Y-54497554D01*
X97001095Y-54308217D01*
X97066757Y-54106130D01*
X97066757Y-54106127D01*
X97100000Y-53896246D01*
X97100000Y-53683753D01*
X97066757Y-53473872D01*
X97066757Y-53473869D01*
X97001095Y-53271782D01*
X96904624Y-53082449D01*
X96865270Y-53028282D01*
X96865269Y-53028282D01*
X96232962Y-53660590D01*
X96215925Y-53597007D01*
X96150099Y-53482993D01*
X96057007Y-53389901D01*
X95942993Y-53324075D01*
X95879407Y-53307036D01*
X96549627Y-52636818D01*
X96610950Y-52603333D01*
X96637307Y-52600499D01*
X96647872Y-52600499D01*
X96707483Y-52594091D01*
X96842331Y-52543796D01*
X96957546Y-52457546D01*
X97043796Y-52342331D01*
X97094091Y-52207483D01*
X97100500Y-52147873D01*
X97100499Y-50352135D01*
X98899500Y-50352135D01*
X98899500Y-52147870D01*
X98899501Y-52147876D01*
X98905908Y-52207483D01*
X98956202Y-52342328D01*
X98956206Y-52342335D01*
X99042452Y-52457544D01*
X99042455Y-52457547D01*
X99157664Y-52543793D01*
X99157671Y-52543797D01*
X99184984Y-52553984D01*
X99292517Y-52594091D01*
X99352127Y-52600500D01*
X99362685Y-52600499D01*
X99429723Y-52620179D01*
X99450372Y-52636818D01*
X100120591Y-53307037D01*
X100057007Y-53324075D01*
X99942993Y-53389901D01*
X99849901Y-53482993D01*
X99784075Y-53597007D01*
X99767037Y-53660591D01*
X99134728Y-53028282D01*
X99134727Y-53028282D01*
X99095380Y-53082439D01*
X98998904Y-53271782D01*
X98933242Y-53473869D01*
X98933242Y-53473872D01*
X98900000Y-53683753D01*
X98900000Y-53896246D01*
X98933242Y-54106127D01*
X98933242Y-54106130D01*
X98998904Y-54308217D01*
X99095375Y-54497550D01*
X99134728Y-54551716D01*
X99767037Y-53919408D01*
X99784075Y-53982993D01*
X99849901Y-54097007D01*
X99942993Y-54190099D01*
X100057007Y-54255925D01*
X100120590Y-54272962D01*
X99488282Y-54905269D01*
X99488282Y-54905270D01*
X99542449Y-54944624D01*
X99731782Y-55041095D01*
X99933870Y-55106757D01*
X100143754Y-55140000D01*
X100356246Y-55140000D01*
X100566127Y-55106757D01*
X100566130Y-55106757D01*
X100768217Y-55041095D01*
X100957558Y-54944620D01*
X101011716Y-54905271D01*
X101011716Y-54905269D01*
X100379408Y-54272962D01*
X100442993Y-54255925D01*
X100557007Y-54190099D01*
X100650099Y-54097007D01*
X100715925Y-53982993D01*
X100732962Y-53919408D01*
X101365270Y-54551717D01*
X101365270Y-54551716D01*
X101404622Y-54497554D01*
X101501095Y-54308217D01*
X101566757Y-54106130D01*
X101566757Y-54106127D01*
X101600000Y-53896246D01*
X101600000Y-53683753D01*
X101566757Y-53473872D01*
X101566757Y-53473869D01*
X101501095Y-53271782D01*
X101404624Y-53082449D01*
X101365270Y-53028282D01*
X101365269Y-53028282D01*
X100732962Y-53660590D01*
X100715925Y-53597007D01*
X100650099Y-53482993D01*
X100557007Y-53389901D01*
X100442993Y-53324075D01*
X100379409Y-53307037D01*
X101049627Y-52636818D01*
X101110950Y-52603333D01*
X101137307Y-52600499D01*
X101147872Y-52600499D01*
X101207483Y-52594091D01*
X101342331Y-52543796D01*
X101457546Y-52457546D01*
X101543796Y-52342331D01*
X101594091Y-52207483D01*
X101600500Y-52147873D01*
X101600499Y-50352128D01*
X101594091Y-50292517D01*
X101584766Y-50267516D01*
X101543797Y-50157671D01*
X101543793Y-50157664D01*
X101457547Y-50042455D01*
X101457544Y-50042452D01*
X101342335Y-49956206D01*
X101342328Y-49956202D01*
X101207482Y-49905908D01*
X101207483Y-49905908D01*
X101147883Y-49899501D01*
X101147881Y-49899500D01*
X101147873Y-49899500D01*
X101147864Y-49899500D01*
X99352129Y-49899500D01*
X99352123Y-49899501D01*
X99292516Y-49905908D01*
X99157671Y-49956202D01*
X99157664Y-49956206D01*
X99042455Y-50042452D01*
X99042452Y-50042455D01*
X98956206Y-50157664D01*
X98956202Y-50157671D01*
X98905908Y-50292517D01*
X98902187Y-50327135D01*
X98899501Y-50352123D01*
X98899500Y-50352135D01*
X97100499Y-50352135D01*
X97100499Y-50352128D01*
X97094091Y-50292517D01*
X97084766Y-50267516D01*
X97043797Y-50157671D01*
X97043793Y-50157664D01*
X96957547Y-50042455D01*
X96957544Y-50042452D01*
X96842335Y-49956206D01*
X96842328Y-49956202D01*
X96707482Y-49905908D01*
X96707483Y-49905908D01*
X96647883Y-49899501D01*
X96647881Y-49899500D01*
X96647873Y-49899500D01*
X96647864Y-49899500D01*
X94852129Y-49899500D01*
X94852123Y-49899501D01*
X94792516Y-49905908D01*
X94657671Y-49956202D01*
X94657664Y-49956206D01*
X94542455Y-50042452D01*
X94542452Y-50042455D01*
X94456206Y-50157664D01*
X94456202Y-50157671D01*
X94405908Y-50292517D01*
X94402187Y-50327135D01*
X94399501Y-50352123D01*
X94399500Y-50352135D01*
X94399500Y-51878111D01*
X94379815Y-51945150D01*
X94327011Y-51990905D01*
X94257853Y-52000849D01*
X94194297Y-51971824D01*
X94187831Y-51965803D01*
X93147510Y-50925483D01*
X92956434Y-50786657D01*
X92745996Y-50679433D01*
X92521368Y-50606446D01*
X92288097Y-50569500D01*
X92288092Y-50569500D01*
X89017583Y-50569500D01*
X88781399Y-50569500D01*
X88781394Y-50569500D01*
X88548122Y-50606446D01*
X88323494Y-50679433D01*
X88113054Y-50786659D01*
X87921987Y-50925476D01*
X87921982Y-50925480D01*
X86085485Y-52761978D01*
X86085484Y-52761979D01*
X85946657Y-52953056D01*
X85857475Y-53128088D01*
X85839432Y-53163499D01*
X85766446Y-53388122D01*
X85729500Y-53621393D01*
X81634189Y-53621393D01*
X81540301Y-53499036D01*
X81540295Y-53499029D01*
X81340970Y-53299704D01*
X81328324Y-53290000D01*
X81117317Y-53128088D01*
X81117311Y-53128084D01*
X81117309Y-53128083D01*
X80873190Y-52987140D01*
X80873179Y-52987135D01*
X80612743Y-52879259D01*
X80340439Y-52806295D01*
X80060958Y-52769500D01*
X80060951Y-52769500D01*
X79779049Y-52769500D01*
X79779041Y-52769500D01*
X79499560Y-52806295D01*
X79227256Y-52879259D01*
X78966820Y-52987135D01*
X78966809Y-52987140D01*
X78722690Y-53128083D01*
X78722686Y-53128086D01*
X78722683Y-53128088D01*
X78655307Y-53179788D01*
X78499029Y-53299704D01*
X78299704Y-53499029D01*
X78192906Y-53638211D01*
X78128097Y-53722672D01*
X78128089Y-53722682D01*
X78128083Y-53722690D01*
X77987140Y-53966809D01*
X77987135Y-53966820D01*
X77879259Y-54227256D01*
X77806295Y-54499560D01*
X77769500Y-54779041D01*
X73000500Y-54779041D01*
X73000500Y-54002706D01*
X73000618Y-53997297D01*
X73000927Y-53990216D01*
X73017387Y-53613224D01*
X73018325Y-53602496D01*
X73068151Y-53224032D01*
X73070024Y-53213402D01*
X73152648Y-52840714D01*
X73155446Y-52830276D01*
X73270230Y-52466227D01*
X73273917Y-52456095D01*
X73420003Y-52103412D01*
X73424561Y-52093638D01*
X73600822Y-51755045D01*
X73606217Y-51745700D01*
X73811325Y-51423744D01*
X73817515Y-51414905D01*
X74049896Y-51112060D01*
X74056834Y-51103791D01*
X74314726Y-50822352D01*
X74322352Y-50814726D01*
X74603791Y-50556834D01*
X74612060Y-50549896D01*
X74914905Y-50317515D01*
X74923744Y-50311325D01*
X75245700Y-50106217D01*
X75255045Y-50100822D01*
X75593638Y-49924561D01*
X75603412Y-49920003D01*
X75956095Y-49773917D01*
X75966227Y-49770230D01*
X76330285Y-49655443D01*
X76340714Y-49652648D01*
X76713402Y-49570024D01*
X76724032Y-49568151D01*
X77102496Y-49518325D01*
X77113224Y-49517387D01*
X77497297Y-49500617D01*
X77502706Y-49500500D01*
X77565892Y-49500500D01*
X155934108Y-49500500D01*
X155997294Y-49500500D01*
X156002702Y-49500617D01*
G37*
%TD.AperFunction*%
%TD*%
M02*
